G04 #@! TF.GenerationSoftware,KiCad,Pcbnew,(5.1.7)-1*
G04 #@! TF.CreationDate,2020-11-02T12:32:22-08:00*
G04 #@! TF.ProjectId,PCBV2,50434256-322e-46b6-9963-61645f706362,rev?*
G04 #@! TF.SameCoordinates,Original*
G04 #@! TF.FileFunction,Profile,NP*
%FSLAX46Y46*%
G04 Gerber Fmt 4.6, Leading zero omitted, Abs format (unit mm)*
G04 Created by KiCad (PCBNEW (5.1.7)-1) date 2020-11-02 12:32:22*
%MOMM*%
%LPD*%
G01*
G04 APERTURE LIST*
G04 #@! TA.AperFunction,Profile*
%ADD10C,0.200000*%
G04 #@! TD*
G04 APERTURE END LIST*
D10*
X380206250Y-198437500D02*
X453231250Y-198348600D01*
X377825000Y-196056250D02*
X377825000Y-194468750D01*
X86607650Y-196938900D02*
X86518750Y-163512500D01*
X156368750Y-198437500D02*
X88106250Y-198437500D01*
X158750000Y-196056250D02*
X158750000Y-194468750D01*
X163512500Y-196056250D02*
X163512500Y-194468750D01*
X227012500Y-198437500D02*
X165893750Y-198437500D01*
X229393750Y-196056250D02*
X229393750Y-194468750D01*
X234156250Y-196056250D02*
X234156250Y-194468750D01*
X373062500Y-196056250D02*
X373062500Y-194468750D01*
X454729850Y-196850000D02*
X454818750Y-163512500D01*
X254000000Y-84137500D02*
X254000000Y-83343750D01*
X249237500Y-84137500D02*
X249237500Y-83343750D01*
X411162500Y-84137500D02*
X411162500Y-83343750D01*
X415925000Y-84137500D02*
X415925000Y-83343750D01*
X449262500Y-123031250D02*
X452437500Y-123031250D01*
X449262500Y-118268750D02*
X452437500Y-118268750D01*
X452437500Y-161131250D02*
X449262500Y-161131250D01*
X452437500Y-156368750D02*
X449262500Y-156368750D01*
X88900000Y-161131250D02*
X92075000Y-161131250D01*
X88900000Y-156368750D02*
X92075000Y-156368750D01*
X88900000Y-123031250D02*
X92075000Y-123031250D01*
X88900000Y-118268750D02*
X92075000Y-118268750D01*
X134937500Y-83343750D02*
X134937500Y-84137500D01*
X130175000Y-83343750D02*
X130175000Y-84137500D01*
X127793750Y-80962500D02*
X117602000Y-80949800D01*
X246856250Y-80962500D02*
X137318750Y-80962500D01*
X408781250Y-80962500D02*
X256381250Y-80962500D01*
X453231250Y-81051400D02*
X418306250Y-80962500D01*
X454818750Y-115887500D02*
X454729850Y-82550000D01*
X454818750Y-153987500D02*
X454818750Y-125412500D01*
X236537500Y-198437500D02*
X370681250Y-198437500D01*
X86518750Y-125412500D02*
X86518750Y-153987500D01*
X86518750Y-82461100D02*
X86518750Y-115887500D01*
X105376980Y-80947260D02*
X88017350Y-80962500D01*
X86518750Y-163512500D02*
G75*
G02*
X88900000Y-161131250I2381250J0D01*
G01*
X88900000Y-156368750D02*
G75*
G02*
X86518750Y-153987500I0J2381250D01*
G01*
X86518750Y-125412500D02*
G75*
G02*
X88900000Y-123031250I2381250J0D01*
G01*
X88900000Y-118268750D02*
G75*
G02*
X86518750Y-115887500I0J2381250D01*
G01*
X134937500Y-83343750D02*
G75*
G02*
X137318750Y-80962500I2381250J0D01*
G01*
X127793750Y-80962500D02*
G75*
G02*
X130175000Y-83343750I0J-2381250D01*
G01*
X246856250Y-80962500D02*
G75*
G02*
X249237500Y-83343750I0J-2381250D01*
G01*
X254000000Y-83343750D02*
G75*
G02*
X256381250Y-80962500I2381250J0D01*
G01*
X415925000Y-83343750D02*
G75*
G02*
X418306250Y-80962500I2381250J0D01*
G01*
X408781250Y-80962500D02*
G75*
G02*
X411162500Y-83343750I0J-2381250D01*
G01*
X454818750Y-115887500D02*
G75*
G02*
X452437500Y-118268750I-2381250J0D01*
G01*
X452437500Y-123031250D02*
G75*
G02*
X454818750Y-125412500I0J-2381250D01*
G01*
X454818750Y-153987500D02*
G75*
G02*
X452437500Y-156368750I-2381250J0D01*
G01*
X452437500Y-161131250D02*
G75*
G02*
X454818750Y-163512500I0J-2381250D01*
G01*
X380206250Y-198437500D02*
G75*
G02*
X377825000Y-196056250I0J2381250D01*
G01*
X373062500Y-196056250D02*
G75*
G02*
X370681250Y-198437500I-2381250J0D01*
G01*
X236537500Y-198437500D02*
G75*
G02*
X234156250Y-196056250I0J2381250D01*
G01*
X229393750Y-196056250D02*
G75*
G02*
X227012500Y-198437500I-2381250J0D01*
G01*
X165893750Y-198437500D02*
G75*
G02*
X163512500Y-196056250I0J2381250D01*
G01*
X158750000Y-196056250D02*
G75*
G02*
X156368750Y-198437500I-2381250J0D01*
G01*
X92075000Y-156368750D02*
G75*
G02*
X92075000Y-161131250I0J-2381250D01*
G01*
X92075000Y-118268750D02*
G75*
G02*
X92075000Y-123031250I0J-2381250D01*
G01*
X158750000Y-194468750D02*
G75*
G02*
X163512500Y-194468750I2381250J0D01*
G01*
X449262500Y-123031250D02*
G75*
G02*
X449262500Y-118268750I0J2381250D01*
G01*
X449262500Y-161131250D02*
G75*
G02*
X449262500Y-156368750I0J2381250D01*
G01*
X229393750Y-194468750D02*
G75*
G02*
X234156250Y-194468750I2381250J0D01*
G01*
X373062500Y-194468750D02*
G75*
G02*
X377825000Y-194468750I2381250J0D01*
G01*
X415925000Y-84137500D02*
G75*
G02*
X411162500Y-84137500I-2381250J0D01*
G01*
X254000000Y-84137500D02*
G75*
G02*
X249237500Y-84137500I-2381250J0D01*
G01*
X134937500Y-84137500D02*
G75*
G02*
X130175000Y-84137500I-2381250J0D01*
G01*
X117602000Y-80949800D02*
X116814600Y-80949800D01*
X116808250Y-78568550D02*
X116814600Y-80949800D01*
X105378250Y-78568550D02*
X105376980Y-80947260D01*
X107410250Y-76536550D02*
X114776250Y-76536550D01*
X114776250Y-76536550D02*
G75*
G02*
X116808250Y-78568550I0J-2032000D01*
G01*
X105378250Y-78568550D02*
G75*
G02*
X107410250Y-76536550I2032000J0D01*
G01*
X453231250Y-81051400D02*
G75*
G02*
X454729850Y-82550000I0J-1498600D01*
G01*
X454729850Y-196850000D02*
G75*
G02*
X453231250Y-198348600I-1498600J0D01*
G01*
X88106250Y-198437500D02*
G75*
G02*
X86607650Y-196938900I0J1498600D01*
G01*
X86518750Y-82461100D02*
G75*
G02*
X88017350Y-80962500I1498600J0D01*
G01*
M02*
