M48
; DRILL file {KiCad (5.1.7)-1} date 11/02/20 12:32:38
; FORMAT={-:-/ absolute / inch / decimal}
; #@! TF.CreationDate,2020-11-02T12:32:38-08:00
; #@! TF.GenerationSoftware,Kicad,Pcbnew,(5.1.7)-1
FMAT,2
INCH
T1C0.0157
T2C0.0236
T3C0.0394
T4C0.0409
T5C0.0579
T6C0.0256
T7C0.0689
T8C0.1200
T9C0.1570
%
G90
G05
T1
X3.54Y-5.84
X3.5944Y-5.1645
X3.6244Y-5.19
X3.6296Y-3.5
X4.07Y-3.235
X4.1591Y-3.4209
X4.255Y-3.415
X4.375Y-3.18
X4.375Y-3.57
X4.761Y-3.3107
X4.7612Y-3.27
X4.895Y-7.516
X5.825Y-7.516
X6.1952Y-7.4202
X7.845Y-7.516
X8.49Y-7.515
X9.28Y-6.9737
X9.775Y-6.555
X9.8144Y-6.555
X10.265Y-7.64
X10.305Y-7.645
X10.375Y-7.53
X10.415Y-7.535
X10.6Y-7.475
X10.755Y-6.9915
X10.79Y-7.6
X10.82Y-7.075
X10.885Y-7.075
X10.89Y-7.78
X10.9712Y-7.195
X11.01Y-7.69
X11.11Y-7.596
X11.205Y-7.08
X11.235Y-7.25
X11.2444Y-7.08
X11.5938Y-7.7812
X12.19Y-7.52
X13.415Y-7.516
X13.925Y-7.516
X14.165Y-7.516
X15.42Y-7.45
X16.335Y-7.495
X16.89Y-7.49
T3
X3.497Y-5.5314
X3.497Y-5.7086
X3.753Y-5.5314
X3.753Y-5.7086
X3.497Y-5.2464
X3.497Y-5.4236
X3.753Y-5.2464
X3.753Y-5.4236
T4
X14.2625Y-5.7
X14.3625Y-5.7
T5
X9.3812Y-5.025
X9.6312Y-4.925
X10.6937Y-6.525
X10.9437Y-6.425
X11.6312Y-5.025
X11.8812Y-4.925
X16.5062Y-6.525
X16.7562Y-6.425
X17.2562Y-3.525
X17.5062Y-3.425
X6.3812Y-5.025
X6.6312Y-4.925
X8.6312Y-3.525
X8.8812Y-3.425
X13.7875Y-5.775
X14.0375Y-5.675
X5.0687Y-5.775
X5.3187Y-5.675
X12.0062Y-4.275
X12.2562Y-4.175
X16.5062Y-5.025
X16.7562Y-4.925
X3.85Y-6.525
X4.1Y-6.425
X9.1937Y-6.525
X9.4437Y-6.425
X10.1312Y-5.025
X10.3812Y-4.925
X3.85Y-7.275
X4.1Y-7.175
X8.6312Y-5.025
X8.8812Y-4.925
X4.7875Y-7.275
X5.0375Y-7.175
X15.7562Y-3.525
X16.0062Y-3.425
X4.8812Y-5.025
X5.1312Y-4.925
X12.5687Y-3.525
X12.8187Y-3.425
X10.3187Y-5.775
X10.5687Y-5.675
X6.1937Y-6.525
X6.4437Y-6.425
X5.8187Y-5.775
X6.0687Y-5.675
X8.2562Y-4.275
X8.5062Y-4.175
X9.0062Y-4.275
X9.2562Y-4.175
X6.1937Y-3.525
X6.4437Y-3.425
X17.5062Y-5.35
X17.6062Y-5.6
X4.6937Y-3.525
X4.9437Y-3.425
X9.9437Y-6.525
X10.1937Y-6.425
X12.2875Y-7.275
X12.5375Y-7.175
X11.4437Y-6.525
X11.6937Y-6.425
X14.2562Y-7.275
X14.5062Y-7.175
X5.725Y-7.275
X5.975Y-7.175
X16.5062Y-3.525
X16.7562Y-3.425
X6.0062Y-4.275
X6.2562Y-4.175
X7.3187Y-5.775
X7.5687Y-5.675
X15.0062Y-5.775
X15.2562Y-5.675
X5.4437Y-6.525
X5.6937Y-6.425
X4.0375Y-5.775
X4.2875Y-5.675
X14.0687Y-5.025
X14.3187Y-4.925
X6.9437Y-3.525
X7.1937Y-3.425
X13.3187Y-5.775
X13.5687Y-5.675
X3.7563Y-3.525
X4.0062Y-3.425
X3.9438Y-5.025
X4.1937Y-4.925
X8.35Y-7.275
X8.6Y-7.175
X14.1625Y-5.4
X14.4125Y-5.3
X16.5062Y-7.275
X16.7562Y-7.175
X12.1937Y-6.525
X12.4437Y-6.425
X11.0687Y-3.525
X11.3187Y-3.425
X13.5062Y-7.275
X13.7562Y-7.175
X11.35Y-7.275
X11.6Y-7.175
X7.8812Y-3.525
X8.1312Y-3.425
X4.5062Y-4.275
X4.7562Y-4.175
X8.8187Y-5.775
X9.0687Y-5.675
X16.5062Y-5.775
X16.7562Y-5.675
X13.8812Y-4.275
X14.1312Y-4.175
X6.5687Y-5.775
X6.8187Y-5.675
X12.7562Y-4.275
X13.0062Y-4.175
X15.7562Y-5.025
X16.0062Y-4.925
X4.6937Y-6.525
X4.9437Y-6.425
X6.9437Y-6.525
X7.1937Y-6.425
X8.5375Y-7.275
X8.7875Y-7.175
X7.1312Y-5.025
X7.3812Y-4.925
X13.225Y-6.525
X13.475Y-6.425
X6.7562Y-4.275
X7.0062Y-4.175
X15.7562Y-7.275
X16.0062Y-7.175
X7.6937Y-6.525
X7.9437Y-6.425
X10.1312Y-3.525
X10.3812Y-3.425
X13.3187Y-3.525
X13.5687Y-3.425
X4.225Y-6.525
X4.475Y-6.425
X9.5687Y-5.775
X9.8187Y-5.675
X16.5062Y-4.275
X16.7562Y-4.175
X8.0687Y-5.775
X8.3187Y-5.675
X15.7562Y-4.275
X16.0062Y-4.175
X10.5062Y-4.275
X10.7562Y-4.175
X10.8812Y-5.025
X11.1312Y-4.925
X8.4437Y-6.525
X8.6937Y-6.425
X7.0375Y-7.275
X7.2875Y-7.175
X7.8812Y-5.025
X8.1312Y-4.925
X15.7562Y-6.525
X16.0062Y-6.425
X11.8187Y-3.525
X12.0687Y-3.425
X12.3812Y-5.025
X12.6312Y-4.925
X15.0062Y-3.525
X15.2562Y-3.425
X5.2562Y-4.275
X5.5062Y-4.175
X11.8187Y-5.775
X12.0687Y-5.675
X11.0687Y-5.775
X11.3187Y-5.675
X11.2562Y-4.275
X11.5062Y-4.175
X15.0062Y-4.275
X15.2562Y-4.175
X5.4437Y-3.525
X5.6937Y-3.425
X15.0062Y-5.025
X15.2562Y-4.925
X3.85Y-5.775
X4.1Y-5.675
X15.0062Y-7.275
X15.2562Y-7.175
X14.2562Y-6.525
X14.5062Y-6.425
X9.8511Y-7.275
X10.1011Y-7.175
X5.6312Y-5.025
X5.8812Y-4.925
X15.0062Y-6.525
X15.2562Y-6.425
X14.2562Y-3.525
X14.5062Y-3.425
X17.5062Y-6.85
X17.6062Y-7.1
X3.7563Y-4.275
X4.0062Y-4.175
X9.3812Y-3.525
X9.6312Y-3.425
X15.7562Y-5.775
X16.0062Y-5.675
X12.5687Y-5.775
X12.8187Y-5.675
X9.7562Y-4.275
X10.0062Y-4.175
X17.2562Y-4.275
X17.5062Y-4.175
X7.5062Y-4.275
X7.7562Y-4.175
X13.1312Y-5.025
X13.3812Y-4.925
T6
X4.2612Y-3.2148
X4.4888Y-3.2148
T7
X6.1437Y-6.625
X6.5438Y-6.625
X5.7687Y-5.875
X6.1688Y-5.875
X8.2062Y-4.375
X8.6062Y-4.375
X8.9562Y-4.375
X9.3562Y-4.375
X6.1437Y-3.625
X6.5438Y-3.625
X17.4062Y-5.3
X17.4062Y-5.7
X4.6437Y-3.625
X5.0438Y-3.625
X9.8937Y-6.625
X10.2937Y-6.625
X12.2375Y-7.375
X12.6375Y-7.375
X11.3937Y-6.625
X11.7937Y-6.625
X14.2062Y-7.375
X14.6062Y-7.375
X5.675Y-7.375
X6.075Y-7.375
X16.4563Y-3.625
X16.8562Y-3.625
X5.9562Y-4.375
X6.3563Y-4.375
X7.2687Y-5.875
X7.6688Y-5.875
X14.9562Y-5.875
X15.3562Y-5.875
X5.3937Y-6.625
X5.7938Y-6.625
X3.9875Y-5.875
X4.3875Y-5.875
X14.0187Y-5.125
X14.4187Y-5.125
X6.8937Y-3.625
X7.2938Y-3.625
X13.2687Y-5.875
X13.6687Y-5.875
X3.7062Y-3.625
X4.1063Y-3.625
X3.8937Y-5.125
X4.2938Y-5.125
X8.3Y-7.375
X8.7Y-7.375
X14.1125Y-5.5
X14.5125Y-5.5
X16.4563Y-7.375
X16.8562Y-7.375
X12.1437Y-6.625
X12.5437Y-6.625
X11.0187Y-3.625
X11.4187Y-3.625
X13.4562Y-7.375
X13.8562Y-7.375
X11.3Y-7.375
X11.7Y-7.375
X7.8312Y-3.625
X8.2312Y-3.625
X4.4562Y-4.375
X4.8563Y-4.375
X8.7687Y-5.875
X9.1687Y-5.875
X16.4563Y-5.875
X16.8562Y-5.875
X13.8312Y-4.375
X14.2312Y-4.375
X6.5187Y-5.875
X6.9188Y-5.875
X12.7062Y-4.375
X13.1062Y-4.375
X15.7062Y-5.125
X16.1062Y-5.125
X4.6437Y-6.625
X5.0438Y-6.625
X6.8937Y-6.625
X7.2938Y-6.625
X8.4875Y-7.375
X8.8875Y-7.375
X7.0812Y-5.125
X7.4813Y-5.125
X13.175Y-6.625
X13.575Y-6.625
X6.7062Y-4.375
X7.1063Y-4.375
X15.7062Y-7.375
X16.1062Y-7.375
X7.6437Y-6.625
X8.0437Y-6.625
X10.0812Y-3.625
X10.4812Y-3.625
X13.2687Y-3.625
X13.6687Y-3.625
X4.175Y-6.625
X4.575Y-6.625
X9.5187Y-5.875
X9.9187Y-5.875
X16.4563Y-4.375
X16.8562Y-4.375
X8.0187Y-5.875
X8.4187Y-5.875
X15.7062Y-4.375
X16.1062Y-4.375
X10.4562Y-4.375
X10.8562Y-4.375
X10.8312Y-5.125
X11.2312Y-5.125
X8.3937Y-6.625
X8.7937Y-6.625
X6.9875Y-7.375
X7.3875Y-7.375
X7.8312Y-5.125
X8.2312Y-5.125
X15.7062Y-6.625
X16.1062Y-6.625
X11.7687Y-3.625
X12.1687Y-3.625
X12.3312Y-5.125
X12.7312Y-5.125
X14.9562Y-3.625
X15.3562Y-3.625
X5.2062Y-4.375
X5.6063Y-4.375
X11.7687Y-5.875
X12.1687Y-5.875
X11.0187Y-5.875
X11.4187Y-5.875
X11.2062Y-4.375
X11.6062Y-4.375
X14.9562Y-4.375
X15.3562Y-4.375
X5.3937Y-3.625
X5.7938Y-3.625
X14.9562Y-5.125
X15.3562Y-5.125
X3.8Y-5.875
X4.2Y-5.875
X14.9562Y-7.375
X15.3562Y-7.375
X14.2062Y-6.625
X14.6062Y-6.625
X9.8011Y-7.375
X10.2011Y-7.375
X5.5812Y-5.125
X5.9813Y-5.125
X14.9562Y-6.625
X15.3562Y-6.625
X14.2062Y-3.625
X14.6062Y-3.625
X17.4062Y-6.8
X17.4062Y-7.2
X3.7062Y-4.375
X4.1063Y-4.375
X9.3312Y-3.625
X9.7312Y-3.625
X15.7062Y-5.875
X16.1062Y-5.875
X12.5187Y-5.875
X12.9187Y-5.875
X9.7062Y-4.375
X10.1062Y-4.375
X17.2063Y-4.375
X17.6062Y-4.375
X7.4562Y-4.375
X7.8563Y-4.375
X13.0812Y-5.125
X13.4812Y-5.125
X9.3312Y-5.125
X9.7312Y-5.125
X10.6437Y-6.625
X11.0437Y-6.625
X11.5812Y-5.125
X11.9812Y-5.125
X16.4563Y-6.625
X16.8562Y-6.625
X17.2063Y-3.625
X17.6062Y-3.625
X6.3312Y-5.125
X6.7313Y-5.125
X8.5812Y-3.625
X8.9812Y-3.625
X13.7375Y-5.875
X14.1375Y-5.875
X5.0187Y-5.875
X5.4188Y-5.875
X11.9562Y-4.375
X12.3562Y-4.375
X16.4563Y-5.125
X16.8562Y-5.125
X3.8Y-6.625
X4.2Y-6.625
X9.1437Y-6.625
X9.5437Y-6.625
X10.0812Y-5.125
X10.4812Y-5.125
X3.8Y-7.375
X4.2Y-7.375
X8.5812Y-5.125
X8.9812Y-5.125
X4.7375Y-7.375
X5.1375Y-7.375
X15.7062Y-3.625
X16.1062Y-3.625
X4.8312Y-5.125
X5.2313Y-5.125
X12.5187Y-3.625
X12.9187Y-3.625
X10.2687Y-5.875
X10.6687Y-5.875
T8
X9.5324Y-7.1
X10.4699Y-7.1
X17.6812Y-6.5312
X17.6812Y-7.4688
X13.4688Y-5.6
X14.4062Y-5.6
X17.6812Y-5.0312
X17.6812Y-5.9688
X14.5875Y-5.03
X14.5875Y-5.97
X13.5625Y-4.1
X14.5Y-4.1
X6.719Y-7.1
X10.656Y-7.1
X3.9062Y-6.35
X4.8438Y-6.35
X6.7188Y-7.1
X7.6562Y-7.1
T9
X12.7188Y-5.875
X9.9062Y-4.375
X17.4062Y-4.375
X7.6562Y-4.375
X13.2812Y-5.125
X9.5312Y-5.125
X10.8438Y-6.625
X11.7812Y-5.125
X16.6562Y-6.625
X17.4062Y-3.625
X6.5312Y-5.125
X8.7812Y-3.625
X13.4688Y-6.2
X13.9375Y-5.875
X14.4062Y-6.2
X5.2188Y-5.875
X12.1562Y-4.375
X16.6562Y-5.125
X4.0Y-6.625
X9.3438Y-6.625
X10.2812Y-5.125
X4.0Y-7.375
X8.7812Y-5.125
X4.9375Y-7.375
X15.9062Y-3.625
X5.0312Y-5.125
X12.7188Y-3.625
X10.4688Y-5.875
X6.3438Y-6.625
X5.9688Y-5.875
X8.4062Y-4.375
X9.1562Y-4.375
X6.3438Y-3.625
X17.0813Y-5.0312
X17.0813Y-5.9688
X17.4062Y-5.5
X4.8438Y-3.625
X10.0938Y-6.625
X12.4375Y-7.375
X11.5938Y-6.625
X14.4062Y-7.375
X5.875Y-7.375
X16.6562Y-3.625
X6.1562Y-4.375
X7.4688Y-5.875
X15.1562Y-5.875
X5.5938Y-6.625
X4.1875Y-5.875
X14.2188Y-5.125
X7.0938Y-3.625
X13.4688Y-5.875
X3.9062Y-3.625
X4.0938Y-5.125
X8.5Y-7.375
X13.9875Y-5.03
X13.9875Y-5.97
X14.3125Y-5.5
X16.6562Y-7.375
X12.3438Y-6.625
X11.2188Y-3.625
X13.6562Y-7.375
X11.5Y-7.375
X8.0312Y-3.625
X4.6562Y-4.375
X8.9688Y-5.875
X16.6562Y-5.875
X13.5625Y-4.7
X14.0312Y-4.375
X14.5Y-4.7
X6.7188Y-5.875
X12.9062Y-4.375
X15.9062Y-5.125
X4.8438Y-6.625
X7.0938Y-6.625
X6.719Y-7.7
X8.6875Y-7.375
X10.656Y-7.7
X7.2812Y-5.125
X13.375Y-6.625
X6.9062Y-4.375
X15.9062Y-7.375
X7.8438Y-6.625
X10.2812Y-3.625
X13.4688Y-3.625
X3.9062Y-6.95
X4.375Y-6.625
X4.8438Y-6.95
X9.7188Y-5.875
X16.6562Y-4.375
X8.2188Y-5.875
X15.9062Y-4.375
X10.6562Y-4.375
X11.0312Y-5.125
X8.5938Y-6.625
X6.7188Y-7.7
X7.1875Y-7.375
X7.6562Y-7.7
X8.0312Y-5.125
X15.9062Y-6.625
X11.9688Y-3.625
X12.5312Y-5.125
X15.1562Y-3.625
X5.4062Y-4.375
X11.9688Y-5.875
X11.2188Y-5.875
X11.4062Y-4.375
X15.1562Y-4.375
X5.5938Y-3.625
X15.1562Y-5.125
X4.0Y-5.875
X15.1562Y-7.375
X14.4062Y-6.625
X9.5324Y-7.7
X10.0011Y-7.375
X10.4699Y-7.7
X5.7812Y-5.125
X15.1562Y-6.625
X14.4062Y-3.625
X17.0813Y-6.5312
X17.0813Y-7.4688
X17.4062Y-7.0
X3.9062Y-4.375
X9.5312Y-3.625
X15.9062Y-5.875
T2
G00X4.2049Y-3.0593
M15
G01X4.2049Y-3.0829
M16
G05
G00X4.2049Y-3.214
M15
G01X4.2049Y-3.2573
M16
G05
G00X4.5451Y-3.0593
M15
G01X4.5451Y-3.0829
M16
G05
G00X4.5451Y-3.214
M15
G01X4.5451Y-3.2573
M16
G05
T0
M30
