G04 #@! TF.GenerationSoftware,KiCad,Pcbnew,(5.1.7)-1*
G04 #@! TF.CreationDate,2020-11-02T12:32:22-08:00*
G04 #@! TF.ProjectId,PCBV2,50434256-322e-46b6-9963-61645f706362,rev?*
G04 #@! TF.SameCoordinates,Original*
G04 #@! TF.FileFunction,Copper,L1,Top*
G04 #@! TF.FilePolarity,Positive*
%FSLAX46Y46*%
G04 Gerber Fmt 4.6, Leading zero omitted, Abs format (unit mm)*
G04 Created by KiCad (PCBNEW (5.1.7)-1) date 2020-11-02 12:32:22*
%MOMM*%
%LPD*%
G01*
G04 APERTURE LIST*
G04 #@! TA.AperFunction,ComponentPad*
%ADD10R,1.905000X1.905000*%
G04 #@! TD*
G04 #@! TA.AperFunction,ComponentPad*
%ADD11C,1.905000*%
G04 #@! TD*
G04 #@! TA.AperFunction,ComponentPad*
%ADD12C,2.250000*%
G04 #@! TD*
G04 #@! TA.AperFunction,ComponentPad*
%ADD13O,1.000000X2.100000*%
G04 #@! TD*
G04 #@! TA.AperFunction,ComponentPad*
%ADD14O,1.000000X1.600000*%
G04 #@! TD*
G04 #@! TA.AperFunction,ComponentPad*
%ADD15C,1.800000*%
G04 #@! TD*
G04 #@! TA.AperFunction,ViaPad*
%ADD16C,0.800000*%
G04 #@! TD*
G04 #@! TA.AperFunction,Conductor*
%ADD17C,0.304800*%
G04 #@! TD*
G04 #@! TA.AperFunction,Conductor*
%ADD18C,0.254000*%
G04 #@! TD*
G04 #@! TA.AperFunction,Conductor*
%ADD19C,0.100000*%
G04 #@! TD*
G04 APERTURE END LIST*
D10*
X364807500Y-144780000D03*
D11*
X362267500Y-144780000D03*
D12*
X359727500Y-137160000D03*
X366077500Y-134620000D03*
X256568575Y-182245000D03*
X250218575Y-184785000D03*
X185102500Y-182245000D03*
X178752500Y-184785000D03*
X223202500Y-182245000D03*
X216852500Y-184785000D03*
X104140000Y-163195000D03*
X97790000Y-165735000D03*
X125571250Y-163195000D03*
X119221250Y-165735000D03*
X344646250Y-144145000D03*
X338296250Y-146685000D03*
X104140000Y-144145000D03*
X97790000Y-146685000D03*
X101758750Y-86995000D03*
X95408750Y-89535000D03*
X125571250Y-86995000D03*
X119221250Y-89535000D03*
X447198750Y-142240000D03*
X444658750Y-135890000D03*
X106521250Y-125095000D03*
X100171250Y-127635000D03*
X339883750Y-125095000D03*
X333533750Y-127635000D03*
X320833750Y-125095000D03*
X314483750Y-127635000D03*
X301783750Y-125095000D03*
X295433750Y-127635000D03*
X282733750Y-125095000D03*
X276383750Y-127635000D03*
X263683750Y-125095000D03*
X257333750Y-127635000D03*
X244633750Y-125095000D03*
X238283750Y-127635000D03*
X225583750Y-125095000D03*
X219233750Y-127635000D03*
X206533750Y-125095000D03*
X200183750Y-127635000D03*
X187483750Y-125095000D03*
X181133750Y-127635000D03*
X168433750Y-125095000D03*
X162083750Y-127635000D03*
X149383750Y-125095000D03*
X143033750Y-127635000D03*
X130333750Y-125095000D03*
X123983750Y-127635000D03*
X447198750Y-180340000D03*
X444658750Y-173990000D03*
X425608750Y-182245000D03*
X419258750Y-184785000D03*
X406558750Y-182245000D03*
X400208750Y-184785000D03*
X387508750Y-182245000D03*
X381158750Y-184785000D03*
X368458750Y-182245000D03*
X362108750Y-184785000D03*
X349408750Y-182245000D03*
X343058750Y-184785000D03*
X318452500Y-182245000D03*
X312102500Y-184785000D03*
X294640000Y-182245000D03*
X288290000Y-184785000D03*
X218440000Y-182245000D03*
X212090000Y-184785000D03*
X151765000Y-182245000D03*
X145415000Y-184785000D03*
X127952500Y-182245000D03*
X121602500Y-184785000D03*
X104140000Y-182245000D03*
X97790000Y-184785000D03*
X425608750Y-163195000D03*
X419258750Y-165735000D03*
X406558750Y-163195000D03*
X400208750Y-165735000D03*
X387508750Y-163195000D03*
X381158750Y-165735000D03*
X368458750Y-163195000D03*
X362108750Y-165735000D03*
X342265000Y-163195000D03*
X335915000Y-165735000D03*
X316071250Y-163195000D03*
X309721250Y-165735000D03*
X297021250Y-163195000D03*
X290671250Y-165735000D03*
X277971250Y-163195000D03*
X271621250Y-165735000D03*
X258921250Y-163195000D03*
X252571250Y-165735000D03*
X239871250Y-163195000D03*
X233521250Y-165735000D03*
X220821250Y-163195000D03*
X214471250Y-165735000D03*
X201771250Y-163195000D03*
X195421250Y-165735000D03*
X182721250Y-163195000D03*
X176371250Y-165735000D03*
X163671250Y-163195000D03*
X157321250Y-165735000D03*
X144621250Y-163195000D03*
X138271250Y-165735000D03*
X113665000Y-163195000D03*
X107315000Y-165735000D03*
X425608750Y-144145000D03*
X419258750Y-146685000D03*
X406558750Y-144145000D03*
X400208750Y-146685000D03*
X387508750Y-144145000D03*
X381158750Y-146685000D03*
X356552500Y-144145000D03*
X350202500Y-146685000D03*
X325596250Y-144145000D03*
X319246250Y-146685000D03*
X306546250Y-144145000D03*
X300196250Y-146685000D03*
X287496250Y-144145000D03*
X281146250Y-146685000D03*
X268446250Y-144145000D03*
X262096250Y-146685000D03*
X249396250Y-144145000D03*
X243046250Y-146685000D03*
X230346250Y-144145000D03*
X223996250Y-146685000D03*
X211296250Y-144145000D03*
X204946250Y-146685000D03*
X192246250Y-144145000D03*
X185896250Y-146685000D03*
X173196250Y-144145000D03*
X166846250Y-146685000D03*
X154146250Y-144145000D03*
X147796250Y-146685000D03*
X135096250Y-144145000D03*
X128746250Y-146685000D03*
X108902500Y-144145000D03*
X102552500Y-146685000D03*
X425608750Y-125095000D03*
X419258750Y-127635000D03*
X406558750Y-125095000D03*
X400208750Y-127635000D03*
X387508750Y-125095000D03*
X381158750Y-127635000D03*
X363696250Y-125095000D03*
X357346250Y-127635000D03*
X444658750Y-106045000D03*
X438308750Y-108585000D03*
X425608750Y-106045000D03*
X419258750Y-108585000D03*
X406558750Y-106045000D03*
X400208750Y-108585000D03*
X387508750Y-106045000D03*
X381158750Y-108585000D03*
X358933750Y-106045000D03*
X352583750Y-108585000D03*
X330358750Y-106045000D03*
X324008750Y-108585000D03*
X311308750Y-106045000D03*
X304958750Y-108585000D03*
X292258750Y-106045000D03*
X285908750Y-108585000D03*
X273208750Y-106045000D03*
X266858750Y-108585000D03*
X254158750Y-106045000D03*
X247808750Y-108585000D03*
X235108750Y-106045000D03*
X228758750Y-108585000D03*
X216058750Y-106045000D03*
X209708750Y-108585000D03*
X197008750Y-106045000D03*
X190658750Y-108585000D03*
X177958750Y-106045000D03*
X171608750Y-108585000D03*
X158908750Y-106045000D03*
X152558750Y-108585000D03*
X139858750Y-106045000D03*
X133508750Y-108585000D03*
X120808750Y-106045000D03*
X114458750Y-108585000D03*
X101758750Y-106045000D03*
X95408750Y-108585000D03*
X444658750Y-86995000D03*
X438308750Y-89535000D03*
X425608750Y-86995000D03*
X419258750Y-89535000D03*
X406558750Y-86995000D03*
X400208750Y-89535000D03*
X387508750Y-86995000D03*
X381158750Y-89535000D03*
X368458750Y-86995000D03*
X362108750Y-89535000D03*
X344646250Y-86995000D03*
X338296250Y-89535000D03*
X325596250Y-86995000D03*
X319246250Y-89535000D03*
X306546250Y-86995000D03*
X300196250Y-89535000D03*
X287496250Y-86995000D03*
X281146250Y-89535000D03*
X263683750Y-86995000D03*
X257333750Y-89535000D03*
X244633750Y-86995000D03*
X238283750Y-89535000D03*
X225583750Y-86995000D03*
X219233750Y-89535000D03*
X206533750Y-86995000D03*
X200183750Y-89535000D03*
X182721250Y-86995000D03*
X176371250Y-89535000D03*
X163671250Y-86995000D03*
X157321250Y-89535000D03*
X144621250Y-86995000D03*
X138271250Y-89535000D03*
D13*
X106805000Y-82186250D03*
X115445000Y-82186250D03*
D14*
X106805000Y-78006250D03*
X115445000Y-78006250D03*
D15*
X88825000Y-137759000D03*
X95325000Y-133259000D03*
X88825000Y-133259000D03*
X95325000Y-137759000D03*
X88825000Y-144998000D03*
X95325000Y-140498000D03*
X88825000Y-140498000D03*
X95325000Y-144998000D03*
D16*
X92059003Y-131826000D03*
X260731000Y-194056000D03*
X263525000Y-191262000D03*
X274828000Y-179705000D03*
X92192400Y-88900000D03*
X111125000Y-90678000D03*
X105639972Y-86892028D03*
X111125000Y-80772000D03*
X108077000Y-86741000D03*
X124333000Y-190906000D03*
X147955000Y-190906000D03*
X157358567Y-188473567D03*
X199263000Y-190906000D03*
X215646000Y-190881000D03*
X235712000Y-177131000D03*
X273177000Y-177585010D03*
X309626000Y-191008000D03*
X340741000Y-190906000D03*
X353695000Y-190906000D03*
X359791000Y-190906000D03*
X391668000Y-189230000D03*
X414909000Y-190373000D03*
X429006000Y-190246000D03*
X294481250Y-197643750D03*
X276606000Y-197612000D03*
X278669750Y-182753000D03*
X276479000Y-179705000D03*
X89916000Y-148336000D03*
X261747000Y-194183000D03*
X264541000Y-191389000D03*
X91297515Y-131177819D03*
X285369000Y-184150000D03*
X269240000Y-189865000D03*
X279654000Y-195326002D03*
X103378000Y-82169000D03*
X248285000Y-166497000D03*
X274066000Y-193040000D03*
X282194000Y-192937507D03*
X249285003Y-166497000D03*
X285607003Y-179832000D03*
X120935750Y-83058000D03*
X284607000Y-179832000D03*
X120929435Y-84092449D03*
D17*
X274828000Y-179959000D02*
X274828000Y-179705000D01*
X263525000Y-191262000D02*
X274828000Y-179959000D01*
X108077000Y-86741000D02*
X109601000Y-85217000D01*
X109601000Y-82296000D02*
X111125000Y-80772000D01*
X109601000Y-85217000D02*
X109601000Y-82296000D01*
X251079000Y-194056000D02*
X260731000Y-194056000D01*
X217170000Y-190500000D02*
X247523000Y-190500000D01*
X216535000Y-191135000D02*
X217170000Y-190500000D01*
X247523000Y-190500000D02*
X251079000Y-194056000D01*
X216505554Y-191135000D02*
X216535000Y-191135000D01*
X159385000Y-190500000D02*
X163449000Y-190500000D01*
X215982153Y-191658401D02*
X216505554Y-191135000D01*
X164211000Y-191262000D02*
X180090446Y-191262000D01*
X94917991Y-188516043D02*
X98060349Y-191658401D01*
X98060349Y-191658401D02*
X158226599Y-191658401D01*
X158226599Y-191658401D02*
X159385000Y-190500000D01*
X163449000Y-190500000D02*
X164211000Y-191262000D01*
X180090446Y-191262000D02*
X180486847Y-191658401D01*
X180486847Y-191658401D02*
X215982153Y-191658401D01*
X92059003Y-153209747D02*
X96043750Y-157194494D01*
X92059003Y-131826000D02*
X92059003Y-153209747D01*
X96043750Y-157194494D02*
X96043750Y-185073482D01*
X96043750Y-185073482D02*
X94917991Y-186199241D01*
X94917991Y-186199241D02*
X94917991Y-188516043D01*
D18*
X95408750Y-91125990D02*
X95408750Y-108585000D01*
X95408750Y-89535000D02*
X95408750Y-91125990D01*
X95408750Y-122872500D02*
X100171250Y-127635000D01*
X95408750Y-108585000D02*
X95408750Y-122872500D01*
X99279099Y-150333099D02*
X102552500Y-153606500D01*
X99279099Y-148110967D02*
X99279099Y-150333099D01*
X100171250Y-147218816D02*
X99279099Y-148110967D01*
X97790000Y-146685000D02*
X100139500Y-146685000D01*
X100139500Y-146685000D02*
X100171250Y-146716750D01*
X100171250Y-146716750D02*
X100171250Y-147218816D01*
X100171250Y-127635000D02*
X100171250Y-146716750D01*
X100203000Y-146685000D02*
X100171250Y-146716750D01*
X102552500Y-146685000D02*
X100203000Y-146685000D01*
X99695000Y-165735000D02*
X102552500Y-162877500D01*
X97790000Y-165735000D02*
X99695000Y-165735000D01*
X102552500Y-153606500D02*
X102552500Y-162877500D01*
X96897849Y-183892849D02*
X97790000Y-184785000D01*
X96897849Y-169676113D02*
X96897849Y-183892849D01*
X97790000Y-168783962D02*
X96897849Y-169676113D01*
X97790000Y-165735000D02*
X97790000Y-168783962D01*
X115583749Y-107460001D02*
X114458750Y-108585000D01*
X119153251Y-103890499D02*
X115583749Y-107460001D01*
X119153251Y-91193989D02*
X119153251Y-103890499D01*
X114458750Y-108585000D02*
X114458750Y-158591250D01*
X121602500Y-184785000D02*
X121602500Y-188175500D01*
X121602500Y-188175500D02*
X124333000Y-190906000D01*
X119221250Y-91125990D02*
X119153251Y-91193989D01*
X119221250Y-89535000D02*
X119221250Y-91125990D01*
X115117001Y-167584037D02*
X114458750Y-168242288D01*
X114458750Y-161839788D02*
X115117001Y-162498039D01*
X114458750Y-177641250D02*
X121602500Y-184785000D01*
X114458750Y-168242288D02*
X114458750Y-177641250D01*
X114458750Y-158591250D02*
X114458750Y-161839788D01*
X114981502Y-165735000D02*
X115117001Y-165870499D01*
X107315000Y-165735000D02*
X114981502Y-165735000D01*
X115117001Y-165870499D02*
X115117001Y-167584037D01*
X115117001Y-162498039D02*
X115117001Y-165870499D01*
X115252500Y-165735000D02*
X115117001Y-165870499D01*
X119221250Y-165735000D02*
X115252500Y-165735000D01*
X134633749Y-107460001D02*
X133508750Y-108585000D01*
X138203251Y-103890499D02*
X134633749Y-107460001D01*
X138203251Y-91193989D02*
X138203251Y-103890499D01*
X138271250Y-91125990D02*
X138203251Y-91193989D01*
X138271250Y-89535000D02*
X138271250Y-91125990D01*
X133508750Y-118110000D02*
X123983750Y-127635000D01*
X133508750Y-108585000D02*
X133508750Y-118110000D01*
X123983750Y-141922500D02*
X128746250Y-146685000D01*
X123983750Y-127635000D02*
X123983750Y-141922500D01*
X128746250Y-156210000D02*
X138271250Y-165735000D01*
X128746250Y-146685000D02*
X128746250Y-156210000D01*
X138271250Y-177641250D02*
X145415000Y-184785000D01*
X138271250Y-165735000D02*
X138271250Y-177641250D01*
X145415000Y-184785000D02*
X145415000Y-188366000D01*
X145415000Y-188366000D02*
X147955000Y-190906000D01*
X153683749Y-107460001D02*
X152558750Y-108585000D01*
X157253251Y-103890499D02*
X153683749Y-107460001D01*
X157253251Y-91193989D02*
X157253251Y-103890499D01*
X157321250Y-91125990D02*
X157253251Y-91193989D01*
X157321250Y-89535000D02*
X157321250Y-91125990D01*
X144158749Y-126510001D02*
X143033750Y-127635000D01*
X152490751Y-118177999D02*
X144158749Y-126510001D01*
X152490751Y-110243989D02*
X152490751Y-118177999D01*
X152558750Y-110175990D02*
X152490751Y-110243989D01*
X152558750Y-108585000D02*
X152558750Y-110175990D01*
X143033750Y-141922500D02*
X147796250Y-146685000D01*
X143033750Y-127635000D02*
X143033750Y-141922500D01*
X147796250Y-156210000D02*
X157321250Y-165735000D01*
X147796250Y-146685000D02*
X147796250Y-156210000D01*
X157321250Y-165735000D02*
X157321250Y-185667250D01*
X157321250Y-185667250D02*
X157321250Y-188436250D01*
X157321250Y-188436250D02*
X157358567Y-188473567D01*
X176371250Y-103822500D02*
X171608750Y-108585000D01*
X176371250Y-89535000D02*
X176371250Y-103822500D01*
X171608750Y-118110000D02*
X162083750Y-127635000D01*
X171608750Y-108585000D02*
X171608750Y-118110000D01*
X162083750Y-141922500D02*
X166846250Y-146685000D01*
X162083750Y-127635000D02*
X162083750Y-141922500D01*
X166846250Y-156210000D02*
X176371250Y-165735000D01*
X166846250Y-146685000D02*
X166846250Y-156210000D01*
X176371250Y-182403750D02*
X178752500Y-184785000D01*
X176371250Y-165735000D02*
X176371250Y-182403750D01*
X190658750Y-118110000D02*
X181133750Y-127635000D01*
X190658750Y-108585000D02*
X190658750Y-118110000D01*
X181133750Y-141922500D02*
X185896250Y-146685000D01*
X181133750Y-127635000D02*
X181133750Y-141922500D01*
X185896250Y-156210000D02*
X195421250Y-165735000D01*
X185896250Y-146685000D02*
X185896250Y-156210000D01*
X196546249Y-188189249D02*
X199263000Y-190906000D01*
X195421250Y-165735000D02*
X196546249Y-166859999D01*
X196546249Y-166859999D02*
X196546249Y-188189249D01*
X200183750Y-99060000D02*
X209708750Y-108585000D01*
X200183750Y-89535000D02*
X200183750Y-99060000D01*
X201308749Y-126510001D02*
X200183750Y-127635000D01*
X209640751Y-118177999D02*
X201308749Y-126510001D01*
X209640751Y-110243989D02*
X209640751Y-118177999D01*
X209708750Y-110175990D02*
X209640751Y-110243989D01*
X209708750Y-108585000D02*
X209708750Y-110175990D01*
X200183750Y-141922500D02*
X204946250Y-146685000D01*
X200183750Y-127635000D02*
X200183750Y-141922500D01*
X204946250Y-156210000D02*
X214471250Y-165735000D01*
X204946250Y-146685000D02*
X204946250Y-156210000D01*
X213579099Y-185962901D02*
X213579099Y-188814099D01*
X214471250Y-185070750D02*
X213579099Y-185962901D01*
X213579099Y-188814099D02*
X215646000Y-190881000D01*
X214439500Y-184785000D02*
X214471250Y-184753250D01*
X212090000Y-184785000D02*
X214439500Y-184785000D01*
X214471250Y-184753250D02*
X214471250Y-185070750D01*
X214471250Y-165735000D02*
X214471250Y-184753250D01*
X214503000Y-184785000D02*
X214471250Y-184753250D01*
X216852500Y-184785000D02*
X214503000Y-184785000D01*
X219233750Y-99060000D02*
X228758750Y-108585000D01*
X219233750Y-89535000D02*
X219233750Y-99060000D01*
X220358749Y-126510001D02*
X219233750Y-127635000D01*
X228690751Y-118177999D02*
X220358749Y-126510001D01*
X228690751Y-110243989D02*
X228690751Y-118177999D01*
X228758750Y-110175990D02*
X228690751Y-110243989D01*
X228758750Y-108585000D02*
X228758750Y-110175990D01*
X219233750Y-141922500D02*
X223996250Y-146685000D01*
X219233750Y-127635000D02*
X219233750Y-141922500D01*
X223996250Y-156210000D02*
X233521250Y-165735000D01*
X223996250Y-146685000D02*
X223996250Y-156210000D01*
X233521250Y-174940250D02*
X235712000Y-177131000D01*
X233521250Y-165735000D02*
X233521250Y-174940250D01*
X238283750Y-99060000D02*
X247808750Y-108585000D01*
X238283750Y-89535000D02*
X238283750Y-99060000D01*
X239408749Y-126510001D02*
X238283750Y-127635000D01*
X247740751Y-118177999D02*
X239408749Y-126510001D01*
X247740751Y-110243989D02*
X247740751Y-118177999D01*
X247808750Y-110175990D02*
X247740751Y-110243989D01*
X247808750Y-108585000D02*
X247808750Y-110175990D01*
X238283750Y-141922500D02*
X243046250Y-146685000D01*
X238283750Y-127635000D02*
X238283750Y-141922500D01*
X243046250Y-156210000D02*
X252571250Y-165735000D01*
X243046250Y-146685000D02*
X243046250Y-156210000D01*
X252571250Y-182432325D02*
X250218575Y-184785000D01*
X252571250Y-165735000D02*
X252571250Y-182432325D01*
X257333750Y-99060000D02*
X266858750Y-108585000D01*
X257333750Y-89535000D02*
X257333750Y-99060000D01*
X258458749Y-126510001D02*
X257333750Y-127635000D01*
X266790751Y-118177999D02*
X258458749Y-126510001D01*
X266790751Y-110243989D02*
X266790751Y-118177999D01*
X266858750Y-110175990D02*
X266790751Y-110243989D01*
X266858750Y-108585000D02*
X266858750Y-110175990D01*
X257333750Y-141922500D02*
X262096250Y-146685000D01*
X257333750Y-127635000D02*
X257333750Y-141922500D01*
X262096250Y-156210000D02*
X271621250Y-165735000D01*
X262096250Y-146685000D02*
X262096250Y-156210000D01*
X271621250Y-165735000D02*
X271621250Y-176029260D01*
X271621250Y-176029260D02*
X273177000Y-177585010D01*
X281146250Y-103822500D02*
X285908750Y-108585000D01*
X281146250Y-89535000D02*
X281146250Y-103822500D01*
X277508749Y-126510001D02*
X276383750Y-127635000D01*
X285840751Y-118177999D02*
X277508749Y-126510001D01*
X285840751Y-110243989D02*
X285840751Y-118177999D01*
X285908750Y-110175990D02*
X285840751Y-110243989D01*
X285908750Y-108585000D02*
X285908750Y-110175990D01*
X276383750Y-141922500D02*
X281146250Y-146685000D01*
X276383750Y-127635000D02*
X276383750Y-141922500D01*
X281146250Y-156210000D02*
X290671250Y-165735000D01*
X281146250Y-146685000D02*
X281146250Y-156210000D01*
X290671250Y-182403750D02*
X288290000Y-184785000D01*
X290671250Y-165735000D02*
X290671250Y-182403750D01*
X300196250Y-103822500D02*
X304958750Y-108585000D01*
X300196250Y-89535000D02*
X300196250Y-103822500D01*
X304958750Y-118110000D02*
X295433750Y-127635000D01*
X304958750Y-108585000D02*
X304958750Y-118110000D01*
X295433750Y-141922500D02*
X300196250Y-146685000D01*
X295433750Y-127635000D02*
X295433750Y-141922500D01*
X300196250Y-156210000D02*
X309721250Y-165735000D01*
X300196250Y-146685000D02*
X300196250Y-156210000D01*
X309721250Y-182403750D02*
X312102500Y-184785000D01*
X309721250Y-165735000D02*
X309721250Y-182403750D01*
X312102500Y-184785000D02*
X312102500Y-188531500D01*
X312102500Y-188531500D02*
X309626000Y-191008000D01*
X319246250Y-103822500D02*
X324008750Y-108585000D01*
X319246250Y-89535000D02*
X319246250Y-103822500D01*
X324008750Y-118110000D02*
X314483750Y-127635000D01*
X324008750Y-108585000D02*
X324008750Y-118110000D01*
X314483750Y-141922500D02*
X319246250Y-146685000D01*
X314483750Y-127635000D02*
X314483750Y-141922500D01*
X319246250Y-149066250D02*
X335915000Y-165735000D01*
X319246250Y-146685000D02*
X319246250Y-149066250D01*
X335915000Y-177641250D02*
X343058750Y-184785000D01*
X335915000Y-165735000D02*
X335915000Y-177641250D01*
X343058750Y-184785000D02*
X343058750Y-188588250D01*
X343058750Y-188588250D02*
X340741000Y-190906000D01*
X334658749Y-126510001D02*
X333533750Y-127635000D01*
X338228251Y-122940499D02*
X334658749Y-126510001D01*
X338228251Y-91193989D02*
X338228251Y-122940499D01*
X338296250Y-91125990D02*
X338228251Y-91193989D01*
X338296250Y-89535000D02*
X338296250Y-91125990D01*
X353695000Y-184382288D02*
X353695000Y-190906000D01*
X350202500Y-180889788D02*
X353695000Y-184382288D01*
X343535000Y-146685000D02*
X338296250Y-146685000D01*
X333533750Y-136683750D02*
X343535000Y-146685000D01*
X333533750Y-127635000D02*
X333533750Y-136683750D01*
X343535000Y-146685000D02*
X350202500Y-146685000D01*
X350202500Y-171893538D02*
X350202500Y-180889788D01*
X344427151Y-166118189D02*
X350202500Y-171893538D01*
X344427151Y-147577151D02*
X344427151Y-166118189D01*
X343535000Y-146685000D02*
X344427151Y-147577151D01*
X362108750Y-99060000D02*
X352583750Y-108585000D01*
X362108750Y-89535000D02*
X362108750Y-99060000D01*
X362108750Y-164144010D02*
X362108750Y-165735000D01*
X362108750Y-150462288D02*
X362108750Y-164144010D01*
X362108750Y-167325990D02*
X362108750Y-184785000D01*
X362108750Y-165735000D02*
X362108750Y-167325990D01*
X362108750Y-184785000D02*
X362108750Y-188588250D01*
X362108750Y-188588250D02*
X359791000Y-190906000D01*
X352583750Y-122872500D02*
X352583750Y-108585000D01*
X358403501Y-125834751D02*
X355441250Y-122872500D01*
X355441250Y-122872500D02*
X352583750Y-122872500D01*
X358403501Y-135836001D02*
X358403501Y-125834751D01*
X359727500Y-137160000D02*
X358403501Y-135836001D01*
X360852499Y-149206037D02*
X362108750Y-150462288D01*
X360852499Y-138284999D02*
X360852499Y-149206037D01*
X359727500Y-137160000D02*
X360852499Y-138284999D01*
X358403501Y-126873519D02*
X358403501Y-127635000D01*
X358403501Y-125834751D02*
X358403501Y-126873519D01*
X381158750Y-89535000D02*
X381158750Y-108585000D01*
X381158750Y-108585000D02*
X381158750Y-127635000D01*
X381158750Y-127635000D02*
X381158750Y-146685000D01*
X381158750Y-146685000D02*
X381158750Y-165735000D01*
X381158750Y-167325990D02*
X381158750Y-184785000D01*
X381158750Y-165735000D02*
X381158750Y-167325990D01*
X400208750Y-89535000D02*
X400208750Y-108585000D01*
X400208750Y-108585000D02*
X400208750Y-127635000D01*
X400208750Y-127635000D02*
X400208750Y-146685000D01*
X400208750Y-165735000D02*
X400208750Y-146685000D01*
X400208750Y-167325990D02*
X400208750Y-184785000D01*
X400208750Y-165735000D02*
X400208750Y-167325990D01*
X394172760Y-189230000D02*
X391668000Y-189230000D01*
X400208750Y-184785000D02*
X398617760Y-184785000D01*
X398617760Y-184785000D02*
X394172760Y-189230000D01*
X419258750Y-91125990D02*
X419258750Y-108585000D01*
X419258750Y-89535000D02*
X419258750Y-91125990D01*
X419258750Y-110175990D02*
X419258750Y-127635000D01*
X419258750Y-108585000D02*
X419258750Y-110175990D01*
X419258750Y-127635000D02*
X419258750Y-146685000D01*
X419258750Y-148275990D02*
X419258750Y-165735000D01*
X419258750Y-146685000D02*
X419258750Y-148275990D01*
X419258750Y-167325990D02*
X419258750Y-184785000D01*
X419258750Y-165735000D02*
X419258750Y-167325990D01*
X414909000Y-187543760D02*
X414909000Y-190373000D01*
X419258750Y-184785000D02*
X417667760Y-184785000D01*
X417667760Y-184785000D02*
X414909000Y-187543760D01*
X438308750Y-91125990D02*
X438308750Y-108585000D01*
X438308750Y-89535000D02*
X438308750Y-91125990D01*
X443533751Y-134765001D02*
X444658750Y-135890000D01*
X443533751Y-134256039D02*
X443533751Y-134765001D01*
X438308750Y-129031038D02*
X443533751Y-134256039D01*
X438308750Y-108585000D02*
X438308750Y-129031038D01*
X444658750Y-137480990D02*
X444658750Y-173990000D01*
X444658750Y-135890000D02*
X444658750Y-137480990D01*
X444658750Y-182118962D02*
X444658750Y-173990000D01*
X442695711Y-184082001D02*
X444658750Y-182118962D01*
X435169999Y-184082001D02*
X442695711Y-184082001D01*
X429006000Y-190246000D02*
X435169999Y-184082001D01*
X294481250Y-197643750D02*
X276637750Y-197643750D01*
X276637750Y-197643750D02*
X276606000Y-197612000D01*
D17*
X276225000Y-179705000D02*
X276479000Y-179705000D01*
X264541000Y-191389000D02*
X276225000Y-179705000D01*
X91297515Y-131177819D02*
X91059000Y-131416334D01*
X91297515Y-146954485D02*
X91297515Y-146669515D01*
X91297515Y-131177819D02*
X91297515Y-146669515D01*
X89916000Y-148336000D02*
X91297515Y-146954485D01*
X251117493Y-194808401D02*
X261121599Y-194808401D01*
X261121599Y-194808401D02*
X261747000Y-194183000D01*
X247313902Y-191004810D02*
X251117493Y-194808401D01*
X217427190Y-191004810D02*
X247313902Y-191004810D01*
X216268789Y-192163211D02*
X217427190Y-191004810D01*
X179881348Y-191766810D02*
X180277748Y-192163211D01*
X91297515Y-146669515D02*
X91297515Y-153210015D01*
X95250000Y-157162500D02*
X95250000Y-185153324D01*
X97889872Y-192201833D02*
X158445167Y-192201833D01*
X180277748Y-192163211D02*
X216268789Y-192163211D01*
X95250000Y-185153324D02*
X94413181Y-185990142D01*
X94413181Y-188725142D02*
X97889872Y-192201833D01*
X91297515Y-153210015D02*
X95250000Y-157162500D01*
X163239902Y-191004810D02*
X164001901Y-191766810D01*
X158445167Y-192201833D02*
X159642190Y-191004810D01*
X159642190Y-191004810D02*
X163239902Y-191004810D01*
X94413181Y-185990142D02*
X94413181Y-188725142D01*
X164001901Y-191766810D02*
X179881348Y-191766810D01*
X267716000Y-191389000D02*
X264541000Y-191389000D01*
X269240000Y-189865000D02*
X267716000Y-191389000D01*
X278669750Y-182753000D02*
X279179469Y-183262719D01*
X279179469Y-194851471D02*
X279179469Y-183262719D01*
X279654000Y-195326002D02*
X279179469Y-194851471D01*
X285792599Y-184573599D02*
X285369000Y-184150000D01*
X280733587Y-196532413D02*
X285792599Y-191473401D01*
X261747000Y-194183000D02*
X261747000Y-194748685D01*
X264924616Y-197926301D02*
X272227699Y-197926301D01*
X272227699Y-197926301D02*
X273621587Y-196532413D01*
X285792599Y-191473401D02*
X285792599Y-184573599D01*
X261747000Y-194748685D02*
X264924616Y-197926301D01*
X273621587Y-196532413D02*
X280733587Y-196532413D01*
D18*
X115445000Y-80012000D02*
X115445000Y-78006250D01*
X106805000Y-80012000D02*
X115445000Y-80012000D01*
X115445000Y-82186250D02*
X115445000Y-80012000D01*
X106805000Y-80012000D02*
X106805000Y-78006250D01*
X106805000Y-82186250D02*
X106805000Y-80012000D01*
X106805000Y-82186250D02*
X103395250Y-82186250D01*
X103395250Y-82186250D02*
X103378000Y-82169000D01*
X246814990Y-187693842D02*
X246814990Y-183961943D01*
X251016824Y-191895676D02*
X246814990Y-187693842D01*
X246814990Y-183961943D02*
X248285000Y-182491934D01*
X251098222Y-191895676D02*
X251016824Y-191895676D01*
X251969555Y-192767009D02*
X251098222Y-191895676D01*
X264881020Y-192767009D02*
X251969555Y-192767009D01*
X265189030Y-192458999D02*
X264881020Y-192767009D01*
X272214999Y-192458999D02*
X265189030Y-192458999D01*
X272796000Y-193040000D02*
X272214999Y-192458999D01*
X248285000Y-182491934D02*
X248285000Y-166497000D01*
X274066000Y-193040000D02*
X272796000Y-193040000D01*
X282194000Y-194394012D02*
X282194000Y-192937507D01*
X280535009Y-196053003D02*
X282194000Y-194394012D01*
X252157612Y-192312999D02*
X264692963Y-192312999D01*
X264692963Y-192312999D02*
X265000973Y-192004989D01*
X247269000Y-187424387D02*
X252157612Y-192312999D01*
X249285003Y-166497000D02*
X249285003Y-182133997D01*
X247269000Y-184150000D02*
X247269000Y-187424387D01*
X249285003Y-182133997D02*
X247269000Y-184150000D01*
X272711065Y-192312999D02*
X274549037Y-192312999D01*
X265000973Y-192004989D02*
X272403056Y-192004989D01*
X274549037Y-192312999D02*
X278289041Y-196053003D01*
X272403056Y-192004989D02*
X272711065Y-192312999D01*
X278289041Y-196053003D02*
X280535009Y-196053003D01*
X285607003Y-166600936D02*
X285607003Y-179832000D01*
X275282010Y-145734943D02*
X275282010Y-156275944D01*
X270075010Y-140527944D02*
X275282010Y-145734943D01*
X279715056Y-113103010D02*
X270075010Y-122743056D01*
X279981010Y-106364943D02*
X279981010Y-112837057D01*
X275282010Y-156275944D02*
X285607003Y-166600936D01*
X272361010Y-98744944D02*
X279981010Y-106364943D01*
X136894241Y-83958759D02*
X247457023Y-83958759D01*
X131191000Y-86995000D02*
X133858000Y-86995000D01*
X127254000Y-83058000D02*
X131191000Y-86995000D01*
X120935750Y-83058000D02*
X127254000Y-83058000D01*
X265313667Y-82934601D02*
X272361010Y-89981943D01*
X279981010Y-112837057D02*
X279715056Y-113103010D01*
X247457023Y-83958759D02*
X250444584Y-86946319D01*
X133858000Y-86995000D02*
X136894241Y-83958759D01*
X250444584Y-86946319D02*
X252782282Y-86946319D01*
X252782282Y-86946319D02*
X256794000Y-82934601D01*
X270075010Y-122743056D02*
X270075010Y-140527944D01*
X256794000Y-82934601D02*
X265313667Y-82934601D01*
X272361010Y-89981943D02*
X272361010Y-98744944D01*
X271907000Y-90170000D02*
X271907000Y-98933000D01*
X271907000Y-98933000D02*
X279527000Y-106553000D01*
X279527000Y-106553000D02*
X279527000Y-112649000D01*
X279527000Y-112649000D02*
X269621000Y-122555000D01*
X269621000Y-122555000D02*
X269621000Y-140716000D01*
X269621000Y-140716000D02*
X274828000Y-145923000D01*
X274828000Y-145923000D02*
X274828000Y-156464000D01*
X274828000Y-156464000D02*
X284607000Y-166243000D01*
X284607000Y-166243000D02*
X284607000Y-179832000D01*
X266065000Y-84328000D02*
X266319000Y-84582000D01*
X266319000Y-84582000D02*
X271907000Y-90170000D01*
X265829449Y-84092449D02*
X266319000Y-84582000D01*
X137100033Y-84412769D02*
X247268968Y-84412769D01*
X134063792Y-87449010D02*
X137100033Y-84412769D01*
X131002943Y-87449010D02*
X134063792Y-87449010D01*
X127646383Y-84092449D02*
X131002943Y-87449010D01*
X120929435Y-84092449D02*
X127646383Y-84092449D01*
X247268968Y-84412769D02*
X250256527Y-87400329D01*
X250256527Y-87400329D02*
X252970339Y-87400329D01*
X252970339Y-87400329D02*
X253236292Y-87134375D01*
X253236292Y-87134375D02*
X256982056Y-83388611D01*
X256982056Y-83388611D02*
X265125611Y-83388611D01*
X265125611Y-83388611D02*
X265829449Y-84092449D01*
X113560269Y-80805509D02*
X113403036Y-80910569D01*
X113269319Y-81044286D01*
X113164259Y-81201519D01*
X113091892Y-81376228D01*
X113055000Y-81561698D01*
X113055000Y-81750802D01*
X113091892Y-81936272D01*
X113164259Y-82110981D01*
X113269319Y-82268214D01*
X113403036Y-82401931D01*
X113560269Y-82506991D01*
X113734978Y-82579358D01*
X113920448Y-82616250D01*
X114109552Y-82616250D01*
X114295022Y-82579358D01*
X114310000Y-82573154D01*
X114310000Y-82792002D01*
X114326423Y-82958749D01*
X114391324Y-83172697D01*
X114496717Y-83369873D01*
X114638552Y-83542699D01*
X114811378Y-83684534D01*
X115008554Y-83789926D01*
X115222502Y-83854827D01*
X115445000Y-83876741D01*
X115667499Y-83854827D01*
X115881447Y-83789926D01*
X116078623Y-83684534D01*
X116251449Y-83542699D01*
X116393284Y-83369873D01*
X116498676Y-83172697D01*
X116563577Y-82958749D01*
X116580000Y-82792002D01*
X116580000Y-81646771D01*
X116601783Y-81653315D01*
X116670515Y-81674165D01*
X116671504Y-81674262D01*
X116672448Y-81674546D01*
X116743153Y-81681319D01*
X116778495Y-81684800D01*
X116779490Y-81684800D01*
X116816569Y-81688352D01*
X116851674Y-81684800D01*
X117601895Y-81684800D01*
X118141750Y-81685473D01*
X118141750Y-88139565D01*
X118099315Y-88167919D01*
X117854169Y-88413065D01*
X117661558Y-88701327D01*
X117528886Y-89021627D01*
X117461250Y-89361655D01*
X117461250Y-89708345D01*
X117528886Y-90048373D01*
X117661558Y-90368673D01*
X117793888Y-90566719D01*
X117510799Y-90623029D01*
X117235997Y-90736856D01*
X116988681Y-90902107D01*
X116778357Y-91112431D01*
X116613106Y-91359747D01*
X116499279Y-91634549D01*
X116441250Y-91926278D01*
X116441250Y-91948000D01*
X105808750Y-91948000D01*
X105808750Y-91926278D01*
X105750721Y-91634549D01*
X105636894Y-91359747D01*
X105471643Y-91112431D01*
X105261319Y-90902107D01*
X105014003Y-90736856D01*
X104739201Y-90623029D01*
X104447472Y-90565000D01*
X104150028Y-90565000D01*
X104108250Y-90573310D01*
X104108250Y-82948250D01*
X105685389Y-82948250D01*
X105686423Y-82958749D01*
X105751324Y-83172697D01*
X105856717Y-83369873D01*
X105998552Y-83542699D01*
X106171378Y-83684534D01*
X106368554Y-83789926D01*
X106582502Y-83854827D01*
X106805000Y-83876741D01*
X107027499Y-83854827D01*
X107241447Y-83789926D01*
X107438623Y-83684534D01*
X107611449Y-83542699D01*
X107753284Y-83369873D01*
X107858676Y-83172697D01*
X107923577Y-82958749D01*
X107940000Y-82792002D01*
X107940000Y-82573154D01*
X107954978Y-82579358D01*
X108140448Y-82616250D01*
X108329552Y-82616250D01*
X108515022Y-82579358D01*
X108689731Y-82506991D01*
X108846964Y-82401931D01*
X108980681Y-82268214D01*
X109085741Y-82110981D01*
X109158108Y-81936272D01*
X109195000Y-81750802D01*
X109195000Y-81561698D01*
X109158108Y-81376228D01*
X109085741Y-81201519D01*
X108980681Y-81044286D01*
X108846964Y-80910569D01*
X108689731Y-80805509D01*
X108613662Y-80774000D01*
X113636338Y-80774000D01*
X113560269Y-80805509D01*
G04 #@! TA.AperFunction,Conductor*
D19*
G36*
X113560269Y-80805509D02*
G01*
X113403036Y-80910569D01*
X113269319Y-81044286D01*
X113164259Y-81201519D01*
X113091892Y-81376228D01*
X113055000Y-81561698D01*
X113055000Y-81750802D01*
X113091892Y-81936272D01*
X113164259Y-82110981D01*
X113269319Y-82268214D01*
X113403036Y-82401931D01*
X113560269Y-82506991D01*
X113734978Y-82579358D01*
X113920448Y-82616250D01*
X114109552Y-82616250D01*
X114295022Y-82579358D01*
X114310000Y-82573154D01*
X114310000Y-82792002D01*
X114326423Y-82958749D01*
X114391324Y-83172697D01*
X114496717Y-83369873D01*
X114638552Y-83542699D01*
X114811378Y-83684534D01*
X115008554Y-83789926D01*
X115222502Y-83854827D01*
X115445000Y-83876741D01*
X115667499Y-83854827D01*
X115881447Y-83789926D01*
X116078623Y-83684534D01*
X116251449Y-83542699D01*
X116393284Y-83369873D01*
X116498676Y-83172697D01*
X116563577Y-82958749D01*
X116580000Y-82792002D01*
X116580000Y-81646771D01*
X116601783Y-81653315D01*
X116670515Y-81674165D01*
X116671504Y-81674262D01*
X116672448Y-81674546D01*
X116743153Y-81681319D01*
X116778495Y-81684800D01*
X116779490Y-81684800D01*
X116816569Y-81688352D01*
X116851674Y-81684800D01*
X117601895Y-81684800D01*
X118141750Y-81685473D01*
X118141750Y-88139565D01*
X118099315Y-88167919D01*
X117854169Y-88413065D01*
X117661558Y-88701327D01*
X117528886Y-89021627D01*
X117461250Y-89361655D01*
X117461250Y-89708345D01*
X117528886Y-90048373D01*
X117661558Y-90368673D01*
X117793888Y-90566719D01*
X117510799Y-90623029D01*
X117235997Y-90736856D01*
X116988681Y-90902107D01*
X116778357Y-91112431D01*
X116613106Y-91359747D01*
X116499279Y-91634549D01*
X116441250Y-91926278D01*
X116441250Y-91948000D01*
X105808750Y-91948000D01*
X105808750Y-91926278D01*
X105750721Y-91634549D01*
X105636894Y-91359747D01*
X105471643Y-91112431D01*
X105261319Y-90902107D01*
X105014003Y-90736856D01*
X104739201Y-90623029D01*
X104447472Y-90565000D01*
X104150028Y-90565000D01*
X104108250Y-90573310D01*
X104108250Y-82948250D01*
X105685389Y-82948250D01*
X105686423Y-82958749D01*
X105751324Y-83172697D01*
X105856717Y-83369873D01*
X105998552Y-83542699D01*
X106171378Y-83684534D01*
X106368554Y-83789926D01*
X106582502Y-83854827D01*
X106805000Y-83876741D01*
X107027499Y-83854827D01*
X107241447Y-83789926D01*
X107438623Y-83684534D01*
X107611449Y-83542699D01*
X107753284Y-83369873D01*
X107858676Y-83172697D01*
X107923577Y-82958749D01*
X107940000Y-82792002D01*
X107940000Y-82573154D01*
X107954978Y-82579358D01*
X108140448Y-82616250D01*
X108329552Y-82616250D01*
X108515022Y-82579358D01*
X108689731Y-82506991D01*
X108846964Y-82401931D01*
X108980681Y-82268214D01*
X109085741Y-82110981D01*
X109158108Y-81936272D01*
X109195000Y-81750802D01*
X109195000Y-81561698D01*
X109158108Y-81376228D01*
X109085741Y-81201519D01*
X108980681Y-81044286D01*
X108846964Y-80910569D01*
X108689731Y-80805509D01*
X108613662Y-80774000D01*
X113636338Y-80774000D01*
X113560269Y-80805509D01*
G37*
G04 #@! TD.AperFunction*
M02*
