G04 #@! TF.GenerationSoftware,KiCad,Pcbnew,(5.1.7)-1*
G04 #@! TF.CreationDate,2020-12-09T11:44:14-08:00*
G04 #@! TF.ProjectId,PCBV3,50434256-332e-46b6-9963-61645f706362,rev?*
G04 #@! TF.SameCoordinates,Original*
G04 #@! TF.FileFunction,Paste,Bot*
G04 #@! TF.FilePolarity,Positive*
%FSLAX46Y46*%
G04 Gerber Fmt 4.6, Leading zero omitted, Abs format (unit mm)*
G04 Created by KiCad (PCBNEW (5.1.7)-1) date 2020-12-09 11:44:14*
%MOMM*%
%LPD*%
G01*
G04 APERTURE LIST*
%ADD10R,1.800000X1.100000*%
%ADD11R,0.900000X1.200000*%
%ADD12R,0.650000X1.060000*%
%ADD13R,1.200000X0.900000*%
%ADD14R,0.600000X1.450000*%
%ADD15R,0.300000X1.450000*%
%ADD16R,0.800000X0.900000*%
G04 APERTURE END LIST*
D10*
X88975000Y-133659000D03*
X95175000Y-137359000D03*
X88975000Y-137359000D03*
X95175000Y-133659000D03*
X95175000Y-144598000D03*
X88975000Y-140898000D03*
X95175000Y-140898000D03*
X88975000Y-144598000D03*
D11*
X107887500Y-173831250D03*
X111187500Y-173831250D03*
X372206250Y-142081250D03*
X375506250Y-142081250D03*
D12*
X111125000Y-87165000D03*
X112075000Y-87165000D03*
X110175000Y-87165000D03*
X110175000Y-89365000D03*
X111125000Y-89365000D03*
X112075000Y-89365000D03*
G36*
G01*
X108173000Y-88140250D02*
X108173000Y-87627750D01*
G75*
G02*
X108391750Y-87409000I218750J0D01*
G01*
X108829250Y-87409000D01*
G75*
G02*
X109048000Y-87627750I0J-218750D01*
G01*
X109048000Y-88140250D01*
G75*
G02*
X108829250Y-88359000I-218750J0D01*
G01*
X108391750Y-88359000D01*
G75*
G02*
X108173000Y-88140250I0J218750D01*
G01*
G37*
G36*
G01*
X106598000Y-88140250D02*
X106598000Y-87627750D01*
G75*
G02*
X106816750Y-87409000I218750J0D01*
G01*
X107254250Y-87409000D01*
G75*
G02*
X107473000Y-87627750I0J-218750D01*
G01*
X107473000Y-88140250D01*
G75*
G02*
X107254250Y-88359000I-218750J0D01*
G01*
X106816750Y-88359000D01*
G75*
G02*
X106598000Y-88140250I0J218750D01*
G01*
G37*
G36*
G01*
X114777000Y-85727250D02*
X114777000Y-85214750D01*
G75*
G02*
X114995750Y-84996000I218750J0D01*
G01*
X115433250Y-84996000D01*
G75*
G02*
X115652000Y-85214750I0J-218750D01*
G01*
X115652000Y-85727250D01*
G75*
G02*
X115433250Y-85946000I-218750J0D01*
G01*
X114995750Y-85946000D01*
G75*
G02*
X114777000Y-85727250I0J218750D01*
G01*
G37*
G36*
G01*
X113202000Y-85727250D02*
X113202000Y-85214750D01*
G75*
G02*
X113420750Y-84996000I218750J0D01*
G01*
X113858250Y-84996000D01*
G75*
G02*
X114077000Y-85214750I0J-218750D01*
G01*
X114077000Y-85727250D01*
G75*
G02*
X113858250Y-85946000I-218750J0D01*
G01*
X113420750Y-85946000D01*
G75*
G02*
X113202000Y-85727250I0J218750D01*
G01*
G37*
G36*
G01*
X107473000Y-85214750D02*
X107473000Y-85727250D01*
G75*
G02*
X107254250Y-85946000I-218750J0D01*
G01*
X106816750Y-85946000D01*
G75*
G02*
X106598000Y-85727250I0J218750D01*
G01*
X106598000Y-85214750D01*
G75*
G02*
X106816750Y-84996000I218750J0D01*
G01*
X107254250Y-84996000D01*
G75*
G02*
X107473000Y-85214750I0J-218750D01*
G01*
G37*
G36*
G01*
X109048000Y-85214750D02*
X109048000Y-85727250D01*
G75*
G02*
X108829250Y-85946000I-218750J0D01*
G01*
X108391750Y-85946000D01*
G75*
G02*
X108173000Y-85727250I0J218750D01*
G01*
X108173000Y-85214750D01*
G75*
G02*
X108391750Y-84996000I218750J0D01*
G01*
X108829250Y-84996000D01*
G75*
G02*
X109048000Y-85214750I0J-218750D01*
G01*
G37*
G36*
G01*
X101464400Y-83458800D02*
X101976900Y-83458800D01*
G75*
G02*
X102195650Y-83677550I0J-218750D01*
G01*
X102195650Y-84115050D01*
G75*
G02*
X101976900Y-84333800I-218750J0D01*
G01*
X101464400Y-84333800D01*
G75*
G02*
X101245650Y-84115050I0J218750D01*
G01*
X101245650Y-83677550D01*
G75*
G02*
X101464400Y-83458800I218750J0D01*
G01*
G37*
G36*
G01*
X101464400Y-81883800D02*
X101976900Y-81883800D01*
G75*
G02*
X102195650Y-82102550I0J-218750D01*
G01*
X102195650Y-82540050D01*
G75*
G02*
X101976900Y-82758800I-218750J0D01*
G01*
X101464400Y-82758800D01*
G75*
G02*
X101245650Y-82540050I0J218750D01*
G01*
X101245650Y-82102550D01*
G75*
G02*
X101464400Y-81883800I218750J0D01*
G01*
G37*
G36*
G01*
X100325900Y-82758800D02*
X99813400Y-82758800D01*
G75*
G02*
X99594650Y-82540050I0J218750D01*
G01*
X99594650Y-82102550D01*
G75*
G02*
X99813400Y-81883800I218750J0D01*
G01*
X100325900Y-81883800D01*
G75*
G02*
X100544650Y-82102550I0J-218750D01*
G01*
X100544650Y-82540050D01*
G75*
G02*
X100325900Y-82758800I-218750J0D01*
G01*
G37*
G36*
G01*
X100325900Y-84333800D02*
X99813400Y-84333800D01*
G75*
G02*
X99594650Y-84115050I0J218750D01*
G01*
X99594650Y-83677550D01*
G75*
G02*
X99813400Y-83458800I218750J0D01*
G01*
X100325900Y-83458800D01*
G75*
G02*
X100544650Y-83677550I0J-218750D01*
G01*
X100544650Y-84115050D01*
G75*
G02*
X100325900Y-84333800I-218750J0D01*
G01*
G37*
D13*
X90773250Y-128713500D03*
X90773250Y-125413500D03*
D14*
X114350000Y-83101250D03*
X107900000Y-83101250D03*
X113575000Y-83101250D03*
X108675000Y-83101250D03*
D15*
X109375000Y-83101250D03*
X112875000Y-83101250D03*
X109875000Y-83101250D03*
X112375000Y-83101250D03*
X110375000Y-83101250D03*
X111875000Y-83101250D03*
X111375000Y-83101250D03*
X110875000Y-83101250D03*
D16*
X94126050Y-126355600D03*
X93176050Y-128355600D03*
X95076050Y-128355600D03*
G36*
G01*
X278571314Y-193449475D02*
X278040984Y-192919145D01*
G75*
G02*
X278040984Y-192830757I44194J44194D01*
G01*
X278129372Y-192742369D01*
G75*
G02*
X278217760Y-192742369I44194J-44194D01*
G01*
X278748090Y-193272699D01*
G75*
G02*
X278748090Y-193361087I-44194J-44194D01*
G01*
X278659702Y-193449475D01*
G75*
G02*
X278571314Y-193449475I-44194J44194D01*
G01*
G37*
G36*
G01*
X278924867Y-193095922D02*
X278394537Y-192565592D01*
G75*
G02*
X278394537Y-192477204I44194J44194D01*
G01*
X278482925Y-192388816D01*
G75*
G02*
X278571313Y-192388816I44194J-44194D01*
G01*
X279101643Y-192919146D01*
G75*
G02*
X279101643Y-193007534I-44194J-44194D01*
G01*
X279013255Y-193095922D01*
G75*
G02*
X278924867Y-193095922I-44194J44194D01*
G01*
G37*
G36*
G01*
X279278421Y-192742368D02*
X278748091Y-192212038D01*
G75*
G02*
X278748091Y-192123650I44194J44194D01*
G01*
X278836479Y-192035262D01*
G75*
G02*
X278924867Y-192035262I44194J-44194D01*
G01*
X279455197Y-192565592D01*
G75*
G02*
X279455197Y-192653980I-44194J-44194D01*
G01*
X279366809Y-192742368D01*
G75*
G02*
X279278421Y-192742368I-44194J44194D01*
G01*
G37*
G36*
G01*
X279631974Y-192388815D02*
X279101644Y-191858485D01*
G75*
G02*
X279101644Y-191770097I44194J44194D01*
G01*
X279190032Y-191681709D01*
G75*
G02*
X279278420Y-191681709I44194J-44194D01*
G01*
X279808750Y-192212039D01*
G75*
G02*
X279808750Y-192300427I-44194J-44194D01*
G01*
X279720362Y-192388815D01*
G75*
G02*
X279631974Y-192388815I-44194J44194D01*
G01*
G37*
G36*
G01*
X279985527Y-192035262D02*
X279455197Y-191504932D01*
G75*
G02*
X279455197Y-191416544I44194J44194D01*
G01*
X279543585Y-191328156D01*
G75*
G02*
X279631973Y-191328156I44194J-44194D01*
G01*
X280162303Y-191858486D01*
G75*
G02*
X280162303Y-191946874I-44194J-44194D01*
G01*
X280073915Y-192035262D01*
G75*
G02*
X279985527Y-192035262I-44194J44194D01*
G01*
G37*
G36*
G01*
X280339081Y-191681708D02*
X279808751Y-191151378D01*
G75*
G02*
X279808751Y-191062990I44194J44194D01*
G01*
X279897139Y-190974602D01*
G75*
G02*
X279985527Y-190974602I44194J-44194D01*
G01*
X280515857Y-191504932D01*
G75*
G02*
X280515857Y-191593320I-44194J-44194D01*
G01*
X280427469Y-191681708D01*
G75*
G02*
X280339081Y-191681708I-44194J44194D01*
G01*
G37*
G36*
G01*
X280692634Y-191328155D02*
X280162304Y-190797825D01*
G75*
G02*
X280162304Y-190709437I44194J44194D01*
G01*
X280250692Y-190621049D01*
G75*
G02*
X280339080Y-190621049I44194J-44194D01*
G01*
X280869410Y-191151379D01*
G75*
G02*
X280869410Y-191239767I-44194J-44194D01*
G01*
X280781022Y-191328155D01*
G75*
G02*
X280692634Y-191328155I-44194J44194D01*
G01*
G37*
G36*
G01*
X281046188Y-190974601D02*
X280515858Y-190444271D01*
G75*
G02*
X280515858Y-190355883I44194J44194D01*
G01*
X280604246Y-190267495D01*
G75*
G02*
X280692634Y-190267495I44194J-44194D01*
G01*
X281222964Y-190797825D01*
G75*
G02*
X281222964Y-190886213I-44194J-44194D01*
G01*
X281134576Y-190974601D01*
G75*
G02*
X281046188Y-190974601I-44194J44194D01*
G01*
G37*
G36*
G01*
X281399741Y-190621048D02*
X280869411Y-190090718D01*
G75*
G02*
X280869411Y-190002330I44194J44194D01*
G01*
X280957799Y-189913942D01*
G75*
G02*
X281046187Y-189913942I44194J-44194D01*
G01*
X281576517Y-190444272D01*
G75*
G02*
X281576517Y-190532660I-44194J-44194D01*
G01*
X281488129Y-190621048D01*
G75*
G02*
X281399741Y-190621048I-44194J44194D01*
G01*
G37*
G36*
G01*
X281753294Y-190267495D02*
X281222964Y-189737165D01*
G75*
G02*
X281222964Y-189648777I44194J44194D01*
G01*
X281311352Y-189560389D01*
G75*
G02*
X281399740Y-189560389I44194J-44194D01*
G01*
X281930070Y-190090719D01*
G75*
G02*
X281930070Y-190179107I-44194J-44194D01*
G01*
X281841682Y-190267495D01*
G75*
G02*
X281753294Y-190267495I-44194J44194D01*
G01*
G37*
G36*
G01*
X282106848Y-189913941D02*
X281576518Y-189383611D01*
G75*
G02*
X281576518Y-189295223I44194J44194D01*
G01*
X281664906Y-189206835D01*
G75*
G02*
X281753294Y-189206835I44194J-44194D01*
G01*
X282283624Y-189737165D01*
G75*
G02*
X282283624Y-189825553I-44194J-44194D01*
G01*
X282195236Y-189913941D01*
G75*
G02*
X282106848Y-189913941I-44194J44194D01*
G01*
G37*
G36*
G01*
X282460401Y-189560388D02*
X281930071Y-189030058D01*
G75*
G02*
X281930071Y-188941670I44194J44194D01*
G01*
X282018459Y-188853282D01*
G75*
G02*
X282106847Y-188853282I44194J-44194D01*
G01*
X282637177Y-189383612D01*
G75*
G02*
X282637177Y-189472000I-44194J-44194D01*
G01*
X282548789Y-189560388D01*
G75*
G02*
X282460401Y-189560388I-44194J44194D01*
G01*
G37*
G36*
G01*
X282018459Y-188588116D02*
X281930071Y-188499728D01*
G75*
G02*
X281930071Y-188411340I44194J44194D01*
G01*
X282460401Y-187881010D01*
G75*
G02*
X282548789Y-187881010I44194J-44194D01*
G01*
X282637177Y-187969398D01*
G75*
G02*
X282637177Y-188057786I-44194J-44194D01*
G01*
X282106847Y-188588116D01*
G75*
G02*
X282018459Y-188588116I-44194J44194D01*
G01*
G37*
G36*
G01*
X281664906Y-188234563D02*
X281576518Y-188146175D01*
G75*
G02*
X281576518Y-188057787I44194J44194D01*
G01*
X282106848Y-187527457D01*
G75*
G02*
X282195236Y-187527457I44194J-44194D01*
G01*
X282283624Y-187615845D01*
G75*
G02*
X282283624Y-187704233I-44194J-44194D01*
G01*
X281753294Y-188234563D01*
G75*
G02*
X281664906Y-188234563I-44194J44194D01*
G01*
G37*
G36*
G01*
X281311352Y-187881009D02*
X281222964Y-187792621D01*
G75*
G02*
X281222964Y-187704233I44194J44194D01*
G01*
X281753294Y-187173903D01*
G75*
G02*
X281841682Y-187173903I44194J-44194D01*
G01*
X281930070Y-187262291D01*
G75*
G02*
X281930070Y-187350679I-44194J-44194D01*
G01*
X281399740Y-187881009D01*
G75*
G02*
X281311352Y-187881009I-44194J44194D01*
G01*
G37*
G36*
G01*
X280957799Y-187527456D02*
X280869411Y-187439068D01*
G75*
G02*
X280869411Y-187350680I44194J44194D01*
G01*
X281399741Y-186820350D01*
G75*
G02*
X281488129Y-186820350I44194J-44194D01*
G01*
X281576517Y-186908738D01*
G75*
G02*
X281576517Y-186997126I-44194J-44194D01*
G01*
X281046187Y-187527456D01*
G75*
G02*
X280957799Y-187527456I-44194J44194D01*
G01*
G37*
G36*
G01*
X280604246Y-187173903D02*
X280515858Y-187085515D01*
G75*
G02*
X280515858Y-186997127I44194J44194D01*
G01*
X281046188Y-186466797D01*
G75*
G02*
X281134576Y-186466797I44194J-44194D01*
G01*
X281222964Y-186555185D01*
G75*
G02*
X281222964Y-186643573I-44194J-44194D01*
G01*
X280692634Y-187173903D01*
G75*
G02*
X280604246Y-187173903I-44194J44194D01*
G01*
G37*
G36*
G01*
X280250692Y-186820349D02*
X280162304Y-186731961D01*
G75*
G02*
X280162304Y-186643573I44194J44194D01*
G01*
X280692634Y-186113243D01*
G75*
G02*
X280781022Y-186113243I44194J-44194D01*
G01*
X280869410Y-186201631D01*
G75*
G02*
X280869410Y-186290019I-44194J-44194D01*
G01*
X280339080Y-186820349D01*
G75*
G02*
X280250692Y-186820349I-44194J44194D01*
G01*
G37*
G36*
G01*
X279897139Y-186466796D02*
X279808751Y-186378408D01*
G75*
G02*
X279808751Y-186290020I44194J44194D01*
G01*
X280339081Y-185759690D01*
G75*
G02*
X280427469Y-185759690I44194J-44194D01*
G01*
X280515857Y-185848078D01*
G75*
G02*
X280515857Y-185936466I-44194J-44194D01*
G01*
X279985527Y-186466796D01*
G75*
G02*
X279897139Y-186466796I-44194J44194D01*
G01*
G37*
G36*
G01*
X279543585Y-186113242D02*
X279455197Y-186024854D01*
G75*
G02*
X279455197Y-185936466I44194J44194D01*
G01*
X279985527Y-185406136D01*
G75*
G02*
X280073915Y-185406136I44194J-44194D01*
G01*
X280162303Y-185494524D01*
G75*
G02*
X280162303Y-185582912I-44194J-44194D01*
G01*
X279631973Y-186113242D01*
G75*
G02*
X279543585Y-186113242I-44194J44194D01*
G01*
G37*
G36*
G01*
X279190032Y-185759689D02*
X279101644Y-185671301D01*
G75*
G02*
X279101644Y-185582913I44194J44194D01*
G01*
X279631974Y-185052583D01*
G75*
G02*
X279720362Y-185052583I44194J-44194D01*
G01*
X279808750Y-185140971D01*
G75*
G02*
X279808750Y-185229359I-44194J-44194D01*
G01*
X279278420Y-185759689D01*
G75*
G02*
X279190032Y-185759689I-44194J44194D01*
G01*
G37*
G36*
G01*
X278836479Y-185406136D02*
X278748091Y-185317748D01*
G75*
G02*
X278748091Y-185229360I44194J44194D01*
G01*
X279278421Y-184699030D01*
G75*
G02*
X279366809Y-184699030I44194J-44194D01*
G01*
X279455197Y-184787418D01*
G75*
G02*
X279455197Y-184875806I-44194J-44194D01*
G01*
X278924867Y-185406136D01*
G75*
G02*
X278836479Y-185406136I-44194J44194D01*
G01*
G37*
G36*
G01*
X278482925Y-185052582D02*
X278394537Y-184964194D01*
G75*
G02*
X278394537Y-184875806I44194J44194D01*
G01*
X278924867Y-184345476D01*
G75*
G02*
X279013255Y-184345476I44194J-44194D01*
G01*
X279101643Y-184433864D01*
G75*
G02*
X279101643Y-184522252I-44194J-44194D01*
G01*
X278571313Y-185052582D01*
G75*
G02*
X278482925Y-185052582I-44194J44194D01*
G01*
G37*
G36*
G01*
X278129372Y-184699029D02*
X278040984Y-184610641D01*
G75*
G02*
X278040984Y-184522253I44194J44194D01*
G01*
X278571314Y-183991923D01*
G75*
G02*
X278659702Y-183991923I44194J-44194D01*
G01*
X278748090Y-184080311D01*
G75*
G02*
X278748090Y-184168699I-44194J-44194D01*
G01*
X278217760Y-184699029D01*
G75*
G02*
X278129372Y-184699029I-44194J44194D01*
G01*
G37*
G36*
G01*
X277599042Y-184699029D02*
X277068712Y-184168699D01*
G75*
G02*
X277068712Y-184080311I44194J44194D01*
G01*
X277157100Y-183991923D01*
G75*
G02*
X277245488Y-183991923I44194J-44194D01*
G01*
X277775818Y-184522253D01*
G75*
G02*
X277775818Y-184610641I-44194J-44194D01*
G01*
X277687430Y-184699029D01*
G75*
G02*
X277599042Y-184699029I-44194J44194D01*
G01*
G37*
G36*
G01*
X277245489Y-185052582D02*
X276715159Y-184522252D01*
G75*
G02*
X276715159Y-184433864I44194J44194D01*
G01*
X276803547Y-184345476D01*
G75*
G02*
X276891935Y-184345476I44194J-44194D01*
G01*
X277422265Y-184875806D01*
G75*
G02*
X277422265Y-184964194I-44194J-44194D01*
G01*
X277333877Y-185052582D01*
G75*
G02*
X277245489Y-185052582I-44194J44194D01*
G01*
G37*
G36*
G01*
X276891935Y-185406136D02*
X276361605Y-184875806D01*
G75*
G02*
X276361605Y-184787418I44194J44194D01*
G01*
X276449993Y-184699030D01*
G75*
G02*
X276538381Y-184699030I44194J-44194D01*
G01*
X277068711Y-185229360D01*
G75*
G02*
X277068711Y-185317748I-44194J-44194D01*
G01*
X276980323Y-185406136D01*
G75*
G02*
X276891935Y-185406136I-44194J44194D01*
G01*
G37*
G36*
G01*
X276538382Y-185759689D02*
X276008052Y-185229359D01*
G75*
G02*
X276008052Y-185140971I44194J44194D01*
G01*
X276096440Y-185052583D01*
G75*
G02*
X276184828Y-185052583I44194J-44194D01*
G01*
X276715158Y-185582913D01*
G75*
G02*
X276715158Y-185671301I-44194J-44194D01*
G01*
X276626770Y-185759689D01*
G75*
G02*
X276538382Y-185759689I-44194J44194D01*
G01*
G37*
G36*
G01*
X276184829Y-186113242D02*
X275654499Y-185582912D01*
G75*
G02*
X275654499Y-185494524I44194J44194D01*
G01*
X275742887Y-185406136D01*
G75*
G02*
X275831275Y-185406136I44194J-44194D01*
G01*
X276361605Y-185936466D01*
G75*
G02*
X276361605Y-186024854I-44194J-44194D01*
G01*
X276273217Y-186113242D01*
G75*
G02*
X276184829Y-186113242I-44194J44194D01*
G01*
G37*
G36*
G01*
X275831275Y-186466796D02*
X275300945Y-185936466D01*
G75*
G02*
X275300945Y-185848078I44194J44194D01*
G01*
X275389333Y-185759690D01*
G75*
G02*
X275477721Y-185759690I44194J-44194D01*
G01*
X276008051Y-186290020D01*
G75*
G02*
X276008051Y-186378408I-44194J-44194D01*
G01*
X275919663Y-186466796D01*
G75*
G02*
X275831275Y-186466796I-44194J44194D01*
G01*
G37*
G36*
G01*
X275477722Y-186820349D02*
X274947392Y-186290019D01*
G75*
G02*
X274947392Y-186201631I44194J44194D01*
G01*
X275035780Y-186113243D01*
G75*
G02*
X275124168Y-186113243I44194J-44194D01*
G01*
X275654498Y-186643573D01*
G75*
G02*
X275654498Y-186731961I-44194J-44194D01*
G01*
X275566110Y-186820349D01*
G75*
G02*
X275477722Y-186820349I-44194J44194D01*
G01*
G37*
G36*
G01*
X275124168Y-187173903D02*
X274593838Y-186643573D01*
G75*
G02*
X274593838Y-186555185I44194J44194D01*
G01*
X274682226Y-186466797D01*
G75*
G02*
X274770614Y-186466797I44194J-44194D01*
G01*
X275300944Y-186997127D01*
G75*
G02*
X275300944Y-187085515I-44194J-44194D01*
G01*
X275212556Y-187173903D01*
G75*
G02*
X275124168Y-187173903I-44194J44194D01*
G01*
G37*
G36*
G01*
X274770615Y-187527456D02*
X274240285Y-186997126D01*
G75*
G02*
X274240285Y-186908738I44194J44194D01*
G01*
X274328673Y-186820350D01*
G75*
G02*
X274417061Y-186820350I44194J-44194D01*
G01*
X274947391Y-187350680D01*
G75*
G02*
X274947391Y-187439068I-44194J-44194D01*
G01*
X274859003Y-187527456D01*
G75*
G02*
X274770615Y-187527456I-44194J44194D01*
G01*
G37*
G36*
G01*
X274417062Y-187881009D02*
X273886732Y-187350679D01*
G75*
G02*
X273886732Y-187262291I44194J44194D01*
G01*
X273975120Y-187173903D01*
G75*
G02*
X274063508Y-187173903I44194J-44194D01*
G01*
X274593838Y-187704233D01*
G75*
G02*
X274593838Y-187792621I-44194J-44194D01*
G01*
X274505450Y-187881009D01*
G75*
G02*
X274417062Y-187881009I-44194J44194D01*
G01*
G37*
G36*
G01*
X274063508Y-188234563D02*
X273533178Y-187704233D01*
G75*
G02*
X273533178Y-187615845I44194J44194D01*
G01*
X273621566Y-187527457D01*
G75*
G02*
X273709954Y-187527457I44194J-44194D01*
G01*
X274240284Y-188057787D01*
G75*
G02*
X274240284Y-188146175I-44194J-44194D01*
G01*
X274151896Y-188234563D01*
G75*
G02*
X274063508Y-188234563I-44194J44194D01*
G01*
G37*
G36*
G01*
X273709955Y-188588116D02*
X273179625Y-188057786D01*
G75*
G02*
X273179625Y-187969398I44194J44194D01*
G01*
X273268013Y-187881010D01*
G75*
G02*
X273356401Y-187881010I44194J-44194D01*
G01*
X273886731Y-188411340D01*
G75*
G02*
X273886731Y-188499728I-44194J-44194D01*
G01*
X273798343Y-188588116D01*
G75*
G02*
X273709955Y-188588116I-44194J44194D01*
G01*
G37*
G36*
G01*
X273268013Y-189560388D02*
X273179625Y-189472000D01*
G75*
G02*
X273179625Y-189383612I44194J44194D01*
G01*
X273709955Y-188853282D01*
G75*
G02*
X273798343Y-188853282I44194J-44194D01*
G01*
X273886731Y-188941670D01*
G75*
G02*
X273886731Y-189030058I-44194J-44194D01*
G01*
X273356401Y-189560388D01*
G75*
G02*
X273268013Y-189560388I-44194J44194D01*
G01*
G37*
G36*
G01*
X273621566Y-189913941D02*
X273533178Y-189825553D01*
G75*
G02*
X273533178Y-189737165I44194J44194D01*
G01*
X274063508Y-189206835D01*
G75*
G02*
X274151896Y-189206835I44194J-44194D01*
G01*
X274240284Y-189295223D01*
G75*
G02*
X274240284Y-189383611I-44194J-44194D01*
G01*
X273709954Y-189913941D01*
G75*
G02*
X273621566Y-189913941I-44194J44194D01*
G01*
G37*
G36*
G01*
X273975120Y-190267495D02*
X273886732Y-190179107D01*
G75*
G02*
X273886732Y-190090719I44194J44194D01*
G01*
X274417062Y-189560389D01*
G75*
G02*
X274505450Y-189560389I44194J-44194D01*
G01*
X274593838Y-189648777D01*
G75*
G02*
X274593838Y-189737165I-44194J-44194D01*
G01*
X274063508Y-190267495D01*
G75*
G02*
X273975120Y-190267495I-44194J44194D01*
G01*
G37*
G36*
G01*
X274328673Y-190621048D02*
X274240285Y-190532660D01*
G75*
G02*
X274240285Y-190444272I44194J44194D01*
G01*
X274770615Y-189913942D01*
G75*
G02*
X274859003Y-189913942I44194J-44194D01*
G01*
X274947391Y-190002330D01*
G75*
G02*
X274947391Y-190090718I-44194J-44194D01*
G01*
X274417061Y-190621048D01*
G75*
G02*
X274328673Y-190621048I-44194J44194D01*
G01*
G37*
G36*
G01*
X274682226Y-190974601D02*
X274593838Y-190886213D01*
G75*
G02*
X274593838Y-190797825I44194J44194D01*
G01*
X275124168Y-190267495D01*
G75*
G02*
X275212556Y-190267495I44194J-44194D01*
G01*
X275300944Y-190355883D01*
G75*
G02*
X275300944Y-190444271I-44194J-44194D01*
G01*
X274770614Y-190974601D01*
G75*
G02*
X274682226Y-190974601I-44194J44194D01*
G01*
G37*
G36*
G01*
X275035780Y-191328155D02*
X274947392Y-191239767D01*
G75*
G02*
X274947392Y-191151379I44194J44194D01*
G01*
X275477722Y-190621049D01*
G75*
G02*
X275566110Y-190621049I44194J-44194D01*
G01*
X275654498Y-190709437D01*
G75*
G02*
X275654498Y-190797825I-44194J-44194D01*
G01*
X275124168Y-191328155D01*
G75*
G02*
X275035780Y-191328155I-44194J44194D01*
G01*
G37*
G36*
G01*
X275389333Y-191681708D02*
X275300945Y-191593320D01*
G75*
G02*
X275300945Y-191504932I44194J44194D01*
G01*
X275831275Y-190974602D01*
G75*
G02*
X275919663Y-190974602I44194J-44194D01*
G01*
X276008051Y-191062990D01*
G75*
G02*
X276008051Y-191151378I-44194J-44194D01*
G01*
X275477721Y-191681708D01*
G75*
G02*
X275389333Y-191681708I-44194J44194D01*
G01*
G37*
G36*
G01*
X275742887Y-192035262D02*
X275654499Y-191946874D01*
G75*
G02*
X275654499Y-191858486I44194J44194D01*
G01*
X276184829Y-191328156D01*
G75*
G02*
X276273217Y-191328156I44194J-44194D01*
G01*
X276361605Y-191416544D01*
G75*
G02*
X276361605Y-191504932I-44194J-44194D01*
G01*
X275831275Y-192035262D01*
G75*
G02*
X275742887Y-192035262I-44194J44194D01*
G01*
G37*
G36*
G01*
X276096440Y-192388815D02*
X276008052Y-192300427D01*
G75*
G02*
X276008052Y-192212039I44194J44194D01*
G01*
X276538382Y-191681709D01*
G75*
G02*
X276626770Y-191681709I44194J-44194D01*
G01*
X276715158Y-191770097D01*
G75*
G02*
X276715158Y-191858485I-44194J-44194D01*
G01*
X276184828Y-192388815D01*
G75*
G02*
X276096440Y-192388815I-44194J44194D01*
G01*
G37*
G36*
G01*
X276449993Y-192742368D02*
X276361605Y-192653980D01*
G75*
G02*
X276361605Y-192565592I44194J44194D01*
G01*
X276891935Y-192035262D01*
G75*
G02*
X276980323Y-192035262I44194J-44194D01*
G01*
X277068711Y-192123650D01*
G75*
G02*
X277068711Y-192212038I-44194J-44194D01*
G01*
X276538381Y-192742368D01*
G75*
G02*
X276449993Y-192742368I-44194J44194D01*
G01*
G37*
G36*
G01*
X276803547Y-193095922D02*
X276715159Y-193007534D01*
G75*
G02*
X276715159Y-192919146I44194J44194D01*
G01*
X277245489Y-192388816D01*
G75*
G02*
X277333877Y-192388816I44194J-44194D01*
G01*
X277422265Y-192477204D01*
G75*
G02*
X277422265Y-192565592I-44194J-44194D01*
G01*
X276891935Y-193095922D01*
G75*
G02*
X276803547Y-193095922I-44194J44194D01*
G01*
G37*
G36*
G01*
X277157100Y-193449475D02*
X277068712Y-193361087D01*
G75*
G02*
X277068712Y-193272699I44194J44194D01*
G01*
X277599042Y-192742369D01*
G75*
G02*
X277687430Y-192742369I44194J-44194D01*
G01*
X277775818Y-192830757D01*
G75*
G02*
X277775818Y-192919145I-44194J-44194D01*
G01*
X277245488Y-193449475D01*
G75*
G02*
X277157100Y-193449475I-44194J44194D01*
G01*
G37*
G36*
G01*
X277731624Y-186373105D02*
X277286147Y-185927628D01*
G75*
G02*
X277286147Y-185574074I176777J176777D01*
G01*
X277731624Y-185128597D01*
G75*
G02*
X278085178Y-185128597I176777J-176777D01*
G01*
X278530655Y-185574074D01*
G75*
G02*
X278530655Y-185927628I-176777J-176777D01*
G01*
X278085178Y-186373105D01*
G75*
G02*
X277731624Y-186373105I-176777J176777D01*
G01*
G37*
G36*
G01*
X278721573Y-187363054D02*
X278276096Y-186917577D01*
G75*
G02*
X278276096Y-186564023I176777J176777D01*
G01*
X278721573Y-186118546D01*
G75*
G02*
X279075127Y-186118546I176777J-176777D01*
G01*
X279520604Y-186564023D01*
G75*
G02*
X279520604Y-186917577I-176777J-176777D01*
G01*
X279075127Y-187363054D01*
G75*
G02*
X278721573Y-187363054I-176777J176777D01*
G01*
G37*
G36*
G01*
X279711523Y-188353004D02*
X279266046Y-187907527D01*
G75*
G02*
X279266046Y-187553973I176777J176777D01*
G01*
X279711523Y-187108496D01*
G75*
G02*
X280065077Y-187108496I176777J-176777D01*
G01*
X280510554Y-187553973D01*
G75*
G02*
X280510554Y-187907527I-176777J-176777D01*
G01*
X280065077Y-188353004D01*
G75*
G02*
X279711523Y-188353004I-176777J176777D01*
G01*
G37*
G36*
G01*
X280701472Y-189342953D02*
X280255995Y-188897476D01*
G75*
G02*
X280255995Y-188543922I176777J176777D01*
G01*
X280701472Y-188098445D01*
G75*
G02*
X281055026Y-188098445I176777J-176777D01*
G01*
X281500503Y-188543922D01*
G75*
G02*
X281500503Y-188897476I-176777J-176777D01*
G01*
X281055026Y-189342953D01*
G75*
G02*
X280701472Y-189342953I-176777J176777D01*
G01*
G37*
G36*
G01*
X276741675Y-187363054D02*
X276296198Y-186917577D01*
G75*
G02*
X276296198Y-186564023I176777J176777D01*
G01*
X276741675Y-186118546D01*
G75*
G02*
X277095229Y-186118546I176777J-176777D01*
G01*
X277540706Y-186564023D01*
G75*
G02*
X277540706Y-186917577I-176777J-176777D01*
G01*
X277095229Y-187363054D01*
G75*
G02*
X276741675Y-187363054I-176777J176777D01*
G01*
G37*
G36*
G01*
X277731624Y-188353004D02*
X277286147Y-187907527D01*
G75*
G02*
X277286147Y-187553973I176777J176777D01*
G01*
X277731624Y-187108496D01*
G75*
G02*
X278085178Y-187108496I176777J-176777D01*
G01*
X278530655Y-187553973D01*
G75*
G02*
X278530655Y-187907527I-176777J-176777D01*
G01*
X278085178Y-188353004D01*
G75*
G02*
X277731624Y-188353004I-176777J176777D01*
G01*
G37*
G36*
G01*
X278721573Y-189342953D02*
X278276096Y-188897476D01*
G75*
G02*
X278276096Y-188543922I176777J176777D01*
G01*
X278721573Y-188098445D01*
G75*
G02*
X279075127Y-188098445I176777J-176777D01*
G01*
X279520604Y-188543922D01*
G75*
G02*
X279520604Y-188897476I-176777J-176777D01*
G01*
X279075127Y-189342953D01*
G75*
G02*
X278721573Y-189342953I-176777J176777D01*
G01*
G37*
G36*
G01*
X279711523Y-190332902D02*
X279266046Y-189887425D01*
G75*
G02*
X279266046Y-189533871I176777J176777D01*
G01*
X279711523Y-189088394D01*
G75*
G02*
X280065077Y-189088394I176777J-176777D01*
G01*
X280510554Y-189533871D01*
G75*
G02*
X280510554Y-189887425I-176777J-176777D01*
G01*
X280065077Y-190332902D01*
G75*
G02*
X279711523Y-190332902I-176777J176777D01*
G01*
G37*
G36*
G01*
X275751725Y-188353004D02*
X275306248Y-187907527D01*
G75*
G02*
X275306248Y-187553973I176777J176777D01*
G01*
X275751725Y-187108496D01*
G75*
G02*
X276105279Y-187108496I176777J-176777D01*
G01*
X276550756Y-187553973D01*
G75*
G02*
X276550756Y-187907527I-176777J-176777D01*
G01*
X276105279Y-188353004D01*
G75*
G02*
X275751725Y-188353004I-176777J176777D01*
G01*
G37*
G36*
G01*
X276741675Y-189342953D02*
X276296198Y-188897476D01*
G75*
G02*
X276296198Y-188543922I176777J176777D01*
G01*
X276741675Y-188098445D01*
G75*
G02*
X277095229Y-188098445I176777J-176777D01*
G01*
X277540706Y-188543922D01*
G75*
G02*
X277540706Y-188897476I-176777J-176777D01*
G01*
X277095229Y-189342953D01*
G75*
G02*
X276741675Y-189342953I-176777J176777D01*
G01*
G37*
G36*
G01*
X277731624Y-190332902D02*
X277286147Y-189887425D01*
G75*
G02*
X277286147Y-189533871I176777J176777D01*
G01*
X277731624Y-189088394D01*
G75*
G02*
X278085178Y-189088394I176777J-176777D01*
G01*
X278530655Y-189533871D01*
G75*
G02*
X278530655Y-189887425I-176777J-176777D01*
G01*
X278085178Y-190332902D01*
G75*
G02*
X277731624Y-190332902I-176777J176777D01*
G01*
G37*
G36*
G01*
X278721573Y-191322852D02*
X278276096Y-190877375D01*
G75*
G02*
X278276096Y-190523821I176777J176777D01*
G01*
X278721573Y-190078344D01*
G75*
G02*
X279075127Y-190078344I176777J-176777D01*
G01*
X279520604Y-190523821D01*
G75*
G02*
X279520604Y-190877375I-176777J-176777D01*
G01*
X279075127Y-191322852D01*
G75*
G02*
X278721573Y-191322852I-176777J176777D01*
G01*
G37*
G36*
G01*
X274761776Y-189342953D02*
X274316299Y-188897476D01*
G75*
G02*
X274316299Y-188543922I176777J176777D01*
G01*
X274761776Y-188098445D01*
G75*
G02*
X275115330Y-188098445I176777J-176777D01*
G01*
X275560807Y-188543922D01*
G75*
G02*
X275560807Y-188897476I-176777J-176777D01*
G01*
X275115330Y-189342953D01*
G75*
G02*
X274761776Y-189342953I-176777J176777D01*
G01*
G37*
G36*
G01*
X275751725Y-190332902D02*
X275306248Y-189887425D01*
G75*
G02*
X275306248Y-189533871I176777J176777D01*
G01*
X275751725Y-189088394D01*
G75*
G02*
X276105279Y-189088394I176777J-176777D01*
G01*
X276550756Y-189533871D01*
G75*
G02*
X276550756Y-189887425I-176777J-176777D01*
G01*
X276105279Y-190332902D01*
G75*
G02*
X275751725Y-190332902I-176777J176777D01*
G01*
G37*
G36*
G01*
X276741675Y-191322852D02*
X276296198Y-190877375D01*
G75*
G02*
X276296198Y-190523821I176777J176777D01*
G01*
X276741675Y-190078344D01*
G75*
G02*
X277095229Y-190078344I176777J-176777D01*
G01*
X277540706Y-190523821D01*
G75*
G02*
X277540706Y-190877375I-176777J-176777D01*
G01*
X277095229Y-191322852D01*
G75*
G02*
X276741675Y-191322852I-176777J176777D01*
G01*
G37*
G36*
G01*
X277731624Y-192312801D02*
X277286147Y-191867324D01*
G75*
G02*
X277286147Y-191513770I176777J176777D01*
G01*
X277731624Y-191068293D01*
G75*
G02*
X278085178Y-191068293I176777J-176777D01*
G01*
X278530655Y-191513770D01*
G75*
G02*
X278530655Y-191867324I-176777J-176777D01*
G01*
X278085178Y-192312801D01*
G75*
G02*
X277731624Y-192312801I-176777J176777D01*
G01*
G37*
G36*
G01*
X97792250Y-136683000D02*
X97279750Y-136683000D01*
G75*
G02*
X97061000Y-136464250I0J218750D01*
G01*
X97061000Y-136026750D01*
G75*
G02*
X97279750Y-135808000I218750J0D01*
G01*
X97792250Y-135808000D01*
G75*
G02*
X98011000Y-136026750I0J-218750D01*
G01*
X98011000Y-136464250D01*
G75*
G02*
X97792250Y-136683000I-218750J0D01*
G01*
G37*
G36*
G01*
X97792250Y-138258000D02*
X97279750Y-138258000D01*
G75*
G02*
X97061000Y-138039250I0J218750D01*
G01*
X97061000Y-137601750D01*
G75*
G02*
X97279750Y-137383000I218750J0D01*
G01*
X97792250Y-137383000D01*
G75*
G02*
X98011000Y-137601750I0J-218750D01*
G01*
X98011000Y-138039250D01*
G75*
G02*
X97792250Y-138258000I-218750J0D01*
G01*
G37*
G36*
G01*
X94744250Y-147224000D02*
X94231750Y-147224000D01*
G75*
G02*
X94013000Y-147005250I0J218750D01*
G01*
X94013000Y-146567750D01*
G75*
G02*
X94231750Y-146349000I218750J0D01*
G01*
X94744250Y-146349000D01*
G75*
G02*
X94963000Y-146567750I0J-218750D01*
G01*
X94963000Y-147005250D01*
G75*
G02*
X94744250Y-147224000I-218750J0D01*
G01*
G37*
G36*
G01*
X94744250Y-148799000D02*
X94231750Y-148799000D01*
G75*
G02*
X94013000Y-148580250I0J218750D01*
G01*
X94013000Y-148142750D01*
G75*
G02*
X94231750Y-147924000I218750J0D01*
G01*
X94744250Y-147924000D01*
G75*
G02*
X94963000Y-148142750I0J-218750D01*
G01*
X94963000Y-148580250D01*
G75*
G02*
X94744250Y-148799000I-218750J0D01*
G01*
G37*
G36*
G01*
X91896250Y-86164000D02*
X90983750Y-86164000D01*
G75*
G02*
X90740000Y-85920250I0J243750D01*
G01*
X90740000Y-85432750D01*
G75*
G02*
X90983750Y-85189000I243750J0D01*
G01*
X91896250Y-85189000D01*
G75*
G02*
X92140000Y-85432750I0J-243750D01*
G01*
X92140000Y-85920250D01*
G75*
G02*
X91896250Y-86164000I-243750J0D01*
G01*
G37*
G36*
G01*
X91896250Y-88039000D02*
X90983750Y-88039000D01*
G75*
G02*
X90740000Y-87795250I0J243750D01*
G01*
X90740000Y-87307750D01*
G75*
G02*
X90983750Y-87064000I243750J0D01*
G01*
X91896250Y-87064000D01*
G75*
G02*
X92140000Y-87307750I0J-243750D01*
G01*
X92140000Y-87795250D01*
G75*
G02*
X91896250Y-88039000I-243750J0D01*
G01*
G37*
G36*
G01*
X94265250Y-130093500D02*
X94265250Y-129748500D01*
G75*
G02*
X94412750Y-129601000I147500J0D01*
G01*
X94707750Y-129601000D01*
G75*
G02*
X94855250Y-129748500I0J-147500D01*
G01*
X94855250Y-130093500D01*
G75*
G02*
X94707750Y-130241000I-147500J0D01*
G01*
X94412750Y-130241000D01*
G75*
G02*
X94265250Y-130093500I0J147500D01*
G01*
G37*
G36*
G01*
X93295250Y-130093500D02*
X93295250Y-129748500D01*
G75*
G02*
X93442750Y-129601000I147500J0D01*
G01*
X93737750Y-129601000D01*
G75*
G02*
X93885250Y-129748500I0J-147500D01*
G01*
X93885250Y-130093500D01*
G75*
G02*
X93737750Y-130241000I-147500J0D01*
G01*
X93442750Y-130241000D01*
G75*
G02*
X93295250Y-130093500I0J147500D01*
G01*
G37*
G36*
G01*
X94773250Y-125013500D02*
X94773250Y-124668500D01*
G75*
G02*
X94920750Y-124521000I147500J0D01*
G01*
X95215750Y-124521000D01*
G75*
G02*
X95363250Y-124668500I0J-147500D01*
G01*
X95363250Y-125013500D01*
G75*
G02*
X95215750Y-125161000I-147500J0D01*
G01*
X94920750Y-125161000D01*
G75*
G02*
X94773250Y-125013500I0J147500D01*
G01*
G37*
G36*
G01*
X93803250Y-125013500D02*
X93803250Y-124668500D01*
G75*
G02*
X93950750Y-124521000I147500J0D01*
G01*
X94245750Y-124521000D01*
G75*
G02*
X94393250Y-124668500I0J-147500D01*
G01*
X94393250Y-125013500D01*
G75*
G02*
X94245750Y-125161000I-147500J0D01*
G01*
X93950750Y-125161000D01*
G75*
G02*
X93803250Y-125013500I0J147500D01*
G01*
G37*
G36*
G01*
X272452050Y-191020200D02*
X272797050Y-191020200D01*
G75*
G02*
X272944550Y-191167700I0J-147500D01*
G01*
X272944550Y-191462700D01*
G75*
G02*
X272797050Y-191610200I-147500J0D01*
G01*
X272452050Y-191610200D01*
G75*
G02*
X272304550Y-191462700I0J147500D01*
G01*
X272304550Y-191167700D01*
G75*
G02*
X272452050Y-191020200I147500J0D01*
G01*
G37*
G36*
G01*
X272452050Y-190050200D02*
X272797050Y-190050200D01*
G75*
G02*
X272944550Y-190197700I0J-147500D01*
G01*
X272944550Y-190492700D01*
G75*
G02*
X272797050Y-190640200I-147500J0D01*
G01*
X272452050Y-190640200D01*
G75*
G02*
X272304550Y-190492700I0J147500D01*
G01*
X272304550Y-190197700D01*
G75*
G02*
X272452050Y-190050200I147500J0D01*
G01*
G37*
G36*
G01*
X275367000Y-181353750D02*
X275367000Y-181866250D01*
G75*
G02*
X275148250Y-182085000I-218750J0D01*
G01*
X274710750Y-182085000D01*
G75*
G02*
X274492000Y-181866250I0J218750D01*
G01*
X274492000Y-181353750D01*
G75*
G02*
X274710750Y-181135000I218750J0D01*
G01*
X275148250Y-181135000D01*
G75*
G02*
X275367000Y-181353750I0J-218750D01*
G01*
G37*
G36*
G01*
X276942000Y-181353750D02*
X276942000Y-181866250D01*
G75*
G02*
X276723250Y-182085000I-218750J0D01*
G01*
X276285750Y-182085000D01*
G75*
G02*
X276067000Y-181866250I0J218750D01*
G01*
X276067000Y-181353750D01*
G75*
G02*
X276285750Y-181135000I218750J0D01*
G01*
X276723250Y-181135000D01*
G75*
G02*
X276942000Y-181353750I0J-218750D01*
G01*
G37*
G36*
G01*
X271258250Y-191020200D02*
X271603250Y-191020200D01*
G75*
G02*
X271750750Y-191167700I0J-147500D01*
G01*
X271750750Y-191462700D01*
G75*
G02*
X271603250Y-191610200I-147500J0D01*
G01*
X271258250Y-191610200D01*
G75*
G02*
X271110750Y-191462700I0J147500D01*
G01*
X271110750Y-191167700D01*
G75*
G02*
X271258250Y-191020200I147500J0D01*
G01*
G37*
G36*
G01*
X271258250Y-190050200D02*
X271603250Y-190050200D01*
G75*
G02*
X271750750Y-190197700I0J-147500D01*
G01*
X271750750Y-190492700D01*
G75*
G02*
X271603250Y-190640200I-147500J0D01*
G01*
X271258250Y-190640200D01*
G75*
G02*
X271110750Y-190492700I0J147500D01*
G01*
X271110750Y-190197700D01*
G75*
G02*
X271258250Y-190050200I147500J0D01*
G01*
G37*
G36*
G01*
X279875750Y-194609500D02*
X279875750Y-194264500D01*
G75*
G02*
X280023250Y-194117000I147500J0D01*
G01*
X280318250Y-194117000D01*
G75*
G02*
X280465750Y-194264500I0J-147500D01*
G01*
X280465750Y-194609500D01*
G75*
G02*
X280318250Y-194757000I-147500J0D01*
G01*
X280023250Y-194757000D01*
G75*
G02*
X279875750Y-194609500I0J147500D01*
G01*
G37*
G36*
G01*
X278905750Y-194609500D02*
X278905750Y-194264500D01*
G75*
G02*
X279053250Y-194117000I147500J0D01*
G01*
X279348250Y-194117000D01*
G75*
G02*
X279495750Y-194264500I0J-147500D01*
G01*
X279495750Y-194609500D01*
G75*
G02*
X279348250Y-194757000I-147500J0D01*
G01*
X279053250Y-194757000D01*
G75*
G02*
X278905750Y-194609500I0J147500D01*
G01*
G37*
G36*
G01*
X283693650Y-186779400D02*
X283348650Y-186779400D01*
G75*
G02*
X283201150Y-186631900I0J147500D01*
G01*
X283201150Y-186336900D01*
G75*
G02*
X283348650Y-186189400I147500J0D01*
G01*
X283693650Y-186189400D01*
G75*
G02*
X283841150Y-186336900I0J-147500D01*
G01*
X283841150Y-186631900D01*
G75*
G02*
X283693650Y-186779400I-147500J0D01*
G01*
G37*
G36*
G01*
X283693650Y-187749400D02*
X283348650Y-187749400D01*
G75*
G02*
X283201150Y-187601900I0J147500D01*
G01*
X283201150Y-187306900D01*
G75*
G02*
X283348650Y-187159400I147500J0D01*
G01*
X283693650Y-187159400D01*
G75*
G02*
X283841150Y-187306900I0J-147500D01*
G01*
X283841150Y-187601900D01*
G75*
G02*
X283693650Y-187749400I-147500J0D01*
G01*
G37*
G36*
G01*
X285149000Y-186086000D02*
X284636500Y-186086000D01*
G75*
G02*
X284417750Y-185867250I0J218750D01*
G01*
X284417750Y-185429750D01*
G75*
G02*
X284636500Y-185211000I218750J0D01*
G01*
X285149000Y-185211000D01*
G75*
G02*
X285367750Y-185429750I0J-218750D01*
G01*
X285367750Y-185867250D01*
G75*
G02*
X285149000Y-186086000I-218750J0D01*
G01*
G37*
G36*
G01*
X285149000Y-187661000D02*
X284636500Y-187661000D01*
G75*
G02*
X284417750Y-187442250I0J218750D01*
G01*
X284417750Y-187004750D01*
G75*
G02*
X284636500Y-186786000I218750J0D01*
G01*
X285149000Y-186786000D01*
G75*
G02*
X285367750Y-187004750I0J-218750D01*
G01*
X285367750Y-187442250D01*
G75*
G02*
X285149000Y-187661000I-218750J0D01*
G01*
G37*
G36*
G01*
X276041350Y-182885300D02*
X276041350Y-183230300D01*
G75*
G02*
X275893850Y-183377800I-147500J0D01*
G01*
X275598850Y-183377800D01*
G75*
G02*
X275451350Y-183230300I0J147500D01*
G01*
X275451350Y-182885300D01*
G75*
G02*
X275598850Y-182737800I147500J0D01*
G01*
X275893850Y-182737800D01*
G75*
G02*
X276041350Y-182885300I0J-147500D01*
G01*
G37*
G36*
G01*
X277011350Y-182885300D02*
X277011350Y-183230300D01*
G75*
G02*
X276863850Y-183377800I-147500J0D01*
G01*
X276568850Y-183377800D01*
G75*
G02*
X276421350Y-183230300I0J147500D01*
G01*
X276421350Y-182885300D01*
G75*
G02*
X276568850Y-182737800I147500J0D01*
G01*
X276863850Y-182737800D01*
G75*
G02*
X277011350Y-182885300I0J-147500D01*
G01*
G37*
D13*
X107188000Y-90679000D03*
X107188000Y-93979000D03*
X131556250Y-90925000D03*
X131556250Y-94225000D03*
X150606250Y-90925000D03*
X150606250Y-94225000D03*
X169656250Y-90925000D03*
X169656250Y-94225000D03*
X188706250Y-90925000D03*
X188706250Y-94225000D03*
X212518750Y-90925000D03*
X212518750Y-94225000D03*
X231568750Y-90925000D03*
X231568750Y-94225000D03*
X250618750Y-90925000D03*
X250618750Y-94225000D03*
X269668750Y-90925000D03*
X269668750Y-94225000D03*
X293481250Y-90925000D03*
X293481250Y-94225000D03*
X312531250Y-90925000D03*
X312531250Y-94225000D03*
X331581250Y-90925000D03*
X331581250Y-94225000D03*
X350631250Y-90925000D03*
X350631250Y-94225000D03*
X374443750Y-90925000D03*
X374443750Y-94225000D03*
X393493750Y-90925000D03*
X393493750Y-94225000D03*
X412543750Y-90925000D03*
X412543750Y-94225000D03*
X431593750Y-90925000D03*
X431593750Y-94225000D03*
X450643750Y-90925000D03*
X450643750Y-94225000D03*
X107743750Y-109975000D03*
X107743750Y-113275000D03*
X126793750Y-109975000D03*
X126793750Y-113275000D03*
X145843750Y-109975000D03*
X145843750Y-113275000D03*
X164893750Y-109975000D03*
X164893750Y-113275000D03*
X183943750Y-109975000D03*
X183943750Y-113275000D03*
X202993750Y-109975000D03*
X202993750Y-113275000D03*
X222043750Y-109975000D03*
X222043750Y-113275000D03*
X241093750Y-109975000D03*
X241093750Y-113275000D03*
X260143750Y-109975000D03*
X260143750Y-113275000D03*
X279193750Y-109975000D03*
X279193750Y-113275000D03*
X298243750Y-109975000D03*
X298243750Y-113275000D03*
X317293750Y-109975000D03*
X317293750Y-113275000D03*
X336343750Y-109975000D03*
X336343750Y-113275000D03*
X374443750Y-109975000D03*
X374443750Y-113275000D03*
X393493750Y-109975000D03*
X393493750Y-113275000D03*
X412543750Y-109975000D03*
X412543750Y-113275000D03*
X431593750Y-109975000D03*
X431593750Y-113275000D03*
X450643750Y-109975000D03*
X450643750Y-113275000D03*
X117268750Y-129025000D03*
X117268750Y-132325000D03*
X136318750Y-129025000D03*
X136318750Y-132325000D03*
X155368750Y-129025000D03*
X155368750Y-132325000D03*
X174418750Y-129025000D03*
X174418750Y-132325000D03*
X193468750Y-129025000D03*
X193468750Y-132325000D03*
X212518750Y-129025000D03*
X212518750Y-132325000D03*
X231568750Y-129025000D03*
X231568750Y-132325000D03*
X250618750Y-129025000D03*
X250618750Y-132325000D03*
X269668750Y-129025000D03*
X269668750Y-132325000D03*
X288718750Y-129025000D03*
X288718750Y-132325000D03*
X307768750Y-129025000D03*
X307768750Y-132325000D03*
X326818750Y-129025000D03*
X326818750Y-132325000D03*
X345868750Y-129025000D03*
X345868750Y-132325000D03*
X375443750Y-129025000D03*
X375443750Y-132325000D03*
X393493750Y-129025000D03*
X393493750Y-132325000D03*
X412543750Y-129025000D03*
X412543750Y-132325000D03*
X431800000Y-134875000D03*
X431800000Y-138175000D03*
X122031250Y-148075000D03*
X122031250Y-151375000D03*
X141081250Y-148075000D03*
X141081250Y-151375000D03*
X160131250Y-148075000D03*
X160131250Y-151375000D03*
X179181250Y-148075000D03*
X179181250Y-151375000D03*
X198231250Y-148075000D03*
X198231250Y-151375000D03*
X217281250Y-148075000D03*
X217281250Y-151375000D03*
X236331250Y-148075000D03*
X236331250Y-151375000D03*
X255381250Y-148075000D03*
X255381250Y-151375000D03*
X274431250Y-148075000D03*
X274431250Y-151375000D03*
X293481250Y-148075000D03*
X293481250Y-151375000D03*
X312531250Y-148075000D03*
X312531250Y-151375000D03*
X331581250Y-148075000D03*
X331581250Y-151375000D03*
D11*
X372206250Y-147637500D03*
X375506250Y-147637500D03*
D13*
X393493750Y-148075000D03*
X393493750Y-151375000D03*
X412543750Y-148075000D03*
X412543750Y-151375000D03*
X431800000Y-141225000D03*
X431800000Y-144525000D03*
X438658000Y-142114000D03*
X438658000Y-145414000D03*
X131556250Y-167125000D03*
X131556250Y-170425000D03*
X150606250Y-167125000D03*
X150606250Y-170425000D03*
X169656250Y-167125000D03*
X169656250Y-170425000D03*
X188706250Y-167125000D03*
X188706250Y-170425000D03*
X207756250Y-167125000D03*
X207756250Y-170425000D03*
X226806250Y-167125000D03*
X226806250Y-170425000D03*
X245856250Y-167125000D03*
X245856250Y-170425000D03*
X264906250Y-167125000D03*
X264906250Y-170425000D03*
X283956250Y-167125000D03*
X283956250Y-170425000D03*
X303006250Y-167125000D03*
X303006250Y-170425000D03*
X322056250Y-167125000D03*
X322056250Y-170425000D03*
X355393750Y-167125000D03*
X355393750Y-170425000D03*
X374443750Y-167125000D03*
X374443750Y-170425000D03*
X393493750Y-167125000D03*
X393493750Y-170425000D03*
X412543750Y-167125000D03*
X412543750Y-170425000D03*
X431800000Y-172975000D03*
X431800000Y-176275000D03*
X112506250Y-186175000D03*
X112506250Y-189475000D03*
X136318750Y-186175000D03*
X136318750Y-189475000D03*
X159893000Y-181611000D03*
X159893000Y-184911000D03*
X202993750Y-186175000D03*
X202993750Y-189475000D03*
X220853000Y-179704000D03*
X220853000Y-176404000D03*
X279019000Y-179704000D03*
X279019000Y-176404000D03*
X303006250Y-186175000D03*
X303006250Y-189475000D03*
X326818750Y-186175000D03*
X326818750Y-189475000D03*
X355393750Y-186175000D03*
X355393750Y-189475000D03*
X374269000Y-181357000D03*
X374269000Y-184657000D03*
X393493750Y-186175000D03*
X393493750Y-189475000D03*
X412543750Y-186175000D03*
X412543750Y-189475000D03*
X431800000Y-179325000D03*
X431800000Y-182625000D03*
X437896000Y-180976000D03*
X437896000Y-184276000D03*
M02*
