G04 #@! TF.GenerationSoftware,KiCad,Pcbnew,(5.1.7)-1*
G04 #@! TF.CreationDate,2020-11-06T22:12:29-08:00*
G04 #@! TF.ProjectId,PCBV3,50434256-332e-46b6-9963-61645f706362,rev?*
G04 #@! TF.SameCoordinates,Original*
G04 #@! TF.FileFunction,Legend,Bot*
G04 #@! TF.FilePolarity,Positive*
%FSLAX46Y46*%
G04 Gerber Fmt 4.6, Leading zero omitted, Abs format (unit mm)*
G04 Created by KiCad (PCBNEW (5.1.7)-1) date 2020-11-06 22:12:29*
%MOMM*%
%LPD*%
G01*
G04 APERTURE LIST*
%ADD10C,0.120000*%
%ADD11C,0.150000*%
G04 APERTURE END LIST*
D10*
X111787500Y-172831250D02*
X107887500Y-172831250D01*
X111787500Y-174831250D02*
X107887500Y-174831250D01*
X111787500Y-172831250D02*
X111787500Y-174831250D01*
X376106250Y-141081250D02*
X372206250Y-141081250D01*
X376106250Y-143081250D02*
X372206250Y-143081250D01*
X376106250Y-141081250D02*
X376106250Y-143081250D01*
X112735000Y-87365000D02*
X112735000Y-89815000D01*
X109515000Y-89165000D02*
X109515000Y-87365000D01*
X107660221Y-87374000D02*
X107985779Y-87374000D01*
X107660221Y-88394000D02*
X107985779Y-88394000D01*
X114264221Y-85981000D02*
X114589779Y-85981000D01*
X114264221Y-84961000D02*
X114589779Y-84961000D01*
X107985779Y-84961000D02*
X107660221Y-84961000D01*
X107985779Y-85981000D02*
X107660221Y-85981000D01*
X101210650Y-82946021D02*
X101210650Y-83271579D01*
X102230650Y-82946021D02*
X102230650Y-83271579D01*
X100579650Y-83271579D02*
X100579650Y-82946021D01*
X99559650Y-83271579D02*
X99559650Y-82946021D01*
X89773250Y-124813500D02*
X89773250Y-128713500D01*
X91773250Y-124813500D02*
X91773250Y-128713500D01*
X89773250Y-124813500D02*
X91773250Y-124813500D01*
X92546050Y-126595600D02*
X93476050Y-126595600D01*
X95706050Y-126595600D02*
X94776050Y-126595600D01*
X95706050Y-126595600D02*
X95706050Y-128755600D01*
X92546050Y-126595600D02*
X92546050Y-128055600D01*
X282677836Y-189056575D02*
X283013712Y-188720699D01*
X283013712Y-188720699D02*
X282677836Y-188384823D01*
X273138966Y-188384823D02*
X272803090Y-188720699D01*
X272803090Y-188720699D02*
X273138966Y-189056575D01*
X277572525Y-183951264D02*
X277908401Y-183615388D01*
X277908401Y-183615388D02*
X278244277Y-183951264D01*
X278244277Y-193490134D02*
X277908401Y-193826010D01*
D11*
X93871051Y-135509000D02*
G75*
G03*
X93871051Y-135509000I-1796051J0D01*
G01*
X89075000Y-132509000D02*
X89075000Y-138509000D01*
X95075000Y-132509000D02*
X89075000Y-132509000D01*
X95075000Y-138509000D02*
X95075000Y-132509000D01*
X89075000Y-138509000D02*
X95075000Y-138509000D01*
X93871051Y-142748000D02*
G75*
G03*
X93871051Y-142748000I-1796051J0D01*
G01*
X89075000Y-139748000D02*
X89075000Y-145748000D01*
X95075000Y-139748000D02*
X89075000Y-139748000D01*
X95075000Y-145748000D02*
X95075000Y-139748000D01*
X89075000Y-145748000D02*
X95075000Y-145748000D01*
D10*
X98046000Y-137195779D02*
X98046000Y-136870221D01*
X97026000Y-137195779D02*
X97026000Y-136870221D01*
X94236000Y-148117779D02*
X94236000Y-147792221D01*
X93216000Y-148117779D02*
X93216000Y-147792221D01*
X92150000Y-86872578D02*
X92150000Y-86355422D01*
X90730000Y-86872578D02*
X90730000Y-86355422D01*
X275879779Y-181100000D02*
X275554221Y-181100000D01*
X275879779Y-182120000D02*
X275554221Y-182120000D01*
X285402750Y-186598779D02*
X285402750Y-186273221D01*
X284382750Y-186598779D02*
X284382750Y-186273221D01*
X108188000Y-94579000D02*
X106188000Y-94579000D01*
X106188000Y-94579000D02*
X106188000Y-90679000D01*
X108188000Y-94579000D02*
X108188000Y-90679000D01*
X132556250Y-94825000D02*
X130556250Y-94825000D01*
X130556250Y-94825000D02*
X130556250Y-90925000D01*
X132556250Y-94825000D02*
X132556250Y-90925000D01*
X151606250Y-94825000D02*
X149606250Y-94825000D01*
X149606250Y-94825000D02*
X149606250Y-90925000D01*
X151606250Y-94825000D02*
X151606250Y-90925000D01*
X170656250Y-94825000D02*
X168656250Y-94825000D01*
X168656250Y-94825000D02*
X168656250Y-90925000D01*
X170656250Y-94825000D02*
X170656250Y-90925000D01*
X189706250Y-94825000D02*
X187706250Y-94825000D01*
X187706250Y-94825000D02*
X187706250Y-90925000D01*
X189706250Y-94825000D02*
X189706250Y-90925000D01*
X213518750Y-94825000D02*
X211518750Y-94825000D01*
X211518750Y-94825000D02*
X211518750Y-90925000D01*
X213518750Y-94825000D02*
X213518750Y-90925000D01*
X232568750Y-94825000D02*
X230568750Y-94825000D01*
X230568750Y-94825000D02*
X230568750Y-90925000D01*
X232568750Y-94825000D02*
X232568750Y-90925000D01*
X251618750Y-94825000D02*
X249618750Y-94825000D01*
X249618750Y-94825000D02*
X249618750Y-90925000D01*
X251618750Y-94825000D02*
X251618750Y-90925000D01*
X270668750Y-94825000D02*
X268668750Y-94825000D01*
X268668750Y-94825000D02*
X268668750Y-90925000D01*
X270668750Y-94825000D02*
X270668750Y-90925000D01*
X294481250Y-94825000D02*
X292481250Y-94825000D01*
X292481250Y-94825000D02*
X292481250Y-90925000D01*
X294481250Y-94825000D02*
X294481250Y-90925000D01*
X313531250Y-94825000D02*
X311531250Y-94825000D01*
X311531250Y-94825000D02*
X311531250Y-90925000D01*
X313531250Y-94825000D02*
X313531250Y-90925000D01*
X332581250Y-94825000D02*
X330581250Y-94825000D01*
X330581250Y-94825000D02*
X330581250Y-90925000D01*
X332581250Y-94825000D02*
X332581250Y-90925000D01*
X351631250Y-94825000D02*
X349631250Y-94825000D01*
X349631250Y-94825000D02*
X349631250Y-90925000D01*
X351631250Y-94825000D02*
X351631250Y-90925000D01*
X375443750Y-94825000D02*
X373443750Y-94825000D01*
X373443750Y-94825000D02*
X373443750Y-90925000D01*
X375443750Y-94825000D02*
X375443750Y-90925000D01*
X394493750Y-94825000D02*
X392493750Y-94825000D01*
X392493750Y-94825000D02*
X392493750Y-90925000D01*
X394493750Y-94825000D02*
X394493750Y-90925000D01*
X413543750Y-94825000D02*
X411543750Y-94825000D01*
X411543750Y-94825000D02*
X411543750Y-90925000D01*
X413543750Y-94825000D02*
X413543750Y-90925000D01*
X432593750Y-94825000D02*
X430593750Y-94825000D01*
X430593750Y-94825000D02*
X430593750Y-90925000D01*
X432593750Y-94825000D02*
X432593750Y-90925000D01*
X451643750Y-94825000D02*
X449643750Y-94825000D01*
X449643750Y-94825000D02*
X449643750Y-90925000D01*
X451643750Y-94825000D02*
X451643750Y-90925000D01*
X108743750Y-113875000D02*
X106743750Y-113875000D01*
X106743750Y-113875000D02*
X106743750Y-109975000D01*
X108743750Y-113875000D02*
X108743750Y-109975000D01*
X127793750Y-113875000D02*
X125793750Y-113875000D01*
X125793750Y-113875000D02*
X125793750Y-109975000D01*
X127793750Y-113875000D02*
X127793750Y-109975000D01*
X146843750Y-113875000D02*
X144843750Y-113875000D01*
X144843750Y-113875000D02*
X144843750Y-109975000D01*
X146843750Y-113875000D02*
X146843750Y-109975000D01*
X165893750Y-113875000D02*
X163893750Y-113875000D01*
X163893750Y-113875000D02*
X163893750Y-109975000D01*
X165893750Y-113875000D02*
X165893750Y-109975000D01*
X184943750Y-113875000D02*
X182943750Y-113875000D01*
X182943750Y-113875000D02*
X182943750Y-109975000D01*
X184943750Y-113875000D02*
X184943750Y-109975000D01*
X203993750Y-113875000D02*
X201993750Y-113875000D01*
X201993750Y-113875000D02*
X201993750Y-109975000D01*
X203993750Y-113875000D02*
X203993750Y-109975000D01*
X223043750Y-113875000D02*
X221043750Y-113875000D01*
X221043750Y-113875000D02*
X221043750Y-109975000D01*
X223043750Y-113875000D02*
X223043750Y-109975000D01*
X242093750Y-113875000D02*
X240093750Y-113875000D01*
X240093750Y-113875000D02*
X240093750Y-109975000D01*
X242093750Y-113875000D02*
X242093750Y-109975000D01*
X261143750Y-113875000D02*
X259143750Y-113875000D01*
X259143750Y-113875000D02*
X259143750Y-109975000D01*
X261143750Y-113875000D02*
X261143750Y-109975000D01*
X280193750Y-113875000D02*
X278193750Y-113875000D01*
X278193750Y-113875000D02*
X278193750Y-109975000D01*
X280193750Y-113875000D02*
X280193750Y-109975000D01*
X299243750Y-113875000D02*
X297243750Y-113875000D01*
X297243750Y-113875000D02*
X297243750Y-109975000D01*
X299243750Y-113875000D02*
X299243750Y-109975000D01*
X318293750Y-113875000D02*
X316293750Y-113875000D01*
X316293750Y-113875000D02*
X316293750Y-109975000D01*
X318293750Y-113875000D02*
X318293750Y-109975000D01*
X337343750Y-113875000D02*
X335343750Y-113875000D01*
X335343750Y-113875000D02*
X335343750Y-109975000D01*
X337343750Y-113875000D02*
X337343750Y-109975000D01*
X375443750Y-113875000D02*
X373443750Y-113875000D01*
X373443750Y-113875000D02*
X373443750Y-109975000D01*
X375443750Y-113875000D02*
X375443750Y-109975000D01*
X394493750Y-113875000D02*
X392493750Y-113875000D01*
X392493750Y-113875000D02*
X392493750Y-109975000D01*
X394493750Y-113875000D02*
X394493750Y-109975000D01*
X413543750Y-113875000D02*
X411543750Y-113875000D01*
X411543750Y-113875000D02*
X411543750Y-109975000D01*
X413543750Y-113875000D02*
X413543750Y-109975000D01*
X432593750Y-113875000D02*
X430593750Y-113875000D01*
X430593750Y-113875000D02*
X430593750Y-109975000D01*
X432593750Y-113875000D02*
X432593750Y-109975000D01*
X451643750Y-113875000D02*
X449643750Y-113875000D01*
X449643750Y-113875000D02*
X449643750Y-109975000D01*
X451643750Y-113875000D02*
X451643750Y-109975000D01*
X118268750Y-132925000D02*
X116268750Y-132925000D01*
X116268750Y-132925000D02*
X116268750Y-129025000D01*
X118268750Y-132925000D02*
X118268750Y-129025000D01*
X137318750Y-132925000D02*
X135318750Y-132925000D01*
X135318750Y-132925000D02*
X135318750Y-129025000D01*
X137318750Y-132925000D02*
X137318750Y-129025000D01*
X156368750Y-132925000D02*
X154368750Y-132925000D01*
X154368750Y-132925000D02*
X154368750Y-129025000D01*
X156368750Y-132925000D02*
X156368750Y-129025000D01*
X175418750Y-132925000D02*
X173418750Y-132925000D01*
X173418750Y-132925000D02*
X173418750Y-129025000D01*
X175418750Y-132925000D02*
X175418750Y-129025000D01*
X194468750Y-132925000D02*
X192468750Y-132925000D01*
X192468750Y-132925000D02*
X192468750Y-129025000D01*
X194468750Y-132925000D02*
X194468750Y-129025000D01*
X213518750Y-132925000D02*
X211518750Y-132925000D01*
X211518750Y-132925000D02*
X211518750Y-129025000D01*
X213518750Y-132925000D02*
X213518750Y-129025000D01*
X232568750Y-132925000D02*
X230568750Y-132925000D01*
X230568750Y-132925000D02*
X230568750Y-129025000D01*
X232568750Y-132925000D02*
X232568750Y-129025000D01*
X251618750Y-132925000D02*
X249618750Y-132925000D01*
X249618750Y-132925000D02*
X249618750Y-129025000D01*
X251618750Y-132925000D02*
X251618750Y-129025000D01*
X270668750Y-132925000D02*
X268668750Y-132925000D01*
X268668750Y-132925000D02*
X268668750Y-129025000D01*
X270668750Y-132925000D02*
X270668750Y-129025000D01*
X289718750Y-132925000D02*
X287718750Y-132925000D01*
X287718750Y-132925000D02*
X287718750Y-129025000D01*
X289718750Y-132925000D02*
X289718750Y-129025000D01*
X308768750Y-132925000D02*
X306768750Y-132925000D01*
X306768750Y-132925000D02*
X306768750Y-129025000D01*
X308768750Y-132925000D02*
X308768750Y-129025000D01*
X327818750Y-132925000D02*
X325818750Y-132925000D01*
X325818750Y-132925000D02*
X325818750Y-129025000D01*
X327818750Y-132925000D02*
X327818750Y-129025000D01*
X346868750Y-132925000D02*
X344868750Y-132925000D01*
X344868750Y-132925000D02*
X344868750Y-129025000D01*
X346868750Y-132925000D02*
X346868750Y-129025000D01*
X375443750Y-132925000D02*
X373443750Y-132925000D01*
X373443750Y-132925000D02*
X373443750Y-129025000D01*
X375443750Y-132925000D02*
X375443750Y-129025000D01*
X394493750Y-132925000D02*
X392493750Y-132925000D01*
X392493750Y-132925000D02*
X392493750Y-129025000D01*
X394493750Y-132925000D02*
X394493750Y-129025000D01*
X413543750Y-132925000D02*
X411543750Y-132925000D01*
X411543750Y-132925000D02*
X411543750Y-129025000D01*
X413543750Y-132925000D02*
X413543750Y-129025000D01*
X432800000Y-138775000D02*
X430800000Y-138775000D01*
X430800000Y-138775000D02*
X430800000Y-134875000D01*
X432800000Y-138775000D02*
X432800000Y-134875000D01*
X123031250Y-151975000D02*
X121031250Y-151975000D01*
X121031250Y-151975000D02*
X121031250Y-148075000D01*
X123031250Y-151975000D02*
X123031250Y-148075000D01*
X142081250Y-151975000D02*
X140081250Y-151975000D01*
X140081250Y-151975000D02*
X140081250Y-148075000D01*
X142081250Y-151975000D02*
X142081250Y-148075000D01*
X161131250Y-151975000D02*
X159131250Y-151975000D01*
X159131250Y-151975000D02*
X159131250Y-148075000D01*
X161131250Y-151975000D02*
X161131250Y-148075000D01*
X180181250Y-151975000D02*
X178181250Y-151975000D01*
X178181250Y-151975000D02*
X178181250Y-148075000D01*
X180181250Y-151975000D02*
X180181250Y-148075000D01*
X199231250Y-151975000D02*
X197231250Y-151975000D01*
X197231250Y-151975000D02*
X197231250Y-148075000D01*
X199231250Y-151975000D02*
X199231250Y-148075000D01*
X218281250Y-151975000D02*
X216281250Y-151975000D01*
X216281250Y-151975000D02*
X216281250Y-148075000D01*
X218281250Y-151975000D02*
X218281250Y-148075000D01*
X237331250Y-151975000D02*
X235331250Y-151975000D01*
X235331250Y-151975000D02*
X235331250Y-148075000D01*
X237331250Y-151975000D02*
X237331250Y-148075000D01*
X256381250Y-151975000D02*
X254381250Y-151975000D01*
X254381250Y-151975000D02*
X254381250Y-148075000D01*
X256381250Y-151975000D02*
X256381250Y-148075000D01*
X275431250Y-151975000D02*
X273431250Y-151975000D01*
X273431250Y-151975000D02*
X273431250Y-148075000D01*
X275431250Y-151975000D02*
X275431250Y-148075000D01*
X294481250Y-151975000D02*
X292481250Y-151975000D01*
X292481250Y-151975000D02*
X292481250Y-148075000D01*
X294481250Y-151975000D02*
X294481250Y-148075000D01*
X313531250Y-151975000D02*
X311531250Y-151975000D01*
X311531250Y-151975000D02*
X311531250Y-148075000D01*
X313531250Y-151975000D02*
X313531250Y-148075000D01*
X332581250Y-151975000D02*
X330581250Y-151975000D01*
X330581250Y-151975000D02*
X330581250Y-148075000D01*
X332581250Y-151975000D02*
X332581250Y-148075000D01*
X376106250Y-146637500D02*
X376106250Y-148637500D01*
X376106250Y-148637500D02*
X372206250Y-148637500D01*
X376106250Y-146637500D02*
X372206250Y-146637500D01*
X394493750Y-151975000D02*
X392493750Y-151975000D01*
X392493750Y-151975000D02*
X392493750Y-148075000D01*
X394493750Y-151975000D02*
X394493750Y-148075000D01*
X413543750Y-151975000D02*
X411543750Y-151975000D01*
X411543750Y-151975000D02*
X411543750Y-148075000D01*
X413543750Y-151975000D02*
X413543750Y-148075000D01*
X432800000Y-145125000D02*
X430800000Y-145125000D01*
X430800000Y-145125000D02*
X430800000Y-141225000D01*
X432800000Y-145125000D02*
X432800000Y-141225000D01*
X439658000Y-146014000D02*
X437658000Y-146014000D01*
X437658000Y-146014000D02*
X437658000Y-142114000D01*
X439658000Y-146014000D02*
X439658000Y-142114000D01*
X132556250Y-171025000D02*
X130556250Y-171025000D01*
X130556250Y-171025000D02*
X130556250Y-167125000D01*
X132556250Y-171025000D02*
X132556250Y-167125000D01*
X151606250Y-171025000D02*
X149606250Y-171025000D01*
X149606250Y-171025000D02*
X149606250Y-167125000D01*
X151606250Y-171025000D02*
X151606250Y-167125000D01*
X170656250Y-171025000D02*
X168656250Y-171025000D01*
X168656250Y-171025000D02*
X168656250Y-167125000D01*
X170656250Y-171025000D02*
X170656250Y-167125000D01*
X189706250Y-171025000D02*
X187706250Y-171025000D01*
X187706250Y-171025000D02*
X187706250Y-167125000D01*
X189706250Y-171025000D02*
X189706250Y-167125000D01*
X208756250Y-171025000D02*
X206756250Y-171025000D01*
X206756250Y-171025000D02*
X206756250Y-167125000D01*
X208756250Y-171025000D02*
X208756250Y-167125000D01*
X227806250Y-171025000D02*
X225806250Y-171025000D01*
X225806250Y-171025000D02*
X225806250Y-167125000D01*
X227806250Y-171025000D02*
X227806250Y-167125000D01*
X246856250Y-171025000D02*
X244856250Y-171025000D01*
X244856250Y-171025000D02*
X244856250Y-167125000D01*
X246856250Y-171025000D02*
X246856250Y-167125000D01*
X265906250Y-171025000D02*
X263906250Y-171025000D01*
X263906250Y-171025000D02*
X263906250Y-167125000D01*
X265906250Y-171025000D02*
X265906250Y-167125000D01*
X284956250Y-171025000D02*
X282956250Y-171025000D01*
X282956250Y-171025000D02*
X282956250Y-167125000D01*
X284956250Y-171025000D02*
X284956250Y-167125000D01*
X304006250Y-171025000D02*
X302006250Y-171025000D01*
X302006250Y-171025000D02*
X302006250Y-167125000D01*
X304006250Y-171025000D02*
X304006250Y-167125000D01*
X323056250Y-171025000D02*
X321056250Y-171025000D01*
X321056250Y-171025000D02*
X321056250Y-167125000D01*
X323056250Y-171025000D02*
X323056250Y-167125000D01*
X356393750Y-171025000D02*
X354393750Y-171025000D01*
X354393750Y-171025000D02*
X354393750Y-167125000D01*
X356393750Y-171025000D02*
X356393750Y-167125000D01*
X375443750Y-171025000D02*
X373443750Y-171025000D01*
X373443750Y-171025000D02*
X373443750Y-167125000D01*
X375443750Y-171025000D02*
X375443750Y-167125000D01*
X394493750Y-171025000D02*
X392493750Y-171025000D01*
X392493750Y-171025000D02*
X392493750Y-167125000D01*
X394493750Y-171025000D02*
X394493750Y-167125000D01*
X413543750Y-171025000D02*
X411543750Y-171025000D01*
X411543750Y-171025000D02*
X411543750Y-167125000D01*
X413543750Y-171025000D02*
X413543750Y-167125000D01*
X432800000Y-176875000D02*
X430800000Y-176875000D01*
X430800000Y-176875000D02*
X430800000Y-172975000D01*
X432800000Y-176875000D02*
X432800000Y-172975000D01*
X113506250Y-190075000D02*
X111506250Y-190075000D01*
X111506250Y-190075000D02*
X111506250Y-186175000D01*
X113506250Y-190075000D02*
X113506250Y-186175000D01*
X137318750Y-190075000D02*
X135318750Y-190075000D01*
X135318750Y-190075000D02*
X135318750Y-186175000D01*
X137318750Y-190075000D02*
X137318750Y-186175000D01*
X160893000Y-185511000D02*
X158893000Y-185511000D01*
X158893000Y-185511000D02*
X158893000Y-181611000D01*
X160893000Y-185511000D02*
X160893000Y-181611000D01*
X203993750Y-190075000D02*
X201993750Y-190075000D01*
X201993750Y-190075000D02*
X201993750Y-186175000D01*
X203993750Y-190075000D02*
X203993750Y-186175000D01*
X219853000Y-175804000D02*
X221853000Y-175804000D01*
X221853000Y-175804000D02*
X221853000Y-179704000D01*
X219853000Y-175804000D02*
X219853000Y-179704000D01*
X278019000Y-175804000D02*
X280019000Y-175804000D01*
X280019000Y-175804000D02*
X280019000Y-179704000D01*
X278019000Y-175804000D02*
X278019000Y-179704000D01*
X304006250Y-190075000D02*
X302006250Y-190075000D01*
X302006250Y-190075000D02*
X302006250Y-186175000D01*
X304006250Y-190075000D02*
X304006250Y-186175000D01*
X327818750Y-190075000D02*
X325818750Y-190075000D01*
X325818750Y-190075000D02*
X325818750Y-186175000D01*
X327818750Y-190075000D02*
X327818750Y-186175000D01*
X356393750Y-190075000D02*
X354393750Y-190075000D01*
X354393750Y-190075000D02*
X354393750Y-186175000D01*
X356393750Y-190075000D02*
X356393750Y-186175000D01*
X375269000Y-185257000D02*
X373269000Y-185257000D01*
X373269000Y-185257000D02*
X373269000Y-181357000D01*
X375269000Y-185257000D02*
X375269000Y-181357000D01*
X394493750Y-190075000D02*
X392493750Y-190075000D01*
X392493750Y-190075000D02*
X392493750Y-186175000D01*
X394493750Y-190075000D02*
X394493750Y-186175000D01*
X413543750Y-190075000D02*
X411543750Y-190075000D01*
X411543750Y-190075000D02*
X411543750Y-186175000D01*
X413543750Y-190075000D02*
X413543750Y-186175000D01*
X432800000Y-183225000D02*
X430800000Y-183225000D01*
X430800000Y-183225000D02*
X430800000Y-179325000D01*
X432800000Y-183225000D02*
X432800000Y-179325000D01*
X438896000Y-184876000D02*
X436896000Y-184876000D01*
X436896000Y-184876000D02*
X436896000Y-180976000D01*
X438896000Y-184876000D02*
X438896000Y-180976000D01*
D11*
X111608928Y-172283630D02*
X111608928Y-171283630D01*
X111370833Y-171283630D01*
X111227976Y-171331250D01*
X111132738Y-171426488D01*
X111085119Y-171521726D01*
X111037500Y-171712202D01*
X111037500Y-171855059D01*
X111085119Y-172045535D01*
X111132738Y-172140773D01*
X111227976Y-172236011D01*
X111370833Y-172283630D01*
X111608928Y-172283630D01*
X110847023Y-172378869D02*
X110085119Y-172378869D01*
X109323214Y-172283630D02*
X109894642Y-172283630D01*
X109608928Y-172283630D02*
X109608928Y-171283630D01*
X109704166Y-171426488D01*
X109799404Y-171521726D01*
X109894642Y-171569345D01*
X108704166Y-171283630D02*
X108608928Y-171283630D01*
X108513690Y-171331250D01*
X108466071Y-171378869D01*
X108418452Y-171474107D01*
X108370833Y-171664583D01*
X108370833Y-171902678D01*
X108418452Y-172093154D01*
X108466071Y-172188392D01*
X108513690Y-172236011D01*
X108608928Y-172283630D01*
X108704166Y-172283630D01*
X108799404Y-172236011D01*
X108847023Y-172188392D01*
X108894642Y-172093154D01*
X108942261Y-171902678D01*
X108942261Y-171664583D01*
X108894642Y-171474107D01*
X108847023Y-171378869D01*
X108799404Y-171331250D01*
X108704166Y-171283630D01*
X107418452Y-172283630D02*
X107989880Y-172283630D01*
X107704166Y-172283630D02*
X107704166Y-171283630D01*
X107799404Y-171426488D01*
X107894642Y-171521726D01*
X107989880Y-171569345D01*
X375451488Y-140533630D02*
X375451488Y-139533630D01*
X375213392Y-139533630D01*
X375070535Y-139581250D01*
X374975297Y-139676488D01*
X374927678Y-139771726D01*
X374880059Y-139962202D01*
X374880059Y-140105059D01*
X374927678Y-140295535D01*
X374975297Y-140390773D01*
X375070535Y-140486011D01*
X375213392Y-140533630D01*
X375451488Y-140533630D01*
X374689583Y-140628869D02*
X373927678Y-140628869D01*
X373641964Y-140533630D02*
X373451488Y-140533630D01*
X373356250Y-140486011D01*
X373308630Y-140438392D01*
X373213392Y-140295535D01*
X373165773Y-140105059D01*
X373165773Y-139724107D01*
X373213392Y-139628869D01*
X373261011Y-139581250D01*
X373356250Y-139533630D01*
X373546726Y-139533630D01*
X373641964Y-139581250D01*
X373689583Y-139628869D01*
X373737202Y-139724107D01*
X373737202Y-139962202D01*
X373689583Y-140057440D01*
X373641964Y-140105059D01*
X373546726Y-140152678D01*
X373356250Y-140152678D01*
X373261011Y-140105059D01*
X373213392Y-140057440D01*
X373165773Y-139962202D01*
X372546726Y-139533630D02*
X372451488Y-139533630D01*
X372356250Y-139581250D01*
X372308630Y-139628869D01*
X372261011Y-139724107D01*
X372213392Y-139914583D01*
X372213392Y-140152678D01*
X372261011Y-140343154D01*
X372308630Y-140438392D01*
X372356250Y-140486011D01*
X372451488Y-140533630D01*
X372546726Y-140533630D01*
X372641964Y-140486011D01*
X372689583Y-140438392D01*
X372737202Y-140343154D01*
X372784821Y-140152678D01*
X372784821Y-139914583D01*
X372737202Y-139724107D01*
X372689583Y-139628869D01*
X372641964Y-139581250D01*
X372546726Y-139533630D01*
X113477380Y-87503095D02*
X114286904Y-87503095D01*
X114382142Y-87550714D01*
X114429761Y-87598333D01*
X114477380Y-87693571D01*
X114477380Y-87884047D01*
X114429761Y-87979285D01*
X114382142Y-88026904D01*
X114286904Y-88074523D01*
X113477380Y-88074523D01*
X113477380Y-88455476D02*
X113477380Y-89074523D01*
X113858333Y-88741190D01*
X113858333Y-88884047D01*
X113905952Y-88979285D01*
X113953571Y-89026904D01*
X114048809Y-89074523D01*
X114286904Y-89074523D01*
X114382142Y-89026904D01*
X114429761Y-88979285D01*
X114477380Y-88884047D01*
X114477380Y-88598333D01*
X114429761Y-88503095D01*
X114382142Y-88455476D01*
X108465857Y-89671142D02*
X108513476Y-89718761D01*
X108656333Y-89766380D01*
X108751571Y-89766380D01*
X108894428Y-89718761D01*
X108989666Y-89623523D01*
X109037285Y-89528285D01*
X109084904Y-89337809D01*
X109084904Y-89194952D01*
X109037285Y-89004476D01*
X108989666Y-88909238D01*
X108894428Y-88814000D01*
X108751571Y-88766380D01*
X108656333Y-88766380D01*
X108513476Y-88814000D01*
X108465857Y-88861619D01*
X107513476Y-89766380D02*
X108084904Y-89766380D01*
X107799190Y-89766380D02*
X107799190Y-88766380D01*
X107894428Y-88909238D01*
X107989666Y-89004476D01*
X108084904Y-89052095D01*
X106561095Y-89766380D02*
X107132523Y-89766380D01*
X106846809Y-89766380D02*
X106846809Y-88766380D01*
X106942047Y-88909238D01*
X107037285Y-89004476D01*
X107132523Y-89052095D01*
X114593666Y-87353380D02*
X114927000Y-86877190D01*
X115165095Y-87353380D02*
X115165095Y-86353380D01*
X114784142Y-86353380D01*
X114688904Y-86401000D01*
X114641285Y-86448619D01*
X114593666Y-86543857D01*
X114593666Y-86686714D01*
X114641285Y-86781952D01*
X114688904Y-86829571D01*
X114784142Y-86877190D01*
X115165095Y-86877190D01*
X113688904Y-86353380D02*
X114165095Y-86353380D01*
X114212714Y-86829571D01*
X114165095Y-86781952D01*
X114069857Y-86734333D01*
X113831761Y-86734333D01*
X113736523Y-86781952D01*
X113688904Y-86829571D01*
X113641285Y-86924809D01*
X113641285Y-87162904D01*
X113688904Y-87258142D01*
X113736523Y-87305761D01*
X113831761Y-87353380D01*
X114069857Y-87353380D01*
X114165095Y-87305761D01*
X114212714Y-87258142D01*
X107989666Y-84493380D02*
X108323000Y-84017190D01*
X108561095Y-84493380D02*
X108561095Y-83493380D01*
X108180142Y-83493380D01*
X108084904Y-83541000D01*
X108037285Y-83588619D01*
X107989666Y-83683857D01*
X107989666Y-83826714D01*
X108037285Y-83921952D01*
X108084904Y-83969571D01*
X108180142Y-84017190D01*
X108561095Y-84017190D01*
X107132523Y-83826714D02*
X107132523Y-84493380D01*
X107370619Y-83445761D02*
X107608714Y-84160047D01*
X106989666Y-84160047D01*
X100743030Y-82942133D02*
X100266840Y-82608800D01*
X100743030Y-82370704D02*
X99743030Y-82370704D01*
X99743030Y-82751657D01*
X99790650Y-82846895D01*
X99838269Y-82894514D01*
X99933507Y-82942133D01*
X100076364Y-82942133D01*
X100171602Y-82894514D01*
X100219221Y-82846895D01*
X100266840Y-82751657D01*
X100266840Y-82370704D01*
X99743030Y-83275466D02*
X99743030Y-83894514D01*
X100123983Y-83561180D01*
X100123983Y-83704038D01*
X100171602Y-83799276D01*
X100219221Y-83846895D01*
X100314459Y-83894514D01*
X100552554Y-83894514D01*
X100647792Y-83846895D01*
X100695411Y-83799276D01*
X100743030Y-83704038D01*
X100743030Y-83418323D01*
X100695411Y-83323085D01*
X100647792Y-83275466D01*
X101856792Y-82465942D02*
X101904411Y-82418323D01*
X101952030Y-82275466D01*
X101952030Y-82180228D01*
X101904411Y-82037371D01*
X101809173Y-81942133D01*
X101713935Y-81894514D01*
X101523459Y-81846895D01*
X101380602Y-81846895D01*
X101190126Y-81894514D01*
X101094888Y-81942133D01*
X100999650Y-82037371D01*
X100952030Y-82180228D01*
X100952030Y-82275466D01*
X100999650Y-82418323D01*
X101047269Y-82465942D01*
X101952030Y-83418323D02*
X101952030Y-82846895D01*
X101952030Y-83132609D02*
X100952030Y-83132609D01*
X101094888Y-83037371D01*
X101190126Y-82942133D01*
X101237745Y-82846895D01*
X100952030Y-84037371D02*
X100952030Y-84132609D01*
X100999650Y-84227847D01*
X101047269Y-84275466D01*
X101142507Y-84323085D01*
X101332983Y-84370704D01*
X101571078Y-84370704D01*
X101761554Y-84323085D01*
X101856792Y-84275466D01*
X101904411Y-84227847D01*
X101952030Y-84132609D01*
X101952030Y-84037371D01*
X101904411Y-83942133D01*
X101856792Y-83894514D01*
X101761554Y-83846895D01*
X101571078Y-83799276D01*
X101332983Y-83799276D01*
X101142507Y-83846895D01*
X101047269Y-83894514D01*
X100999650Y-83942133D01*
X100952030Y-84037371D01*
X89225630Y-126325404D02*
X88225630Y-126325404D01*
X88225630Y-126563500D01*
X88273250Y-126706357D01*
X88368488Y-126801595D01*
X88463726Y-126849214D01*
X88654202Y-126896833D01*
X88797059Y-126896833D01*
X88987535Y-126849214D01*
X89082773Y-126801595D01*
X89178011Y-126706357D01*
X89225630Y-126563500D01*
X89225630Y-126325404D01*
X89225630Y-127849214D02*
X89225630Y-127277785D01*
X89225630Y-127563500D02*
X88225630Y-127563500D01*
X88368488Y-127468261D01*
X88463726Y-127373023D01*
X88511345Y-127277785D01*
X112863095Y-84108630D02*
X112863095Y-84918154D01*
X112815476Y-85013392D01*
X112767857Y-85061011D01*
X112672619Y-85108630D01*
X112482142Y-85108630D01*
X112386904Y-85061011D01*
X112339285Y-85013392D01*
X112291666Y-84918154D01*
X112291666Y-84108630D01*
X111863095Y-85061011D02*
X111720238Y-85108630D01*
X111482142Y-85108630D01*
X111386904Y-85061011D01*
X111339285Y-85013392D01*
X111291666Y-84918154D01*
X111291666Y-84822916D01*
X111339285Y-84727678D01*
X111386904Y-84680059D01*
X111482142Y-84632440D01*
X111672619Y-84584821D01*
X111767857Y-84537202D01*
X111815476Y-84489583D01*
X111863095Y-84394345D01*
X111863095Y-84299107D01*
X111815476Y-84203869D01*
X111767857Y-84156250D01*
X111672619Y-84108630D01*
X111434523Y-84108630D01*
X111291666Y-84156250D01*
X110529761Y-84584821D02*
X110386904Y-84632440D01*
X110339285Y-84680059D01*
X110291666Y-84775297D01*
X110291666Y-84918154D01*
X110339285Y-85013392D01*
X110386904Y-85061011D01*
X110482142Y-85108630D01*
X110863095Y-85108630D01*
X110863095Y-84108630D01*
X110529761Y-84108630D01*
X110434523Y-84156250D01*
X110386904Y-84203869D01*
X110339285Y-84299107D01*
X110339285Y-84394345D01*
X110386904Y-84489583D01*
X110434523Y-84537202D01*
X110529761Y-84584821D01*
X110863095Y-84584821D01*
X109339285Y-85108630D02*
X109910714Y-85108630D01*
X109625000Y-85108630D02*
X109625000Y-84108630D01*
X109720238Y-84251488D01*
X109815476Y-84346726D01*
X109910714Y-84394345D01*
X96078430Y-126593695D02*
X96887954Y-126593695D01*
X96983192Y-126641314D01*
X97030811Y-126688933D01*
X97078430Y-126784171D01*
X97078430Y-126974647D01*
X97030811Y-127069885D01*
X96983192Y-127117504D01*
X96887954Y-127165123D01*
X96078430Y-127165123D01*
X96173669Y-127593695D02*
X96126050Y-127641314D01*
X96078430Y-127736552D01*
X96078430Y-127974647D01*
X96126050Y-128069885D01*
X96173669Y-128117504D01*
X96268907Y-128165123D01*
X96364145Y-128165123D01*
X96507002Y-128117504D01*
X97078430Y-127546076D01*
X97078430Y-128165123D01*
X281468178Y-191202980D02*
X282040598Y-191775400D01*
X282074270Y-191876415D01*
X282074270Y-191943759D01*
X282040598Y-192044774D01*
X281905911Y-192179461D01*
X281804896Y-192213133D01*
X281737552Y-192213133D01*
X281636537Y-192179461D01*
X281064117Y-191607041D01*
X281064117Y-193021255D02*
X281468178Y-192617194D01*
X281266148Y-192819224D02*
X280559041Y-192112118D01*
X280727400Y-192145789D01*
X280862087Y-192145789D01*
X280963102Y-192112118D01*
X93408333Y-131849761D02*
X93265476Y-131897380D01*
X93027380Y-131897380D01*
X92932142Y-131849761D01*
X92884523Y-131802142D01*
X92836904Y-131706904D01*
X92836904Y-131611666D01*
X92884523Y-131516428D01*
X92932142Y-131468809D01*
X93027380Y-131421190D01*
X93217857Y-131373571D01*
X93313095Y-131325952D01*
X93360714Y-131278333D01*
X93408333Y-131183095D01*
X93408333Y-131087857D01*
X93360714Y-130992619D01*
X93313095Y-130945000D01*
X93217857Y-130897380D01*
X92979761Y-130897380D01*
X92836904Y-130945000D01*
X92503571Y-130897380D02*
X92265476Y-131897380D01*
X92075000Y-131183095D01*
X91884523Y-131897380D01*
X91646428Y-130897380D01*
X91313095Y-130992619D02*
X91265476Y-130945000D01*
X91170238Y-130897380D01*
X90932142Y-130897380D01*
X90836904Y-130945000D01*
X90789285Y-130992619D01*
X90741666Y-131087857D01*
X90741666Y-131183095D01*
X90789285Y-131325952D01*
X91360714Y-131897380D01*
X90741666Y-131897380D01*
X93408333Y-139088761D02*
X93265476Y-139136380D01*
X93027380Y-139136380D01*
X92932142Y-139088761D01*
X92884523Y-139041142D01*
X92836904Y-138945904D01*
X92836904Y-138850666D01*
X92884523Y-138755428D01*
X92932142Y-138707809D01*
X93027380Y-138660190D01*
X93217857Y-138612571D01*
X93313095Y-138564952D01*
X93360714Y-138517333D01*
X93408333Y-138422095D01*
X93408333Y-138326857D01*
X93360714Y-138231619D01*
X93313095Y-138184000D01*
X93217857Y-138136380D01*
X92979761Y-138136380D01*
X92836904Y-138184000D01*
X92503571Y-138136380D02*
X92265476Y-139136380D01*
X92075000Y-138422095D01*
X91884523Y-139136380D01*
X91646428Y-138136380D01*
X90741666Y-139136380D02*
X91313095Y-139136380D01*
X91027380Y-139136380D02*
X91027380Y-138136380D01*
X91122619Y-138279238D01*
X91217857Y-138374476D01*
X91313095Y-138422095D01*
X99418380Y-136866333D02*
X98942190Y-136533000D01*
X99418380Y-136294904D02*
X98418380Y-136294904D01*
X98418380Y-136675857D01*
X98466000Y-136771095D01*
X98513619Y-136818714D01*
X98608857Y-136866333D01*
X98751714Y-136866333D01*
X98846952Y-136818714D01*
X98894571Y-136771095D01*
X98942190Y-136675857D01*
X98942190Y-136294904D01*
X98513619Y-137247285D02*
X98466000Y-137294904D01*
X98418380Y-137390142D01*
X98418380Y-137628238D01*
X98466000Y-137723476D01*
X98513619Y-137771095D01*
X98608857Y-137818714D01*
X98704095Y-137818714D01*
X98846952Y-137771095D01*
X99418380Y-137199666D01*
X99418380Y-137818714D01*
X95608380Y-147788333D02*
X95132190Y-147455000D01*
X95608380Y-147216904D02*
X94608380Y-147216904D01*
X94608380Y-147597857D01*
X94656000Y-147693095D01*
X94703619Y-147740714D01*
X94798857Y-147788333D01*
X94941714Y-147788333D01*
X95036952Y-147740714D01*
X95084571Y-147693095D01*
X95132190Y-147597857D01*
X95132190Y-147216904D01*
X95608380Y-148740714D02*
X95608380Y-148169285D01*
X95608380Y-148455000D02*
X94608380Y-148455000D01*
X94751238Y-148359761D01*
X94846476Y-148264523D01*
X94894095Y-148169285D01*
X93018571Y-86280666D02*
X93018571Y-85947333D01*
X93542380Y-85947333D02*
X92542380Y-85947333D01*
X92542380Y-86423523D01*
X93542380Y-87328285D02*
X93542380Y-86756857D01*
X93542380Y-87042571D02*
X92542380Y-87042571D01*
X92685238Y-86947333D01*
X92780476Y-86852095D01*
X92828095Y-86756857D01*
X94241916Y-131448142D02*
X94289535Y-131495761D01*
X94432392Y-131543380D01*
X94527630Y-131543380D01*
X94670488Y-131495761D01*
X94765726Y-131400523D01*
X94813345Y-131305285D01*
X94860964Y-131114809D01*
X94860964Y-130971952D01*
X94813345Y-130781476D01*
X94765726Y-130686238D01*
X94670488Y-130591000D01*
X94527630Y-130543380D01*
X94432392Y-130543380D01*
X94289535Y-130591000D01*
X94241916Y-130638619D01*
X93765726Y-131543380D02*
X93575250Y-131543380D01*
X93480011Y-131495761D01*
X93432392Y-131448142D01*
X93337154Y-131305285D01*
X93289535Y-131114809D01*
X93289535Y-130733857D01*
X93337154Y-130638619D01*
X93384773Y-130591000D01*
X93480011Y-130543380D01*
X93670488Y-130543380D01*
X93765726Y-130591000D01*
X93813345Y-130638619D01*
X93860964Y-130733857D01*
X93860964Y-130971952D01*
X93813345Y-131067190D01*
X93765726Y-131114809D01*
X93670488Y-131162428D01*
X93480011Y-131162428D01*
X93384773Y-131114809D01*
X93337154Y-131067190D01*
X93289535Y-130971952D01*
X94749916Y-126368142D02*
X94797535Y-126415761D01*
X94940392Y-126463380D01*
X95035630Y-126463380D01*
X95178488Y-126415761D01*
X95273726Y-126320523D01*
X95321345Y-126225285D01*
X95368964Y-126034809D01*
X95368964Y-125891952D01*
X95321345Y-125701476D01*
X95273726Y-125606238D01*
X95178488Y-125511000D01*
X95035630Y-125463380D01*
X94940392Y-125463380D01*
X94797535Y-125511000D01*
X94749916Y-125558619D01*
X94178488Y-125891952D02*
X94273726Y-125844333D01*
X94321345Y-125796714D01*
X94368964Y-125701476D01*
X94368964Y-125653857D01*
X94321345Y-125558619D01*
X94273726Y-125511000D01*
X94178488Y-125463380D01*
X93988011Y-125463380D01*
X93892773Y-125511000D01*
X93845154Y-125558619D01*
X93797535Y-125653857D01*
X93797535Y-125701476D01*
X93845154Y-125796714D01*
X93892773Y-125844333D01*
X93988011Y-125891952D01*
X94178488Y-125891952D01*
X94273726Y-125939571D01*
X94321345Y-125987190D01*
X94368964Y-126082428D01*
X94368964Y-126272904D01*
X94321345Y-126368142D01*
X94273726Y-126415761D01*
X94178488Y-126463380D01*
X93988011Y-126463380D01*
X93892773Y-126415761D01*
X93845154Y-126368142D01*
X93797535Y-126272904D01*
X93797535Y-126082428D01*
X93845154Y-125987190D01*
X93892773Y-125939571D01*
X93988011Y-125891952D01*
X271811692Y-190663533D02*
X271859311Y-190615914D01*
X271906930Y-190473057D01*
X271906930Y-190377819D01*
X271859311Y-190234961D01*
X271764073Y-190139723D01*
X271668835Y-190092104D01*
X271478359Y-190044485D01*
X271335502Y-190044485D01*
X271145026Y-190092104D01*
X271049788Y-190139723D01*
X270954550Y-190234961D01*
X270906930Y-190377819D01*
X270906930Y-190473057D01*
X270954550Y-190615914D01*
X271002169Y-190663533D01*
X271906930Y-191615914D02*
X271906930Y-191044485D01*
X271906930Y-191330200D02*
X270906930Y-191330200D01*
X271049788Y-191234961D01*
X271145026Y-191139723D01*
X271192645Y-191044485D01*
X275883666Y-180537142D02*
X275931285Y-180584761D01*
X276074142Y-180632380D01*
X276169380Y-180632380D01*
X276312238Y-180584761D01*
X276407476Y-180489523D01*
X276455095Y-180394285D01*
X276502714Y-180203809D01*
X276502714Y-180060952D01*
X276455095Y-179870476D01*
X276407476Y-179775238D01*
X276312238Y-179680000D01*
X276169380Y-179632380D01*
X276074142Y-179632380D01*
X275931285Y-179680000D01*
X275883666Y-179727619D01*
X275026523Y-179632380D02*
X275217000Y-179632380D01*
X275312238Y-179680000D01*
X275359857Y-179727619D01*
X275455095Y-179870476D01*
X275502714Y-180060952D01*
X275502714Y-180441904D01*
X275455095Y-180537142D01*
X275407476Y-180584761D01*
X275312238Y-180632380D01*
X275121761Y-180632380D01*
X275026523Y-180584761D01*
X274978904Y-180537142D01*
X274931285Y-180441904D01*
X274931285Y-180203809D01*
X274978904Y-180108571D01*
X275026523Y-180060952D01*
X275121761Y-180013333D01*
X275312238Y-180013333D01*
X275407476Y-180060952D01*
X275455095Y-180108571D01*
X275502714Y-180203809D01*
X270617892Y-190663533D02*
X270665511Y-190615914D01*
X270713130Y-190473057D01*
X270713130Y-190377819D01*
X270665511Y-190234961D01*
X270570273Y-190139723D01*
X270475035Y-190092104D01*
X270284559Y-190044485D01*
X270141702Y-190044485D01*
X269951226Y-190092104D01*
X269855988Y-190139723D01*
X269760750Y-190234961D01*
X269713130Y-190377819D01*
X269713130Y-190473057D01*
X269760750Y-190615914D01*
X269808369Y-190663533D01*
X269713130Y-191568295D02*
X269713130Y-191092104D01*
X270189321Y-191044485D01*
X270141702Y-191092104D01*
X270094083Y-191187342D01*
X270094083Y-191425438D01*
X270141702Y-191520676D01*
X270189321Y-191568295D01*
X270284559Y-191615914D01*
X270522654Y-191615914D01*
X270617892Y-191568295D01*
X270665511Y-191520676D01*
X270713130Y-191425438D01*
X270713130Y-191187342D01*
X270665511Y-191092104D01*
X270617892Y-191044485D01*
X279852416Y-195964142D02*
X279900035Y-196011761D01*
X280042892Y-196059380D01*
X280138130Y-196059380D01*
X280280988Y-196011761D01*
X280376226Y-195916523D01*
X280423845Y-195821285D01*
X280471464Y-195630809D01*
X280471464Y-195487952D01*
X280423845Y-195297476D01*
X280376226Y-195202238D01*
X280280988Y-195107000D01*
X280138130Y-195059380D01*
X280042892Y-195059380D01*
X279900035Y-195107000D01*
X279852416Y-195154619D01*
X278995273Y-195392714D02*
X278995273Y-196059380D01*
X279233369Y-195011761D02*
X279471464Y-195726047D01*
X278852416Y-195726047D01*
X285048292Y-186802733D02*
X285095911Y-186755114D01*
X285143530Y-186612257D01*
X285143530Y-186517019D01*
X285095911Y-186374161D01*
X285000673Y-186278923D01*
X284905435Y-186231304D01*
X284714959Y-186183685D01*
X284572102Y-186183685D01*
X284381626Y-186231304D01*
X284286388Y-186278923D01*
X284191150Y-186374161D01*
X284143530Y-186517019D01*
X284143530Y-186612257D01*
X284191150Y-186755114D01*
X284238769Y-186802733D01*
X284143530Y-187136066D02*
X284143530Y-187755114D01*
X284524483Y-187421780D01*
X284524483Y-187564638D01*
X284572102Y-187659876D01*
X284619721Y-187707495D01*
X284714959Y-187755114D01*
X284953054Y-187755114D01*
X285048292Y-187707495D01*
X285095911Y-187659876D01*
X285143530Y-187564638D01*
X285143530Y-187278923D01*
X285095911Y-187183685D01*
X285048292Y-187136066D01*
X286679892Y-186269333D02*
X286727511Y-186221714D01*
X286775130Y-186078857D01*
X286775130Y-185983619D01*
X286727511Y-185840761D01*
X286632273Y-185745523D01*
X286537035Y-185697904D01*
X286346559Y-185650285D01*
X286203702Y-185650285D01*
X286013226Y-185697904D01*
X285917988Y-185745523D01*
X285822750Y-185840761D01*
X285775130Y-185983619D01*
X285775130Y-186078857D01*
X285822750Y-186221714D01*
X285870369Y-186269333D01*
X285775130Y-186602666D02*
X285775130Y-187269333D01*
X286775130Y-186840761D01*
X276398016Y-182244942D02*
X276445635Y-182292561D01*
X276588492Y-182340180D01*
X276683730Y-182340180D01*
X276826588Y-182292561D01*
X276921826Y-182197323D01*
X276969445Y-182102085D01*
X277017064Y-181911609D01*
X277017064Y-181768752D01*
X276969445Y-181578276D01*
X276921826Y-181483038D01*
X276826588Y-181387800D01*
X276683730Y-181340180D01*
X276588492Y-181340180D01*
X276445635Y-181387800D01*
X276398016Y-181435419D01*
X276017064Y-181435419D02*
X275969445Y-181387800D01*
X275874207Y-181340180D01*
X275636111Y-181340180D01*
X275540873Y-181387800D01*
X275493254Y-181435419D01*
X275445635Y-181530657D01*
X275445635Y-181625895D01*
X275493254Y-181768752D01*
X276064683Y-182340180D01*
X275445635Y-182340180D01*
X109640380Y-91209952D02*
X108640380Y-91209952D01*
X108640380Y-91448047D01*
X108688000Y-91590904D01*
X108783238Y-91686142D01*
X108878476Y-91733761D01*
X109068952Y-91781380D01*
X109211809Y-91781380D01*
X109402285Y-91733761D01*
X109497523Y-91686142D01*
X109592761Y-91590904D01*
X109640380Y-91448047D01*
X109640380Y-91209952D01*
X109735619Y-91971857D02*
X109735619Y-92733761D01*
X108640380Y-93162333D02*
X108640380Y-93257571D01*
X108688000Y-93352809D01*
X108735619Y-93400428D01*
X108830857Y-93448047D01*
X109021333Y-93495666D01*
X109259428Y-93495666D01*
X109449904Y-93448047D01*
X109545142Y-93400428D01*
X109592761Y-93352809D01*
X109640380Y-93257571D01*
X109640380Y-93162333D01*
X109592761Y-93067095D01*
X109545142Y-93019476D01*
X109449904Y-92971857D01*
X109259428Y-92924238D01*
X109021333Y-92924238D01*
X108830857Y-92971857D01*
X108735619Y-93019476D01*
X108688000Y-93067095D01*
X108640380Y-93162333D01*
X134008630Y-91455952D02*
X133008630Y-91455952D01*
X133008630Y-91694047D01*
X133056250Y-91836904D01*
X133151488Y-91932142D01*
X133246726Y-91979761D01*
X133437202Y-92027380D01*
X133580059Y-92027380D01*
X133770535Y-91979761D01*
X133865773Y-91932142D01*
X133961011Y-91836904D01*
X134008630Y-91694047D01*
X134008630Y-91455952D01*
X134103869Y-92217857D02*
X134103869Y-92979761D01*
X134008630Y-93741666D02*
X134008630Y-93170238D01*
X134008630Y-93455952D02*
X133008630Y-93455952D01*
X133151488Y-93360714D01*
X133246726Y-93265476D01*
X133294345Y-93170238D01*
X153058630Y-91455952D02*
X152058630Y-91455952D01*
X152058630Y-91694047D01*
X152106250Y-91836904D01*
X152201488Y-91932142D01*
X152296726Y-91979761D01*
X152487202Y-92027380D01*
X152630059Y-92027380D01*
X152820535Y-91979761D01*
X152915773Y-91932142D01*
X153011011Y-91836904D01*
X153058630Y-91694047D01*
X153058630Y-91455952D01*
X153153869Y-92217857D02*
X153153869Y-92979761D01*
X152153869Y-93170238D02*
X152106250Y-93217857D01*
X152058630Y-93313095D01*
X152058630Y-93551190D01*
X152106250Y-93646428D01*
X152153869Y-93694047D01*
X152249107Y-93741666D01*
X152344345Y-93741666D01*
X152487202Y-93694047D01*
X153058630Y-93122619D01*
X153058630Y-93741666D01*
X172108630Y-91455952D02*
X171108630Y-91455952D01*
X171108630Y-91694047D01*
X171156250Y-91836904D01*
X171251488Y-91932142D01*
X171346726Y-91979761D01*
X171537202Y-92027380D01*
X171680059Y-92027380D01*
X171870535Y-91979761D01*
X171965773Y-91932142D01*
X172061011Y-91836904D01*
X172108630Y-91694047D01*
X172108630Y-91455952D01*
X172203869Y-92217857D02*
X172203869Y-92979761D01*
X171108630Y-93122619D02*
X171108630Y-93741666D01*
X171489583Y-93408333D01*
X171489583Y-93551190D01*
X171537202Y-93646428D01*
X171584821Y-93694047D01*
X171680059Y-93741666D01*
X171918154Y-93741666D01*
X172013392Y-93694047D01*
X172061011Y-93646428D01*
X172108630Y-93551190D01*
X172108630Y-93265476D01*
X172061011Y-93170238D01*
X172013392Y-93122619D01*
X191158630Y-91455952D02*
X190158630Y-91455952D01*
X190158630Y-91694047D01*
X190206250Y-91836904D01*
X190301488Y-91932142D01*
X190396726Y-91979761D01*
X190587202Y-92027380D01*
X190730059Y-92027380D01*
X190920535Y-91979761D01*
X191015773Y-91932142D01*
X191111011Y-91836904D01*
X191158630Y-91694047D01*
X191158630Y-91455952D01*
X191253869Y-92217857D02*
X191253869Y-92979761D01*
X190491964Y-93646428D02*
X191158630Y-93646428D01*
X190111011Y-93408333D02*
X190825297Y-93170238D01*
X190825297Y-93789285D01*
X214971130Y-91455952D02*
X213971130Y-91455952D01*
X213971130Y-91694047D01*
X214018750Y-91836904D01*
X214113988Y-91932142D01*
X214209226Y-91979761D01*
X214399702Y-92027380D01*
X214542559Y-92027380D01*
X214733035Y-91979761D01*
X214828273Y-91932142D01*
X214923511Y-91836904D01*
X214971130Y-91694047D01*
X214971130Y-91455952D01*
X215066369Y-92217857D02*
X215066369Y-92979761D01*
X213971130Y-93694047D02*
X213971130Y-93217857D01*
X214447321Y-93170238D01*
X214399702Y-93217857D01*
X214352083Y-93313095D01*
X214352083Y-93551190D01*
X214399702Y-93646428D01*
X214447321Y-93694047D01*
X214542559Y-93741666D01*
X214780654Y-93741666D01*
X214875892Y-93694047D01*
X214923511Y-93646428D01*
X214971130Y-93551190D01*
X214971130Y-93313095D01*
X214923511Y-93217857D01*
X214875892Y-93170238D01*
X234021130Y-91455952D02*
X233021130Y-91455952D01*
X233021130Y-91694047D01*
X233068750Y-91836904D01*
X233163988Y-91932142D01*
X233259226Y-91979761D01*
X233449702Y-92027380D01*
X233592559Y-92027380D01*
X233783035Y-91979761D01*
X233878273Y-91932142D01*
X233973511Y-91836904D01*
X234021130Y-91694047D01*
X234021130Y-91455952D01*
X234116369Y-92217857D02*
X234116369Y-92979761D01*
X233021130Y-93646428D02*
X233021130Y-93455952D01*
X233068750Y-93360714D01*
X233116369Y-93313095D01*
X233259226Y-93217857D01*
X233449702Y-93170238D01*
X233830654Y-93170238D01*
X233925892Y-93217857D01*
X233973511Y-93265476D01*
X234021130Y-93360714D01*
X234021130Y-93551190D01*
X233973511Y-93646428D01*
X233925892Y-93694047D01*
X233830654Y-93741666D01*
X233592559Y-93741666D01*
X233497321Y-93694047D01*
X233449702Y-93646428D01*
X233402083Y-93551190D01*
X233402083Y-93360714D01*
X233449702Y-93265476D01*
X233497321Y-93217857D01*
X233592559Y-93170238D01*
X253071130Y-91455952D02*
X252071130Y-91455952D01*
X252071130Y-91694047D01*
X252118750Y-91836904D01*
X252213988Y-91932142D01*
X252309226Y-91979761D01*
X252499702Y-92027380D01*
X252642559Y-92027380D01*
X252833035Y-91979761D01*
X252928273Y-91932142D01*
X253023511Y-91836904D01*
X253071130Y-91694047D01*
X253071130Y-91455952D01*
X253166369Y-92217857D02*
X253166369Y-92979761D01*
X252071130Y-93122619D02*
X252071130Y-93789285D01*
X253071130Y-93360714D01*
X272121130Y-91455952D02*
X271121130Y-91455952D01*
X271121130Y-91694047D01*
X271168750Y-91836904D01*
X271263988Y-91932142D01*
X271359226Y-91979761D01*
X271549702Y-92027380D01*
X271692559Y-92027380D01*
X271883035Y-91979761D01*
X271978273Y-91932142D01*
X272073511Y-91836904D01*
X272121130Y-91694047D01*
X272121130Y-91455952D01*
X272216369Y-92217857D02*
X272216369Y-92979761D01*
X271549702Y-93360714D02*
X271502083Y-93265476D01*
X271454464Y-93217857D01*
X271359226Y-93170238D01*
X271311607Y-93170238D01*
X271216369Y-93217857D01*
X271168750Y-93265476D01*
X271121130Y-93360714D01*
X271121130Y-93551190D01*
X271168750Y-93646428D01*
X271216369Y-93694047D01*
X271311607Y-93741666D01*
X271359226Y-93741666D01*
X271454464Y-93694047D01*
X271502083Y-93646428D01*
X271549702Y-93551190D01*
X271549702Y-93360714D01*
X271597321Y-93265476D01*
X271644940Y-93217857D01*
X271740178Y-93170238D01*
X271930654Y-93170238D01*
X272025892Y-93217857D01*
X272073511Y-93265476D01*
X272121130Y-93360714D01*
X272121130Y-93551190D01*
X272073511Y-93646428D01*
X272025892Y-93694047D01*
X271930654Y-93741666D01*
X271740178Y-93741666D01*
X271644940Y-93694047D01*
X271597321Y-93646428D01*
X271549702Y-93551190D01*
X295933630Y-91455952D02*
X294933630Y-91455952D01*
X294933630Y-91694047D01*
X294981250Y-91836904D01*
X295076488Y-91932142D01*
X295171726Y-91979761D01*
X295362202Y-92027380D01*
X295505059Y-92027380D01*
X295695535Y-91979761D01*
X295790773Y-91932142D01*
X295886011Y-91836904D01*
X295933630Y-91694047D01*
X295933630Y-91455952D01*
X296028869Y-92217857D02*
X296028869Y-92979761D01*
X295933630Y-93265476D02*
X295933630Y-93455952D01*
X295886011Y-93551190D01*
X295838392Y-93598809D01*
X295695535Y-93694047D01*
X295505059Y-93741666D01*
X295124107Y-93741666D01*
X295028869Y-93694047D01*
X294981250Y-93646428D01*
X294933630Y-93551190D01*
X294933630Y-93360714D01*
X294981250Y-93265476D01*
X295028869Y-93217857D01*
X295124107Y-93170238D01*
X295362202Y-93170238D01*
X295457440Y-93217857D01*
X295505059Y-93265476D01*
X295552678Y-93360714D01*
X295552678Y-93551190D01*
X295505059Y-93646428D01*
X295457440Y-93694047D01*
X295362202Y-93741666D01*
X314983630Y-90979761D02*
X313983630Y-90979761D01*
X313983630Y-91217857D01*
X314031250Y-91360714D01*
X314126488Y-91455952D01*
X314221726Y-91503571D01*
X314412202Y-91551190D01*
X314555059Y-91551190D01*
X314745535Y-91503571D01*
X314840773Y-91455952D01*
X314936011Y-91360714D01*
X314983630Y-91217857D01*
X314983630Y-90979761D01*
X315078869Y-91741666D02*
X315078869Y-92503571D01*
X314983630Y-93265476D02*
X314983630Y-92694047D01*
X314983630Y-92979761D02*
X313983630Y-92979761D01*
X314126488Y-92884523D01*
X314221726Y-92789285D01*
X314269345Y-92694047D01*
X313983630Y-93884523D02*
X313983630Y-93979761D01*
X314031250Y-94075000D01*
X314078869Y-94122619D01*
X314174107Y-94170238D01*
X314364583Y-94217857D01*
X314602678Y-94217857D01*
X314793154Y-94170238D01*
X314888392Y-94122619D01*
X314936011Y-94075000D01*
X314983630Y-93979761D01*
X314983630Y-93884523D01*
X314936011Y-93789285D01*
X314888392Y-93741666D01*
X314793154Y-93694047D01*
X314602678Y-93646428D01*
X314364583Y-93646428D01*
X314174107Y-93694047D01*
X314078869Y-93741666D01*
X314031250Y-93789285D01*
X313983630Y-93884523D01*
X334033630Y-90979761D02*
X333033630Y-90979761D01*
X333033630Y-91217857D01*
X333081250Y-91360714D01*
X333176488Y-91455952D01*
X333271726Y-91503571D01*
X333462202Y-91551190D01*
X333605059Y-91551190D01*
X333795535Y-91503571D01*
X333890773Y-91455952D01*
X333986011Y-91360714D01*
X334033630Y-91217857D01*
X334033630Y-90979761D01*
X334128869Y-91741666D02*
X334128869Y-92503571D01*
X334033630Y-93265476D02*
X334033630Y-92694047D01*
X334033630Y-92979761D02*
X333033630Y-92979761D01*
X333176488Y-92884523D01*
X333271726Y-92789285D01*
X333319345Y-92694047D01*
X334033630Y-94217857D02*
X334033630Y-93646428D01*
X334033630Y-93932142D02*
X333033630Y-93932142D01*
X333176488Y-93836904D01*
X333271726Y-93741666D01*
X333319345Y-93646428D01*
X353083630Y-90979761D02*
X352083630Y-90979761D01*
X352083630Y-91217857D01*
X352131250Y-91360714D01*
X352226488Y-91455952D01*
X352321726Y-91503571D01*
X352512202Y-91551190D01*
X352655059Y-91551190D01*
X352845535Y-91503571D01*
X352940773Y-91455952D01*
X353036011Y-91360714D01*
X353083630Y-91217857D01*
X353083630Y-90979761D01*
X353178869Y-91741666D02*
X353178869Y-92503571D01*
X353083630Y-93265476D02*
X353083630Y-92694047D01*
X353083630Y-92979761D02*
X352083630Y-92979761D01*
X352226488Y-92884523D01*
X352321726Y-92789285D01*
X352369345Y-92694047D01*
X352178869Y-93646428D02*
X352131250Y-93694047D01*
X352083630Y-93789285D01*
X352083630Y-94027380D01*
X352131250Y-94122619D01*
X352178869Y-94170238D01*
X352274107Y-94217857D01*
X352369345Y-94217857D01*
X352512202Y-94170238D01*
X353083630Y-93598809D01*
X353083630Y-94217857D01*
X376896130Y-90979761D02*
X375896130Y-90979761D01*
X375896130Y-91217857D01*
X375943750Y-91360714D01*
X376038988Y-91455952D01*
X376134226Y-91503571D01*
X376324702Y-91551190D01*
X376467559Y-91551190D01*
X376658035Y-91503571D01*
X376753273Y-91455952D01*
X376848511Y-91360714D01*
X376896130Y-91217857D01*
X376896130Y-90979761D01*
X376991369Y-91741666D02*
X376991369Y-92503571D01*
X376896130Y-93265476D02*
X376896130Y-92694047D01*
X376896130Y-92979761D02*
X375896130Y-92979761D01*
X376038988Y-92884523D01*
X376134226Y-92789285D01*
X376181845Y-92694047D01*
X375896130Y-93598809D02*
X375896130Y-94217857D01*
X376277083Y-93884523D01*
X376277083Y-94027380D01*
X376324702Y-94122619D01*
X376372321Y-94170238D01*
X376467559Y-94217857D01*
X376705654Y-94217857D01*
X376800892Y-94170238D01*
X376848511Y-94122619D01*
X376896130Y-94027380D01*
X376896130Y-93741666D01*
X376848511Y-93646428D01*
X376800892Y-93598809D01*
X395946130Y-90979761D02*
X394946130Y-90979761D01*
X394946130Y-91217857D01*
X394993750Y-91360714D01*
X395088988Y-91455952D01*
X395184226Y-91503571D01*
X395374702Y-91551190D01*
X395517559Y-91551190D01*
X395708035Y-91503571D01*
X395803273Y-91455952D01*
X395898511Y-91360714D01*
X395946130Y-91217857D01*
X395946130Y-90979761D01*
X396041369Y-91741666D02*
X396041369Y-92503571D01*
X395946130Y-93265476D02*
X395946130Y-92694047D01*
X395946130Y-92979761D02*
X394946130Y-92979761D01*
X395088988Y-92884523D01*
X395184226Y-92789285D01*
X395231845Y-92694047D01*
X395279464Y-94122619D02*
X395946130Y-94122619D01*
X394898511Y-93884523D02*
X395612797Y-93646428D01*
X395612797Y-94265476D01*
X414996130Y-90979761D02*
X413996130Y-90979761D01*
X413996130Y-91217857D01*
X414043750Y-91360714D01*
X414138988Y-91455952D01*
X414234226Y-91503571D01*
X414424702Y-91551190D01*
X414567559Y-91551190D01*
X414758035Y-91503571D01*
X414853273Y-91455952D01*
X414948511Y-91360714D01*
X414996130Y-91217857D01*
X414996130Y-90979761D01*
X415091369Y-91741666D02*
X415091369Y-92503571D01*
X414996130Y-93265476D02*
X414996130Y-92694047D01*
X414996130Y-92979761D02*
X413996130Y-92979761D01*
X414138988Y-92884523D01*
X414234226Y-92789285D01*
X414281845Y-92694047D01*
X413996130Y-94170238D02*
X413996130Y-93694047D01*
X414472321Y-93646428D01*
X414424702Y-93694047D01*
X414377083Y-93789285D01*
X414377083Y-94027380D01*
X414424702Y-94122619D01*
X414472321Y-94170238D01*
X414567559Y-94217857D01*
X414805654Y-94217857D01*
X414900892Y-94170238D01*
X414948511Y-94122619D01*
X414996130Y-94027380D01*
X414996130Y-93789285D01*
X414948511Y-93694047D01*
X414900892Y-93646428D01*
X434046130Y-90979761D02*
X433046130Y-90979761D01*
X433046130Y-91217857D01*
X433093750Y-91360714D01*
X433188988Y-91455952D01*
X433284226Y-91503571D01*
X433474702Y-91551190D01*
X433617559Y-91551190D01*
X433808035Y-91503571D01*
X433903273Y-91455952D01*
X433998511Y-91360714D01*
X434046130Y-91217857D01*
X434046130Y-90979761D01*
X434141369Y-91741666D02*
X434141369Y-92503571D01*
X434046130Y-93265476D02*
X434046130Y-92694047D01*
X434046130Y-92979761D02*
X433046130Y-92979761D01*
X433188988Y-92884523D01*
X433284226Y-92789285D01*
X433331845Y-92694047D01*
X433046130Y-94122619D02*
X433046130Y-93932142D01*
X433093750Y-93836904D01*
X433141369Y-93789285D01*
X433284226Y-93694047D01*
X433474702Y-93646428D01*
X433855654Y-93646428D01*
X433950892Y-93694047D01*
X433998511Y-93741666D01*
X434046130Y-93836904D01*
X434046130Y-94027380D01*
X433998511Y-94122619D01*
X433950892Y-94170238D01*
X433855654Y-94217857D01*
X433617559Y-94217857D01*
X433522321Y-94170238D01*
X433474702Y-94122619D01*
X433427083Y-94027380D01*
X433427083Y-93836904D01*
X433474702Y-93741666D01*
X433522321Y-93694047D01*
X433617559Y-93646428D01*
X453096130Y-90979761D02*
X452096130Y-90979761D01*
X452096130Y-91217857D01*
X452143750Y-91360714D01*
X452238988Y-91455952D01*
X452334226Y-91503571D01*
X452524702Y-91551190D01*
X452667559Y-91551190D01*
X452858035Y-91503571D01*
X452953273Y-91455952D01*
X453048511Y-91360714D01*
X453096130Y-91217857D01*
X453096130Y-90979761D01*
X453191369Y-91741666D02*
X453191369Y-92503571D01*
X453096130Y-93265476D02*
X453096130Y-92694047D01*
X453096130Y-92979761D02*
X452096130Y-92979761D01*
X452238988Y-92884523D01*
X452334226Y-92789285D01*
X452381845Y-92694047D01*
X452096130Y-93598809D02*
X452096130Y-94265476D01*
X453096130Y-93836904D01*
X110196130Y-110029761D02*
X109196130Y-110029761D01*
X109196130Y-110267857D01*
X109243750Y-110410714D01*
X109338988Y-110505952D01*
X109434226Y-110553571D01*
X109624702Y-110601190D01*
X109767559Y-110601190D01*
X109958035Y-110553571D01*
X110053273Y-110505952D01*
X110148511Y-110410714D01*
X110196130Y-110267857D01*
X110196130Y-110029761D01*
X110291369Y-110791666D02*
X110291369Y-111553571D01*
X110196130Y-112315476D02*
X110196130Y-111744047D01*
X110196130Y-112029761D02*
X109196130Y-112029761D01*
X109338988Y-111934523D01*
X109434226Y-111839285D01*
X109481845Y-111744047D01*
X109624702Y-112886904D02*
X109577083Y-112791666D01*
X109529464Y-112744047D01*
X109434226Y-112696428D01*
X109386607Y-112696428D01*
X109291369Y-112744047D01*
X109243750Y-112791666D01*
X109196130Y-112886904D01*
X109196130Y-113077380D01*
X109243750Y-113172619D01*
X109291369Y-113220238D01*
X109386607Y-113267857D01*
X109434226Y-113267857D01*
X109529464Y-113220238D01*
X109577083Y-113172619D01*
X109624702Y-113077380D01*
X109624702Y-112886904D01*
X109672321Y-112791666D01*
X109719940Y-112744047D01*
X109815178Y-112696428D01*
X110005654Y-112696428D01*
X110100892Y-112744047D01*
X110148511Y-112791666D01*
X110196130Y-112886904D01*
X110196130Y-113077380D01*
X110148511Y-113172619D01*
X110100892Y-113220238D01*
X110005654Y-113267857D01*
X109815178Y-113267857D01*
X109719940Y-113220238D01*
X109672321Y-113172619D01*
X109624702Y-113077380D01*
X129246130Y-110029761D02*
X128246130Y-110029761D01*
X128246130Y-110267857D01*
X128293750Y-110410714D01*
X128388988Y-110505952D01*
X128484226Y-110553571D01*
X128674702Y-110601190D01*
X128817559Y-110601190D01*
X129008035Y-110553571D01*
X129103273Y-110505952D01*
X129198511Y-110410714D01*
X129246130Y-110267857D01*
X129246130Y-110029761D01*
X129341369Y-110791666D02*
X129341369Y-111553571D01*
X129246130Y-112315476D02*
X129246130Y-111744047D01*
X129246130Y-112029761D02*
X128246130Y-112029761D01*
X128388988Y-111934523D01*
X128484226Y-111839285D01*
X128531845Y-111744047D01*
X129246130Y-112791666D02*
X129246130Y-112982142D01*
X129198511Y-113077380D01*
X129150892Y-113125000D01*
X129008035Y-113220238D01*
X128817559Y-113267857D01*
X128436607Y-113267857D01*
X128341369Y-113220238D01*
X128293750Y-113172619D01*
X128246130Y-113077380D01*
X128246130Y-112886904D01*
X128293750Y-112791666D01*
X128341369Y-112744047D01*
X128436607Y-112696428D01*
X128674702Y-112696428D01*
X128769940Y-112744047D01*
X128817559Y-112791666D01*
X128865178Y-112886904D01*
X128865178Y-113077380D01*
X128817559Y-113172619D01*
X128769940Y-113220238D01*
X128674702Y-113267857D01*
X148296130Y-110029761D02*
X147296130Y-110029761D01*
X147296130Y-110267857D01*
X147343750Y-110410714D01*
X147438988Y-110505952D01*
X147534226Y-110553571D01*
X147724702Y-110601190D01*
X147867559Y-110601190D01*
X148058035Y-110553571D01*
X148153273Y-110505952D01*
X148248511Y-110410714D01*
X148296130Y-110267857D01*
X148296130Y-110029761D01*
X148391369Y-110791666D02*
X148391369Y-111553571D01*
X147391369Y-111744047D02*
X147343750Y-111791666D01*
X147296130Y-111886904D01*
X147296130Y-112125000D01*
X147343750Y-112220238D01*
X147391369Y-112267857D01*
X147486607Y-112315476D01*
X147581845Y-112315476D01*
X147724702Y-112267857D01*
X148296130Y-111696428D01*
X148296130Y-112315476D01*
X147296130Y-112934523D02*
X147296130Y-113029761D01*
X147343750Y-113125000D01*
X147391369Y-113172619D01*
X147486607Y-113220238D01*
X147677083Y-113267857D01*
X147915178Y-113267857D01*
X148105654Y-113220238D01*
X148200892Y-113172619D01*
X148248511Y-113125000D01*
X148296130Y-113029761D01*
X148296130Y-112934523D01*
X148248511Y-112839285D01*
X148200892Y-112791666D01*
X148105654Y-112744047D01*
X147915178Y-112696428D01*
X147677083Y-112696428D01*
X147486607Y-112744047D01*
X147391369Y-112791666D01*
X147343750Y-112839285D01*
X147296130Y-112934523D01*
X167346130Y-110029761D02*
X166346130Y-110029761D01*
X166346130Y-110267857D01*
X166393750Y-110410714D01*
X166488988Y-110505952D01*
X166584226Y-110553571D01*
X166774702Y-110601190D01*
X166917559Y-110601190D01*
X167108035Y-110553571D01*
X167203273Y-110505952D01*
X167298511Y-110410714D01*
X167346130Y-110267857D01*
X167346130Y-110029761D01*
X167441369Y-110791666D02*
X167441369Y-111553571D01*
X166441369Y-111744047D02*
X166393750Y-111791666D01*
X166346130Y-111886904D01*
X166346130Y-112125000D01*
X166393750Y-112220238D01*
X166441369Y-112267857D01*
X166536607Y-112315476D01*
X166631845Y-112315476D01*
X166774702Y-112267857D01*
X167346130Y-111696428D01*
X167346130Y-112315476D01*
X167346130Y-113267857D02*
X167346130Y-112696428D01*
X167346130Y-112982142D02*
X166346130Y-112982142D01*
X166488988Y-112886904D01*
X166584226Y-112791666D01*
X166631845Y-112696428D01*
X186396130Y-110029761D02*
X185396130Y-110029761D01*
X185396130Y-110267857D01*
X185443750Y-110410714D01*
X185538988Y-110505952D01*
X185634226Y-110553571D01*
X185824702Y-110601190D01*
X185967559Y-110601190D01*
X186158035Y-110553571D01*
X186253273Y-110505952D01*
X186348511Y-110410714D01*
X186396130Y-110267857D01*
X186396130Y-110029761D01*
X186491369Y-110791666D02*
X186491369Y-111553571D01*
X185491369Y-111744047D02*
X185443750Y-111791666D01*
X185396130Y-111886904D01*
X185396130Y-112125000D01*
X185443750Y-112220238D01*
X185491369Y-112267857D01*
X185586607Y-112315476D01*
X185681845Y-112315476D01*
X185824702Y-112267857D01*
X186396130Y-111696428D01*
X186396130Y-112315476D01*
X185491369Y-112696428D02*
X185443750Y-112744047D01*
X185396130Y-112839285D01*
X185396130Y-113077380D01*
X185443750Y-113172619D01*
X185491369Y-113220238D01*
X185586607Y-113267857D01*
X185681845Y-113267857D01*
X185824702Y-113220238D01*
X186396130Y-112648809D01*
X186396130Y-113267857D01*
X205446130Y-110029761D02*
X204446130Y-110029761D01*
X204446130Y-110267857D01*
X204493750Y-110410714D01*
X204588988Y-110505952D01*
X204684226Y-110553571D01*
X204874702Y-110601190D01*
X205017559Y-110601190D01*
X205208035Y-110553571D01*
X205303273Y-110505952D01*
X205398511Y-110410714D01*
X205446130Y-110267857D01*
X205446130Y-110029761D01*
X205541369Y-110791666D02*
X205541369Y-111553571D01*
X204541369Y-111744047D02*
X204493750Y-111791666D01*
X204446130Y-111886904D01*
X204446130Y-112125000D01*
X204493750Y-112220238D01*
X204541369Y-112267857D01*
X204636607Y-112315476D01*
X204731845Y-112315476D01*
X204874702Y-112267857D01*
X205446130Y-111696428D01*
X205446130Y-112315476D01*
X204446130Y-112648809D02*
X204446130Y-113267857D01*
X204827083Y-112934523D01*
X204827083Y-113077380D01*
X204874702Y-113172619D01*
X204922321Y-113220238D01*
X205017559Y-113267857D01*
X205255654Y-113267857D01*
X205350892Y-113220238D01*
X205398511Y-113172619D01*
X205446130Y-113077380D01*
X205446130Y-112791666D01*
X205398511Y-112696428D01*
X205350892Y-112648809D01*
X224496130Y-110029761D02*
X223496130Y-110029761D01*
X223496130Y-110267857D01*
X223543750Y-110410714D01*
X223638988Y-110505952D01*
X223734226Y-110553571D01*
X223924702Y-110601190D01*
X224067559Y-110601190D01*
X224258035Y-110553571D01*
X224353273Y-110505952D01*
X224448511Y-110410714D01*
X224496130Y-110267857D01*
X224496130Y-110029761D01*
X224591369Y-110791666D02*
X224591369Y-111553571D01*
X223591369Y-111744047D02*
X223543750Y-111791666D01*
X223496130Y-111886904D01*
X223496130Y-112125000D01*
X223543750Y-112220238D01*
X223591369Y-112267857D01*
X223686607Y-112315476D01*
X223781845Y-112315476D01*
X223924702Y-112267857D01*
X224496130Y-111696428D01*
X224496130Y-112315476D01*
X223829464Y-113172619D02*
X224496130Y-113172619D01*
X223448511Y-112934523D02*
X224162797Y-112696428D01*
X224162797Y-113315476D01*
X243546130Y-110029761D02*
X242546130Y-110029761D01*
X242546130Y-110267857D01*
X242593750Y-110410714D01*
X242688988Y-110505952D01*
X242784226Y-110553571D01*
X242974702Y-110601190D01*
X243117559Y-110601190D01*
X243308035Y-110553571D01*
X243403273Y-110505952D01*
X243498511Y-110410714D01*
X243546130Y-110267857D01*
X243546130Y-110029761D01*
X243641369Y-110791666D02*
X243641369Y-111553571D01*
X242641369Y-111744047D02*
X242593750Y-111791666D01*
X242546130Y-111886904D01*
X242546130Y-112125000D01*
X242593750Y-112220238D01*
X242641369Y-112267857D01*
X242736607Y-112315476D01*
X242831845Y-112315476D01*
X242974702Y-112267857D01*
X243546130Y-111696428D01*
X243546130Y-112315476D01*
X242546130Y-113220238D02*
X242546130Y-112744047D01*
X243022321Y-112696428D01*
X242974702Y-112744047D01*
X242927083Y-112839285D01*
X242927083Y-113077380D01*
X242974702Y-113172619D01*
X243022321Y-113220238D01*
X243117559Y-113267857D01*
X243355654Y-113267857D01*
X243450892Y-113220238D01*
X243498511Y-113172619D01*
X243546130Y-113077380D01*
X243546130Y-112839285D01*
X243498511Y-112744047D01*
X243450892Y-112696428D01*
X262596130Y-110029761D02*
X261596130Y-110029761D01*
X261596130Y-110267857D01*
X261643750Y-110410714D01*
X261738988Y-110505952D01*
X261834226Y-110553571D01*
X262024702Y-110601190D01*
X262167559Y-110601190D01*
X262358035Y-110553571D01*
X262453273Y-110505952D01*
X262548511Y-110410714D01*
X262596130Y-110267857D01*
X262596130Y-110029761D01*
X262691369Y-110791666D02*
X262691369Y-111553571D01*
X261691369Y-111744047D02*
X261643750Y-111791666D01*
X261596130Y-111886904D01*
X261596130Y-112125000D01*
X261643750Y-112220238D01*
X261691369Y-112267857D01*
X261786607Y-112315476D01*
X261881845Y-112315476D01*
X262024702Y-112267857D01*
X262596130Y-111696428D01*
X262596130Y-112315476D01*
X261596130Y-113172619D02*
X261596130Y-112982142D01*
X261643750Y-112886904D01*
X261691369Y-112839285D01*
X261834226Y-112744047D01*
X262024702Y-112696428D01*
X262405654Y-112696428D01*
X262500892Y-112744047D01*
X262548511Y-112791666D01*
X262596130Y-112886904D01*
X262596130Y-113077380D01*
X262548511Y-113172619D01*
X262500892Y-113220238D01*
X262405654Y-113267857D01*
X262167559Y-113267857D01*
X262072321Y-113220238D01*
X262024702Y-113172619D01*
X261977083Y-113077380D01*
X261977083Y-112886904D01*
X262024702Y-112791666D01*
X262072321Y-112744047D01*
X262167559Y-112696428D01*
X281646130Y-110029761D02*
X280646130Y-110029761D01*
X280646130Y-110267857D01*
X280693750Y-110410714D01*
X280788988Y-110505952D01*
X280884226Y-110553571D01*
X281074702Y-110601190D01*
X281217559Y-110601190D01*
X281408035Y-110553571D01*
X281503273Y-110505952D01*
X281598511Y-110410714D01*
X281646130Y-110267857D01*
X281646130Y-110029761D01*
X281741369Y-110791666D02*
X281741369Y-111553571D01*
X280741369Y-111744047D02*
X280693750Y-111791666D01*
X280646130Y-111886904D01*
X280646130Y-112125000D01*
X280693750Y-112220238D01*
X280741369Y-112267857D01*
X280836607Y-112315476D01*
X280931845Y-112315476D01*
X281074702Y-112267857D01*
X281646130Y-111696428D01*
X281646130Y-112315476D01*
X280646130Y-112648809D02*
X280646130Y-113315476D01*
X281646130Y-112886904D01*
X300696130Y-110029761D02*
X299696130Y-110029761D01*
X299696130Y-110267857D01*
X299743750Y-110410714D01*
X299838988Y-110505952D01*
X299934226Y-110553571D01*
X300124702Y-110601190D01*
X300267559Y-110601190D01*
X300458035Y-110553571D01*
X300553273Y-110505952D01*
X300648511Y-110410714D01*
X300696130Y-110267857D01*
X300696130Y-110029761D01*
X300791369Y-110791666D02*
X300791369Y-111553571D01*
X299791369Y-111744047D02*
X299743750Y-111791666D01*
X299696130Y-111886904D01*
X299696130Y-112125000D01*
X299743750Y-112220238D01*
X299791369Y-112267857D01*
X299886607Y-112315476D01*
X299981845Y-112315476D01*
X300124702Y-112267857D01*
X300696130Y-111696428D01*
X300696130Y-112315476D01*
X300124702Y-112886904D02*
X300077083Y-112791666D01*
X300029464Y-112744047D01*
X299934226Y-112696428D01*
X299886607Y-112696428D01*
X299791369Y-112744047D01*
X299743750Y-112791666D01*
X299696130Y-112886904D01*
X299696130Y-113077380D01*
X299743750Y-113172619D01*
X299791369Y-113220238D01*
X299886607Y-113267857D01*
X299934226Y-113267857D01*
X300029464Y-113220238D01*
X300077083Y-113172619D01*
X300124702Y-113077380D01*
X300124702Y-112886904D01*
X300172321Y-112791666D01*
X300219940Y-112744047D01*
X300315178Y-112696428D01*
X300505654Y-112696428D01*
X300600892Y-112744047D01*
X300648511Y-112791666D01*
X300696130Y-112886904D01*
X300696130Y-113077380D01*
X300648511Y-113172619D01*
X300600892Y-113220238D01*
X300505654Y-113267857D01*
X300315178Y-113267857D01*
X300219940Y-113220238D01*
X300172321Y-113172619D01*
X300124702Y-113077380D01*
X319746130Y-110029761D02*
X318746130Y-110029761D01*
X318746130Y-110267857D01*
X318793750Y-110410714D01*
X318888988Y-110505952D01*
X318984226Y-110553571D01*
X319174702Y-110601190D01*
X319317559Y-110601190D01*
X319508035Y-110553571D01*
X319603273Y-110505952D01*
X319698511Y-110410714D01*
X319746130Y-110267857D01*
X319746130Y-110029761D01*
X319841369Y-110791666D02*
X319841369Y-111553571D01*
X318841369Y-111744047D02*
X318793750Y-111791666D01*
X318746130Y-111886904D01*
X318746130Y-112125000D01*
X318793750Y-112220238D01*
X318841369Y-112267857D01*
X318936607Y-112315476D01*
X319031845Y-112315476D01*
X319174702Y-112267857D01*
X319746130Y-111696428D01*
X319746130Y-112315476D01*
X319746130Y-112791666D02*
X319746130Y-112982142D01*
X319698511Y-113077380D01*
X319650892Y-113125000D01*
X319508035Y-113220238D01*
X319317559Y-113267857D01*
X318936607Y-113267857D01*
X318841369Y-113220238D01*
X318793750Y-113172619D01*
X318746130Y-113077380D01*
X318746130Y-112886904D01*
X318793750Y-112791666D01*
X318841369Y-112744047D01*
X318936607Y-112696428D01*
X319174702Y-112696428D01*
X319269940Y-112744047D01*
X319317559Y-112791666D01*
X319365178Y-112886904D01*
X319365178Y-113077380D01*
X319317559Y-113172619D01*
X319269940Y-113220238D01*
X319174702Y-113267857D01*
X338796130Y-110029761D02*
X337796130Y-110029761D01*
X337796130Y-110267857D01*
X337843750Y-110410714D01*
X337938988Y-110505952D01*
X338034226Y-110553571D01*
X338224702Y-110601190D01*
X338367559Y-110601190D01*
X338558035Y-110553571D01*
X338653273Y-110505952D01*
X338748511Y-110410714D01*
X338796130Y-110267857D01*
X338796130Y-110029761D01*
X338891369Y-110791666D02*
X338891369Y-111553571D01*
X337796130Y-111696428D02*
X337796130Y-112315476D01*
X338177083Y-111982142D01*
X338177083Y-112125000D01*
X338224702Y-112220238D01*
X338272321Y-112267857D01*
X338367559Y-112315476D01*
X338605654Y-112315476D01*
X338700892Y-112267857D01*
X338748511Y-112220238D01*
X338796130Y-112125000D01*
X338796130Y-111839285D01*
X338748511Y-111744047D01*
X338700892Y-111696428D01*
X337796130Y-112934523D02*
X337796130Y-113029761D01*
X337843750Y-113125000D01*
X337891369Y-113172619D01*
X337986607Y-113220238D01*
X338177083Y-113267857D01*
X338415178Y-113267857D01*
X338605654Y-113220238D01*
X338700892Y-113172619D01*
X338748511Y-113125000D01*
X338796130Y-113029761D01*
X338796130Y-112934523D01*
X338748511Y-112839285D01*
X338700892Y-112791666D01*
X338605654Y-112744047D01*
X338415178Y-112696428D01*
X338177083Y-112696428D01*
X337986607Y-112744047D01*
X337891369Y-112791666D01*
X337843750Y-112839285D01*
X337796130Y-112934523D01*
X376896130Y-110029761D02*
X375896130Y-110029761D01*
X375896130Y-110267857D01*
X375943750Y-110410714D01*
X376038988Y-110505952D01*
X376134226Y-110553571D01*
X376324702Y-110601190D01*
X376467559Y-110601190D01*
X376658035Y-110553571D01*
X376753273Y-110505952D01*
X376848511Y-110410714D01*
X376896130Y-110267857D01*
X376896130Y-110029761D01*
X376991369Y-110791666D02*
X376991369Y-111553571D01*
X375896130Y-111696428D02*
X375896130Y-112315476D01*
X376277083Y-111982142D01*
X376277083Y-112125000D01*
X376324702Y-112220238D01*
X376372321Y-112267857D01*
X376467559Y-112315476D01*
X376705654Y-112315476D01*
X376800892Y-112267857D01*
X376848511Y-112220238D01*
X376896130Y-112125000D01*
X376896130Y-111839285D01*
X376848511Y-111744047D01*
X376800892Y-111696428D01*
X376896130Y-113267857D02*
X376896130Y-112696428D01*
X376896130Y-112982142D02*
X375896130Y-112982142D01*
X376038988Y-112886904D01*
X376134226Y-112791666D01*
X376181845Y-112696428D01*
X395946130Y-110029761D02*
X394946130Y-110029761D01*
X394946130Y-110267857D01*
X394993750Y-110410714D01*
X395088988Y-110505952D01*
X395184226Y-110553571D01*
X395374702Y-110601190D01*
X395517559Y-110601190D01*
X395708035Y-110553571D01*
X395803273Y-110505952D01*
X395898511Y-110410714D01*
X395946130Y-110267857D01*
X395946130Y-110029761D01*
X396041369Y-110791666D02*
X396041369Y-111553571D01*
X394946130Y-111696428D02*
X394946130Y-112315476D01*
X395327083Y-111982142D01*
X395327083Y-112125000D01*
X395374702Y-112220238D01*
X395422321Y-112267857D01*
X395517559Y-112315476D01*
X395755654Y-112315476D01*
X395850892Y-112267857D01*
X395898511Y-112220238D01*
X395946130Y-112125000D01*
X395946130Y-111839285D01*
X395898511Y-111744047D01*
X395850892Y-111696428D01*
X395041369Y-112696428D02*
X394993750Y-112744047D01*
X394946130Y-112839285D01*
X394946130Y-113077380D01*
X394993750Y-113172619D01*
X395041369Y-113220238D01*
X395136607Y-113267857D01*
X395231845Y-113267857D01*
X395374702Y-113220238D01*
X395946130Y-112648809D01*
X395946130Y-113267857D01*
X414996130Y-110029761D02*
X413996130Y-110029761D01*
X413996130Y-110267857D01*
X414043750Y-110410714D01*
X414138988Y-110505952D01*
X414234226Y-110553571D01*
X414424702Y-110601190D01*
X414567559Y-110601190D01*
X414758035Y-110553571D01*
X414853273Y-110505952D01*
X414948511Y-110410714D01*
X414996130Y-110267857D01*
X414996130Y-110029761D01*
X415091369Y-110791666D02*
X415091369Y-111553571D01*
X413996130Y-111696428D02*
X413996130Y-112315476D01*
X414377083Y-111982142D01*
X414377083Y-112125000D01*
X414424702Y-112220238D01*
X414472321Y-112267857D01*
X414567559Y-112315476D01*
X414805654Y-112315476D01*
X414900892Y-112267857D01*
X414948511Y-112220238D01*
X414996130Y-112125000D01*
X414996130Y-111839285D01*
X414948511Y-111744047D01*
X414900892Y-111696428D01*
X413996130Y-112648809D02*
X413996130Y-113267857D01*
X414377083Y-112934523D01*
X414377083Y-113077380D01*
X414424702Y-113172619D01*
X414472321Y-113220238D01*
X414567559Y-113267857D01*
X414805654Y-113267857D01*
X414900892Y-113220238D01*
X414948511Y-113172619D01*
X414996130Y-113077380D01*
X414996130Y-112791666D01*
X414948511Y-112696428D01*
X414900892Y-112648809D01*
X434046130Y-110029761D02*
X433046130Y-110029761D01*
X433046130Y-110267857D01*
X433093750Y-110410714D01*
X433188988Y-110505952D01*
X433284226Y-110553571D01*
X433474702Y-110601190D01*
X433617559Y-110601190D01*
X433808035Y-110553571D01*
X433903273Y-110505952D01*
X433998511Y-110410714D01*
X434046130Y-110267857D01*
X434046130Y-110029761D01*
X434141369Y-110791666D02*
X434141369Y-111553571D01*
X433046130Y-111696428D02*
X433046130Y-112315476D01*
X433427083Y-111982142D01*
X433427083Y-112125000D01*
X433474702Y-112220238D01*
X433522321Y-112267857D01*
X433617559Y-112315476D01*
X433855654Y-112315476D01*
X433950892Y-112267857D01*
X433998511Y-112220238D01*
X434046130Y-112125000D01*
X434046130Y-111839285D01*
X433998511Y-111744047D01*
X433950892Y-111696428D01*
X433379464Y-113172619D02*
X434046130Y-113172619D01*
X432998511Y-112934523D02*
X433712797Y-112696428D01*
X433712797Y-113315476D01*
X453096130Y-110029761D02*
X452096130Y-110029761D01*
X452096130Y-110267857D01*
X452143750Y-110410714D01*
X452238988Y-110505952D01*
X452334226Y-110553571D01*
X452524702Y-110601190D01*
X452667559Y-110601190D01*
X452858035Y-110553571D01*
X452953273Y-110505952D01*
X453048511Y-110410714D01*
X453096130Y-110267857D01*
X453096130Y-110029761D01*
X453191369Y-110791666D02*
X453191369Y-111553571D01*
X452096130Y-111696428D02*
X452096130Y-112315476D01*
X452477083Y-111982142D01*
X452477083Y-112125000D01*
X452524702Y-112220238D01*
X452572321Y-112267857D01*
X452667559Y-112315476D01*
X452905654Y-112315476D01*
X453000892Y-112267857D01*
X453048511Y-112220238D01*
X453096130Y-112125000D01*
X453096130Y-111839285D01*
X453048511Y-111744047D01*
X453000892Y-111696428D01*
X452096130Y-113220238D02*
X452096130Y-112744047D01*
X452572321Y-112696428D01*
X452524702Y-112744047D01*
X452477083Y-112839285D01*
X452477083Y-113077380D01*
X452524702Y-113172619D01*
X452572321Y-113220238D01*
X452667559Y-113267857D01*
X452905654Y-113267857D01*
X453000892Y-113220238D01*
X453048511Y-113172619D01*
X453096130Y-113077380D01*
X453096130Y-112839285D01*
X453048511Y-112744047D01*
X453000892Y-112696428D01*
X119721130Y-129079761D02*
X118721130Y-129079761D01*
X118721130Y-129317857D01*
X118768750Y-129460714D01*
X118863988Y-129555952D01*
X118959226Y-129603571D01*
X119149702Y-129651190D01*
X119292559Y-129651190D01*
X119483035Y-129603571D01*
X119578273Y-129555952D01*
X119673511Y-129460714D01*
X119721130Y-129317857D01*
X119721130Y-129079761D01*
X119816369Y-129841666D02*
X119816369Y-130603571D01*
X118721130Y-130746428D02*
X118721130Y-131365476D01*
X119102083Y-131032142D01*
X119102083Y-131175000D01*
X119149702Y-131270238D01*
X119197321Y-131317857D01*
X119292559Y-131365476D01*
X119530654Y-131365476D01*
X119625892Y-131317857D01*
X119673511Y-131270238D01*
X119721130Y-131175000D01*
X119721130Y-130889285D01*
X119673511Y-130794047D01*
X119625892Y-130746428D01*
X118721130Y-132222619D02*
X118721130Y-132032142D01*
X118768750Y-131936904D01*
X118816369Y-131889285D01*
X118959226Y-131794047D01*
X119149702Y-131746428D01*
X119530654Y-131746428D01*
X119625892Y-131794047D01*
X119673511Y-131841666D01*
X119721130Y-131936904D01*
X119721130Y-132127380D01*
X119673511Y-132222619D01*
X119625892Y-132270238D01*
X119530654Y-132317857D01*
X119292559Y-132317857D01*
X119197321Y-132270238D01*
X119149702Y-132222619D01*
X119102083Y-132127380D01*
X119102083Y-131936904D01*
X119149702Y-131841666D01*
X119197321Y-131794047D01*
X119292559Y-131746428D01*
X138771130Y-129079761D02*
X137771130Y-129079761D01*
X137771130Y-129317857D01*
X137818750Y-129460714D01*
X137913988Y-129555952D01*
X138009226Y-129603571D01*
X138199702Y-129651190D01*
X138342559Y-129651190D01*
X138533035Y-129603571D01*
X138628273Y-129555952D01*
X138723511Y-129460714D01*
X138771130Y-129317857D01*
X138771130Y-129079761D01*
X138866369Y-129841666D02*
X138866369Y-130603571D01*
X137771130Y-130746428D02*
X137771130Y-131365476D01*
X138152083Y-131032142D01*
X138152083Y-131175000D01*
X138199702Y-131270238D01*
X138247321Y-131317857D01*
X138342559Y-131365476D01*
X138580654Y-131365476D01*
X138675892Y-131317857D01*
X138723511Y-131270238D01*
X138771130Y-131175000D01*
X138771130Y-130889285D01*
X138723511Y-130794047D01*
X138675892Y-130746428D01*
X137771130Y-131698809D02*
X137771130Y-132365476D01*
X138771130Y-131936904D01*
X157821130Y-129079761D02*
X156821130Y-129079761D01*
X156821130Y-129317857D01*
X156868750Y-129460714D01*
X156963988Y-129555952D01*
X157059226Y-129603571D01*
X157249702Y-129651190D01*
X157392559Y-129651190D01*
X157583035Y-129603571D01*
X157678273Y-129555952D01*
X157773511Y-129460714D01*
X157821130Y-129317857D01*
X157821130Y-129079761D01*
X157916369Y-129841666D02*
X157916369Y-130603571D01*
X156821130Y-130746428D02*
X156821130Y-131365476D01*
X157202083Y-131032142D01*
X157202083Y-131175000D01*
X157249702Y-131270238D01*
X157297321Y-131317857D01*
X157392559Y-131365476D01*
X157630654Y-131365476D01*
X157725892Y-131317857D01*
X157773511Y-131270238D01*
X157821130Y-131175000D01*
X157821130Y-130889285D01*
X157773511Y-130794047D01*
X157725892Y-130746428D01*
X157249702Y-131936904D02*
X157202083Y-131841666D01*
X157154464Y-131794047D01*
X157059226Y-131746428D01*
X157011607Y-131746428D01*
X156916369Y-131794047D01*
X156868750Y-131841666D01*
X156821130Y-131936904D01*
X156821130Y-132127380D01*
X156868750Y-132222619D01*
X156916369Y-132270238D01*
X157011607Y-132317857D01*
X157059226Y-132317857D01*
X157154464Y-132270238D01*
X157202083Y-132222619D01*
X157249702Y-132127380D01*
X157249702Y-131936904D01*
X157297321Y-131841666D01*
X157344940Y-131794047D01*
X157440178Y-131746428D01*
X157630654Y-131746428D01*
X157725892Y-131794047D01*
X157773511Y-131841666D01*
X157821130Y-131936904D01*
X157821130Y-132127380D01*
X157773511Y-132222619D01*
X157725892Y-132270238D01*
X157630654Y-132317857D01*
X157440178Y-132317857D01*
X157344940Y-132270238D01*
X157297321Y-132222619D01*
X157249702Y-132127380D01*
X176871130Y-129079761D02*
X175871130Y-129079761D01*
X175871130Y-129317857D01*
X175918750Y-129460714D01*
X176013988Y-129555952D01*
X176109226Y-129603571D01*
X176299702Y-129651190D01*
X176442559Y-129651190D01*
X176633035Y-129603571D01*
X176728273Y-129555952D01*
X176823511Y-129460714D01*
X176871130Y-129317857D01*
X176871130Y-129079761D01*
X176966369Y-129841666D02*
X176966369Y-130603571D01*
X175871130Y-130746428D02*
X175871130Y-131365476D01*
X176252083Y-131032142D01*
X176252083Y-131175000D01*
X176299702Y-131270238D01*
X176347321Y-131317857D01*
X176442559Y-131365476D01*
X176680654Y-131365476D01*
X176775892Y-131317857D01*
X176823511Y-131270238D01*
X176871130Y-131175000D01*
X176871130Y-130889285D01*
X176823511Y-130794047D01*
X176775892Y-130746428D01*
X176871130Y-131841666D02*
X176871130Y-132032142D01*
X176823511Y-132127380D01*
X176775892Y-132175000D01*
X176633035Y-132270238D01*
X176442559Y-132317857D01*
X176061607Y-132317857D01*
X175966369Y-132270238D01*
X175918750Y-132222619D01*
X175871130Y-132127380D01*
X175871130Y-131936904D01*
X175918750Y-131841666D01*
X175966369Y-131794047D01*
X176061607Y-131746428D01*
X176299702Y-131746428D01*
X176394940Y-131794047D01*
X176442559Y-131841666D01*
X176490178Y-131936904D01*
X176490178Y-132127380D01*
X176442559Y-132222619D01*
X176394940Y-132270238D01*
X176299702Y-132317857D01*
X195921130Y-129079761D02*
X194921130Y-129079761D01*
X194921130Y-129317857D01*
X194968750Y-129460714D01*
X195063988Y-129555952D01*
X195159226Y-129603571D01*
X195349702Y-129651190D01*
X195492559Y-129651190D01*
X195683035Y-129603571D01*
X195778273Y-129555952D01*
X195873511Y-129460714D01*
X195921130Y-129317857D01*
X195921130Y-129079761D01*
X196016369Y-129841666D02*
X196016369Y-130603571D01*
X195254464Y-131270238D02*
X195921130Y-131270238D01*
X194873511Y-131032142D02*
X195587797Y-130794047D01*
X195587797Y-131413095D01*
X194921130Y-131984523D02*
X194921130Y-132079761D01*
X194968750Y-132175000D01*
X195016369Y-132222619D01*
X195111607Y-132270238D01*
X195302083Y-132317857D01*
X195540178Y-132317857D01*
X195730654Y-132270238D01*
X195825892Y-132222619D01*
X195873511Y-132175000D01*
X195921130Y-132079761D01*
X195921130Y-131984523D01*
X195873511Y-131889285D01*
X195825892Y-131841666D01*
X195730654Y-131794047D01*
X195540178Y-131746428D01*
X195302083Y-131746428D01*
X195111607Y-131794047D01*
X195016369Y-131841666D01*
X194968750Y-131889285D01*
X194921130Y-131984523D01*
X214971130Y-129079761D02*
X213971130Y-129079761D01*
X213971130Y-129317857D01*
X214018750Y-129460714D01*
X214113988Y-129555952D01*
X214209226Y-129603571D01*
X214399702Y-129651190D01*
X214542559Y-129651190D01*
X214733035Y-129603571D01*
X214828273Y-129555952D01*
X214923511Y-129460714D01*
X214971130Y-129317857D01*
X214971130Y-129079761D01*
X215066369Y-129841666D02*
X215066369Y-130603571D01*
X214304464Y-131270238D02*
X214971130Y-131270238D01*
X213923511Y-131032142D02*
X214637797Y-130794047D01*
X214637797Y-131413095D01*
X214971130Y-132317857D02*
X214971130Y-131746428D01*
X214971130Y-132032142D02*
X213971130Y-132032142D01*
X214113988Y-131936904D01*
X214209226Y-131841666D01*
X214256845Y-131746428D01*
X234021130Y-129079761D02*
X233021130Y-129079761D01*
X233021130Y-129317857D01*
X233068750Y-129460714D01*
X233163988Y-129555952D01*
X233259226Y-129603571D01*
X233449702Y-129651190D01*
X233592559Y-129651190D01*
X233783035Y-129603571D01*
X233878273Y-129555952D01*
X233973511Y-129460714D01*
X234021130Y-129317857D01*
X234021130Y-129079761D01*
X234116369Y-129841666D02*
X234116369Y-130603571D01*
X233354464Y-131270238D02*
X234021130Y-131270238D01*
X232973511Y-131032142D02*
X233687797Y-130794047D01*
X233687797Y-131413095D01*
X233116369Y-131746428D02*
X233068750Y-131794047D01*
X233021130Y-131889285D01*
X233021130Y-132127380D01*
X233068750Y-132222619D01*
X233116369Y-132270238D01*
X233211607Y-132317857D01*
X233306845Y-132317857D01*
X233449702Y-132270238D01*
X234021130Y-131698809D01*
X234021130Y-132317857D01*
X253071130Y-129079761D02*
X252071130Y-129079761D01*
X252071130Y-129317857D01*
X252118750Y-129460714D01*
X252213988Y-129555952D01*
X252309226Y-129603571D01*
X252499702Y-129651190D01*
X252642559Y-129651190D01*
X252833035Y-129603571D01*
X252928273Y-129555952D01*
X253023511Y-129460714D01*
X253071130Y-129317857D01*
X253071130Y-129079761D01*
X253166369Y-129841666D02*
X253166369Y-130603571D01*
X252404464Y-131270238D02*
X253071130Y-131270238D01*
X252023511Y-131032142D02*
X252737797Y-130794047D01*
X252737797Y-131413095D01*
X252071130Y-131698809D02*
X252071130Y-132317857D01*
X252452083Y-131984523D01*
X252452083Y-132127380D01*
X252499702Y-132222619D01*
X252547321Y-132270238D01*
X252642559Y-132317857D01*
X252880654Y-132317857D01*
X252975892Y-132270238D01*
X253023511Y-132222619D01*
X253071130Y-132127380D01*
X253071130Y-131841666D01*
X253023511Y-131746428D01*
X252975892Y-131698809D01*
X272121130Y-129079761D02*
X271121130Y-129079761D01*
X271121130Y-129317857D01*
X271168750Y-129460714D01*
X271263988Y-129555952D01*
X271359226Y-129603571D01*
X271549702Y-129651190D01*
X271692559Y-129651190D01*
X271883035Y-129603571D01*
X271978273Y-129555952D01*
X272073511Y-129460714D01*
X272121130Y-129317857D01*
X272121130Y-129079761D01*
X272216369Y-129841666D02*
X272216369Y-130603571D01*
X271454464Y-131270238D02*
X272121130Y-131270238D01*
X271073511Y-131032142D02*
X271787797Y-130794047D01*
X271787797Y-131413095D01*
X271454464Y-132222619D02*
X272121130Y-132222619D01*
X271073511Y-131984523D02*
X271787797Y-131746428D01*
X271787797Y-132365476D01*
X291171130Y-129079761D02*
X290171130Y-129079761D01*
X290171130Y-129317857D01*
X290218750Y-129460714D01*
X290313988Y-129555952D01*
X290409226Y-129603571D01*
X290599702Y-129651190D01*
X290742559Y-129651190D01*
X290933035Y-129603571D01*
X291028273Y-129555952D01*
X291123511Y-129460714D01*
X291171130Y-129317857D01*
X291171130Y-129079761D01*
X291266369Y-129841666D02*
X291266369Y-130603571D01*
X290504464Y-131270238D02*
X291171130Y-131270238D01*
X290123511Y-131032142D02*
X290837797Y-130794047D01*
X290837797Y-131413095D01*
X290171130Y-132270238D02*
X290171130Y-131794047D01*
X290647321Y-131746428D01*
X290599702Y-131794047D01*
X290552083Y-131889285D01*
X290552083Y-132127380D01*
X290599702Y-132222619D01*
X290647321Y-132270238D01*
X290742559Y-132317857D01*
X290980654Y-132317857D01*
X291075892Y-132270238D01*
X291123511Y-132222619D01*
X291171130Y-132127380D01*
X291171130Y-131889285D01*
X291123511Y-131794047D01*
X291075892Y-131746428D01*
X310221130Y-129079761D02*
X309221130Y-129079761D01*
X309221130Y-129317857D01*
X309268750Y-129460714D01*
X309363988Y-129555952D01*
X309459226Y-129603571D01*
X309649702Y-129651190D01*
X309792559Y-129651190D01*
X309983035Y-129603571D01*
X310078273Y-129555952D01*
X310173511Y-129460714D01*
X310221130Y-129317857D01*
X310221130Y-129079761D01*
X310316369Y-129841666D02*
X310316369Y-130603571D01*
X309554464Y-131270238D02*
X310221130Y-131270238D01*
X309173511Y-131032142D02*
X309887797Y-130794047D01*
X309887797Y-131413095D01*
X309221130Y-132222619D02*
X309221130Y-132032142D01*
X309268750Y-131936904D01*
X309316369Y-131889285D01*
X309459226Y-131794047D01*
X309649702Y-131746428D01*
X310030654Y-131746428D01*
X310125892Y-131794047D01*
X310173511Y-131841666D01*
X310221130Y-131936904D01*
X310221130Y-132127380D01*
X310173511Y-132222619D01*
X310125892Y-132270238D01*
X310030654Y-132317857D01*
X309792559Y-132317857D01*
X309697321Y-132270238D01*
X309649702Y-132222619D01*
X309602083Y-132127380D01*
X309602083Y-131936904D01*
X309649702Y-131841666D01*
X309697321Y-131794047D01*
X309792559Y-131746428D01*
X329271130Y-129079761D02*
X328271130Y-129079761D01*
X328271130Y-129317857D01*
X328318750Y-129460714D01*
X328413988Y-129555952D01*
X328509226Y-129603571D01*
X328699702Y-129651190D01*
X328842559Y-129651190D01*
X329033035Y-129603571D01*
X329128273Y-129555952D01*
X329223511Y-129460714D01*
X329271130Y-129317857D01*
X329271130Y-129079761D01*
X329366369Y-129841666D02*
X329366369Y-130603571D01*
X328604464Y-131270238D02*
X329271130Y-131270238D01*
X328223511Y-131032142D02*
X328937797Y-130794047D01*
X328937797Y-131413095D01*
X328271130Y-131698809D02*
X328271130Y-132365476D01*
X329271130Y-131936904D01*
X348321130Y-129079761D02*
X347321130Y-129079761D01*
X347321130Y-129317857D01*
X347368750Y-129460714D01*
X347463988Y-129555952D01*
X347559226Y-129603571D01*
X347749702Y-129651190D01*
X347892559Y-129651190D01*
X348083035Y-129603571D01*
X348178273Y-129555952D01*
X348273511Y-129460714D01*
X348321130Y-129317857D01*
X348321130Y-129079761D01*
X348416369Y-129841666D02*
X348416369Y-130603571D01*
X347654464Y-131270238D02*
X348321130Y-131270238D01*
X347273511Y-131032142D02*
X347987797Y-130794047D01*
X347987797Y-131413095D01*
X347749702Y-131936904D02*
X347702083Y-131841666D01*
X347654464Y-131794047D01*
X347559226Y-131746428D01*
X347511607Y-131746428D01*
X347416369Y-131794047D01*
X347368750Y-131841666D01*
X347321130Y-131936904D01*
X347321130Y-132127380D01*
X347368750Y-132222619D01*
X347416369Y-132270238D01*
X347511607Y-132317857D01*
X347559226Y-132317857D01*
X347654464Y-132270238D01*
X347702083Y-132222619D01*
X347749702Y-132127380D01*
X347749702Y-131936904D01*
X347797321Y-131841666D01*
X347844940Y-131794047D01*
X347940178Y-131746428D01*
X348130654Y-131746428D01*
X348225892Y-131794047D01*
X348273511Y-131841666D01*
X348321130Y-131936904D01*
X348321130Y-132127380D01*
X348273511Y-132222619D01*
X348225892Y-132270238D01*
X348130654Y-132317857D01*
X347940178Y-132317857D01*
X347844940Y-132270238D01*
X347797321Y-132222619D01*
X347749702Y-132127380D01*
X376896130Y-129079761D02*
X375896130Y-129079761D01*
X375896130Y-129317857D01*
X375943750Y-129460714D01*
X376038988Y-129555952D01*
X376134226Y-129603571D01*
X376324702Y-129651190D01*
X376467559Y-129651190D01*
X376658035Y-129603571D01*
X376753273Y-129555952D01*
X376848511Y-129460714D01*
X376896130Y-129317857D01*
X376896130Y-129079761D01*
X376991369Y-129841666D02*
X376991369Y-130603571D01*
X376229464Y-131270238D02*
X376896130Y-131270238D01*
X375848511Y-131032142D02*
X376562797Y-130794047D01*
X376562797Y-131413095D01*
X376896130Y-131841666D02*
X376896130Y-132032142D01*
X376848511Y-132127380D01*
X376800892Y-132175000D01*
X376658035Y-132270238D01*
X376467559Y-132317857D01*
X376086607Y-132317857D01*
X375991369Y-132270238D01*
X375943750Y-132222619D01*
X375896130Y-132127380D01*
X375896130Y-131936904D01*
X375943750Y-131841666D01*
X375991369Y-131794047D01*
X376086607Y-131746428D01*
X376324702Y-131746428D01*
X376419940Y-131794047D01*
X376467559Y-131841666D01*
X376515178Y-131936904D01*
X376515178Y-132127380D01*
X376467559Y-132222619D01*
X376419940Y-132270238D01*
X376324702Y-132317857D01*
X395946130Y-129079761D02*
X394946130Y-129079761D01*
X394946130Y-129317857D01*
X394993750Y-129460714D01*
X395088988Y-129555952D01*
X395184226Y-129603571D01*
X395374702Y-129651190D01*
X395517559Y-129651190D01*
X395708035Y-129603571D01*
X395803273Y-129555952D01*
X395898511Y-129460714D01*
X395946130Y-129317857D01*
X395946130Y-129079761D01*
X396041369Y-129841666D02*
X396041369Y-130603571D01*
X394946130Y-131317857D02*
X394946130Y-130841666D01*
X395422321Y-130794047D01*
X395374702Y-130841666D01*
X395327083Y-130936904D01*
X395327083Y-131175000D01*
X395374702Y-131270238D01*
X395422321Y-131317857D01*
X395517559Y-131365476D01*
X395755654Y-131365476D01*
X395850892Y-131317857D01*
X395898511Y-131270238D01*
X395946130Y-131175000D01*
X395946130Y-130936904D01*
X395898511Y-130841666D01*
X395850892Y-130794047D01*
X394946130Y-131984523D02*
X394946130Y-132079761D01*
X394993750Y-132175000D01*
X395041369Y-132222619D01*
X395136607Y-132270238D01*
X395327083Y-132317857D01*
X395565178Y-132317857D01*
X395755654Y-132270238D01*
X395850892Y-132222619D01*
X395898511Y-132175000D01*
X395946130Y-132079761D01*
X395946130Y-131984523D01*
X395898511Y-131889285D01*
X395850892Y-131841666D01*
X395755654Y-131794047D01*
X395565178Y-131746428D01*
X395327083Y-131746428D01*
X395136607Y-131794047D01*
X395041369Y-131841666D01*
X394993750Y-131889285D01*
X394946130Y-131984523D01*
X414996130Y-129079761D02*
X413996130Y-129079761D01*
X413996130Y-129317857D01*
X414043750Y-129460714D01*
X414138988Y-129555952D01*
X414234226Y-129603571D01*
X414424702Y-129651190D01*
X414567559Y-129651190D01*
X414758035Y-129603571D01*
X414853273Y-129555952D01*
X414948511Y-129460714D01*
X414996130Y-129317857D01*
X414996130Y-129079761D01*
X415091369Y-129841666D02*
X415091369Y-130603571D01*
X413996130Y-131317857D02*
X413996130Y-130841666D01*
X414472321Y-130794047D01*
X414424702Y-130841666D01*
X414377083Y-130936904D01*
X414377083Y-131175000D01*
X414424702Y-131270238D01*
X414472321Y-131317857D01*
X414567559Y-131365476D01*
X414805654Y-131365476D01*
X414900892Y-131317857D01*
X414948511Y-131270238D01*
X414996130Y-131175000D01*
X414996130Y-130936904D01*
X414948511Y-130841666D01*
X414900892Y-130794047D01*
X414996130Y-132317857D02*
X414996130Y-131746428D01*
X414996130Y-132032142D02*
X413996130Y-132032142D01*
X414138988Y-131936904D01*
X414234226Y-131841666D01*
X414281845Y-131746428D01*
X434252380Y-134929761D02*
X433252380Y-134929761D01*
X433252380Y-135167857D01*
X433300000Y-135310714D01*
X433395238Y-135405952D01*
X433490476Y-135453571D01*
X433680952Y-135501190D01*
X433823809Y-135501190D01*
X434014285Y-135453571D01*
X434109523Y-135405952D01*
X434204761Y-135310714D01*
X434252380Y-135167857D01*
X434252380Y-134929761D01*
X434347619Y-135691666D02*
X434347619Y-136453571D01*
X433252380Y-137167857D02*
X433252380Y-136691666D01*
X433728571Y-136644047D01*
X433680952Y-136691666D01*
X433633333Y-136786904D01*
X433633333Y-137025000D01*
X433680952Y-137120238D01*
X433728571Y-137167857D01*
X433823809Y-137215476D01*
X434061904Y-137215476D01*
X434157142Y-137167857D01*
X434204761Y-137120238D01*
X434252380Y-137025000D01*
X434252380Y-136786904D01*
X434204761Y-136691666D01*
X434157142Y-136644047D01*
X433347619Y-137596428D02*
X433300000Y-137644047D01*
X433252380Y-137739285D01*
X433252380Y-137977380D01*
X433300000Y-138072619D01*
X433347619Y-138120238D01*
X433442857Y-138167857D01*
X433538095Y-138167857D01*
X433680952Y-138120238D01*
X434252380Y-137548809D01*
X434252380Y-138167857D01*
X124483630Y-148129761D02*
X123483630Y-148129761D01*
X123483630Y-148367857D01*
X123531250Y-148510714D01*
X123626488Y-148605952D01*
X123721726Y-148653571D01*
X123912202Y-148701190D01*
X124055059Y-148701190D01*
X124245535Y-148653571D01*
X124340773Y-148605952D01*
X124436011Y-148510714D01*
X124483630Y-148367857D01*
X124483630Y-148129761D01*
X124578869Y-148891666D02*
X124578869Y-149653571D01*
X123483630Y-150367857D02*
X123483630Y-149891666D01*
X123959821Y-149844047D01*
X123912202Y-149891666D01*
X123864583Y-149986904D01*
X123864583Y-150225000D01*
X123912202Y-150320238D01*
X123959821Y-150367857D01*
X124055059Y-150415476D01*
X124293154Y-150415476D01*
X124388392Y-150367857D01*
X124436011Y-150320238D01*
X124483630Y-150225000D01*
X124483630Y-149986904D01*
X124436011Y-149891666D01*
X124388392Y-149844047D01*
X123816964Y-151272619D02*
X124483630Y-151272619D01*
X123436011Y-151034523D02*
X124150297Y-150796428D01*
X124150297Y-151415476D01*
X143533630Y-148129761D02*
X142533630Y-148129761D01*
X142533630Y-148367857D01*
X142581250Y-148510714D01*
X142676488Y-148605952D01*
X142771726Y-148653571D01*
X142962202Y-148701190D01*
X143105059Y-148701190D01*
X143295535Y-148653571D01*
X143390773Y-148605952D01*
X143486011Y-148510714D01*
X143533630Y-148367857D01*
X143533630Y-148129761D01*
X143628869Y-148891666D02*
X143628869Y-149653571D01*
X142533630Y-150367857D02*
X142533630Y-149891666D01*
X143009821Y-149844047D01*
X142962202Y-149891666D01*
X142914583Y-149986904D01*
X142914583Y-150225000D01*
X142962202Y-150320238D01*
X143009821Y-150367857D01*
X143105059Y-150415476D01*
X143343154Y-150415476D01*
X143438392Y-150367857D01*
X143486011Y-150320238D01*
X143533630Y-150225000D01*
X143533630Y-149986904D01*
X143486011Y-149891666D01*
X143438392Y-149844047D01*
X142533630Y-151320238D02*
X142533630Y-150844047D01*
X143009821Y-150796428D01*
X142962202Y-150844047D01*
X142914583Y-150939285D01*
X142914583Y-151177380D01*
X142962202Y-151272619D01*
X143009821Y-151320238D01*
X143105059Y-151367857D01*
X143343154Y-151367857D01*
X143438392Y-151320238D01*
X143486011Y-151272619D01*
X143533630Y-151177380D01*
X143533630Y-150939285D01*
X143486011Y-150844047D01*
X143438392Y-150796428D01*
X162583630Y-148129761D02*
X161583630Y-148129761D01*
X161583630Y-148367857D01*
X161631250Y-148510714D01*
X161726488Y-148605952D01*
X161821726Y-148653571D01*
X162012202Y-148701190D01*
X162155059Y-148701190D01*
X162345535Y-148653571D01*
X162440773Y-148605952D01*
X162536011Y-148510714D01*
X162583630Y-148367857D01*
X162583630Y-148129761D01*
X162678869Y-148891666D02*
X162678869Y-149653571D01*
X161583630Y-150367857D02*
X161583630Y-149891666D01*
X162059821Y-149844047D01*
X162012202Y-149891666D01*
X161964583Y-149986904D01*
X161964583Y-150225000D01*
X162012202Y-150320238D01*
X162059821Y-150367857D01*
X162155059Y-150415476D01*
X162393154Y-150415476D01*
X162488392Y-150367857D01*
X162536011Y-150320238D01*
X162583630Y-150225000D01*
X162583630Y-149986904D01*
X162536011Y-149891666D01*
X162488392Y-149844047D01*
X161583630Y-151272619D02*
X161583630Y-151082142D01*
X161631250Y-150986904D01*
X161678869Y-150939285D01*
X161821726Y-150844047D01*
X162012202Y-150796428D01*
X162393154Y-150796428D01*
X162488392Y-150844047D01*
X162536011Y-150891666D01*
X162583630Y-150986904D01*
X162583630Y-151177380D01*
X162536011Y-151272619D01*
X162488392Y-151320238D01*
X162393154Y-151367857D01*
X162155059Y-151367857D01*
X162059821Y-151320238D01*
X162012202Y-151272619D01*
X161964583Y-151177380D01*
X161964583Y-150986904D01*
X162012202Y-150891666D01*
X162059821Y-150844047D01*
X162155059Y-150796428D01*
X181633630Y-148129761D02*
X180633630Y-148129761D01*
X180633630Y-148367857D01*
X180681250Y-148510714D01*
X180776488Y-148605952D01*
X180871726Y-148653571D01*
X181062202Y-148701190D01*
X181205059Y-148701190D01*
X181395535Y-148653571D01*
X181490773Y-148605952D01*
X181586011Y-148510714D01*
X181633630Y-148367857D01*
X181633630Y-148129761D01*
X181728869Y-148891666D02*
X181728869Y-149653571D01*
X180633630Y-150367857D02*
X180633630Y-149891666D01*
X181109821Y-149844047D01*
X181062202Y-149891666D01*
X181014583Y-149986904D01*
X181014583Y-150225000D01*
X181062202Y-150320238D01*
X181109821Y-150367857D01*
X181205059Y-150415476D01*
X181443154Y-150415476D01*
X181538392Y-150367857D01*
X181586011Y-150320238D01*
X181633630Y-150225000D01*
X181633630Y-149986904D01*
X181586011Y-149891666D01*
X181538392Y-149844047D01*
X180633630Y-150748809D02*
X180633630Y-151415476D01*
X181633630Y-150986904D01*
X200683630Y-148129761D02*
X199683630Y-148129761D01*
X199683630Y-148367857D01*
X199731250Y-148510714D01*
X199826488Y-148605952D01*
X199921726Y-148653571D01*
X200112202Y-148701190D01*
X200255059Y-148701190D01*
X200445535Y-148653571D01*
X200540773Y-148605952D01*
X200636011Y-148510714D01*
X200683630Y-148367857D01*
X200683630Y-148129761D01*
X200778869Y-148891666D02*
X200778869Y-149653571D01*
X199683630Y-150367857D02*
X199683630Y-149891666D01*
X200159821Y-149844047D01*
X200112202Y-149891666D01*
X200064583Y-149986904D01*
X200064583Y-150225000D01*
X200112202Y-150320238D01*
X200159821Y-150367857D01*
X200255059Y-150415476D01*
X200493154Y-150415476D01*
X200588392Y-150367857D01*
X200636011Y-150320238D01*
X200683630Y-150225000D01*
X200683630Y-149986904D01*
X200636011Y-149891666D01*
X200588392Y-149844047D01*
X200112202Y-150986904D02*
X200064583Y-150891666D01*
X200016964Y-150844047D01*
X199921726Y-150796428D01*
X199874107Y-150796428D01*
X199778869Y-150844047D01*
X199731250Y-150891666D01*
X199683630Y-150986904D01*
X199683630Y-151177380D01*
X199731250Y-151272619D01*
X199778869Y-151320238D01*
X199874107Y-151367857D01*
X199921726Y-151367857D01*
X200016964Y-151320238D01*
X200064583Y-151272619D01*
X200112202Y-151177380D01*
X200112202Y-150986904D01*
X200159821Y-150891666D01*
X200207440Y-150844047D01*
X200302678Y-150796428D01*
X200493154Y-150796428D01*
X200588392Y-150844047D01*
X200636011Y-150891666D01*
X200683630Y-150986904D01*
X200683630Y-151177380D01*
X200636011Y-151272619D01*
X200588392Y-151320238D01*
X200493154Y-151367857D01*
X200302678Y-151367857D01*
X200207440Y-151320238D01*
X200159821Y-151272619D01*
X200112202Y-151177380D01*
X219733630Y-148129761D02*
X218733630Y-148129761D01*
X218733630Y-148367857D01*
X218781250Y-148510714D01*
X218876488Y-148605952D01*
X218971726Y-148653571D01*
X219162202Y-148701190D01*
X219305059Y-148701190D01*
X219495535Y-148653571D01*
X219590773Y-148605952D01*
X219686011Y-148510714D01*
X219733630Y-148367857D01*
X219733630Y-148129761D01*
X219828869Y-148891666D02*
X219828869Y-149653571D01*
X218733630Y-150367857D02*
X218733630Y-149891666D01*
X219209821Y-149844047D01*
X219162202Y-149891666D01*
X219114583Y-149986904D01*
X219114583Y-150225000D01*
X219162202Y-150320238D01*
X219209821Y-150367857D01*
X219305059Y-150415476D01*
X219543154Y-150415476D01*
X219638392Y-150367857D01*
X219686011Y-150320238D01*
X219733630Y-150225000D01*
X219733630Y-149986904D01*
X219686011Y-149891666D01*
X219638392Y-149844047D01*
X219733630Y-150891666D02*
X219733630Y-151082142D01*
X219686011Y-151177380D01*
X219638392Y-151225000D01*
X219495535Y-151320238D01*
X219305059Y-151367857D01*
X218924107Y-151367857D01*
X218828869Y-151320238D01*
X218781250Y-151272619D01*
X218733630Y-151177380D01*
X218733630Y-150986904D01*
X218781250Y-150891666D01*
X218828869Y-150844047D01*
X218924107Y-150796428D01*
X219162202Y-150796428D01*
X219257440Y-150844047D01*
X219305059Y-150891666D01*
X219352678Y-150986904D01*
X219352678Y-151177380D01*
X219305059Y-151272619D01*
X219257440Y-151320238D01*
X219162202Y-151367857D01*
X238783630Y-148129761D02*
X237783630Y-148129761D01*
X237783630Y-148367857D01*
X237831250Y-148510714D01*
X237926488Y-148605952D01*
X238021726Y-148653571D01*
X238212202Y-148701190D01*
X238355059Y-148701190D01*
X238545535Y-148653571D01*
X238640773Y-148605952D01*
X238736011Y-148510714D01*
X238783630Y-148367857D01*
X238783630Y-148129761D01*
X238878869Y-148891666D02*
X238878869Y-149653571D01*
X237783630Y-150320238D02*
X237783630Y-150129761D01*
X237831250Y-150034523D01*
X237878869Y-149986904D01*
X238021726Y-149891666D01*
X238212202Y-149844047D01*
X238593154Y-149844047D01*
X238688392Y-149891666D01*
X238736011Y-149939285D01*
X238783630Y-150034523D01*
X238783630Y-150225000D01*
X238736011Y-150320238D01*
X238688392Y-150367857D01*
X238593154Y-150415476D01*
X238355059Y-150415476D01*
X238259821Y-150367857D01*
X238212202Y-150320238D01*
X238164583Y-150225000D01*
X238164583Y-150034523D01*
X238212202Y-149939285D01*
X238259821Y-149891666D01*
X238355059Y-149844047D01*
X237783630Y-151034523D02*
X237783630Y-151129761D01*
X237831250Y-151225000D01*
X237878869Y-151272619D01*
X237974107Y-151320238D01*
X238164583Y-151367857D01*
X238402678Y-151367857D01*
X238593154Y-151320238D01*
X238688392Y-151272619D01*
X238736011Y-151225000D01*
X238783630Y-151129761D01*
X238783630Y-151034523D01*
X238736011Y-150939285D01*
X238688392Y-150891666D01*
X238593154Y-150844047D01*
X238402678Y-150796428D01*
X238164583Y-150796428D01*
X237974107Y-150844047D01*
X237878869Y-150891666D01*
X237831250Y-150939285D01*
X237783630Y-151034523D01*
X257833630Y-148129761D02*
X256833630Y-148129761D01*
X256833630Y-148367857D01*
X256881250Y-148510714D01*
X256976488Y-148605952D01*
X257071726Y-148653571D01*
X257262202Y-148701190D01*
X257405059Y-148701190D01*
X257595535Y-148653571D01*
X257690773Y-148605952D01*
X257786011Y-148510714D01*
X257833630Y-148367857D01*
X257833630Y-148129761D01*
X257928869Y-148891666D02*
X257928869Y-149653571D01*
X256833630Y-150320238D02*
X256833630Y-150129761D01*
X256881250Y-150034523D01*
X256928869Y-149986904D01*
X257071726Y-149891666D01*
X257262202Y-149844047D01*
X257643154Y-149844047D01*
X257738392Y-149891666D01*
X257786011Y-149939285D01*
X257833630Y-150034523D01*
X257833630Y-150225000D01*
X257786011Y-150320238D01*
X257738392Y-150367857D01*
X257643154Y-150415476D01*
X257405059Y-150415476D01*
X257309821Y-150367857D01*
X257262202Y-150320238D01*
X257214583Y-150225000D01*
X257214583Y-150034523D01*
X257262202Y-149939285D01*
X257309821Y-149891666D01*
X257405059Y-149844047D01*
X257833630Y-151367857D02*
X257833630Y-150796428D01*
X257833630Y-151082142D02*
X256833630Y-151082142D01*
X256976488Y-150986904D01*
X257071726Y-150891666D01*
X257119345Y-150796428D01*
X276883630Y-148129761D02*
X275883630Y-148129761D01*
X275883630Y-148367857D01*
X275931250Y-148510714D01*
X276026488Y-148605952D01*
X276121726Y-148653571D01*
X276312202Y-148701190D01*
X276455059Y-148701190D01*
X276645535Y-148653571D01*
X276740773Y-148605952D01*
X276836011Y-148510714D01*
X276883630Y-148367857D01*
X276883630Y-148129761D01*
X276978869Y-148891666D02*
X276978869Y-149653571D01*
X275883630Y-150320238D02*
X275883630Y-150129761D01*
X275931250Y-150034523D01*
X275978869Y-149986904D01*
X276121726Y-149891666D01*
X276312202Y-149844047D01*
X276693154Y-149844047D01*
X276788392Y-149891666D01*
X276836011Y-149939285D01*
X276883630Y-150034523D01*
X276883630Y-150225000D01*
X276836011Y-150320238D01*
X276788392Y-150367857D01*
X276693154Y-150415476D01*
X276455059Y-150415476D01*
X276359821Y-150367857D01*
X276312202Y-150320238D01*
X276264583Y-150225000D01*
X276264583Y-150034523D01*
X276312202Y-149939285D01*
X276359821Y-149891666D01*
X276455059Y-149844047D01*
X275978869Y-150796428D02*
X275931250Y-150844047D01*
X275883630Y-150939285D01*
X275883630Y-151177380D01*
X275931250Y-151272619D01*
X275978869Y-151320238D01*
X276074107Y-151367857D01*
X276169345Y-151367857D01*
X276312202Y-151320238D01*
X276883630Y-150748809D01*
X276883630Y-151367857D01*
X295933630Y-148129761D02*
X294933630Y-148129761D01*
X294933630Y-148367857D01*
X294981250Y-148510714D01*
X295076488Y-148605952D01*
X295171726Y-148653571D01*
X295362202Y-148701190D01*
X295505059Y-148701190D01*
X295695535Y-148653571D01*
X295790773Y-148605952D01*
X295886011Y-148510714D01*
X295933630Y-148367857D01*
X295933630Y-148129761D01*
X296028869Y-148891666D02*
X296028869Y-149653571D01*
X294933630Y-150320238D02*
X294933630Y-150129761D01*
X294981250Y-150034523D01*
X295028869Y-149986904D01*
X295171726Y-149891666D01*
X295362202Y-149844047D01*
X295743154Y-149844047D01*
X295838392Y-149891666D01*
X295886011Y-149939285D01*
X295933630Y-150034523D01*
X295933630Y-150225000D01*
X295886011Y-150320238D01*
X295838392Y-150367857D01*
X295743154Y-150415476D01*
X295505059Y-150415476D01*
X295409821Y-150367857D01*
X295362202Y-150320238D01*
X295314583Y-150225000D01*
X295314583Y-150034523D01*
X295362202Y-149939285D01*
X295409821Y-149891666D01*
X295505059Y-149844047D01*
X294933630Y-150748809D02*
X294933630Y-151367857D01*
X295314583Y-151034523D01*
X295314583Y-151177380D01*
X295362202Y-151272619D01*
X295409821Y-151320238D01*
X295505059Y-151367857D01*
X295743154Y-151367857D01*
X295838392Y-151320238D01*
X295886011Y-151272619D01*
X295933630Y-151177380D01*
X295933630Y-150891666D01*
X295886011Y-150796428D01*
X295838392Y-150748809D01*
X314983630Y-148129761D02*
X313983630Y-148129761D01*
X313983630Y-148367857D01*
X314031250Y-148510714D01*
X314126488Y-148605952D01*
X314221726Y-148653571D01*
X314412202Y-148701190D01*
X314555059Y-148701190D01*
X314745535Y-148653571D01*
X314840773Y-148605952D01*
X314936011Y-148510714D01*
X314983630Y-148367857D01*
X314983630Y-148129761D01*
X315078869Y-148891666D02*
X315078869Y-149653571D01*
X313983630Y-150320238D02*
X313983630Y-150129761D01*
X314031250Y-150034523D01*
X314078869Y-149986904D01*
X314221726Y-149891666D01*
X314412202Y-149844047D01*
X314793154Y-149844047D01*
X314888392Y-149891666D01*
X314936011Y-149939285D01*
X314983630Y-150034523D01*
X314983630Y-150225000D01*
X314936011Y-150320238D01*
X314888392Y-150367857D01*
X314793154Y-150415476D01*
X314555059Y-150415476D01*
X314459821Y-150367857D01*
X314412202Y-150320238D01*
X314364583Y-150225000D01*
X314364583Y-150034523D01*
X314412202Y-149939285D01*
X314459821Y-149891666D01*
X314555059Y-149844047D01*
X314316964Y-151272619D02*
X314983630Y-151272619D01*
X313936011Y-151034523D02*
X314650297Y-150796428D01*
X314650297Y-151415476D01*
X334033630Y-148129761D02*
X333033630Y-148129761D01*
X333033630Y-148367857D01*
X333081250Y-148510714D01*
X333176488Y-148605952D01*
X333271726Y-148653571D01*
X333462202Y-148701190D01*
X333605059Y-148701190D01*
X333795535Y-148653571D01*
X333890773Y-148605952D01*
X333986011Y-148510714D01*
X334033630Y-148367857D01*
X334033630Y-148129761D01*
X334128869Y-148891666D02*
X334128869Y-149653571D01*
X333033630Y-150320238D02*
X333033630Y-150129761D01*
X333081250Y-150034523D01*
X333128869Y-149986904D01*
X333271726Y-149891666D01*
X333462202Y-149844047D01*
X333843154Y-149844047D01*
X333938392Y-149891666D01*
X333986011Y-149939285D01*
X334033630Y-150034523D01*
X334033630Y-150225000D01*
X333986011Y-150320238D01*
X333938392Y-150367857D01*
X333843154Y-150415476D01*
X333605059Y-150415476D01*
X333509821Y-150367857D01*
X333462202Y-150320238D01*
X333414583Y-150225000D01*
X333414583Y-150034523D01*
X333462202Y-149939285D01*
X333509821Y-149891666D01*
X333605059Y-149844047D01*
X333033630Y-151320238D02*
X333033630Y-150844047D01*
X333509821Y-150796428D01*
X333462202Y-150844047D01*
X333414583Y-150939285D01*
X333414583Y-151177380D01*
X333462202Y-151272619D01*
X333509821Y-151320238D01*
X333605059Y-151367857D01*
X333843154Y-151367857D01*
X333938392Y-151320238D01*
X333986011Y-151272619D01*
X334033630Y-151177380D01*
X334033630Y-150939285D01*
X333986011Y-150844047D01*
X333938392Y-150796428D01*
X375451488Y-146089880D02*
X375451488Y-145089880D01*
X375213392Y-145089880D01*
X375070535Y-145137500D01*
X374975297Y-145232738D01*
X374927678Y-145327976D01*
X374880059Y-145518452D01*
X374880059Y-145661309D01*
X374927678Y-145851785D01*
X374975297Y-145947023D01*
X375070535Y-146042261D01*
X375213392Y-146089880D01*
X375451488Y-146089880D01*
X374689583Y-146185119D02*
X373927678Y-146185119D01*
X373261011Y-145089880D02*
X373451488Y-145089880D01*
X373546726Y-145137500D01*
X373594345Y-145185119D01*
X373689583Y-145327976D01*
X373737202Y-145518452D01*
X373737202Y-145899404D01*
X373689583Y-145994642D01*
X373641964Y-146042261D01*
X373546726Y-146089880D01*
X373356250Y-146089880D01*
X373261011Y-146042261D01*
X373213392Y-145994642D01*
X373165773Y-145899404D01*
X373165773Y-145661309D01*
X373213392Y-145566071D01*
X373261011Y-145518452D01*
X373356250Y-145470833D01*
X373546726Y-145470833D01*
X373641964Y-145518452D01*
X373689583Y-145566071D01*
X373737202Y-145661309D01*
X372308630Y-145089880D02*
X372499107Y-145089880D01*
X372594345Y-145137500D01*
X372641964Y-145185119D01*
X372737202Y-145327976D01*
X372784821Y-145518452D01*
X372784821Y-145899404D01*
X372737202Y-145994642D01*
X372689583Y-146042261D01*
X372594345Y-146089880D01*
X372403869Y-146089880D01*
X372308630Y-146042261D01*
X372261011Y-145994642D01*
X372213392Y-145899404D01*
X372213392Y-145661309D01*
X372261011Y-145566071D01*
X372308630Y-145518452D01*
X372403869Y-145470833D01*
X372594345Y-145470833D01*
X372689583Y-145518452D01*
X372737202Y-145566071D01*
X372784821Y-145661309D01*
X395946130Y-148129761D02*
X394946130Y-148129761D01*
X394946130Y-148367857D01*
X394993750Y-148510714D01*
X395088988Y-148605952D01*
X395184226Y-148653571D01*
X395374702Y-148701190D01*
X395517559Y-148701190D01*
X395708035Y-148653571D01*
X395803273Y-148605952D01*
X395898511Y-148510714D01*
X395946130Y-148367857D01*
X395946130Y-148129761D01*
X396041369Y-148891666D02*
X396041369Y-149653571D01*
X394946130Y-150320238D02*
X394946130Y-150129761D01*
X394993750Y-150034523D01*
X395041369Y-149986904D01*
X395184226Y-149891666D01*
X395374702Y-149844047D01*
X395755654Y-149844047D01*
X395850892Y-149891666D01*
X395898511Y-149939285D01*
X395946130Y-150034523D01*
X395946130Y-150225000D01*
X395898511Y-150320238D01*
X395850892Y-150367857D01*
X395755654Y-150415476D01*
X395517559Y-150415476D01*
X395422321Y-150367857D01*
X395374702Y-150320238D01*
X395327083Y-150225000D01*
X395327083Y-150034523D01*
X395374702Y-149939285D01*
X395422321Y-149891666D01*
X395517559Y-149844047D01*
X394946130Y-150748809D02*
X394946130Y-151415476D01*
X395946130Y-150986904D01*
X414996130Y-148129761D02*
X413996130Y-148129761D01*
X413996130Y-148367857D01*
X414043750Y-148510714D01*
X414138988Y-148605952D01*
X414234226Y-148653571D01*
X414424702Y-148701190D01*
X414567559Y-148701190D01*
X414758035Y-148653571D01*
X414853273Y-148605952D01*
X414948511Y-148510714D01*
X414996130Y-148367857D01*
X414996130Y-148129761D01*
X415091369Y-148891666D02*
X415091369Y-149653571D01*
X413996130Y-150320238D02*
X413996130Y-150129761D01*
X414043750Y-150034523D01*
X414091369Y-149986904D01*
X414234226Y-149891666D01*
X414424702Y-149844047D01*
X414805654Y-149844047D01*
X414900892Y-149891666D01*
X414948511Y-149939285D01*
X414996130Y-150034523D01*
X414996130Y-150225000D01*
X414948511Y-150320238D01*
X414900892Y-150367857D01*
X414805654Y-150415476D01*
X414567559Y-150415476D01*
X414472321Y-150367857D01*
X414424702Y-150320238D01*
X414377083Y-150225000D01*
X414377083Y-150034523D01*
X414424702Y-149939285D01*
X414472321Y-149891666D01*
X414567559Y-149844047D01*
X414424702Y-150986904D02*
X414377083Y-150891666D01*
X414329464Y-150844047D01*
X414234226Y-150796428D01*
X414186607Y-150796428D01*
X414091369Y-150844047D01*
X414043750Y-150891666D01*
X413996130Y-150986904D01*
X413996130Y-151177380D01*
X414043750Y-151272619D01*
X414091369Y-151320238D01*
X414186607Y-151367857D01*
X414234226Y-151367857D01*
X414329464Y-151320238D01*
X414377083Y-151272619D01*
X414424702Y-151177380D01*
X414424702Y-150986904D01*
X414472321Y-150891666D01*
X414519940Y-150844047D01*
X414615178Y-150796428D01*
X414805654Y-150796428D01*
X414900892Y-150844047D01*
X414948511Y-150891666D01*
X414996130Y-150986904D01*
X414996130Y-151177380D01*
X414948511Y-151272619D01*
X414900892Y-151320238D01*
X414805654Y-151367857D01*
X414615178Y-151367857D01*
X414519940Y-151320238D01*
X414472321Y-151272619D01*
X414424702Y-151177380D01*
X434252380Y-141279761D02*
X433252380Y-141279761D01*
X433252380Y-141517857D01*
X433300000Y-141660714D01*
X433395238Y-141755952D01*
X433490476Y-141803571D01*
X433680952Y-141851190D01*
X433823809Y-141851190D01*
X434014285Y-141803571D01*
X434109523Y-141755952D01*
X434204761Y-141660714D01*
X434252380Y-141517857D01*
X434252380Y-141279761D01*
X434347619Y-142041666D02*
X434347619Y-142803571D01*
X433252380Y-143470238D02*
X433252380Y-143279761D01*
X433300000Y-143184523D01*
X433347619Y-143136904D01*
X433490476Y-143041666D01*
X433680952Y-142994047D01*
X434061904Y-142994047D01*
X434157142Y-143041666D01*
X434204761Y-143089285D01*
X434252380Y-143184523D01*
X434252380Y-143375000D01*
X434204761Y-143470238D01*
X434157142Y-143517857D01*
X434061904Y-143565476D01*
X433823809Y-143565476D01*
X433728571Y-143517857D01*
X433680952Y-143470238D01*
X433633333Y-143375000D01*
X433633333Y-143184523D01*
X433680952Y-143089285D01*
X433728571Y-143041666D01*
X433823809Y-142994047D01*
X434252380Y-144041666D02*
X434252380Y-144232142D01*
X434204761Y-144327380D01*
X434157142Y-144375000D01*
X434014285Y-144470238D01*
X433823809Y-144517857D01*
X433442857Y-144517857D01*
X433347619Y-144470238D01*
X433300000Y-144422619D01*
X433252380Y-144327380D01*
X433252380Y-144136904D01*
X433300000Y-144041666D01*
X433347619Y-143994047D01*
X433442857Y-143946428D01*
X433680952Y-143946428D01*
X433776190Y-143994047D01*
X433823809Y-144041666D01*
X433871428Y-144136904D01*
X433871428Y-144327380D01*
X433823809Y-144422619D01*
X433776190Y-144470238D01*
X433680952Y-144517857D01*
X441110380Y-142168761D02*
X440110380Y-142168761D01*
X440110380Y-142406857D01*
X440158000Y-142549714D01*
X440253238Y-142644952D01*
X440348476Y-142692571D01*
X440538952Y-142740190D01*
X440681809Y-142740190D01*
X440872285Y-142692571D01*
X440967523Y-142644952D01*
X441062761Y-142549714D01*
X441110380Y-142406857D01*
X441110380Y-142168761D01*
X441205619Y-142930666D02*
X441205619Y-143692571D01*
X440110380Y-144406857D02*
X440110380Y-143930666D01*
X440586571Y-143883047D01*
X440538952Y-143930666D01*
X440491333Y-144025904D01*
X440491333Y-144264000D01*
X440538952Y-144359238D01*
X440586571Y-144406857D01*
X440681809Y-144454476D01*
X440919904Y-144454476D01*
X441015142Y-144406857D01*
X441062761Y-144359238D01*
X441110380Y-144264000D01*
X441110380Y-144025904D01*
X441062761Y-143930666D01*
X441015142Y-143883047D01*
X440110380Y-144787809D02*
X440110380Y-145406857D01*
X440491333Y-145073523D01*
X440491333Y-145216380D01*
X440538952Y-145311619D01*
X440586571Y-145359238D01*
X440681809Y-145406857D01*
X440919904Y-145406857D01*
X441015142Y-145359238D01*
X441062761Y-145311619D01*
X441110380Y-145216380D01*
X441110380Y-144930666D01*
X441062761Y-144835428D01*
X441015142Y-144787809D01*
X134008630Y-167179761D02*
X133008630Y-167179761D01*
X133008630Y-167417857D01*
X133056250Y-167560714D01*
X133151488Y-167655952D01*
X133246726Y-167703571D01*
X133437202Y-167751190D01*
X133580059Y-167751190D01*
X133770535Y-167703571D01*
X133865773Y-167655952D01*
X133961011Y-167560714D01*
X134008630Y-167417857D01*
X134008630Y-167179761D01*
X134103869Y-167941666D02*
X134103869Y-168703571D01*
X133008630Y-168846428D02*
X133008630Y-169513095D01*
X134008630Y-169084523D01*
X133008630Y-170084523D02*
X133008630Y-170179761D01*
X133056250Y-170275000D01*
X133103869Y-170322619D01*
X133199107Y-170370238D01*
X133389583Y-170417857D01*
X133627678Y-170417857D01*
X133818154Y-170370238D01*
X133913392Y-170322619D01*
X133961011Y-170275000D01*
X134008630Y-170179761D01*
X134008630Y-170084523D01*
X133961011Y-169989285D01*
X133913392Y-169941666D01*
X133818154Y-169894047D01*
X133627678Y-169846428D01*
X133389583Y-169846428D01*
X133199107Y-169894047D01*
X133103869Y-169941666D01*
X133056250Y-169989285D01*
X133008630Y-170084523D01*
X153058630Y-167179761D02*
X152058630Y-167179761D01*
X152058630Y-167417857D01*
X152106250Y-167560714D01*
X152201488Y-167655952D01*
X152296726Y-167703571D01*
X152487202Y-167751190D01*
X152630059Y-167751190D01*
X152820535Y-167703571D01*
X152915773Y-167655952D01*
X153011011Y-167560714D01*
X153058630Y-167417857D01*
X153058630Y-167179761D01*
X153153869Y-167941666D02*
X153153869Y-168703571D01*
X152058630Y-168846428D02*
X152058630Y-169513095D01*
X153058630Y-169084523D01*
X153058630Y-170417857D02*
X153058630Y-169846428D01*
X153058630Y-170132142D02*
X152058630Y-170132142D01*
X152201488Y-170036904D01*
X152296726Y-169941666D01*
X152344345Y-169846428D01*
X172108630Y-167179761D02*
X171108630Y-167179761D01*
X171108630Y-167417857D01*
X171156250Y-167560714D01*
X171251488Y-167655952D01*
X171346726Y-167703571D01*
X171537202Y-167751190D01*
X171680059Y-167751190D01*
X171870535Y-167703571D01*
X171965773Y-167655952D01*
X172061011Y-167560714D01*
X172108630Y-167417857D01*
X172108630Y-167179761D01*
X172203869Y-167941666D02*
X172203869Y-168703571D01*
X171108630Y-168846428D02*
X171108630Y-169513095D01*
X172108630Y-169084523D01*
X171203869Y-169846428D02*
X171156250Y-169894047D01*
X171108630Y-169989285D01*
X171108630Y-170227380D01*
X171156250Y-170322619D01*
X171203869Y-170370238D01*
X171299107Y-170417857D01*
X171394345Y-170417857D01*
X171537202Y-170370238D01*
X172108630Y-169798809D01*
X172108630Y-170417857D01*
X191158630Y-167179761D02*
X190158630Y-167179761D01*
X190158630Y-167417857D01*
X190206250Y-167560714D01*
X190301488Y-167655952D01*
X190396726Y-167703571D01*
X190587202Y-167751190D01*
X190730059Y-167751190D01*
X190920535Y-167703571D01*
X191015773Y-167655952D01*
X191111011Y-167560714D01*
X191158630Y-167417857D01*
X191158630Y-167179761D01*
X191253869Y-167941666D02*
X191253869Y-168703571D01*
X190158630Y-168846428D02*
X190158630Y-169513095D01*
X191158630Y-169084523D01*
X190158630Y-169798809D02*
X190158630Y-170417857D01*
X190539583Y-170084523D01*
X190539583Y-170227380D01*
X190587202Y-170322619D01*
X190634821Y-170370238D01*
X190730059Y-170417857D01*
X190968154Y-170417857D01*
X191063392Y-170370238D01*
X191111011Y-170322619D01*
X191158630Y-170227380D01*
X191158630Y-169941666D01*
X191111011Y-169846428D01*
X191063392Y-169798809D01*
X210208630Y-167179761D02*
X209208630Y-167179761D01*
X209208630Y-167417857D01*
X209256250Y-167560714D01*
X209351488Y-167655952D01*
X209446726Y-167703571D01*
X209637202Y-167751190D01*
X209780059Y-167751190D01*
X209970535Y-167703571D01*
X210065773Y-167655952D01*
X210161011Y-167560714D01*
X210208630Y-167417857D01*
X210208630Y-167179761D01*
X210303869Y-167941666D02*
X210303869Y-168703571D01*
X209208630Y-168846428D02*
X209208630Y-169513095D01*
X210208630Y-169084523D01*
X209541964Y-170322619D02*
X210208630Y-170322619D01*
X209161011Y-170084523D02*
X209875297Y-169846428D01*
X209875297Y-170465476D01*
X229258630Y-167179761D02*
X228258630Y-167179761D01*
X228258630Y-167417857D01*
X228306250Y-167560714D01*
X228401488Y-167655952D01*
X228496726Y-167703571D01*
X228687202Y-167751190D01*
X228830059Y-167751190D01*
X229020535Y-167703571D01*
X229115773Y-167655952D01*
X229211011Y-167560714D01*
X229258630Y-167417857D01*
X229258630Y-167179761D01*
X229353869Y-167941666D02*
X229353869Y-168703571D01*
X228258630Y-168846428D02*
X228258630Y-169513095D01*
X229258630Y-169084523D01*
X228258630Y-170370238D02*
X228258630Y-169894047D01*
X228734821Y-169846428D01*
X228687202Y-169894047D01*
X228639583Y-169989285D01*
X228639583Y-170227380D01*
X228687202Y-170322619D01*
X228734821Y-170370238D01*
X228830059Y-170417857D01*
X229068154Y-170417857D01*
X229163392Y-170370238D01*
X229211011Y-170322619D01*
X229258630Y-170227380D01*
X229258630Y-169989285D01*
X229211011Y-169894047D01*
X229163392Y-169846428D01*
X248308630Y-167179761D02*
X247308630Y-167179761D01*
X247308630Y-167417857D01*
X247356250Y-167560714D01*
X247451488Y-167655952D01*
X247546726Y-167703571D01*
X247737202Y-167751190D01*
X247880059Y-167751190D01*
X248070535Y-167703571D01*
X248165773Y-167655952D01*
X248261011Y-167560714D01*
X248308630Y-167417857D01*
X248308630Y-167179761D01*
X248403869Y-167941666D02*
X248403869Y-168703571D01*
X247308630Y-168846428D02*
X247308630Y-169513095D01*
X248308630Y-169084523D01*
X247308630Y-170322619D02*
X247308630Y-170132142D01*
X247356250Y-170036904D01*
X247403869Y-169989285D01*
X247546726Y-169894047D01*
X247737202Y-169846428D01*
X248118154Y-169846428D01*
X248213392Y-169894047D01*
X248261011Y-169941666D01*
X248308630Y-170036904D01*
X248308630Y-170227380D01*
X248261011Y-170322619D01*
X248213392Y-170370238D01*
X248118154Y-170417857D01*
X247880059Y-170417857D01*
X247784821Y-170370238D01*
X247737202Y-170322619D01*
X247689583Y-170227380D01*
X247689583Y-170036904D01*
X247737202Y-169941666D01*
X247784821Y-169894047D01*
X247880059Y-169846428D01*
X267358630Y-167179761D02*
X266358630Y-167179761D01*
X266358630Y-167417857D01*
X266406250Y-167560714D01*
X266501488Y-167655952D01*
X266596726Y-167703571D01*
X266787202Y-167751190D01*
X266930059Y-167751190D01*
X267120535Y-167703571D01*
X267215773Y-167655952D01*
X267311011Y-167560714D01*
X267358630Y-167417857D01*
X267358630Y-167179761D01*
X267453869Y-167941666D02*
X267453869Y-168703571D01*
X266358630Y-168846428D02*
X266358630Y-169513095D01*
X267358630Y-169084523D01*
X266358630Y-169798809D02*
X266358630Y-170465476D01*
X267358630Y-170036904D01*
X286408630Y-167179761D02*
X285408630Y-167179761D01*
X285408630Y-167417857D01*
X285456250Y-167560714D01*
X285551488Y-167655952D01*
X285646726Y-167703571D01*
X285837202Y-167751190D01*
X285980059Y-167751190D01*
X286170535Y-167703571D01*
X286265773Y-167655952D01*
X286361011Y-167560714D01*
X286408630Y-167417857D01*
X286408630Y-167179761D01*
X286503869Y-167941666D02*
X286503869Y-168703571D01*
X285408630Y-168846428D02*
X285408630Y-169513095D01*
X286408630Y-169084523D01*
X285837202Y-170036904D02*
X285789583Y-169941666D01*
X285741964Y-169894047D01*
X285646726Y-169846428D01*
X285599107Y-169846428D01*
X285503869Y-169894047D01*
X285456250Y-169941666D01*
X285408630Y-170036904D01*
X285408630Y-170227380D01*
X285456250Y-170322619D01*
X285503869Y-170370238D01*
X285599107Y-170417857D01*
X285646726Y-170417857D01*
X285741964Y-170370238D01*
X285789583Y-170322619D01*
X285837202Y-170227380D01*
X285837202Y-170036904D01*
X285884821Y-169941666D01*
X285932440Y-169894047D01*
X286027678Y-169846428D01*
X286218154Y-169846428D01*
X286313392Y-169894047D01*
X286361011Y-169941666D01*
X286408630Y-170036904D01*
X286408630Y-170227380D01*
X286361011Y-170322619D01*
X286313392Y-170370238D01*
X286218154Y-170417857D01*
X286027678Y-170417857D01*
X285932440Y-170370238D01*
X285884821Y-170322619D01*
X285837202Y-170227380D01*
X305458630Y-167179761D02*
X304458630Y-167179761D01*
X304458630Y-167417857D01*
X304506250Y-167560714D01*
X304601488Y-167655952D01*
X304696726Y-167703571D01*
X304887202Y-167751190D01*
X305030059Y-167751190D01*
X305220535Y-167703571D01*
X305315773Y-167655952D01*
X305411011Y-167560714D01*
X305458630Y-167417857D01*
X305458630Y-167179761D01*
X305553869Y-167941666D02*
X305553869Y-168703571D01*
X304458630Y-168846428D02*
X304458630Y-169513095D01*
X305458630Y-169084523D01*
X305458630Y-169941666D02*
X305458630Y-170132142D01*
X305411011Y-170227380D01*
X305363392Y-170275000D01*
X305220535Y-170370238D01*
X305030059Y-170417857D01*
X304649107Y-170417857D01*
X304553869Y-170370238D01*
X304506250Y-170322619D01*
X304458630Y-170227380D01*
X304458630Y-170036904D01*
X304506250Y-169941666D01*
X304553869Y-169894047D01*
X304649107Y-169846428D01*
X304887202Y-169846428D01*
X304982440Y-169894047D01*
X305030059Y-169941666D01*
X305077678Y-170036904D01*
X305077678Y-170227380D01*
X305030059Y-170322619D01*
X304982440Y-170370238D01*
X304887202Y-170417857D01*
X324508630Y-167179761D02*
X323508630Y-167179761D01*
X323508630Y-167417857D01*
X323556250Y-167560714D01*
X323651488Y-167655952D01*
X323746726Y-167703571D01*
X323937202Y-167751190D01*
X324080059Y-167751190D01*
X324270535Y-167703571D01*
X324365773Y-167655952D01*
X324461011Y-167560714D01*
X324508630Y-167417857D01*
X324508630Y-167179761D01*
X324603869Y-167941666D02*
X324603869Y-168703571D01*
X323937202Y-169084523D02*
X323889583Y-168989285D01*
X323841964Y-168941666D01*
X323746726Y-168894047D01*
X323699107Y-168894047D01*
X323603869Y-168941666D01*
X323556250Y-168989285D01*
X323508630Y-169084523D01*
X323508630Y-169275000D01*
X323556250Y-169370238D01*
X323603869Y-169417857D01*
X323699107Y-169465476D01*
X323746726Y-169465476D01*
X323841964Y-169417857D01*
X323889583Y-169370238D01*
X323937202Y-169275000D01*
X323937202Y-169084523D01*
X323984821Y-168989285D01*
X324032440Y-168941666D01*
X324127678Y-168894047D01*
X324318154Y-168894047D01*
X324413392Y-168941666D01*
X324461011Y-168989285D01*
X324508630Y-169084523D01*
X324508630Y-169275000D01*
X324461011Y-169370238D01*
X324413392Y-169417857D01*
X324318154Y-169465476D01*
X324127678Y-169465476D01*
X324032440Y-169417857D01*
X323984821Y-169370238D01*
X323937202Y-169275000D01*
X323508630Y-170084523D02*
X323508630Y-170179761D01*
X323556250Y-170275000D01*
X323603869Y-170322619D01*
X323699107Y-170370238D01*
X323889583Y-170417857D01*
X324127678Y-170417857D01*
X324318154Y-170370238D01*
X324413392Y-170322619D01*
X324461011Y-170275000D01*
X324508630Y-170179761D01*
X324508630Y-170084523D01*
X324461011Y-169989285D01*
X324413392Y-169941666D01*
X324318154Y-169894047D01*
X324127678Y-169846428D01*
X323889583Y-169846428D01*
X323699107Y-169894047D01*
X323603869Y-169941666D01*
X323556250Y-169989285D01*
X323508630Y-170084523D01*
X357846130Y-167179761D02*
X356846130Y-167179761D01*
X356846130Y-167417857D01*
X356893750Y-167560714D01*
X356988988Y-167655952D01*
X357084226Y-167703571D01*
X357274702Y-167751190D01*
X357417559Y-167751190D01*
X357608035Y-167703571D01*
X357703273Y-167655952D01*
X357798511Y-167560714D01*
X357846130Y-167417857D01*
X357846130Y-167179761D01*
X357941369Y-167941666D02*
X357941369Y-168703571D01*
X357274702Y-169084523D02*
X357227083Y-168989285D01*
X357179464Y-168941666D01*
X357084226Y-168894047D01*
X357036607Y-168894047D01*
X356941369Y-168941666D01*
X356893750Y-168989285D01*
X356846130Y-169084523D01*
X356846130Y-169275000D01*
X356893750Y-169370238D01*
X356941369Y-169417857D01*
X357036607Y-169465476D01*
X357084226Y-169465476D01*
X357179464Y-169417857D01*
X357227083Y-169370238D01*
X357274702Y-169275000D01*
X357274702Y-169084523D01*
X357322321Y-168989285D01*
X357369940Y-168941666D01*
X357465178Y-168894047D01*
X357655654Y-168894047D01*
X357750892Y-168941666D01*
X357798511Y-168989285D01*
X357846130Y-169084523D01*
X357846130Y-169275000D01*
X357798511Y-169370238D01*
X357750892Y-169417857D01*
X357655654Y-169465476D01*
X357465178Y-169465476D01*
X357369940Y-169417857D01*
X357322321Y-169370238D01*
X357274702Y-169275000D01*
X357846130Y-170417857D02*
X357846130Y-169846428D01*
X357846130Y-170132142D02*
X356846130Y-170132142D01*
X356988988Y-170036904D01*
X357084226Y-169941666D01*
X357131845Y-169846428D01*
X376896130Y-167179761D02*
X375896130Y-167179761D01*
X375896130Y-167417857D01*
X375943750Y-167560714D01*
X376038988Y-167655952D01*
X376134226Y-167703571D01*
X376324702Y-167751190D01*
X376467559Y-167751190D01*
X376658035Y-167703571D01*
X376753273Y-167655952D01*
X376848511Y-167560714D01*
X376896130Y-167417857D01*
X376896130Y-167179761D01*
X376991369Y-167941666D02*
X376991369Y-168703571D01*
X376324702Y-169084523D02*
X376277083Y-168989285D01*
X376229464Y-168941666D01*
X376134226Y-168894047D01*
X376086607Y-168894047D01*
X375991369Y-168941666D01*
X375943750Y-168989285D01*
X375896130Y-169084523D01*
X375896130Y-169275000D01*
X375943750Y-169370238D01*
X375991369Y-169417857D01*
X376086607Y-169465476D01*
X376134226Y-169465476D01*
X376229464Y-169417857D01*
X376277083Y-169370238D01*
X376324702Y-169275000D01*
X376324702Y-169084523D01*
X376372321Y-168989285D01*
X376419940Y-168941666D01*
X376515178Y-168894047D01*
X376705654Y-168894047D01*
X376800892Y-168941666D01*
X376848511Y-168989285D01*
X376896130Y-169084523D01*
X376896130Y-169275000D01*
X376848511Y-169370238D01*
X376800892Y-169417857D01*
X376705654Y-169465476D01*
X376515178Y-169465476D01*
X376419940Y-169417857D01*
X376372321Y-169370238D01*
X376324702Y-169275000D01*
X375991369Y-169846428D02*
X375943750Y-169894047D01*
X375896130Y-169989285D01*
X375896130Y-170227380D01*
X375943750Y-170322619D01*
X375991369Y-170370238D01*
X376086607Y-170417857D01*
X376181845Y-170417857D01*
X376324702Y-170370238D01*
X376896130Y-169798809D01*
X376896130Y-170417857D01*
X395946130Y-167179761D02*
X394946130Y-167179761D01*
X394946130Y-167417857D01*
X394993750Y-167560714D01*
X395088988Y-167655952D01*
X395184226Y-167703571D01*
X395374702Y-167751190D01*
X395517559Y-167751190D01*
X395708035Y-167703571D01*
X395803273Y-167655952D01*
X395898511Y-167560714D01*
X395946130Y-167417857D01*
X395946130Y-167179761D01*
X396041369Y-167941666D02*
X396041369Y-168703571D01*
X395374702Y-169084523D02*
X395327083Y-168989285D01*
X395279464Y-168941666D01*
X395184226Y-168894047D01*
X395136607Y-168894047D01*
X395041369Y-168941666D01*
X394993750Y-168989285D01*
X394946130Y-169084523D01*
X394946130Y-169275000D01*
X394993750Y-169370238D01*
X395041369Y-169417857D01*
X395136607Y-169465476D01*
X395184226Y-169465476D01*
X395279464Y-169417857D01*
X395327083Y-169370238D01*
X395374702Y-169275000D01*
X395374702Y-169084523D01*
X395422321Y-168989285D01*
X395469940Y-168941666D01*
X395565178Y-168894047D01*
X395755654Y-168894047D01*
X395850892Y-168941666D01*
X395898511Y-168989285D01*
X395946130Y-169084523D01*
X395946130Y-169275000D01*
X395898511Y-169370238D01*
X395850892Y-169417857D01*
X395755654Y-169465476D01*
X395565178Y-169465476D01*
X395469940Y-169417857D01*
X395422321Y-169370238D01*
X395374702Y-169275000D01*
X394946130Y-169798809D02*
X394946130Y-170417857D01*
X395327083Y-170084523D01*
X395327083Y-170227380D01*
X395374702Y-170322619D01*
X395422321Y-170370238D01*
X395517559Y-170417857D01*
X395755654Y-170417857D01*
X395850892Y-170370238D01*
X395898511Y-170322619D01*
X395946130Y-170227380D01*
X395946130Y-169941666D01*
X395898511Y-169846428D01*
X395850892Y-169798809D01*
X414996130Y-167179761D02*
X413996130Y-167179761D01*
X413996130Y-167417857D01*
X414043750Y-167560714D01*
X414138988Y-167655952D01*
X414234226Y-167703571D01*
X414424702Y-167751190D01*
X414567559Y-167751190D01*
X414758035Y-167703571D01*
X414853273Y-167655952D01*
X414948511Y-167560714D01*
X414996130Y-167417857D01*
X414996130Y-167179761D01*
X415091369Y-167941666D02*
X415091369Y-168703571D01*
X414424702Y-169084523D02*
X414377083Y-168989285D01*
X414329464Y-168941666D01*
X414234226Y-168894047D01*
X414186607Y-168894047D01*
X414091369Y-168941666D01*
X414043750Y-168989285D01*
X413996130Y-169084523D01*
X413996130Y-169275000D01*
X414043750Y-169370238D01*
X414091369Y-169417857D01*
X414186607Y-169465476D01*
X414234226Y-169465476D01*
X414329464Y-169417857D01*
X414377083Y-169370238D01*
X414424702Y-169275000D01*
X414424702Y-169084523D01*
X414472321Y-168989285D01*
X414519940Y-168941666D01*
X414615178Y-168894047D01*
X414805654Y-168894047D01*
X414900892Y-168941666D01*
X414948511Y-168989285D01*
X414996130Y-169084523D01*
X414996130Y-169275000D01*
X414948511Y-169370238D01*
X414900892Y-169417857D01*
X414805654Y-169465476D01*
X414615178Y-169465476D01*
X414519940Y-169417857D01*
X414472321Y-169370238D01*
X414424702Y-169275000D01*
X414329464Y-170322619D02*
X414996130Y-170322619D01*
X413948511Y-170084523D02*
X414662797Y-169846428D01*
X414662797Y-170465476D01*
X434252380Y-173029761D02*
X433252380Y-173029761D01*
X433252380Y-173267857D01*
X433300000Y-173410714D01*
X433395238Y-173505952D01*
X433490476Y-173553571D01*
X433680952Y-173601190D01*
X433823809Y-173601190D01*
X434014285Y-173553571D01*
X434109523Y-173505952D01*
X434204761Y-173410714D01*
X434252380Y-173267857D01*
X434252380Y-173029761D01*
X434347619Y-173791666D02*
X434347619Y-174553571D01*
X433680952Y-174934523D02*
X433633333Y-174839285D01*
X433585714Y-174791666D01*
X433490476Y-174744047D01*
X433442857Y-174744047D01*
X433347619Y-174791666D01*
X433300000Y-174839285D01*
X433252380Y-174934523D01*
X433252380Y-175125000D01*
X433300000Y-175220238D01*
X433347619Y-175267857D01*
X433442857Y-175315476D01*
X433490476Y-175315476D01*
X433585714Y-175267857D01*
X433633333Y-175220238D01*
X433680952Y-175125000D01*
X433680952Y-174934523D01*
X433728571Y-174839285D01*
X433776190Y-174791666D01*
X433871428Y-174744047D01*
X434061904Y-174744047D01*
X434157142Y-174791666D01*
X434204761Y-174839285D01*
X434252380Y-174934523D01*
X434252380Y-175125000D01*
X434204761Y-175220238D01*
X434157142Y-175267857D01*
X434061904Y-175315476D01*
X433871428Y-175315476D01*
X433776190Y-175267857D01*
X433728571Y-175220238D01*
X433680952Y-175125000D01*
X433252380Y-176220238D02*
X433252380Y-175744047D01*
X433728571Y-175696428D01*
X433680952Y-175744047D01*
X433633333Y-175839285D01*
X433633333Y-176077380D01*
X433680952Y-176172619D01*
X433728571Y-176220238D01*
X433823809Y-176267857D01*
X434061904Y-176267857D01*
X434157142Y-176220238D01*
X434204761Y-176172619D01*
X434252380Y-176077380D01*
X434252380Y-175839285D01*
X434204761Y-175744047D01*
X434157142Y-175696428D01*
X114958630Y-186229761D02*
X113958630Y-186229761D01*
X113958630Y-186467857D01*
X114006250Y-186610714D01*
X114101488Y-186705952D01*
X114196726Y-186753571D01*
X114387202Y-186801190D01*
X114530059Y-186801190D01*
X114720535Y-186753571D01*
X114815773Y-186705952D01*
X114911011Y-186610714D01*
X114958630Y-186467857D01*
X114958630Y-186229761D01*
X115053869Y-186991666D02*
X115053869Y-187753571D01*
X114387202Y-188134523D02*
X114339583Y-188039285D01*
X114291964Y-187991666D01*
X114196726Y-187944047D01*
X114149107Y-187944047D01*
X114053869Y-187991666D01*
X114006250Y-188039285D01*
X113958630Y-188134523D01*
X113958630Y-188325000D01*
X114006250Y-188420238D01*
X114053869Y-188467857D01*
X114149107Y-188515476D01*
X114196726Y-188515476D01*
X114291964Y-188467857D01*
X114339583Y-188420238D01*
X114387202Y-188325000D01*
X114387202Y-188134523D01*
X114434821Y-188039285D01*
X114482440Y-187991666D01*
X114577678Y-187944047D01*
X114768154Y-187944047D01*
X114863392Y-187991666D01*
X114911011Y-188039285D01*
X114958630Y-188134523D01*
X114958630Y-188325000D01*
X114911011Y-188420238D01*
X114863392Y-188467857D01*
X114768154Y-188515476D01*
X114577678Y-188515476D01*
X114482440Y-188467857D01*
X114434821Y-188420238D01*
X114387202Y-188325000D01*
X113958630Y-188848809D02*
X113958630Y-189515476D01*
X114958630Y-189086904D01*
X138771130Y-186229761D02*
X137771130Y-186229761D01*
X137771130Y-186467857D01*
X137818750Y-186610714D01*
X137913988Y-186705952D01*
X138009226Y-186753571D01*
X138199702Y-186801190D01*
X138342559Y-186801190D01*
X138533035Y-186753571D01*
X138628273Y-186705952D01*
X138723511Y-186610714D01*
X138771130Y-186467857D01*
X138771130Y-186229761D01*
X138866369Y-186991666D02*
X138866369Y-187753571D01*
X138199702Y-188134523D02*
X138152083Y-188039285D01*
X138104464Y-187991666D01*
X138009226Y-187944047D01*
X137961607Y-187944047D01*
X137866369Y-187991666D01*
X137818750Y-188039285D01*
X137771130Y-188134523D01*
X137771130Y-188325000D01*
X137818750Y-188420238D01*
X137866369Y-188467857D01*
X137961607Y-188515476D01*
X138009226Y-188515476D01*
X138104464Y-188467857D01*
X138152083Y-188420238D01*
X138199702Y-188325000D01*
X138199702Y-188134523D01*
X138247321Y-188039285D01*
X138294940Y-187991666D01*
X138390178Y-187944047D01*
X138580654Y-187944047D01*
X138675892Y-187991666D01*
X138723511Y-188039285D01*
X138771130Y-188134523D01*
X138771130Y-188325000D01*
X138723511Y-188420238D01*
X138675892Y-188467857D01*
X138580654Y-188515476D01*
X138390178Y-188515476D01*
X138294940Y-188467857D01*
X138247321Y-188420238D01*
X138199702Y-188325000D01*
X138199702Y-189086904D02*
X138152083Y-188991666D01*
X138104464Y-188944047D01*
X138009226Y-188896428D01*
X137961607Y-188896428D01*
X137866369Y-188944047D01*
X137818750Y-188991666D01*
X137771130Y-189086904D01*
X137771130Y-189277380D01*
X137818750Y-189372619D01*
X137866369Y-189420238D01*
X137961607Y-189467857D01*
X138009226Y-189467857D01*
X138104464Y-189420238D01*
X138152083Y-189372619D01*
X138199702Y-189277380D01*
X138199702Y-189086904D01*
X138247321Y-188991666D01*
X138294940Y-188944047D01*
X138390178Y-188896428D01*
X138580654Y-188896428D01*
X138675892Y-188944047D01*
X138723511Y-188991666D01*
X138771130Y-189086904D01*
X138771130Y-189277380D01*
X138723511Y-189372619D01*
X138675892Y-189420238D01*
X138580654Y-189467857D01*
X138390178Y-189467857D01*
X138294940Y-189420238D01*
X138247321Y-189372619D01*
X138199702Y-189277380D01*
X162345380Y-181665761D02*
X161345380Y-181665761D01*
X161345380Y-181903857D01*
X161393000Y-182046714D01*
X161488238Y-182141952D01*
X161583476Y-182189571D01*
X161773952Y-182237190D01*
X161916809Y-182237190D01*
X162107285Y-182189571D01*
X162202523Y-182141952D01*
X162297761Y-182046714D01*
X162345380Y-181903857D01*
X162345380Y-181665761D01*
X162440619Y-182427666D02*
X162440619Y-183189571D01*
X161773952Y-183570523D02*
X161726333Y-183475285D01*
X161678714Y-183427666D01*
X161583476Y-183380047D01*
X161535857Y-183380047D01*
X161440619Y-183427666D01*
X161393000Y-183475285D01*
X161345380Y-183570523D01*
X161345380Y-183761000D01*
X161393000Y-183856238D01*
X161440619Y-183903857D01*
X161535857Y-183951476D01*
X161583476Y-183951476D01*
X161678714Y-183903857D01*
X161726333Y-183856238D01*
X161773952Y-183761000D01*
X161773952Y-183570523D01*
X161821571Y-183475285D01*
X161869190Y-183427666D01*
X161964428Y-183380047D01*
X162154904Y-183380047D01*
X162250142Y-183427666D01*
X162297761Y-183475285D01*
X162345380Y-183570523D01*
X162345380Y-183761000D01*
X162297761Y-183856238D01*
X162250142Y-183903857D01*
X162154904Y-183951476D01*
X161964428Y-183951476D01*
X161869190Y-183903857D01*
X161821571Y-183856238D01*
X161773952Y-183761000D01*
X162345380Y-184427666D02*
X162345380Y-184618142D01*
X162297761Y-184713380D01*
X162250142Y-184761000D01*
X162107285Y-184856238D01*
X161916809Y-184903857D01*
X161535857Y-184903857D01*
X161440619Y-184856238D01*
X161393000Y-184808619D01*
X161345380Y-184713380D01*
X161345380Y-184522904D01*
X161393000Y-184427666D01*
X161440619Y-184380047D01*
X161535857Y-184332428D01*
X161773952Y-184332428D01*
X161869190Y-184380047D01*
X161916809Y-184427666D01*
X161964428Y-184522904D01*
X161964428Y-184713380D01*
X161916809Y-184808619D01*
X161869190Y-184856238D01*
X161773952Y-184903857D01*
X205446130Y-186229761D02*
X204446130Y-186229761D01*
X204446130Y-186467857D01*
X204493750Y-186610714D01*
X204588988Y-186705952D01*
X204684226Y-186753571D01*
X204874702Y-186801190D01*
X205017559Y-186801190D01*
X205208035Y-186753571D01*
X205303273Y-186705952D01*
X205398511Y-186610714D01*
X205446130Y-186467857D01*
X205446130Y-186229761D01*
X205541369Y-186991666D02*
X205541369Y-187753571D01*
X205446130Y-188039285D02*
X205446130Y-188229761D01*
X205398511Y-188325000D01*
X205350892Y-188372619D01*
X205208035Y-188467857D01*
X205017559Y-188515476D01*
X204636607Y-188515476D01*
X204541369Y-188467857D01*
X204493750Y-188420238D01*
X204446130Y-188325000D01*
X204446130Y-188134523D01*
X204493750Y-188039285D01*
X204541369Y-187991666D01*
X204636607Y-187944047D01*
X204874702Y-187944047D01*
X204969940Y-187991666D01*
X205017559Y-188039285D01*
X205065178Y-188134523D01*
X205065178Y-188325000D01*
X205017559Y-188420238D01*
X204969940Y-188467857D01*
X204874702Y-188515476D01*
X205446130Y-189467857D02*
X205446130Y-188896428D01*
X205446130Y-189182142D02*
X204446130Y-189182142D01*
X204588988Y-189086904D01*
X204684226Y-188991666D01*
X204731845Y-188896428D01*
X219305380Y-176458761D02*
X218305380Y-176458761D01*
X218305380Y-176696857D01*
X218353000Y-176839714D01*
X218448238Y-176934952D01*
X218543476Y-176982571D01*
X218733952Y-177030190D01*
X218876809Y-177030190D01*
X219067285Y-176982571D01*
X219162523Y-176934952D01*
X219257761Y-176839714D01*
X219305380Y-176696857D01*
X219305380Y-176458761D01*
X219400619Y-177220666D02*
X219400619Y-177982571D01*
X219305380Y-178268285D02*
X219305380Y-178458761D01*
X219257761Y-178554000D01*
X219210142Y-178601619D01*
X219067285Y-178696857D01*
X218876809Y-178744476D01*
X218495857Y-178744476D01*
X218400619Y-178696857D01*
X218353000Y-178649238D01*
X218305380Y-178554000D01*
X218305380Y-178363523D01*
X218353000Y-178268285D01*
X218400619Y-178220666D01*
X218495857Y-178173047D01*
X218733952Y-178173047D01*
X218829190Y-178220666D01*
X218876809Y-178268285D01*
X218924428Y-178363523D01*
X218924428Y-178554000D01*
X218876809Y-178649238D01*
X218829190Y-178696857D01*
X218733952Y-178744476D01*
X218400619Y-179125428D02*
X218353000Y-179173047D01*
X218305380Y-179268285D01*
X218305380Y-179506380D01*
X218353000Y-179601619D01*
X218400619Y-179649238D01*
X218495857Y-179696857D01*
X218591095Y-179696857D01*
X218733952Y-179649238D01*
X219305380Y-179077809D01*
X219305380Y-179696857D01*
X277471380Y-176458761D02*
X276471380Y-176458761D01*
X276471380Y-176696857D01*
X276519000Y-176839714D01*
X276614238Y-176934952D01*
X276709476Y-176982571D01*
X276899952Y-177030190D01*
X277042809Y-177030190D01*
X277233285Y-176982571D01*
X277328523Y-176934952D01*
X277423761Y-176839714D01*
X277471380Y-176696857D01*
X277471380Y-176458761D01*
X277566619Y-177220666D02*
X277566619Y-177982571D01*
X277471380Y-178268285D02*
X277471380Y-178458761D01*
X277423761Y-178554000D01*
X277376142Y-178601619D01*
X277233285Y-178696857D01*
X277042809Y-178744476D01*
X276661857Y-178744476D01*
X276566619Y-178696857D01*
X276519000Y-178649238D01*
X276471380Y-178554000D01*
X276471380Y-178363523D01*
X276519000Y-178268285D01*
X276566619Y-178220666D01*
X276661857Y-178173047D01*
X276899952Y-178173047D01*
X276995190Y-178220666D01*
X277042809Y-178268285D01*
X277090428Y-178363523D01*
X277090428Y-178554000D01*
X277042809Y-178649238D01*
X276995190Y-178696857D01*
X276899952Y-178744476D01*
X276471380Y-179077809D02*
X276471380Y-179696857D01*
X276852333Y-179363523D01*
X276852333Y-179506380D01*
X276899952Y-179601619D01*
X276947571Y-179649238D01*
X277042809Y-179696857D01*
X277280904Y-179696857D01*
X277376142Y-179649238D01*
X277423761Y-179601619D01*
X277471380Y-179506380D01*
X277471380Y-179220666D01*
X277423761Y-179125428D01*
X277376142Y-179077809D01*
X305458630Y-186229761D02*
X304458630Y-186229761D01*
X304458630Y-186467857D01*
X304506250Y-186610714D01*
X304601488Y-186705952D01*
X304696726Y-186753571D01*
X304887202Y-186801190D01*
X305030059Y-186801190D01*
X305220535Y-186753571D01*
X305315773Y-186705952D01*
X305411011Y-186610714D01*
X305458630Y-186467857D01*
X305458630Y-186229761D01*
X305553869Y-186991666D02*
X305553869Y-187753571D01*
X305458630Y-188039285D02*
X305458630Y-188229761D01*
X305411011Y-188325000D01*
X305363392Y-188372619D01*
X305220535Y-188467857D01*
X305030059Y-188515476D01*
X304649107Y-188515476D01*
X304553869Y-188467857D01*
X304506250Y-188420238D01*
X304458630Y-188325000D01*
X304458630Y-188134523D01*
X304506250Y-188039285D01*
X304553869Y-187991666D01*
X304649107Y-187944047D01*
X304887202Y-187944047D01*
X304982440Y-187991666D01*
X305030059Y-188039285D01*
X305077678Y-188134523D01*
X305077678Y-188325000D01*
X305030059Y-188420238D01*
X304982440Y-188467857D01*
X304887202Y-188515476D01*
X304791964Y-189372619D02*
X305458630Y-189372619D01*
X304411011Y-189134523D02*
X305125297Y-188896428D01*
X305125297Y-189515476D01*
X329271130Y-186229761D02*
X328271130Y-186229761D01*
X328271130Y-186467857D01*
X328318750Y-186610714D01*
X328413988Y-186705952D01*
X328509226Y-186753571D01*
X328699702Y-186801190D01*
X328842559Y-186801190D01*
X329033035Y-186753571D01*
X329128273Y-186705952D01*
X329223511Y-186610714D01*
X329271130Y-186467857D01*
X329271130Y-186229761D01*
X329366369Y-186991666D02*
X329366369Y-187753571D01*
X329271130Y-188039285D02*
X329271130Y-188229761D01*
X329223511Y-188325000D01*
X329175892Y-188372619D01*
X329033035Y-188467857D01*
X328842559Y-188515476D01*
X328461607Y-188515476D01*
X328366369Y-188467857D01*
X328318750Y-188420238D01*
X328271130Y-188325000D01*
X328271130Y-188134523D01*
X328318750Y-188039285D01*
X328366369Y-187991666D01*
X328461607Y-187944047D01*
X328699702Y-187944047D01*
X328794940Y-187991666D01*
X328842559Y-188039285D01*
X328890178Y-188134523D01*
X328890178Y-188325000D01*
X328842559Y-188420238D01*
X328794940Y-188467857D01*
X328699702Y-188515476D01*
X328271130Y-189420238D02*
X328271130Y-188944047D01*
X328747321Y-188896428D01*
X328699702Y-188944047D01*
X328652083Y-189039285D01*
X328652083Y-189277380D01*
X328699702Y-189372619D01*
X328747321Y-189420238D01*
X328842559Y-189467857D01*
X329080654Y-189467857D01*
X329175892Y-189420238D01*
X329223511Y-189372619D01*
X329271130Y-189277380D01*
X329271130Y-189039285D01*
X329223511Y-188944047D01*
X329175892Y-188896428D01*
X357846130Y-186229761D02*
X356846130Y-186229761D01*
X356846130Y-186467857D01*
X356893750Y-186610714D01*
X356988988Y-186705952D01*
X357084226Y-186753571D01*
X357274702Y-186801190D01*
X357417559Y-186801190D01*
X357608035Y-186753571D01*
X357703273Y-186705952D01*
X357798511Y-186610714D01*
X357846130Y-186467857D01*
X357846130Y-186229761D01*
X357941369Y-186991666D02*
X357941369Y-187753571D01*
X357846130Y-188039285D02*
X357846130Y-188229761D01*
X357798511Y-188325000D01*
X357750892Y-188372619D01*
X357608035Y-188467857D01*
X357417559Y-188515476D01*
X357036607Y-188515476D01*
X356941369Y-188467857D01*
X356893750Y-188420238D01*
X356846130Y-188325000D01*
X356846130Y-188134523D01*
X356893750Y-188039285D01*
X356941369Y-187991666D01*
X357036607Y-187944047D01*
X357274702Y-187944047D01*
X357369940Y-187991666D01*
X357417559Y-188039285D01*
X357465178Y-188134523D01*
X357465178Y-188325000D01*
X357417559Y-188420238D01*
X357369940Y-188467857D01*
X357274702Y-188515476D01*
X356846130Y-189372619D02*
X356846130Y-189182142D01*
X356893750Y-189086904D01*
X356941369Y-189039285D01*
X357084226Y-188944047D01*
X357274702Y-188896428D01*
X357655654Y-188896428D01*
X357750892Y-188944047D01*
X357798511Y-188991666D01*
X357846130Y-189086904D01*
X357846130Y-189277380D01*
X357798511Y-189372619D01*
X357750892Y-189420238D01*
X357655654Y-189467857D01*
X357417559Y-189467857D01*
X357322321Y-189420238D01*
X357274702Y-189372619D01*
X357227083Y-189277380D01*
X357227083Y-189086904D01*
X357274702Y-188991666D01*
X357322321Y-188944047D01*
X357417559Y-188896428D01*
X376721380Y-181411761D02*
X375721380Y-181411761D01*
X375721380Y-181649857D01*
X375769000Y-181792714D01*
X375864238Y-181887952D01*
X375959476Y-181935571D01*
X376149952Y-181983190D01*
X376292809Y-181983190D01*
X376483285Y-181935571D01*
X376578523Y-181887952D01*
X376673761Y-181792714D01*
X376721380Y-181649857D01*
X376721380Y-181411761D01*
X376816619Y-182173666D02*
X376816619Y-182935571D01*
X376721380Y-183221285D02*
X376721380Y-183411761D01*
X376673761Y-183507000D01*
X376626142Y-183554619D01*
X376483285Y-183649857D01*
X376292809Y-183697476D01*
X375911857Y-183697476D01*
X375816619Y-183649857D01*
X375769000Y-183602238D01*
X375721380Y-183507000D01*
X375721380Y-183316523D01*
X375769000Y-183221285D01*
X375816619Y-183173666D01*
X375911857Y-183126047D01*
X376149952Y-183126047D01*
X376245190Y-183173666D01*
X376292809Y-183221285D01*
X376340428Y-183316523D01*
X376340428Y-183507000D01*
X376292809Y-183602238D01*
X376245190Y-183649857D01*
X376149952Y-183697476D01*
X375721380Y-184030809D02*
X375721380Y-184697476D01*
X376721380Y-184268904D01*
X395946130Y-186229761D02*
X394946130Y-186229761D01*
X394946130Y-186467857D01*
X394993750Y-186610714D01*
X395088988Y-186705952D01*
X395184226Y-186753571D01*
X395374702Y-186801190D01*
X395517559Y-186801190D01*
X395708035Y-186753571D01*
X395803273Y-186705952D01*
X395898511Y-186610714D01*
X395946130Y-186467857D01*
X395946130Y-186229761D01*
X396041369Y-186991666D02*
X396041369Y-187753571D01*
X395946130Y-188039285D02*
X395946130Y-188229761D01*
X395898511Y-188325000D01*
X395850892Y-188372619D01*
X395708035Y-188467857D01*
X395517559Y-188515476D01*
X395136607Y-188515476D01*
X395041369Y-188467857D01*
X394993750Y-188420238D01*
X394946130Y-188325000D01*
X394946130Y-188134523D01*
X394993750Y-188039285D01*
X395041369Y-187991666D01*
X395136607Y-187944047D01*
X395374702Y-187944047D01*
X395469940Y-187991666D01*
X395517559Y-188039285D01*
X395565178Y-188134523D01*
X395565178Y-188325000D01*
X395517559Y-188420238D01*
X395469940Y-188467857D01*
X395374702Y-188515476D01*
X395374702Y-189086904D02*
X395327083Y-188991666D01*
X395279464Y-188944047D01*
X395184226Y-188896428D01*
X395136607Y-188896428D01*
X395041369Y-188944047D01*
X394993750Y-188991666D01*
X394946130Y-189086904D01*
X394946130Y-189277380D01*
X394993750Y-189372619D01*
X395041369Y-189420238D01*
X395136607Y-189467857D01*
X395184226Y-189467857D01*
X395279464Y-189420238D01*
X395327083Y-189372619D01*
X395374702Y-189277380D01*
X395374702Y-189086904D01*
X395422321Y-188991666D01*
X395469940Y-188944047D01*
X395565178Y-188896428D01*
X395755654Y-188896428D01*
X395850892Y-188944047D01*
X395898511Y-188991666D01*
X395946130Y-189086904D01*
X395946130Y-189277380D01*
X395898511Y-189372619D01*
X395850892Y-189420238D01*
X395755654Y-189467857D01*
X395565178Y-189467857D01*
X395469940Y-189420238D01*
X395422321Y-189372619D01*
X395374702Y-189277380D01*
X414996130Y-186229761D02*
X413996130Y-186229761D01*
X413996130Y-186467857D01*
X414043750Y-186610714D01*
X414138988Y-186705952D01*
X414234226Y-186753571D01*
X414424702Y-186801190D01*
X414567559Y-186801190D01*
X414758035Y-186753571D01*
X414853273Y-186705952D01*
X414948511Y-186610714D01*
X414996130Y-186467857D01*
X414996130Y-186229761D01*
X415091369Y-186991666D02*
X415091369Y-187753571D01*
X414996130Y-188039285D02*
X414996130Y-188229761D01*
X414948511Y-188325000D01*
X414900892Y-188372619D01*
X414758035Y-188467857D01*
X414567559Y-188515476D01*
X414186607Y-188515476D01*
X414091369Y-188467857D01*
X414043750Y-188420238D01*
X413996130Y-188325000D01*
X413996130Y-188134523D01*
X414043750Y-188039285D01*
X414091369Y-187991666D01*
X414186607Y-187944047D01*
X414424702Y-187944047D01*
X414519940Y-187991666D01*
X414567559Y-188039285D01*
X414615178Y-188134523D01*
X414615178Y-188325000D01*
X414567559Y-188420238D01*
X414519940Y-188467857D01*
X414424702Y-188515476D01*
X414996130Y-188991666D02*
X414996130Y-189182142D01*
X414948511Y-189277380D01*
X414900892Y-189325000D01*
X414758035Y-189420238D01*
X414567559Y-189467857D01*
X414186607Y-189467857D01*
X414091369Y-189420238D01*
X414043750Y-189372619D01*
X413996130Y-189277380D01*
X413996130Y-189086904D01*
X414043750Y-188991666D01*
X414091369Y-188944047D01*
X414186607Y-188896428D01*
X414424702Y-188896428D01*
X414519940Y-188944047D01*
X414567559Y-188991666D01*
X414615178Y-189086904D01*
X414615178Y-189277380D01*
X414567559Y-189372619D01*
X414519940Y-189420238D01*
X414424702Y-189467857D01*
X434252380Y-178903571D02*
X433252380Y-178903571D01*
X433252380Y-179141666D01*
X433300000Y-179284523D01*
X433395238Y-179379761D01*
X433490476Y-179427380D01*
X433680952Y-179475000D01*
X433823809Y-179475000D01*
X434014285Y-179427380D01*
X434109523Y-179379761D01*
X434204761Y-179284523D01*
X434252380Y-179141666D01*
X434252380Y-178903571D01*
X434347619Y-179665476D02*
X434347619Y-180427380D01*
X434252380Y-181189285D02*
X434252380Y-180617857D01*
X434252380Y-180903571D02*
X433252380Y-180903571D01*
X433395238Y-180808333D01*
X433490476Y-180713095D01*
X433538095Y-180617857D01*
X433252380Y-181808333D02*
X433252380Y-181903571D01*
X433300000Y-181998809D01*
X433347619Y-182046428D01*
X433442857Y-182094047D01*
X433633333Y-182141666D01*
X433871428Y-182141666D01*
X434061904Y-182094047D01*
X434157142Y-182046428D01*
X434204761Y-181998809D01*
X434252380Y-181903571D01*
X434252380Y-181808333D01*
X434204761Y-181713095D01*
X434157142Y-181665476D01*
X434061904Y-181617857D01*
X433871428Y-181570238D01*
X433633333Y-181570238D01*
X433442857Y-181617857D01*
X433347619Y-181665476D01*
X433300000Y-181713095D01*
X433252380Y-181808333D01*
X433252380Y-182760714D02*
X433252380Y-182855952D01*
X433300000Y-182951190D01*
X433347619Y-182998809D01*
X433442857Y-183046428D01*
X433633333Y-183094047D01*
X433871428Y-183094047D01*
X434061904Y-183046428D01*
X434157142Y-182998809D01*
X434204761Y-182951190D01*
X434252380Y-182855952D01*
X434252380Y-182760714D01*
X434204761Y-182665476D01*
X434157142Y-182617857D01*
X434061904Y-182570238D01*
X433871428Y-182522619D01*
X433633333Y-182522619D01*
X433442857Y-182570238D01*
X433347619Y-182617857D01*
X433300000Y-182665476D01*
X433252380Y-182760714D01*
X440348380Y-181030761D02*
X439348380Y-181030761D01*
X439348380Y-181268857D01*
X439396000Y-181411714D01*
X439491238Y-181506952D01*
X439586476Y-181554571D01*
X439776952Y-181602190D01*
X439919809Y-181602190D01*
X440110285Y-181554571D01*
X440205523Y-181506952D01*
X440300761Y-181411714D01*
X440348380Y-181268857D01*
X440348380Y-181030761D01*
X440443619Y-181792666D02*
X440443619Y-182554571D01*
X439776952Y-182935523D02*
X439729333Y-182840285D01*
X439681714Y-182792666D01*
X439586476Y-182745047D01*
X439538857Y-182745047D01*
X439443619Y-182792666D01*
X439396000Y-182840285D01*
X439348380Y-182935523D01*
X439348380Y-183126000D01*
X439396000Y-183221238D01*
X439443619Y-183268857D01*
X439538857Y-183316476D01*
X439586476Y-183316476D01*
X439681714Y-183268857D01*
X439729333Y-183221238D01*
X439776952Y-183126000D01*
X439776952Y-182935523D01*
X439824571Y-182840285D01*
X439872190Y-182792666D01*
X439967428Y-182745047D01*
X440157904Y-182745047D01*
X440253142Y-182792666D01*
X440300761Y-182840285D01*
X440348380Y-182935523D01*
X440348380Y-183126000D01*
X440300761Y-183221238D01*
X440253142Y-183268857D01*
X440157904Y-183316476D01*
X439967428Y-183316476D01*
X439872190Y-183268857D01*
X439824571Y-183221238D01*
X439776952Y-183126000D01*
X439348380Y-184173619D02*
X439348380Y-183983142D01*
X439396000Y-183887904D01*
X439443619Y-183840285D01*
X439586476Y-183745047D01*
X439776952Y-183697428D01*
X440157904Y-183697428D01*
X440253142Y-183745047D01*
X440300761Y-183792666D01*
X440348380Y-183887904D01*
X440348380Y-184078380D01*
X440300761Y-184173619D01*
X440253142Y-184221238D01*
X440157904Y-184268857D01*
X439919809Y-184268857D01*
X439824571Y-184221238D01*
X439776952Y-184173619D01*
X439729333Y-184078380D01*
X439729333Y-183887904D01*
X439776952Y-183792666D01*
X439824571Y-183745047D01*
X439919809Y-183697428D01*
M02*
