M48
; DRILL file {KiCad (5.1.7)-1} date 12/09/20 11:44:16
; FORMAT={-:-/ absolute / metric / decimal}
; #@! TF.CreationDate,2020-12-09T11:44:16-08:00
; #@! TF.GenerationSoftware,Kicad,Pcbnew,(5.1.7)-1
FMAT,2
METRIC
T1C0.400
T2C0.600
T3C1.040
T4C1.470
T5C0.650
T6C1.750
T7C3.048
T8C3.988
%
G90
G05
T1
X89.154Y-145.923
X92.456Y-153.67
X93.599Y-176.911
X93.686Y-150.709
X94.488Y-149.606
X95.758Y-182.753
X95.885Y-85.598
X96.266Y-153.289
X96.52Y-139.446
X97.575Y-191.604
X97.684Y-192.598
X98.552Y-85.598
X104.521Y-82.169
X105.665Y-83.891
X105.918Y-85.471
X111.125Y-91.281
X119.507Y-83.566
X119.648Y-84.556
X121.539Y-190.373
X139.954Y-82.423
X145.415Y-190.373
X165.26Y-189.886
X178.816Y-190.373
X182.372Y-195.834
X198.12Y-190.373
X212.979Y-189.865
X218.186Y-195.834
X233.553Y-179.578
X261.239Y-182.245
X266.7Y-188.341
X270.256Y-189.659
X270.256Y-190.659
X270.256Y-191.659
X270.256Y-192.659
X271.399Y-132.461
X273.755Y-132.391
X275.336Y-192.659
X275.717Y-178.689
X275.844Y-180.467
X276.098Y-151.384
X279.146Y-195.453
X279.705Y-151.46
X280.797Y-113.411
X281.051Y-195.58
X282.251Y-113.411
X282.575Y-193.77
X283.21Y-178.562
X284.988Y-188.341
X285.369Y-170.561
X286.893Y-180.848
X287.909Y-180.848
X288.185Y-170.561
X289.941Y-181.864
X312.039Y-190.373
X343.027Y-190.373
X358.14Y-190.373
X362.077Y-190.373
X381.254Y-190.465
X400.177Y-190.373
X419.354Y-192.754
X444.246Y-187.706
T3
X362.267Y-144.78
X364.808Y-144.78
T4
X381.159Y-165.735
X387.509Y-163.195
X250.219Y-184.785
X256.569Y-182.245
X338.296Y-146.685
X344.646Y-144.145
X138.271Y-89.535
X144.621Y-86.995
X233.521Y-165.735
X239.871Y-163.195
X214.471Y-165.735
X220.821Y-163.195
X285.909Y-108.585
X292.259Y-106.045
X219.234Y-127.635
X225.584Y-125.095
X419.259Y-127.635
X425.609Y-125.095
X257.334Y-89.535
X263.684Y-86.995
X247.809Y-108.585
X254.159Y-106.045
X444.659Y-173.99
X447.199Y-180.34
X400.209Y-89.535
X406.559Y-86.995
X338.296Y-89.535
X344.646Y-86.995
X271.621Y-165.735
X277.971Y-163.195
X335.915Y-165.735
X342.265Y-163.195
X290.671Y-165.735
X297.021Y-163.195
X138.271Y-165.735
X144.621Y-163.195
X176.371Y-165.735
X182.721Y-163.195
X400.209Y-108.585
X406.559Y-106.045
X257.334Y-127.635
X263.684Y-125.095
X128.746Y-146.685
X135.096Y-144.145
X238.284Y-127.635
X244.634Y-125.095
X359.727Y-137.16
X366.077Y-134.62
X438.309Y-89.535
X444.659Y-86.995
X123.984Y-127.635
X130.334Y-125.095
X95.409Y-108.585
X101.759Y-106.045
X381.159Y-89.535
X387.509Y-86.995
X419.259Y-165.735
X425.609Y-163.195
X212.09Y-184.785
X218.44Y-182.245
X281.146Y-146.685
X287.496Y-144.145
X319.246Y-146.685
X325.596Y-144.145
X185.896Y-146.685
X192.246Y-144.145
X304.959Y-108.585
X311.309Y-106.045
X314.484Y-127.635
X320.834Y-125.095
X147.796Y-146.685
X154.146Y-144.145
X181.134Y-127.635
X187.484Y-125.095
X281.146Y-89.535
X287.496Y-86.995
X162.084Y-127.635
X168.434Y-125.095
X133.509Y-108.585
X139.859Y-106.045
X171.609Y-108.585
X177.959Y-106.045
X97.79Y-184.785
X104.14Y-182.245
X362.109Y-165.735
X368.459Y-163.195
X178.752Y-184.785
X185.102Y-182.245
X119.221Y-165.735
X125.571Y-163.195
X238.284Y-89.535
X244.634Y-86.995
X262.096Y-146.685
X268.446Y-144.145
X381.159Y-146.685
X387.509Y-144.145
X350.202Y-146.685
X356.553Y-144.145
X438.309Y-108.585
X444.659Y-106.045
X276.384Y-127.635
X282.734Y-125.095
X166.846Y-146.685
X173.196Y-144.145
X444.659Y-135.89
X447.199Y-142.24
X362.109Y-89.535
X368.459Y-86.995
X209.709Y-108.585
X216.059Y-106.045
X288.29Y-184.785
X294.64Y-182.245
X121.602Y-184.785
X127.953Y-182.245
X343.059Y-184.785
X349.409Y-182.245
X157.321Y-89.535
X163.671Y-86.995
X200.184Y-89.535
X206.534Y-86.995
X223.996Y-146.685
X230.346Y-144.145
X400.209Y-146.685
X406.559Y-144.145
X266.859Y-108.585
X273.209Y-106.045
X419.259Y-146.685
X425.609Y-144.145
X324.009Y-108.585
X330.359Y-106.045
X295.434Y-127.635
X301.784Y-125.095
X102.552Y-146.685
X108.902Y-144.145
X200.184Y-127.635
X206.534Y-125.095
X419.259Y-89.535
X425.609Y-86.995
X190.659Y-108.585
X197.009Y-106.045
X362.109Y-184.785
X368.459Y-182.245
X145.415Y-184.785
X151.765Y-182.245
X381.159Y-184.785
X387.509Y-182.245
X97.79Y-146.685
X104.14Y-144.145
X219.234Y-89.535
X225.584Y-86.995
X243.046Y-146.685
X249.396Y-144.145
X107.315Y-165.735
X113.665Y-163.195
X419.259Y-108.585
X425.609Y-106.045
X204.946Y-146.685
X211.296Y-144.145
X352.584Y-108.585
X358.934Y-106.045
X100.171Y-127.635
X106.521Y-125.095
X357.346Y-127.635
X363.696Y-125.095
X119.221Y-89.535
X125.571Y-86.995
X152.559Y-108.585
X158.909Y-106.045
X300.196Y-89.535
X306.546Y-86.995
X400.209Y-165.735
X406.559Y-163.195
X400.209Y-184.785
X406.559Y-182.245
X312.102Y-184.785
X318.452Y-182.245
X97.79Y-165.735
X104.14Y-163.195
X216.852Y-184.785
X223.202Y-182.245
X95.409Y-89.535
X101.759Y-86.995
X176.371Y-89.535
X182.721Y-86.995
X300.196Y-146.685
X306.546Y-144.145
X157.321Y-165.735
X163.671Y-163.195
X381.159Y-108.585
X387.509Y-106.045
X195.421Y-165.735
X201.771Y-163.195
X143.034Y-127.635
X149.384Y-125.095
X381.159Y-127.635
X387.509Y-125.095
X333.534Y-127.635
X339.884Y-125.095
X228.759Y-108.585
X235.109Y-106.045
X400.209Y-127.635
X406.559Y-125.095
X419.259Y-184.785
X425.609Y-182.245
X114.459Y-108.585
X120.809Y-106.045
X319.246Y-89.535
X325.596Y-86.995
X252.571Y-165.735
X258.921Y-163.195
X309.721Y-165.735
X316.071Y-163.195
T5
X108.235Y-81.656
X114.015Y-81.656
T6
X241.776Y-149.225
X251.936Y-149.225
X106.045Y-168.275
X116.205Y-168.275
X417.989Y-111.125
X428.149Y-111.125
X203.676Y-149.225
X213.836Y-149.225
X351.314Y-111.125
X361.474Y-111.125
X98.901Y-130.175
X109.061Y-130.175
X356.076Y-130.175
X366.236Y-130.175
X117.951Y-92.075
X128.111Y-92.075
X151.289Y-111.125
X161.449Y-111.125
X298.926Y-92.075
X309.086Y-92.075
X398.939Y-168.275
X409.099Y-168.275
X398.939Y-187.325
X409.099Y-187.325
X310.832Y-187.325
X320.993Y-187.325
X96.52Y-168.275
X106.68Y-168.275
X215.582Y-187.325
X225.742Y-187.325
X94.139Y-92.075
X104.299Y-92.075
X175.101Y-92.075
X185.261Y-92.075
X298.926Y-149.225
X309.086Y-149.225
X156.051Y-168.275
X166.211Y-168.275
X379.889Y-111.125
X390.049Y-111.125
X194.151Y-168.275
X204.311Y-168.275
X141.764Y-130.175
X151.924Y-130.175
X379.889Y-130.175
X390.049Y-130.175
X332.264Y-130.175
X342.424Y-130.175
X227.489Y-111.125
X237.649Y-111.125
X398.939Y-130.175
X409.099Y-130.175
X417.989Y-187.325
X428.149Y-187.325
X113.189Y-111.125
X123.349Y-111.125
X317.976Y-92.075
X328.136Y-92.075
X251.301Y-168.275
X261.461Y-168.275
X308.451Y-168.275
X318.611Y-168.275
X379.889Y-168.275
X390.049Y-168.275
X248.949Y-187.325
X259.109Y-187.325
X337.026Y-149.225
X347.186Y-149.225
X137.001Y-92.075
X147.161Y-92.075
X232.251Y-168.275
X242.411Y-168.275
X213.201Y-168.275
X223.361Y-168.275
X284.639Y-111.125
X294.799Y-111.125
X217.964Y-130.175
X228.124Y-130.175
X417.989Y-130.175
X428.149Y-130.175
X256.064Y-92.075
X266.224Y-92.075
X246.539Y-111.125
X256.699Y-111.125
X442.119Y-172.72
X442.119Y-182.88
X398.939Y-92.075
X409.099Y-92.075
X337.026Y-92.075
X347.186Y-92.075
X270.351Y-168.275
X280.511Y-168.275
X334.645Y-168.275
X344.805Y-168.275
X289.401Y-168.275
X299.561Y-168.275
X137.001Y-168.275
X147.161Y-168.275
X175.101Y-168.275
X185.261Y-168.275
X398.939Y-111.125
X409.099Y-111.125
X256.064Y-130.175
X266.224Y-130.175
X127.476Y-149.225
X137.636Y-149.225
X237.014Y-130.175
X247.174Y-130.175
X358.457Y-139.7
X368.618Y-139.7
X437.039Y-92.075
X447.199Y-92.075
X122.714Y-130.175
X132.874Y-130.175
X94.139Y-111.125
X104.299Y-111.125
X379.889Y-92.075
X390.049Y-92.075
X417.989Y-168.275
X428.149Y-168.275
X210.82Y-187.325
X220.98Y-187.325
X279.876Y-149.225
X290.036Y-149.225
X317.976Y-149.225
X328.136Y-149.225
X184.626Y-149.225
X194.786Y-149.225
X303.689Y-111.125
X313.849Y-111.125
X313.214Y-130.175
X323.374Y-130.175
X146.526Y-149.225
X156.686Y-149.225
X179.864Y-130.175
X190.024Y-130.175
X279.876Y-92.075
X290.036Y-92.075
X160.814Y-130.175
X170.974Y-130.175
X132.239Y-111.125
X142.399Y-111.125
X170.339Y-111.125
X180.499Y-111.125
X96.52Y-187.325
X106.68Y-187.325
X360.839Y-168.275
X370.999Y-168.275
X177.482Y-187.325
X187.642Y-187.325
X117.951Y-168.275
X128.111Y-168.275
X237.014Y-92.075
X247.174Y-92.075
X260.826Y-149.225
X270.986Y-149.225
X379.889Y-149.225
X390.049Y-149.225
X348.933Y-149.225
X359.092Y-149.225
X437.039Y-111.125
X447.199Y-111.125
X275.114Y-130.175
X285.274Y-130.175
X165.576Y-149.225
X175.736Y-149.225
X442.119Y-134.62
X442.119Y-144.78
X360.839Y-92.075
X370.999Y-92.075
X208.439Y-111.125
X218.599Y-111.125
X287.02Y-187.325
X297.18Y-187.325
X120.332Y-187.325
X130.493Y-187.325
X341.789Y-187.325
X351.949Y-187.325
X156.051Y-92.075
X166.211Y-92.075
X198.914Y-92.075
X209.074Y-92.075
X222.726Y-149.225
X232.886Y-149.225
X398.939Y-149.225
X409.099Y-149.225
X265.589Y-111.125
X275.749Y-111.125
X417.989Y-149.225
X428.149Y-149.225
X322.739Y-111.125
X332.899Y-111.125
X294.164Y-130.175
X304.324Y-130.175
X101.282Y-149.225
X111.442Y-149.225
X198.914Y-130.175
X209.074Y-130.175
X417.989Y-92.075
X428.149Y-92.075
X189.389Y-111.125
X199.549Y-111.125
X360.839Y-187.325
X370.999Y-187.325
X144.145Y-187.325
X154.305Y-187.325
X379.889Y-187.325
X390.049Y-187.325
X96.52Y-149.225
X106.68Y-149.225
X217.964Y-92.075
X228.124Y-92.075
T7
X449.104Y-165.894
X449.104Y-189.706
X370.522Y-127.762
X370.522Y-151.638
X170.656Y-180.34
X194.469Y-180.34
X342.106Y-142.24
X365.919Y-142.24
X449.104Y-127.794
X449.104Y-151.606
X99.219Y-161.29
X123.031Y-161.29
X344.488Y-104.14
X368.3Y-104.14
X170.663Y-180.34
X270.662Y-180.34
X242.122Y-180.34
X265.935Y-180.34
T8
X227.806Y-149.225
X404.019Y-149.225
X270.669Y-111.125
X423.069Y-149.225
X327.819Y-111.125
X299.244Y-130.175
X106.362Y-149.225
X203.994Y-130.175
X423.069Y-92.075
X194.469Y-111.125
X365.919Y-187.325
X149.225Y-187.325
X384.969Y-187.325
X101.6Y-149.225
X223.044Y-92.075
X246.856Y-149.225
X99.219Y-176.53
X111.125Y-168.275
X123.031Y-176.53
X423.069Y-111.125
X208.756Y-149.225
X344.488Y-119.38
X356.394Y-111.125
X368.3Y-119.38
X103.981Y-130.175
X361.156Y-130.175
X123.031Y-92.075
X156.369Y-111.125
X304.006Y-92.075
X404.019Y-168.275
X404.019Y-187.325
X315.912Y-187.325
X101.6Y-168.275
X170.663Y-195.58
X220.662Y-187.325
X270.662Y-195.58
X99.219Y-92.075
X180.181Y-92.075
X304.006Y-149.225
X161.131Y-168.275
X384.969Y-111.125
X199.231Y-168.275
X146.844Y-130.175
X384.969Y-130.175
X337.344Y-130.175
X232.569Y-111.125
X404.019Y-130.175
X423.069Y-187.325
X118.269Y-111.125
X323.056Y-92.075
X256.381Y-168.275
X313.531Y-168.275
X384.969Y-168.275
X242.122Y-195.58
X254.029Y-187.325
X265.935Y-195.58
X342.106Y-149.225
X142.081Y-92.075
X237.331Y-168.275
X218.281Y-168.275
X289.719Y-111.125
X223.044Y-130.175
X423.069Y-130.175
X261.144Y-92.075
X251.619Y-111.125
X433.864Y-165.894
X433.864Y-189.706
X442.119Y-177.8
X404.019Y-92.075
X342.106Y-92.075
X275.431Y-168.275
X339.725Y-168.275
X294.481Y-168.275
X142.081Y-168.275
X180.181Y-168.275
X404.019Y-111.125
X261.144Y-130.175
X132.556Y-149.225
X242.094Y-130.175
X355.282Y-127.762
X355.282Y-151.638
X363.537Y-139.7
X442.119Y-92.075
X127.794Y-130.175
X99.219Y-111.125
X384.969Y-92.075
X423.069Y-168.275
X215.9Y-187.325
X284.956Y-149.225
X323.056Y-149.225
X189.706Y-149.225
X308.769Y-111.125
X318.294Y-130.175
X151.606Y-149.225
X184.944Y-130.175
X284.956Y-92.075
X165.894Y-130.175
X137.319Y-111.125
X175.419Y-111.125
X101.6Y-187.325
X365.919Y-168.275
X170.656Y-195.58
X182.562Y-187.325
X194.469Y-195.58
X123.031Y-168.275
X242.094Y-92.075
X265.906Y-149.225
X384.969Y-149.225
X342.106Y-157.48
X354.012Y-149.225
X365.919Y-157.48
X442.119Y-111.125
X280.194Y-130.175
X170.656Y-149.225
X433.864Y-127.794
X433.864Y-151.606
X442.119Y-139.7
X365.919Y-92.075
X213.519Y-111.125
X292.1Y-187.325
X125.412Y-187.325
X346.869Y-187.325
X161.131Y-92.075
X203.994Y-92.075
T2
G00X106.805Y-77.706
M15
G01X106.805Y-78.306
M16
G05
G00X106.805Y-81.636
M15
G01X106.805Y-82.736
M16
G05
G00X115.445Y-77.706
M15
G01X115.445Y-78.306
M16
G05
G00X115.445Y-81.636
M15
G01X115.445Y-82.736
M16
G05
T0
M30
