G04 #@! TF.GenerationSoftware,KiCad,Pcbnew,(5.1.7)-1*
G04 #@! TF.CreationDate,2020-12-09T11:44:14-08:00*
G04 #@! TF.ProjectId,PCBV3,50434256-332e-46b6-9963-61645f706362,rev?*
G04 #@! TF.SameCoordinates,Original*
G04 #@! TF.FileFunction,Legend,Top*
G04 #@! TF.FilePolarity,Positive*
%FSLAX46Y46*%
G04 Gerber Fmt 4.6, Leading zero omitted, Abs format (unit mm)*
G04 Created by KiCad (PCBNEW (5.1.7)-1) date 2020-12-09 11:44:14*
%MOMM*%
%LPD*%
G01*
G04 APERTURE LIST*
%ADD10C,0.150000*%
%ADD11C,0.300000*%
G04 APERTURE END LIST*
D10*
X98687285Y-152677761D02*
X98830142Y-152725380D01*
X99068238Y-152725380D01*
X99163476Y-152677761D01*
X99211095Y-152630142D01*
X99258714Y-152534904D01*
X99258714Y-152439666D01*
X99211095Y-152344428D01*
X99163476Y-152296809D01*
X99068238Y-152249190D01*
X98877761Y-152201571D01*
X98782523Y-152153952D01*
X98734904Y-152106333D01*
X98687285Y-152011095D01*
X98687285Y-151915857D01*
X98734904Y-151820619D01*
X98782523Y-151773000D01*
X98877761Y-151725380D01*
X99115857Y-151725380D01*
X99258714Y-151773000D01*
X99544428Y-152058714D02*
X99925380Y-152058714D01*
X99687285Y-151725380D02*
X99687285Y-152582523D01*
X99734904Y-152677761D01*
X99830142Y-152725380D01*
X99925380Y-152725380D01*
X100639666Y-152677761D02*
X100544428Y-152725380D01*
X100353952Y-152725380D01*
X100258714Y-152677761D01*
X100211095Y-152582523D01*
X100211095Y-152201571D01*
X100258714Y-152106333D01*
X100353952Y-152058714D01*
X100544428Y-152058714D01*
X100639666Y-152106333D01*
X100687285Y-152201571D01*
X100687285Y-152296809D01*
X100211095Y-152392047D01*
X101115857Y-152058714D02*
X101115857Y-153058714D01*
X101115857Y-152106333D02*
X101211095Y-152058714D01*
X101401571Y-152058714D01*
X101496809Y-152106333D01*
X101544428Y-152153952D01*
X101592047Y-152249190D01*
X101592047Y-152534904D01*
X101544428Y-152630142D01*
X101496809Y-152677761D01*
X101401571Y-152725380D01*
X101211095Y-152725380D01*
X101115857Y-152677761D01*
X102020619Y-152058714D02*
X102020619Y-153058714D01*
X102020619Y-152106333D02*
X102115857Y-152058714D01*
X102306333Y-152058714D01*
X102401571Y-152106333D01*
X102449190Y-152153952D01*
X102496809Y-152249190D01*
X102496809Y-152534904D01*
X102449190Y-152630142D01*
X102401571Y-152677761D01*
X102306333Y-152725380D01*
X102115857Y-152725380D01*
X102020619Y-152677761D01*
X103306333Y-152677761D02*
X103211095Y-152725380D01*
X103020619Y-152725380D01*
X102925380Y-152677761D01*
X102877761Y-152582523D01*
X102877761Y-152201571D01*
X102925380Y-152106333D01*
X103020619Y-152058714D01*
X103211095Y-152058714D01*
X103306333Y-152106333D01*
X103353952Y-152201571D01*
X103353952Y-152296809D01*
X102877761Y-152392047D01*
X104211095Y-152725380D02*
X104211095Y-151725380D01*
X104211095Y-152677761D02*
X104115857Y-152725380D01*
X103925380Y-152725380D01*
X103830142Y-152677761D01*
X103782523Y-152630142D01*
X103734904Y-152534904D01*
X103734904Y-152249190D01*
X103782523Y-152153952D01*
X103830142Y-152106333D01*
X103925380Y-152058714D01*
X104115857Y-152058714D01*
X104211095Y-152106333D01*
X359711809Y-133262666D02*
X360188000Y-133262666D01*
X359616571Y-133548380D02*
X359949904Y-132548380D01*
X360283238Y-133548380D01*
X360616571Y-133548380D02*
X360616571Y-132548380D01*
X361188000Y-133548380D01*
X361188000Y-132548380D01*
X361616571Y-133500761D02*
X361759428Y-133548380D01*
X361997523Y-133548380D01*
X362092761Y-133500761D01*
X362140380Y-133453142D01*
X362188000Y-133357904D01*
X362188000Y-133262666D01*
X362140380Y-133167428D01*
X362092761Y-133119809D01*
X361997523Y-133072190D01*
X361807047Y-133024571D01*
X361711809Y-132976952D01*
X361664190Y-132929333D01*
X361616571Y-132834095D01*
X361616571Y-132738857D01*
X361664190Y-132643619D01*
X361711809Y-132596000D01*
X361807047Y-132548380D01*
X362045142Y-132548380D01*
X362188000Y-132596000D01*
X362616571Y-133548380D02*
X362616571Y-132548380D01*
X352726809Y-154598666D02*
X353203000Y-154598666D01*
X352631571Y-154884380D02*
X352964904Y-153884380D01*
X353298238Y-154884380D01*
X353631571Y-154884380D02*
X353631571Y-153884380D01*
X354203000Y-154884380D01*
X354203000Y-153884380D01*
X354631571Y-154836761D02*
X354774428Y-154884380D01*
X355012523Y-154884380D01*
X355107761Y-154836761D01*
X355155380Y-154789142D01*
X355203000Y-154693904D01*
X355203000Y-154598666D01*
X355155380Y-154503428D01*
X355107761Y-154455809D01*
X355012523Y-154408190D01*
X354822047Y-154360571D01*
X354726809Y-154312952D01*
X354679190Y-154265333D01*
X354631571Y-154170095D01*
X354631571Y-154074857D01*
X354679190Y-153979619D01*
X354726809Y-153932000D01*
X354822047Y-153884380D01*
X355060142Y-153884380D01*
X355203000Y-153932000D01*
X355631571Y-154884380D02*
X355631571Y-153884380D01*
X341138000Y-152598380D02*
X341138000Y-151598380D01*
X341566571Y-152550761D02*
X341709428Y-152598380D01*
X341947523Y-152598380D01*
X342042761Y-152550761D01*
X342090380Y-152503142D01*
X342138000Y-152407904D01*
X342138000Y-152312666D01*
X342090380Y-152217428D01*
X342042761Y-152169809D01*
X341947523Y-152122190D01*
X341757047Y-152074571D01*
X341661809Y-152026952D01*
X341614190Y-151979333D01*
X341566571Y-151884095D01*
X341566571Y-151788857D01*
X341614190Y-151693619D01*
X341661809Y-151646000D01*
X341757047Y-151598380D01*
X341995142Y-151598380D01*
X342138000Y-151646000D01*
X342757047Y-151598380D02*
X342947523Y-151598380D01*
X343042761Y-151646000D01*
X343138000Y-151741238D01*
X343185619Y-151931714D01*
X343185619Y-152265047D01*
X343138000Y-152455523D01*
X343042761Y-152550761D01*
X342947523Y-152598380D01*
X342757047Y-152598380D01*
X342661809Y-152550761D01*
X342566571Y-152455523D01*
X342518952Y-152265047D01*
X342518952Y-151931714D01*
X342566571Y-151741238D01*
X342661809Y-151646000D01*
X342757047Y-151598380D01*
X361966000Y-143327380D02*
X361966000Y-142327380D01*
X362394571Y-143279761D02*
X362537428Y-143327380D01*
X362775523Y-143327380D01*
X362870761Y-143279761D01*
X362918380Y-143232142D01*
X362966000Y-143136904D01*
X362966000Y-143041666D01*
X362918380Y-142946428D01*
X362870761Y-142898809D01*
X362775523Y-142851190D01*
X362585047Y-142803571D01*
X362489809Y-142755952D01*
X362442190Y-142708333D01*
X362394571Y-142613095D01*
X362394571Y-142517857D01*
X362442190Y-142422619D01*
X362489809Y-142375000D01*
X362585047Y-142327380D01*
X362823142Y-142327380D01*
X362966000Y-142375000D01*
X363585047Y-142327380D02*
X363775523Y-142327380D01*
X363870761Y-142375000D01*
X363966000Y-142470238D01*
X364013619Y-142660714D01*
X364013619Y-142994047D01*
X363966000Y-143184523D01*
X363870761Y-143279761D01*
X363775523Y-143327380D01*
X363585047Y-143327380D01*
X363489809Y-143279761D01*
X363394571Y-143184523D01*
X363346952Y-142994047D01*
X363346952Y-142660714D01*
X363394571Y-142470238D01*
X363489809Y-142375000D01*
X363585047Y-142327380D01*
X122063000Y-171648380D02*
X122063000Y-170648380D01*
X122491571Y-171600761D02*
X122634428Y-171648380D01*
X122872523Y-171648380D01*
X122967761Y-171600761D01*
X123015380Y-171553142D01*
X123063000Y-171457904D01*
X123063000Y-171362666D01*
X123015380Y-171267428D01*
X122967761Y-171219809D01*
X122872523Y-171172190D01*
X122682047Y-171124571D01*
X122586809Y-171076952D01*
X122539190Y-171029333D01*
X122491571Y-170934095D01*
X122491571Y-170838857D01*
X122539190Y-170743619D01*
X122586809Y-170696000D01*
X122682047Y-170648380D01*
X122920142Y-170648380D01*
X123063000Y-170696000D01*
X123682047Y-170648380D02*
X123872523Y-170648380D01*
X123967761Y-170696000D01*
X124063000Y-170791238D01*
X124110619Y-170981714D01*
X124110619Y-171315047D01*
X124063000Y-171505523D01*
X123967761Y-171600761D01*
X123872523Y-171648380D01*
X123682047Y-171648380D01*
X123586809Y-171600761D01*
X123491571Y-171505523D01*
X123443952Y-171315047D01*
X123443952Y-170981714D01*
X123491571Y-170791238D01*
X123586809Y-170696000D01*
X123682047Y-170648380D01*
X100600000Y-171648380D02*
X100600000Y-170648380D01*
X101028571Y-171600761D02*
X101171428Y-171648380D01*
X101409523Y-171648380D01*
X101504761Y-171600761D01*
X101552380Y-171553142D01*
X101600000Y-171457904D01*
X101600000Y-171362666D01*
X101552380Y-171267428D01*
X101504761Y-171219809D01*
X101409523Y-171172190D01*
X101219047Y-171124571D01*
X101123809Y-171076952D01*
X101076190Y-171029333D01*
X101028571Y-170934095D01*
X101028571Y-170838857D01*
X101076190Y-170743619D01*
X101123809Y-170696000D01*
X101219047Y-170648380D01*
X101457142Y-170648380D01*
X101600000Y-170696000D01*
X102219047Y-170648380D02*
X102409523Y-170648380D01*
X102504761Y-170696000D01*
X102600000Y-170791238D01*
X102647619Y-170981714D01*
X102647619Y-171315047D01*
X102600000Y-171505523D01*
X102504761Y-171600761D01*
X102409523Y-171648380D01*
X102219047Y-171648380D01*
X102123809Y-171600761D01*
X102028571Y-171505523D01*
X101980952Y-171315047D01*
X101980952Y-170981714D01*
X102028571Y-170791238D01*
X102123809Y-170696000D01*
X102219047Y-170648380D01*
X109648809Y-171362666D02*
X110125000Y-171362666D01*
X109553571Y-171648380D02*
X109886904Y-170648380D01*
X110220238Y-171648380D01*
X110553571Y-171648380D02*
X110553571Y-170648380D01*
X111125000Y-171648380D01*
X111125000Y-170648380D01*
X111553571Y-171600761D02*
X111696428Y-171648380D01*
X111934523Y-171648380D01*
X112029761Y-171600761D01*
X112077380Y-171553142D01*
X112125000Y-171457904D01*
X112125000Y-171362666D01*
X112077380Y-171267428D01*
X112029761Y-171219809D01*
X111934523Y-171172190D01*
X111744047Y-171124571D01*
X111648809Y-171076952D01*
X111601190Y-171029333D01*
X111553571Y-170934095D01*
X111553571Y-170838857D01*
X111601190Y-170743619D01*
X111648809Y-170696000D01*
X111744047Y-170648380D01*
X111982142Y-170648380D01*
X112125000Y-170696000D01*
X112553571Y-171648380D02*
X112553571Y-170648380D01*
X219726000Y-189698380D02*
X219535523Y-189698380D01*
X219440285Y-189746000D01*
X219392666Y-189793619D01*
X219297428Y-189936476D01*
X219249809Y-190126952D01*
X219249809Y-190507904D01*
X219297428Y-190603142D01*
X219345047Y-190650761D01*
X219440285Y-190698380D01*
X219630761Y-190698380D01*
X219726000Y-190650761D01*
X219773619Y-190603142D01*
X219821238Y-190507904D01*
X219821238Y-190269809D01*
X219773619Y-190174571D01*
X219726000Y-190126952D01*
X219630761Y-190079333D01*
X219440285Y-190079333D01*
X219345047Y-190126952D01*
X219297428Y-190174571D01*
X219249809Y-190269809D01*
X220249809Y-190603142D02*
X220297428Y-190650761D01*
X220249809Y-190698380D01*
X220202190Y-190650761D01*
X220249809Y-190603142D01*
X220249809Y-190698380D01*
X220678380Y-189793619D02*
X220726000Y-189746000D01*
X220821238Y-189698380D01*
X221059333Y-189698380D01*
X221154571Y-189746000D01*
X221202190Y-189793619D01*
X221249809Y-189888857D01*
X221249809Y-189984095D01*
X221202190Y-190126952D01*
X220630761Y-190698380D01*
X221249809Y-190698380D01*
X222154571Y-189698380D02*
X221678380Y-189698380D01*
X221630761Y-190174571D01*
X221678380Y-190126952D01*
X221773619Y-190079333D01*
X222011714Y-190079333D01*
X222106952Y-190126952D01*
X222154571Y-190174571D01*
X222202190Y-190269809D01*
X222202190Y-190507904D01*
X222154571Y-190603142D01*
X222106952Y-190650761D01*
X222011714Y-190698380D01*
X221773619Y-190698380D01*
X221678380Y-190650761D01*
X221630761Y-190603142D01*
X252603190Y-190650761D02*
X252746047Y-190698380D01*
X252984142Y-190698380D01*
X253079380Y-190650761D01*
X253127000Y-190603142D01*
X253174619Y-190507904D01*
X253174619Y-190412666D01*
X253127000Y-190317428D01*
X253079380Y-190269809D01*
X252984142Y-190222190D01*
X252793666Y-190174571D01*
X252698428Y-190126952D01*
X252650809Y-190079333D01*
X252603190Y-189984095D01*
X252603190Y-189888857D01*
X252650809Y-189793619D01*
X252698428Y-189746000D01*
X252793666Y-189698380D01*
X253031761Y-189698380D01*
X253174619Y-189746000D01*
X253603190Y-190031714D02*
X253603190Y-191031714D01*
X253603190Y-190079333D02*
X253698428Y-190031714D01*
X253888904Y-190031714D01*
X253984142Y-190079333D01*
X254031761Y-190126952D01*
X254079380Y-190222190D01*
X254079380Y-190507904D01*
X254031761Y-190603142D01*
X253984142Y-190650761D01*
X253888904Y-190698380D01*
X253698428Y-190698380D01*
X253603190Y-190650761D01*
X254650809Y-190698380D02*
X254555571Y-190650761D01*
X254507952Y-190555523D01*
X254507952Y-189698380D01*
X255031761Y-190698380D02*
X255031761Y-190031714D01*
X255031761Y-189698380D02*
X254984142Y-189746000D01*
X255031761Y-189793619D01*
X255079380Y-189746000D01*
X255031761Y-189698380D01*
X255031761Y-189793619D01*
X255365095Y-190031714D02*
X255746047Y-190031714D01*
X255507952Y-189698380D02*
X255507952Y-190555523D01*
X255555571Y-190650761D01*
X255650809Y-190698380D01*
X255746047Y-190698380D01*
X214376190Y-190650761D02*
X214519047Y-190698380D01*
X214757142Y-190698380D01*
X214852380Y-190650761D01*
X214900000Y-190603142D01*
X214947619Y-190507904D01*
X214947619Y-190412666D01*
X214900000Y-190317428D01*
X214852380Y-190269809D01*
X214757142Y-190222190D01*
X214566666Y-190174571D01*
X214471428Y-190126952D01*
X214423809Y-190079333D01*
X214376190Y-189984095D01*
X214376190Y-189888857D01*
X214423809Y-189793619D01*
X214471428Y-189746000D01*
X214566666Y-189698380D01*
X214804761Y-189698380D01*
X214947619Y-189746000D01*
X215376190Y-190031714D02*
X215376190Y-191031714D01*
X215376190Y-190079333D02*
X215471428Y-190031714D01*
X215661904Y-190031714D01*
X215757142Y-190079333D01*
X215804761Y-190126952D01*
X215852380Y-190222190D01*
X215852380Y-190507904D01*
X215804761Y-190603142D01*
X215757142Y-190650761D01*
X215661904Y-190698380D01*
X215471428Y-190698380D01*
X215376190Y-190650761D01*
X216423809Y-190698380D02*
X216328571Y-190650761D01*
X216280952Y-190555523D01*
X216280952Y-189698380D01*
X216804761Y-190698380D02*
X216804761Y-190031714D01*
X216804761Y-189698380D02*
X216757142Y-189746000D01*
X216804761Y-189793619D01*
X216852380Y-189746000D01*
X216804761Y-189698380D01*
X216804761Y-189793619D01*
X217138095Y-190031714D02*
X217519047Y-190031714D01*
X217280952Y-189698380D02*
X217280952Y-190555523D01*
X217328571Y-190650761D01*
X217423809Y-190698380D01*
X217519047Y-190698380D01*
X180975190Y-190650761D02*
X181118047Y-190698380D01*
X181356142Y-190698380D01*
X181451380Y-190650761D01*
X181499000Y-190603142D01*
X181546619Y-190507904D01*
X181546619Y-190412666D01*
X181499000Y-190317428D01*
X181451380Y-190269809D01*
X181356142Y-190222190D01*
X181165666Y-190174571D01*
X181070428Y-190126952D01*
X181022809Y-190079333D01*
X180975190Y-189984095D01*
X180975190Y-189888857D01*
X181022809Y-189793619D01*
X181070428Y-189746000D01*
X181165666Y-189698380D01*
X181403761Y-189698380D01*
X181546619Y-189746000D01*
X181975190Y-190031714D02*
X181975190Y-191031714D01*
X181975190Y-190079333D02*
X182070428Y-190031714D01*
X182260904Y-190031714D01*
X182356142Y-190079333D01*
X182403761Y-190126952D01*
X182451380Y-190222190D01*
X182451380Y-190507904D01*
X182403761Y-190603142D01*
X182356142Y-190650761D01*
X182260904Y-190698380D01*
X182070428Y-190698380D01*
X181975190Y-190650761D01*
X183022809Y-190698380D02*
X182927571Y-190650761D01*
X182879952Y-190555523D01*
X182879952Y-189698380D01*
X183403761Y-190698380D02*
X183403761Y-190031714D01*
X183403761Y-189698380D02*
X183356142Y-189746000D01*
X183403761Y-189793619D01*
X183451380Y-189746000D01*
X183403761Y-189698380D01*
X183403761Y-189793619D01*
X183737095Y-190031714D02*
X184118047Y-190031714D01*
X183879952Y-189698380D02*
X183879952Y-190555523D01*
X183927571Y-190650761D01*
X184022809Y-190698380D01*
X184118047Y-190698380D01*
D11*
X331525714Y-184974571D02*
X331525714Y-186046000D01*
X331454285Y-186260285D01*
X331311428Y-186403142D01*
X331097142Y-186474571D01*
X330954285Y-186474571D01*
X332025714Y-184974571D02*
X332882857Y-184974571D01*
X332454285Y-186474571D02*
X332454285Y-184974571D01*
X333382857Y-186474571D02*
X333382857Y-184974571D01*
X333882857Y-186046000D01*
X334382857Y-184974571D01*
X334382857Y-186474571D01*
X331525714Y-187524571D02*
X332025714Y-189024571D01*
X332525714Y-187524571D01*
X332954285Y-187667428D02*
X333025714Y-187596000D01*
X333168571Y-187524571D01*
X333525714Y-187524571D01*
X333668571Y-187596000D01*
X333740000Y-187667428D01*
X333811428Y-187810285D01*
X333811428Y-187953142D01*
X333740000Y-188167428D01*
X332882857Y-189024571D01*
X333811428Y-189024571D01*
M02*
