G04 #@! TF.GenerationSoftware,KiCad,Pcbnew,(5.1.7)-1*
G04 #@! TF.CreationDate,2020-11-06T22:12:29-08:00*
G04 #@! TF.ProjectId,PCBV3,50434256-332e-46b6-9963-61645f706362,rev?*
G04 #@! TF.SameCoordinates,Original*
G04 #@! TF.FileFunction,Copper,L2,Bot*
G04 #@! TF.FilePolarity,Positive*
%FSLAX46Y46*%
G04 Gerber Fmt 4.6, Leading zero omitted, Abs format (unit mm)*
G04 Created by KiCad (PCBNEW (5.1.7)-1) date 2020-11-06 22:12:29*
%MOMM*%
%LPD*%
G01*
G04 APERTURE LIST*
G04 #@! TA.AperFunction,ComponentPad*
%ADD10C,2.250000*%
G04 #@! TD*
G04 #@! TA.AperFunction,ComponentPad*
%ADD11R,1.905000X1.905000*%
G04 #@! TD*
G04 #@! TA.AperFunction,ComponentPad*
%ADD12C,1.905000*%
G04 #@! TD*
G04 #@! TA.AperFunction,SMDPad,CuDef*
%ADD13R,0.900000X1.200000*%
G04 #@! TD*
G04 #@! TA.AperFunction,SMDPad,CuDef*
%ADD14R,0.650000X1.060000*%
G04 #@! TD*
G04 #@! TA.AperFunction,SMDPad,CuDef*
%ADD15R,1.200000X0.900000*%
G04 #@! TD*
G04 #@! TA.AperFunction,SMDPad,CuDef*
%ADD16R,0.600000X1.450000*%
G04 #@! TD*
G04 #@! TA.AperFunction,SMDPad,CuDef*
%ADD17R,0.300000X1.450000*%
G04 #@! TD*
G04 #@! TA.AperFunction,ComponentPad*
%ADD18O,1.000000X2.100000*%
G04 #@! TD*
G04 #@! TA.AperFunction,ComponentPad*
%ADD19O,1.000000X1.600000*%
G04 #@! TD*
G04 #@! TA.AperFunction,SMDPad,CuDef*
%ADD20R,0.800000X0.900000*%
G04 #@! TD*
G04 #@! TA.AperFunction,ComponentPad*
%ADD21C,1.800000*%
G04 #@! TD*
G04 #@! TA.AperFunction,ViaPad*
%ADD22C,0.800000*%
G04 #@! TD*
G04 #@! TA.AperFunction,Conductor*
%ADD23C,0.304800*%
G04 #@! TD*
G04 #@! TA.AperFunction,Conductor*
%ADD24C,0.254000*%
G04 #@! TD*
G04 #@! TA.AperFunction,Conductor*
%ADD25C,0.100000*%
G04 #@! TD*
G04 APERTURE END LIST*
D10*
X287496250Y-144145000D03*
X281146250Y-146685000D03*
X297021250Y-163195000D03*
X290671250Y-165735000D03*
D11*
X364807500Y-144780000D03*
D12*
X362267500Y-144780000D03*
D10*
X359727500Y-137160000D03*
X366077500Y-134620000D03*
X256568575Y-182245000D03*
X250218575Y-184785000D03*
X185102500Y-182245000D03*
X178752500Y-184785000D03*
X223202500Y-182245000D03*
X216852500Y-184785000D03*
X104140000Y-163195000D03*
X97790000Y-165735000D03*
X125571250Y-163195000D03*
X119221250Y-165735000D03*
D13*
X107887500Y-173831250D03*
X111187500Y-173831250D03*
D10*
X344646250Y-144145000D03*
X338296250Y-146685000D03*
D13*
X372206250Y-142081250D03*
X375506250Y-142081250D03*
D10*
X104140000Y-144145000D03*
X97790000Y-146685000D03*
X101758750Y-86995000D03*
X95408750Y-89535000D03*
D14*
X111125000Y-87165000D03*
X112075000Y-87165000D03*
X110175000Y-87165000D03*
X110175000Y-89365000D03*
X111125000Y-89365000D03*
X112075000Y-89365000D03*
G04 #@! TA.AperFunction,SMDPad,CuDef*
G36*
G01*
X108173000Y-88140250D02*
X108173000Y-87627750D01*
G75*
G02*
X108391750Y-87409000I218750J0D01*
G01*
X108829250Y-87409000D01*
G75*
G02*
X109048000Y-87627750I0J-218750D01*
G01*
X109048000Y-88140250D01*
G75*
G02*
X108829250Y-88359000I-218750J0D01*
G01*
X108391750Y-88359000D01*
G75*
G02*
X108173000Y-88140250I0J218750D01*
G01*
G37*
G04 #@! TD.AperFunction*
G04 #@! TA.AperFunction,SMDPad,CuDef*
G36*
G01*
X106598000Y-88140250D02*
X106598000Y-87627750D01*
G75*
G02*
X106816750Y-87409000I218750J0D01*
G01*
X107254250Y-87409000D01*
G75*
G02*
X107473000Y-87627750I0J-218750D01*
G01*
X107473000Y-88140250D01*
G75*
G02*
X107254250Y-88359000I-218750J0D01*
G01*
X106816750Y-88359000D01*
G75*
G02*
X106598000Y-88140250I0J218750D01*
G01*
G37*
G04 #@! TD.AperFunction*
G04 #@! TA.AperFunction,SMDPad,CuDef*
G36*
G01*
X114777000Y-85727250D02*
X114777000Y-85214750D01*
G75*
G02*
X114995750Y-84996000I218750J0D01*
G01*
X115433250Y-84996000D01*
G75*
G02*
X115652000Y-85214750I0J-218750D01*
G01*
X115652000Y-85727250D01*
G75*
G02*
X115433250Y-85946000I-218750J0D01*
G01*
X114995750Y-85946000D01*
G75*
G02*
X114777000Y-85727250I0J218750D01*
G01*
G37*
G04 #@! TD.AperFunction*
G04 #@! TA.AperFunction,SMDPad,CuDef*
G36*
G01*
X113202000Y-85727250D02*
X113202000Y-85214750D01*
G75*
G02*
X113420750Y-84996000I218750J0D01*
G01*
X113858250Y-84996000D01*
G75*
G02*
X114077000Y-85214750I0J-218750D01*
G01*
X114077000Y-85727250D01*
G75*
G02*
X113858250Y-85946000I-218750J0D01*
G01*
X113420750Y-85946000D01*
G75*
G02*
X113202000Y-85727250I0J218750D01*
G01*
G37*
G04 #@! TD.AperFunction*
G04 #@! TA.AperFunction,SMDPad,CuDef*
G36*
G01*
X107473000Y-85214750D02*
X107473000Y-85727250D01*
G75*
G02*
X107254250Y-85946000I-218750J0D01*
G01*
X106816750Y-85946000D01*
G75*
G02*
X106598000Y-85727250I0J218750D01*
G01*
X106598000Y-85214750D01*
G75*
G02*
X106816750Y-84996000I218750J0D01*
G01*
X107254250Y-84996000D01*
G75*
G02*
X107473000Y-85214750I0J-218750D01*
G01*
G37*
G04 #@! TD.AperFunction*
G04 #@! TA.AperFunction,SMDPad,CuDef*
G36*
G01*
X109048000Y-85214750D02*
X109048000Y-85727250D01*
G75*
G02*
X108829250Y-85946000I-218750J0D01*
G01*
X108391750Y-85946000D01*
G75*
G02*
X108173000Y-85727250I0J218750D01*
G01*
X108173000Y-85214750D01*
G75*
G02*
X108391750Y-84996000I218750J0D01*
G01*
X108829250Y-84996000D01*
G75*
G02*
X109048000Y-85214750I0J-218750D01*
G01*
G37*
G04 #@! TD.AperFunction*
G04 #@! TA.AperFunction,SMDPad,CuDef*
G36*
G01*
X101464400Y-83458800D02*
X101976900Y-83458800D01*
G75*
G02*
X102195650Y-83677550I0J-218750D01*
G01*
X102195650Y-84115050D01*
G75*
G02*
X101976900Y-84333800I-218750J0D01*
G01*
X101464400Y-84333800D01*
G75*
G02*
X101245650Y-84115050I0J218750D01*
G01*
X101245650Y-83677550D01*
G75*
G02*
X101464400Y-83458800I218750J0D01*
G01*
G37*
G04 #@! TD.AperFunction*
G04 #@! TA.AperFunction,SMDPad,CuDef*
G36*
G01*
X101464400Y-81883800D02*
X101976900Y-81883800D01*
G75*
G02*
X102195650Y-82102550I0J-218750D01*
G01*
X102195650Y-82540050D01*
G75*
G02*
X101976900Y-82758800I-218750J0D01*
G01*
X101464400Y-82758800D01*
G75*
G02*
X101245650Y-82540050I0J218750D01*
G01*
X101245650Y-82102550D01*
G75*
G02*
X101464400Y-81883800I218750J0D01*
G01*
G37*
G04 #@! TD.AperFunction*
G04 #@! TA.AperFunction,SMDPad,CuDef*
G36*
G01*
X100325900Y-82758800D02*
X99813400Y-82758800D01*
G75*
G02*
X99594650Y-82540050I0J218750D01*
G01*
X99594650Y-82102550D01*
G75*
G02*
X99813400Y-81883800I218750J0D01*
G01*
X100325900Y-81883800D01*
G75*
G02*
X100544650Y-82102550I0J-218750D01*
G01*
X100544650Y-82540050D01*
G75*
G02*
X100325900Y-82758800I-218750J0D01*
G01*
G37*
G04 #@! TD.AperFunction*
G04 #@! TA.AperFunction,SMDPad,CuDef*
G36*
G01*
X100325900Y-84333800D02*
X99813400Y-84333800D01*
G75*
G02*
X99594650Y-84115050I0J218750D01*
G01*
X99594650Y-83677550D01*
G75*
G02*
X99813400Y-83458800I218750J0D01*
G01*
X100325900Y-83458800D01*
G75*
G02*
X100544650Y-83677550I0J-218750D01*
G01*
X100544650Y-84115050D01*
G75*
G02*
X100325900Y-84333800I-218750J0D01*
G01*
G37*
G04 #@! TD.AperFunction*
D10*
X125571250Y-86995000D03*
X119221250Y-89535000D03*
D15*
X90773250Y-128713500D03*
X90773250Y-125413500D03*
D10*
X447198750Y-142240000D03*
X444658750Y-135890000D03*
X106521250Y-125095000D03*
X100171250Y-127635000D03*
X339883750Y-125095000D03*
X333533750Y-127635000D03*
X320833750Y-125095000D03*
X314483750Y-127635000D03*
X301783750Y-125095000D03*
X295433750Y-127635000D03*
X282733750Y-125095000D03*
X276383750Y-127635000D03*
X263683750Y-125095000D03*
X257333750Y-127635000D03*
X244633750Y-125095000D03*
X238283750Y-127635000D03*
X225583750Y-125095000D03*
X219233750Y-127635000D03*
X206533750Y-125095000D03*
X200183750Y-127635000D03*
X187483750Y-125095000D03*
X181133750Y-127635000D03*
X168433750Y-125095000D03*
X162083750Y-127635000D03*
X149383750Y-125095000D03*
X143033750Y-127635000D03*
X130333750Y-125095000D03*
X123983750Y-127635000D03*
X447198750Y-180340000D03*
X444658750Y-173990000D03*
X425608750Y-182245000D03*
X419258750Y-184785000D03*
X406558750Y-182245000D03*
X400208750Y-184785000D03*
X387508750Y-182245000D03*
X381158750Y-184785000D03*
X368458750Y-182245000D03*
X362108750Y-184785000D03*
X349408750Y-182245000D03*
X343058750Y-184785000D03*
X318452500Y-182245000D03*
X312102500Y-184785000D03*
X294640000Y-182245000D03*
X288290000Y-184785000D03*
X218440000Y-182245000D03*
X212090000Y-184785000D03*
X151765000Y-182245000D03*
X145415000Y-184785000D03*
X127952500Y-182245000D03*
X121602500Y-184785000D03*
X104140000Y-182245000D03*
X97790000Y-184785000D03*
X425608750Y-163195000D03*
X419258750Y-165735000D03*
X406558750Y-163195000D03*
X400208750Y-165735000D03*
X387508750Y-163195000D03*
X381158750Y-165735000D03*
X368458750Y-163195000D03*
X362108750Y-165735000D03*
X342265000Y-163195000D03*
X335915000Y-165735000D03*
X316071250Y-163195000D03*
X309721250Y-165735000D03*
X277971250Y-163195000D03*
X271621250Y-165735000D03*
X258921250Y-163195000D03*
X252571250Y-165735000D03*
X239871250Y-163195000D03*
X233521250Y-165735000D03*
X220821250Y-163195000D03*
X214471250Y-165735000D03*
X201771250Y-163195000D03*
X195421250Y-165735000D03*
X182721250Y-163195000D03*
X176371250Y-165735000D03*
X163671250Y-163195000D03*
X157321250Y-165735000D03*
X144621250Y-163195000D03*
X138271250Y-165735000D03*
X113665000Y-163195000D03*
X107315000Y-165735000D03*
X425608750Y-144145000D03*
X419258750Y-146685000D03*
X406558750Y-144145000D03*
X400208750Y-146685000D03*
X387508750Y-144145000D03*
X381158750Y-146685000D03*
X356552500Y-144145000D03*
X350202500Y-146685000D03*
X325596250Y-144145000D03*
X319246250Y-146685000D03*
X306546250Y-144145000D03*
X300196250Y-146685000D03*
X268446250Y-144145000D03*
X262096250Y-146685000D03*
X249396250Y-144145000D03*
X243046250Y-146685000D03*
X230346250Y-144145000D03*
X223996250Y-146685000D03*
X211296250Y-144145000D03*
X204946250Y-146685000D03*
X192246250Y-144145000D03*
X185896250Y-146685000D03*
X173196250Y-144145000D03*
X166846250Y-146685000D03*
X154146250Y-144145000D03*
X147796250Y-146685000D03*
X135096250Y-144145000D03*
X128746250Y-146685000D03*
X108902500Y-144145000D03*
X102552500Y-146685000D03*
X425608750Y-125095000D03*
X419258750Y-127635000D03*
X406558750Y-125095000D03*
X400208750Y-127635000D03*
X387508750Y-125095000D03*
X381158750Y-127635000D03*
X363696250Y-125095000D03*
X357346250Y-127635000D03*
X444658750Y-106045000D03*
X438308750Y-108585000D03*
X425608750Y-106045000D03*
X419258750Y-108585000D03*
X406558750Y-106045000D03*
X400208750Y-108585000D03*
X387508750Y-106045000D03*
X381158750Y-108585000D03*
X358933750Y-106045000D03*
X352583750Y-108585000D03*
X330358750Y-106045000D03*
X324008750Y-108585000D03*
X311308750Y-106045000D03*
X304958750Y-108585000D03*
X292258750Y-106045000D03*
X285908750Y-108585000D03*
X273208750Y-106045000D03*
X266858750Y-108585000D03*
X254158750Y-106045000D03*
X247808750Y-108585000D03*
X235108750Y-106045000D03*
X228758750Y-108585000D03*
X216058750Y-106045000D03*
X209708750Y-108585000D03*
X197008750Y-106045000D03*
X190658750Y-108585000D03*
X177958750Y-106045000D03*
X171608750Y-108585000D03*
X158908750Y-106045000D03*
X152558750Y-108585000D03*
X139858750Y-106045000D03*
X133508750Y-108585000D03*
X120808750Y-106045000D03*
X114458750Y-108585000D03*
X101758750Y-106045000D03*
X95408750Y-108585000D03*
X444658750Y-86995000D03*
X438308750Y-89535000D03*
X425608750Y-86995000D03*
X419258750Y-89535000D03*
X406558750Y-86995000D03*
X400208750Y-89535000D03*
X387508750Y-86995000D03*
X381158750Y-89535000D03*
X368458750Y-86995000D03*
X362108750Y-89535000D03*
X344646250Y-86995000D03*
X338296250Y-89535000D03*
X325596250Y-86995000D03*
X319246250Y-89535000D03*
X306546250Y-86995000D03*
X300196250Y-89535000D03*
X287496250Y-86995000D03*
X281146250Y-89535000D03*
X263683750Y-86995000D03*
X257333750Y-89535000D03*
X244633750Y-86995000D03*
X238283750Y-89535000D03*
X225583750Y-86995000D03*
X219233750Y-89535000D03*
X206533750Y-86995000D03*
X200183750Y-89535000D03*
X182721250Y-86995000D03*
X176371250Y-89535000D03*
X163671250Y-86995000D03*
X157321250Y-89535000D03*
X144621250Y-86995000D03*
X138271250Y-89535000D03*
D16*
X114350000Y-83101250D03*
X107900000Y-83101250D03*
X113575000Y-83101250D03*
X108675000Y-83101250D03*
D17*
X109375000Y-83101250D03*
X112875000Y-83101250D03*
X109875000Y-83101250D03*
X112375000Y-83101250D03*
X110375000Y-83101250D03*
X111875000Y-83101250D03*
X111375000Y-83101250D03*
X110875000Y-83101250D03*
D18*
X106805000Y-82186250D03*
X115445000Y-82186250D03*
D19*
X106805000Y-78006250D03*
X115445000Y-78006250D03*
D20*
X94126050Y-126355600D03*
X93176050Y-128355600D03*
X95076050Y-128355600D03*
G04 #@! TA.AperFunction,SMDPad,CuDef*
G36*
G01*
X278571314Y-193449475D02*
X278040984Y-192919145D01*
G75*
G02*
X278040984Y-192830757I44194J44194D01*
G01*
X278129372Y-192742369D01*
G75*
G02*
X278217760Y-192742369I44194J-44194D01*
G01*
X278748090Y-193272699D01*
G75*
G02*
X278748090Y-193361087I-44194J-44194D01*
G01*
X278659702Y-193449475D01*
G75*
G02*
X278571314Y-193449475I-44194J44194D01*
G01*
G37*
G04 #@! TD.AperFunction*
G04 #@! TA.AperFunction,SMDPad,CuDef*
G36*
G01*
X278924867Y-193095922D02*
X278394537Y-192565592D01*
G75*
G02*
X278394537Y-192477204I44194J44194D01*
G01*
X278482925Y-192388816D01*
G75*
G02*
X278571313Y-192388816I44194J-44194D01*
G01*
X279101643Y-192919146D01*
G75*
G02*
X279101643Y-193007534I-44194J-44194D01*
G01*
X279013255Y-193095922D01*
G75*
G02*
X278924867Y-193095922I-44194J44194D01*
G01*
G37*
G04 #@! TD.AperFunction*
G04 #@! TA.AperFunction,SMDPad,CuDef*
G36*
G01*
X279278421Y-192742368D02*
X278748091Y-192212038D01*
G75*
G02*
X278748091Y-192123650I44194J44194D01*
G01*
X278836479Y-192035262D01*
G75*
G02*
X278924867Y-192035262I44194J-44194D01*
G01*
X279455197Y-192565592D01*
G75*
G02*
X279455197Y-192653980I-44194J-44194D01*
G01*
X279366809Y-192742368D01*
G75*
G02*
X279278421Y-192742368I-44194J44194D01*
G01*
G37*
G04 #@! TD.AperFunction*
G04 #@! TA.AperFunction,SMDPad,CuDef*
G36*
G01*
X279631974Y-192388815D02*
X279101644Y-191858485D01*
G75*
G02*
X279101644Y-191770097I44194J44194D01*
G01*
X279190032Y-191681709D01*
G75*
G02*
X279278420Y-191681709I44194J-44194D01*
G01*
X279808750Y-192212039D01*
G75*
G02*
X279808750Y-192300427I-44194J-44194D01*
G01*
X279720362Y-192388815D01*
G75*
G02*
X279631974Y-192388815I-44194J44194D01*
G01*
G37*
G04 #@! TD.AperFunction*
G04 #@! TA.AperFunction,SMDPad,CuDef*
G36*
G01*
X279985527Y-192035262D02*
X279455197Y-191504932D01*
G75*
G02*
X279455197Y-191416544I44194J44194D01*
G01*
X279543585Y-191328156D01*
G75*
G02*
X279631973Y-191328156I44194J-44194D01*
G01*
X280162303Y-191858486D01*
G75*
G02*
X280162303Y-191946874I-44194J-44194D01*
G01*
X280073915Y-192035262D01*
G75*
G02*
X279985527Y-192035262I-44194J44194D01*
G01*
G37*
G04 #@! TD.AperFunction*
G04 #@! TA.AperFunction,SMDPad,CuDef*
G36*
G01*
X280339081Y-191681708D02*
X279808751Y-191151378D01*
G75*
G02*
X279808751Y-191062990I44194J44194D01*
G01*
X279897139Y-190974602D01*
G75*
G02*
X279985527Y-190974602I44194J-44194D01*
G01*
X280515857Y-191504932D01*
G75*
G02*
X280515857Y-191593320I-44194J-44194D01*
G01*
X280427469Y-191681708D01*
G75*
G02*
X280339081Y-191681708I-44194J44194D01*
G01*
G37*
G04 #@! TD.AperFunction*
G04 #@! TA.AperFunction,SMDPad,CuDef*
G36*
G01*
X280692634Y-191328155D02*
X280162304Y-190797825D01*
G75*
G02*
X280162304Y-190709437I44194J44194D01*
G01*
X280250692Y-190621049D01*
G75*
G02*
X280339080Y-190621049I44194J-44194D01*
G01*
X280869410Y-191151379D01*
G75*
G02*
X280869410Y-191239767I-44194J-44194D01*
G01*
X280781022Y-191328155D01*
G75*
G02*
X280692634Y-191328155I-44194J44194D01*
G01*
G37*
G04 #@! TD.AperFunction*
G04 #@! TA.AperFunction,SMDPad,CuDef*
G36*
G01*
X281046188Y-190974601D02*
X280515858Y-190444271D01*
G75*
G02*
X280515858Y-190355883I44194J44194D01*
G01*
X280604246Y-190267495D01*
G75*
G02*
X280692634Y-190267495I44194J-44194D01*
G01*
X281222964Y-190797825D01*
G75*
G02*
X281222964Y-190886213I-44194J-44194D01*
G01*
X281134576Y-190974601D01*
G75*
G02*
X281046188Y-190974601I-44194J44194D01*
G01*
G37*
G04 #@! TD.AperFunction*
G04 #@! TA.AperFunction,SMDPad,CuDef*
G36*
G01*
X281399741Y-190621048D02*
X280869411Y-190090718D01*
G75*
G02*
X280869411Y-190002330I44194J44194D01*
G01*
X280957799Y-189913942D01*
G75*
G02*
X281046187Y-189913942I44194J-44194D01*
G01*
X281576517Y-190444272D01*
G75*
G02*
X281576517Y-190532660I-44194J-44194D01*
G01*
X281488129Y-190621048D01*
G75*
G02*
X281399741Y-190621048I-44194J44194D01*
G01*
G37*
G04 #@! TD.AperFunction*
G04 #@! TA.AperFunction,SMDPad,CuDef*
G36*
G01*
X281753294Y-190267495D02*
X281222964Y-189737165D01*
G75*
G02*
X281222964Y-189648777I44194J44194D01*
G01*
X281311352Y-189560389D01*
G75*
G02*
X281399740Y-189560389I44194J-44194D01*
G01*
X281930070Y-190090719D01*
G75*
G02*
X281930070Y-190179107I-44194J-44194D01*
G01*
X281841682Y-190267495D01*
G75*
G02*
X281753294Y-190267495I-44194J44194D01*
G01*
G37*
G04 #@! TD.AperFunction*
G04 #@! TA.AperFunction,SMDPad,CuDef*
G36*
G01*
X282106848Y-189913941D02*
X281576518Y-189383611D01*
G75*
G02*
X281576518Y-189295223I44194J44194D01*
G01*
X281664906Y-189206835D01*
G75*
G02*
X281753294Y-189206835I44194J-44194D01*
G01*
X282283624Y-189737165D01*
G75*
G02*
X282283624Y-189825553I-44194J-44194D01*
G01*
X282195236Y-189913941D01*
G75*
G02*
X282106848Y-189913941I-44194J44194D01*
G01*
G37*
G04 #@! TD.AperFunction*
G04 #@! TA.AperFunction,SMDPad,CuDef*
G36*
G01*
X282460401Y-189560388D02*
X281930071Y-189030058D01*
G75*
G02*
X281930071Y-188941670I44194J44194D01*
G01*
X282018459Y-188853282D01*
G75*
G02*
X282106847Y-188853282I44194J-44194D01*
G01*
X282637177Y-189383612D01*
G75*
G02*
X282637177Y-189472000I-44194J-44194D01*
G01*
X282548789Y-189560388D01*
G75*
G02*
X282460401Y-189560388I-44194J44194D01*
G01*
G37*
G04 #@! TD.AperFunction*
G04 #@! TA.AperFunction,SMDPad,CuDef*
G36*
G01*
X282018459Y-188588116D02*
X281930071Y-188499728D01*
G75*
G02*
X281930071Y-188411340I44194J44194D01*
G01*
X282460401Y-187881010D01*
G75*
G02*
X282548789Y-187881010I44194J-44194D01*
G01*
X282637177Y-187969398D01*
G75*
G02*
X282637177Y-188057786I-44194J-44194D01*
G01*
X282106847Y-188588116D01*
G75*
G02*
X282018459Y-188588116I-44194J44194D01*
G01*
G37*
G04 #@! TD.AperFunction*
G04 #@! TA.AperFunction,SMDPad,CuDef*
G36*
G01*
X281664906Y-188234563D02*
X281576518Y-188146175D01*
G75*
G02*
X281576518Y-188057787I44194J44194D01*
G01*
X282106848Y-187527457D01*
G75*
G02*
X282195236Y-187527457I44194J-44194D01*
G01*
X282283624Y-187615845D01*
G75*
G02*
X282283624Y-187704233I-44194J-44194D01*
G01*
X281753294Y-188234563D01*
G75*
G02*
X281664906Y-188234563I-44194J44194D01*
G01*
G37*
G04 #@! TD.AperFunction*
G04 #@! TA.AperFunction,SMDPad,CuDef*
G36*
G01*
X281311352Y-187881009D02*
X281222964Y-187792621D01*
G75*
G02*
X281222964Y-187704233I44194J44194D01*
G01*
X281753294Y-187173903D01*
G75*
G02*
X281841682Y-187173903I44194J-44194D01*
G01*
X281930070Y-187262291D01*
G75*
G02*
X281930070Y-187350679I-44194J-44194D01*
G01*
X281399740Y-187881009D01*
G75*
G02*
X281311352Y-187881009I-44194J44194D01*
G01*
G37*
G04 #@! TD.AperFunction*
G04 #@! TA.AperFunction,SMDPad,CuDef*
G36*
G01*
X280957799Y-187527456D02*
X280869411Y-187439068D01*
G75*
G02*
X280869411Y-187350680I44194J44194D01*
G01*
X281399741Y-186820350D01*
G75*
G02*
X281488129Y-186820350I44194J-44194D01*
G01*
X281576517Y-186908738D01*
G75*
G02*
X281576517Y-186997126I-44194J-44194D01*
G01*
X281046187Y-187527456D01*
G75*
G02*
X280957799Y-187527456I-44194J44194D01*
G01*
G37*
G04 #@! TD.AperFunction*
G04 #@! TA.AperFunction,SMDPad,CuDef*
G36*
G01*
X280604246Y-187173903D02*
X280515858Y-187085515D01*
G75*
G02*
X280515858Y-186997127I44194J44194D01*
G01*
X281046188Y-186466797D01*
G75*
G02*
X281134576Y-186466797I44194J-44194D01*
G01*
X281222964Y-186555185D01*
G75*
G02*
X281222964Y-186643573I-44194J-44194D01*
G01*
X280692634Y-187173903D01*
G75*
G02*
X280604246Y-187173903I-44194J44194D01*
G01*
G37*
G04 #@! TD.AperFunction*
G04 #@! TA.AperFunction,SMDPad,CuDef*
G36*
G01*
X280250692Y-186820349D02*
X280162304Y-186731961D01*
G75*
G02*
X280162304Y-186643573I44194J44194D01*
G01*
X280692634Y-186113243D01*
G75*
G02*
X280781022Y-186113243I44194J-44194D01*
G01*
X280869410Y-186201631D01*
G75*
G02*
X280869410Y-186290019I-44194J-44194D01*
G01*
X280339080Y-186820349D01*
G75*
G02*
X280250692Y-186820349I-44194J44194D01*
G01*
G37*
G04 #@! TD.AperFunction*
G04 #@! TA.AperFunction,SMDPad,CuDef*
G36*
G01*
X279897139Y-186466796D02*
X279808751Y-186378408D01*
G75*
G02*
X279808751Y-186290020I44194J44194D01*
G01*
X280339081Y-185759690D01*
G75*
G02*
X280427469Y-185759690I44194J-44194D01*
G01*
X280515857Y-185848078D01*
G75*
G02*
X280515857Y-185936466I-44194J-44194D01*
G01*
X279985527Y-186466796D01*
G75*
G02*
X279897139Y-186466796I-44194J44194D01*
G01*
G37*
G04 #@! TD.AperFunction*
G04 #@! TA.AperFunction,SMDPad,CuDef*
G36*
G01*
X279543585Y-186113242D02*
X279455197Y-186024854D01*
G75*
G02*
X279455197Y-185936466I44194J44194D01*
G01*
X279985527Y-185406136D01*
G75*
G02*
X280073915Y-185406136I44194J-44194D01*
G01*
X280162303Y-185494524D01*
G75*
G02*
X280162303Y-185582912I-44194J-44194D01*
G01*
X279631973Y-186113242D01*
G75*
G02*
X279543585Y-186113242I-44194J44194D01*
G01*
G37*
G04 #@! TD.AperFunction*
G04 #@! TA.AperFunction,SMDPad,CuDef*
G36*
G01*
X279190032Y-185759689D02*
X279101644Y-185671301D01*
G75*
G02*
X279101644Y-185582913I44194J44194D01*
G01*
X279631974Y-185052583D01*
G75*
G02*
X279720362Y-185052583I44194J-44194D01*
G01*
X279808750Y-185140971D01*
G75*
G02*
X279808750Y-185229359I-44194J-44194D01*
G01*
X279278420Y-185759689D01*
G75*
G02*
X279190032Y-185759689I-44194J44194D01*
G01*
G37*
G04 #@! TD.AperFunction*
G04 #@! TA.AperFunction,SMDPad,CuDef*
G36*
G01*
X278836479Y-185406136D02*
X278748091Y-185317748D01*
G75*
G02*
X278748091Y-185229360I44194J44194D01*
G01*
X279278421Y-184699030D01*
G75*
G02*
X279366809Y-184699030I44194J-44194D01*
G01*
X279455197Y-184787418D01*
G75*
G02*
X279455197Y-184875806I-44194J-44194D01*
G01*
X278924867Y-185406136D01*
G75*
G02*
X278836479Y-185406136I-44194J44194D01*
G01*
G37*
G04 #@! TD.AperFunction*
G04 #@! TA.AperFunction,SMDPad,CuDef*
G36*
G01*
X278482925Y-185052582D02*
X278394537Y-184964194D01*
G75*
G02*
X278394537Y-184875806I44194J44194D01*
G01*
X278924867Y-184345476D01*
G75*
G02*
X279013255Y-184345476I44194J-44194D01*
G01*
X279101643Y-184433864D01*
G75*
G02*
X279101643Y-184522252I-44194J-44194D01*
G01*
X278571313Y-185052582D01*
G75*
G02*
X278482925Y-185052582I-44194J44194D01*
G01*
G37*
G04 #@! TD.AperFunction*
G04 #@! TA.AperFunction,SMDPad,CuDef*
G36*
G01*
X278129372Y-184699029D02*
X278040984Y-184610641D01*
G75*
G02*
X278040984Y-184522253I44194J44194D01*
G01*
X278571314Y-183991923D01*
G75*
G02*
X278659702Y-183991923I44194J-44194D01*
G01*
X278748090Y-184080311D01*
G75*
G02*
X278748090Y-184168699I-44194J-44194D01*
G01*
X278217760Y-184699029D01*
G75*
G02*
X278129372Y-184699029I-44194J44194D01*
G01*
G37*
G04 #@! TD.AperFunction*
G04 #@! TA.AperFunction,SMDPad,CuDef*
G36*
G01*
X277599042Y-184699029D02*
X277068712Y-184168699D01*
G75*
G02*
X277068712Y-184080311I44194J44194D01*
G01*
X277157100Y-183991923D01*
G75*
G02*
X277245488Y-183991923I44194J-44194D01*
G01*
X277775818Y-184522253D01*
G75*
G02*
X277775818Y-184610641I-44194J-44194D01*
G01*
X277687430Y-184699029D01*
G75*
G02*
X277599042Y-184699029I-44194J44194D01*
G01*
G37*
G04 #@! TD.AperFunction*
G04 #@! TA.AperFunction,SMDPad,CuDef*
G36*
G01*
X277245489Y-185052582D02*
X276715159Y-184522252D01*
G75*
G02*
X276715159Y-184433864I44194J44194D01*
G01*
X276803547Y-184345476D01*
G75*
G02*
X276891935Y-184345476I44194J-44194D01*
G01*
X277422265Y-184875806D01*
G75*
G02*
X277422265Y-184964194I-44194J-44194D01*
G01*
X277333877Y-185052582D01*
G75*
G02*
X277245489Y-185052582I-44194J44194D01*
G01*
G37*
G04 #@! TD.AperFunction*
G04 #@! TA.AperFunction,SMDPad,CuDef*
G36*
G01*
X276891935Y-185406136D02*
X276361605Y-184875806D01*
G75*
G02*
X276361605Y-184787418I44194J44194D01*
G01*
X276449993Y-184699030D01*
G75*
G02*
X276538381Y-184699030I44194J-44194D01*
G01*
X277068711Y-185229360D01*
G75*
G02*
X277068711Y-185317748I-44194J-44194D01*
G01*
X276980323Y-185406136D01*
G75*
G02*
X276891935Y-185406136I-44194J44194D01*
G01*
G37*
G04 #@! TD.AperFunction*
G04 #@! TA.AperFunction,SMDPad,CuDef*
G36*
G01*
X276538382Y-185759689D02*
X276008052Y-185229359D01*
G75*
G02*
X276008052Y-185140971I44194J44194D01*
G01*
X276096440Y-185052583D01*
G75*
G02*
X276184828Y-185052583I44194J-44194D01*
G01*
X276715158Y-185582913D01*
G75*
G02*
X276715158Y-185671301I-44194J-44194D01*
G01*
X276626770Y-185759689D01*
G75*
G02*
X276538382Y-185759689I-44194J44194D01*
G01*
G37*
G04 #@! TD.AperFunction*
G04 #@! TA.AperFunction,SMDPad,CuDef*
G36*
G01*
X276184829Y-186113242D02*
X275654499Y-185582912D01*
G75*
G02*
X275654499Y-185494524I44194J44194D01*
G01*
X275742887Y-185406136D01*
G75*
G02*
X275831275Y-185406136I44194J-44194D01*
G01*
X276361605Y-185936466D01*
G75*
G02*
X276361605Y-186024854I-44194J-44194D01*
G01*
X276273217Y-186113242D01*
G75*
G02*
X276184829Y-186113242I-44194J44194D01*
G01*
G37*
G04 #@! TD.AperFunction*
G04 #@! TA.AperFunction,SMDPad,CuDef*
G36*
G01*
X275831275Y-186466796D02*
X275300945Y-185936466D01*
G75*
G02*
X275300945Y-185848078I44194J44194D01*
G01*
X275389333Y-185759690D01*
G75*
G02*
X275477721Y-185759690I44194J-44194D01*
G01*
X276008051Y-186290020D01*
G75*
G02*
X276008051Y-186378408I-44194J-44194D01*
G01*
X275919663Y-186466796D01*
G75*
G02*
X275831275Y-186466796I-44194J44194D01*
G01*
G37*
G04 #@! TD.AperFunction*
G04 #@! TA.AperFunction,SMDPad,CuDef*
G36*
G01*
X275477722Y-186820349D02*
X274947392Y-186290019D01*
G75*
G02*
X274947392Y-186201631I44194J44194D01*
G01*
X275035780Y-186113243D01*
G75*
G02*
X275124168Y-186113243I44194J-44194D01*
G01*
X275654498Y-186643573D01*
G75*
G02*
X275654498Y-186731961I-44194J-44194D01*
G01*
X275566110Y-186820349D01*
G75*
G02*
X275477722Y-186820349I-44194J44194D01*
G01*
G37*
G04 #@! TD.AperFunction*
G04 #@! TA.AperFunction,SMDPad,CuDef*
G36*
G01*
X275124168Y-187173903D02*
X274593838Y-186643573D01*
G75*
G02*
X274593838Y-186555185I44194J44194D01*
G01*
X274682226Y-186466797D01*
G75*
G02*
X274770614Y-186466797I44194J-44194D01*
G01*
X275300944Y-186997127D01*
G75*
G02*
X275300944Y-187085515I-44194J-44194D01*
G01*
X275212556Y-187173903D01*
G75*
G02*
X275124168Y-187173903I-44194J44194D01*
G01*
G37*
G04 #@! TD.AperFunction*
G04 #@! TA.AperFunction,SMDPad,CuDef*
G36*
G01*
X274770615Y-187527456D02*
X274240285Y-186997126D01*
G75*
G02*
X274240285Y-186908738I44194J44194D01*
G01*
X274328673Y-186820350D01*
G75*
G02*
X274417061Y-186820350I44194J-44194D01*
G01*
X274947391Y-187350680D01*
G75*
G02*
X274947391Y-187439068I-44194J-44194D01*
G01*
X274859003Y-187527456D01*
G75*
G02*
X274770615Y-187527456I-44194J44194D01*
G01*
G37*
G04 #@! TD.AperFunction*
G04 #@! TA.AperFunction,SMDPad,CuDef*
G36*
G01*
X274417062Y-187881009D02*
X273886732Y-187350679D01*
G75*
G02*
X273886732Y-187262291I44194J44194D01*
G01*
X273975120Y-187173903D01*
G75*
G02*
X274063508Y-187173903I44194J-44194D01*
G01*
X274593838Y-187704233D01*
G75*
G02*
X274593838Y-187792621I-44194J-44194D01*
G01*
X274505450Y-187881009D01*
G75*
G02*
X274417062Y-187881009I-44194J44194D01*
G01*
G37*
G04 #@! TD.AperFunction*
G04 #@! TA.AperFunction,SMDPad,CuDef*
G36*
G01*
X274063508Y-188234563D02*
X273533178Y-187704233D01*
G75*
G02*
X273533178Y-187615845I44194J44194D01*
G01*
X273621566Y-187527457D01*
G75*
G02*
X273709954Y-187527457I44194J-44194D01*
G01*
X274240284Y-188057787D01*
G75*
G02*
X274240284Y-188146175I-44194J-44194D01*
G01*
X274151896Y-188234563D01*
G75*
G02*
X274063508Y-188234563I-44194J44194D01*
G01*
G37*
G04 #@! TD.AperFunction*
G04 #@! TA.AperFunction,SMDPad,CuDef*
G36*
G01*
X273709955Y-188588116D02*
X273179625Y-188057786D01*
G75*
G02*
X273179625Y-187969398I44194J44194D01*
G01*
X273268013Y-187881010D01*
G75*
G02*
X273356401Y-187881010I44194J-44194D01*
G01*
X273886731Y-188411340D01*
G75*
G02*
X273886731Y-188499728I-44194J-44194D01*
G01*
X273798343Y-188588116D01*
G75*
G02*
X273709955Y-188588116I-44194J44194D01*
G01*
G37*
G04 #@! TD.AperFunction*
G04 #@! TA.AperFunction,SMDPad,CuDef*
G36*
G01*
X273268013Y-189560388D02*
X273179625Y-189472000D01*
G75*
G02*
X273179625Y-189383612I44194J44194D01*
G01*
X273709955Y-188853282D01*
G75*
G02*
X273798343Y-188853282I44194J-44194D01*
G01*
X273886731Y-188941670D01*
G75*
G02*
X273886731Y-189030058I-44194J-44194D01*
G01*
X273356401Y-189560388D01*
G75*
G02*
X273268013Y-189560388I-44194J44194D01*
G01*
G37*
G04 #@! TD.AperFunction*
G04 #@! TA.AperFunction,SMDPad,CuDef*
G36*
G01*
X273621566Y-189913941D02*
X273533178Y-189825553D01*
G75*
G02*
X273533178Y-189737165I44194J44194D01*
G01*
X274063508Y-189206835D01*
G75*
G02*
X274151896Y-189206835I44194J-44194D01*
G01*
X274240284Y-189295223D01*
G75*
G02*
X274240284Y-189383611I-44194J-44194D01*
G01*
X273709954Y-189913941D01*
G75*
G02*
X273621566Y-189913941I-44194J44194D01*
G01*
G37*
G04 #@! TD.AperFunction*
G04 #@! TA.AperFunction,SMDPad,CuDef*
G36*
G01*
X273975120Y-190267495D02*
X273886732Y-190179107D01*
G75*
G02*
X273886732Y-190090719I44194J44194D01*
G01*
X274417062Y-189560389D01*
G75*
G02*
X274505450Y-189560389I44194J-44194D01*
G01*
X274593838Y-189648777D01*
G75*
G02*
X274593838Y-189737165I-44194J-44194D01*
G01*
X274063508Y-190267495D01*
G75*
G02*
X273975120Y-190267495I-44194J44194D01*
G01*
G37*
G04 #@! TD.AperFunction*
G04 #@! TA.AperFunction,SMDPad,CuDef*
G36*
G01*
X274328673Y-190621048D02*
X274240285Y-190532660D01*
G75*
G02*
X274240285Y-190444272I44194J44194D01*
G01*
X274770615Y-189913942D01*
G75*
G02*
X274859003Y-189913942I44194J-44194D01*
G01*
X274947391Y-190002330D01*
G75*
G02*
X274947391Y-190090718I-44194J-44194D01*
G01*
X274417061Y-190621048D01*
G75*
G02*
X274328673Y-190621048I-44194J44194D01*
G01*
G37*
G04 #@! TD.AperFunction*
G04 #@! TA.AperFunction,SMDPad,CuDef*
G36*
G01*
X274682226Y-190974601D02*
X274593838Y-190886213D01*
G75*
G02*
X274593838Y-190797825I44194J44194D01*
G01*
X275124168Y-190267495D01*
G75*
G02*
X275212556Y-190267495I44194J-44194D01*
G01*
X275300944Y-190355883D01*
G75*
G02*
X275300944Y-190444271I-44194J-44194D01*
G01*
X274770614Y-190974601D01*
G75*
G02*
X274682226Y-190974601I-44194J44194D01*
G01*
G37*
G04 #@! TD.AperFunction*
G04 #@! TA.AperFunction,SMDPad,CuDef*
G36*
G01*
X275035780Y-191328155D02*
X274947392Y-191239767D01*
G75*
G02*
X274947392Y-191151379I44194J44194D01*
G01*
X275477722Y-190621049D01*
G75*
G02*
X275566110Y-190621049I44194J-44194D01*
G01*
X275654498Y-190709437D01*
G75*
G02*
X275654498Y-190797825I-44194J-44194D01*
G01*
X275124168Y-191328155D01*
G75*
G02*
X275035780Y-191328155I-44194J44194D01*
G01*
G37*
G04 #@! TD.AperFunction*
G04 #@! TA.AperFunction,SMDPad,CuDef*
G36*
G01*
X275389333Y-191681708D02*
X275300945Y-191593320D01*
G75*
G02*
X275300945Y-191504932I44194J44194D01*
G01*
X275831275Y-190974602D01*
G75*
G02*
X275919663Y-190974602I44194J-44194D01*
G01*
X276008051Y-191062990D01*
G75*
G02*
X276008051Y-191151378I-44194J-44194D01*
G01*
X275477721Y-191681708D01*
G75*
G02*
X275389333Y-191681708I-44194J44194D01*
G01*
G37*
G04 #@! TD.AperFunction*
G04 #@! TA.AperFunction,SMDPad,CuDef*
G36*
G01*
X275742887Y-192035262D02*
X275654499Y-191946874D01*
G75*
G02*
X275654499Y-191858486I44194J44194D01*
G01*
X276184829Y-191328156D01*
G75*
G02*
X276273217Y-191328156I44194J-44194D01*
G01*
X276361605Y-191416544D01*
G75*
G02*
X276361605Y-191504932I-44194J-44194D01*
G01*
X275831275Y-192035262D01*
G75*
G02*
X275742887Y-192035262I-44194J44194D01*
G01*
G37*
G04 #@! TD.AperFunction*
G04 #@! TA.AperFunction,SMDPad,CuDef*
G36*
G01*
X276096440Y-192388815D02*
X276008052Y-192300427D01*
G75*
G02*
X276008052Y-192212039I44194J44194D01*
G01*
X276538382Y-191681709D01*
G75*
G02*
X276626770Y-191681709I44194J-44194D01*
G01*
X276715158Y-191770097D01*
G75*
G02*
X276715158Y-191858485I-44194J-44194D01*
G01*
X276184828Y-192388815D01*
G75*
G02*
X276096440Y-192388815I-44194J44194D01*
G01*
G37*
G04 #@! TD.AperFunction*
G04 #@! TA.AperFunction,SMDPad,CuDef*
G36*
G01*
X276449993Y-192742368D02*
X276361605Y-192653980D01*
G75*
G02*
X276361605Y-192565592I44194J44194D01*
G01*
X276891935Y-192035262D01*
G75*
G02*
X276980323Y-192035262I44194J-44194D01*
G01*
X277068711Y-192123650D01*
G75*
G02*
X277068711Y-192212038I-44194J-44194D01*
G01*
X276538381Y-192742368D01*
G75*
G02*
X276449993Y-192742368I-44194J44194D01*
G01*
G37*
G04 #@! TD.AperFunction*
G04 #@! TA.AperFunction,SMDPad,CuDef*
G36*
G01*
X276803547Y-193095922D02*
X276715159Y-193007534D01*
G75*
G02*
X276715159Y-192919146I44194J44194D01*
G01*
X277245489Y-192388816D01*
G75*
G02*
X277333877Y-192388816I44194J-44194D01*
G01*
X277422265Y-192477204D01*
G75*
G02*
X277422265Y-192565592I-44194J-44194D01*
G01*
X276891935Y-193095922D01*
G75*
G02*
X276803547Y-193095922I-44194J44194D01*
G01*
G37*
G04 #@! TD.AperFunction*
G04 #@! TA.AperFunction,SMDPad,CuDef*
G36*
G01*
X277157100Y-193449475D02*
X277068712Y-193361087D01*
G75*
G02*
X277068712Y-193272699I44194J44194D01*
G01*
X277599042Y-192742369D01*
G75*
G02*
X277687430Y-192742369I44194J-44194D01*
G01*
X277775818Y-192830757D01*
G75*
G02*
X277775818Y-192919145I-44194J-44194D01*
G01*
X277245488Y-193449475D01*
G75*
G02*
X277157100Y-193449475I-44194J44194D01*
G01*
G37*
G04 #@! TD.AperFunction*
G04 #@! TA.AperFunction,SMDPad,CuDef*
G36*
G01*
X277731625Y-192503721D02*
X274125379Y-188897475D01*
G75*
G02*
X274125379Y-188543923I176776J176776D01*
G01*
X277731625Y-184937677D01*
G75*
G02*
X278085177Y-184937677I176776J-176776D01*
G01*
X281691423Y-188543923D01*
G75*
G02*
X281691423Y-188897475I-176776J-176776D01*
G01*
X278085177Y-192503721D01*
G75*
G02*
X277731625Y-192503721I-176776J176776D01*
G01*
G37*
G04 #@! TD.AperFunction*
D21*
X88825000Y-137759000D03*
X95325000Y-133259000D03*
X88825000Y-133259000D03*
X95325000Y-137759000D03*
X88825000Y-144998000D03*
X95325000Y-140498000D03*
X88825000Y-140498000D03*
X95325000Y-144998000D03*
G04 #@! TA.AperFunction,SMDPad,CuDef*
G36*
G01*
X97792250Y-136683000D02*
X97279750Y-136683000D01*
G75*
G02*
X97061000Y-136464250I0J218750D01*
G01*
X97061000Y-136026750D01*
G75*
G02*
X97279750Y-135808000I218750J0D01*
G01*
X97792250Y-135808000D01*
G75*
G02*
X98011000Y-136026750I0J-218750D01*
G01*
X98011000Y-136464250D01*
G75*
G02*
X97792250Y-136683000I-218750J0D01*
G01*
G37*
G04 #@! TD.AperFunction*
G04 #@! TA.AperFunction,SMDPad,CuDef*
G36*
G01*
X97792250Y-138258000D02*
X97279750Y-138258000D01*
G75*
G02*
X97061000Y-138039250I0J218750D01*
G01*
X97061000Y-137601750D01*
G75*
G02*
X97279750Y-137383000I218750J0D01*
G01*
X97792250Y-137383000D01*
G75*
G02*
X98011000Y-137601750I0J-218750D01*
G01*
X98011000Y-138039250D01*
G75*
G02*
X97792250Y-138258000I-218750J0D01*
G01*
G37*
G04 #@! TD.AperFunction*
G04 #@! TA.AperFunction,SMDPad,CuDef*
G36*
G01*
X93982250Y-147605000D02*
X93469750Y-147605000D01*
G75*
G02*
X93251000Y-147386250I0J218750D01*
G01*
X93251000Y-146948750D01*
G75*
G02*
X93469750Y-146730000I218750J0D01*
G01*
X93982250Y-146730000D01*
G75*
G02*
X94201000Y-146948750I0J-218750D01*
G01*
X94201000Y-147386250D01*
G75*
G02*
X93982250Y-147605000I-218750J0D01*
G01*
G37*
G04 #@! TD.AperFunction*
G04 #@! TA.AperFunction,SMDPad,CuDef*
G36*
G01*
X93982250Y-149180000D02*
X93469750Y-149180000D01*
G75*
G02*
X93251000Y-148961250I0J218750D01*
G01*
X93251000Y-148523750D01*
G75*
G02*
X93469750Y-148305000I218750J0D01*
G01*
X93982250Y-148305000D01*
G75*
G02*
X94201000Y-148523750I0J-218750D01*
G01*
X94201000Y-148961250D01*
G75*
G02*
X93982250Y-149180000I-218750J0D01*
G01*
G37*
G04 #@! TD.AperFunction*
G04 #@! TA.AperFunction,SMDPad,CuDef*
G36*
G01*
X91896250Y-86164000D02*
X90983750Y-86164000D01*
G75*
G02*
X90740000Y-85920250I0J243750D01*
G01*
X90740000Y-85432750D01*
G75*
G02*
X90983750Y-85189000I243750J0D01*
G01*
X91896250Y-85189000D01*
G75*
G02*
X92140000Y-85432750I0J-243750D01*
G01*
X92140000Y-85920250D01*
G75*
G02*
X91896250Y-86164000I-243750J0D01*
G01*
G37*
G04 #@! TD.AperFunction*
G04 #@! TA.AperFunction,SMDPad,CuDef*
G36*
G01*
X91896250Y-88039000D02*
X90983750Y-88039000D01*
G75*
G02*
X90740000Y-87795250I0J243750D01*
G01*
X90740000Y-87307750D01*
G75*
G02*
X90983750Y-87064000I243750J0D01*
G01*
X91896250Y-87064000D01*
G75*
G02*
X92140000Y-87307750I0J-243750D01*
G01*
X92140000Y-87795250D01*
G75*
G02*
X91896250Y-88039000I-243750J0D01*
G01*
G37*
G04 #@! TD.AperFunction*
G04 #@! TA.AperFunction,SMDPad,CuDef*
G36*
G01*
X94265250Y-130093500D02*
X94265250Y-129748500D01*
G75*
G02*
X94412750Y-129601000I147500J0D01*
G01*
X94707750Y-129601000D01*
G75*
G02*
X94855250Y-129748500I0J-147500D01*
G01*
X94855250Y-130093500D01*
G75*
G02*
X94707750Y-130241000I-147500J0D01*
G01*
X94412750Y-130241000D01*
G75*
G02*
X94265250Y-130093500I0J147500D01*
G01*
G37*
G04 #@! TD.AperFunction*
G04 #@! TA.AperFunction,SMDPad,CuDef*
G36*
G01*
X93295250Y-130093500D02*
X93295250Y-129748500D01*
G75*
G02*
X93442750Y-129601000I147500J0D01*
G01*
X93737750Y-129601000D01*
G75*
G02*
X93885250Y-129748500I0J-147500D01*
G01*
X93885250Y-130093500D01*
G75*
G02*
X93737750Y-130241000I-147500J0D01*
G01*
X93442750Y-130241000D01*
G75*
G02*
X93295250Y-130093500I0J147500D01*
G01*
G37*
G04 #@! TD.AperFunction*
G04 #@! TA.AperFunction,SMDPad,CuDef*
G36*
G01*
X94773250Y-125013500D02*
X94773250Y-124668500D01*
G75*
G02*
X94920750Y-124521000I147500J0D01*
G01*
X95215750Y-124521000D01*
G75*
G02*
X95363250Y-124668500I0J-147500D01*
G01*
X95363250Y-125013500D01*
G75*
G02*
X95215750Y-125161000I-147500J0D01*
G01*
X94920750Y-125161000D01*
G75*
G02*
X94773250Y-125013500I0J147500D01*
G01*
G37*
G04 #@! TD.AperFunction*
G04 #@! TA.AperFunction,SMDPad,CuDef*
G36*
G01*
X93803250Y-125013500D02*
X93803250Y-124668500D01*
G75*
G02*
X93950750Y-124521000I147500J0D01*
G01*
X94245750Y-124521000D01*
G75*
G02*
X94393250Y-124668500I0J-147500D01*
G01*
X94393250Y-125013500D01*
G75*
G02*
X94245750Y-125161000I-147500J0D01*
G01*
X93950750Y-125161000D01*
G75*
G02*
X93803250Y-125013500I0J147500D01*
G01*
G37*
G04 #@! TD.AperFunction*
G04 #@! TA.AperFunction,SMDPad,CuDef*
G36*
G01*
X272452050Y-191020200D02*
X272797050Y-191020200D01*
G75*
G02*
X272944550Y-191167700I0J-147500D01*
G01*
X272944550Y-191462700D01*
G75*
G02*
X272797050Y-191610200I-147500J0D01*
G01*
X272452050Y-191610200D01*
G75*
G02*
X272304550Y-191462700I0J147500D01*
G01*
X272304550Y-191167700D01*
G75*
G02*
X272452050Y-191020200I147500J0D01*
G01*
G37*
G04 #@! TD.AperFunction*
G04 #@! TA.AperFunction,SMDPad,CuDef*
G36*
G01*
X272452050Y-190050200D02*
X272797050Y-190050200D01*
G75*
G02*
X272944550Y-190197700I0J-147500D01*
G01*
X272944550Y-190492700D01*
G75*
G02*
X272797050Y-190640200I-147500J0D01*
G01*
X272452050Y-190640200D01*
G75*
G02*
X272304550Y-190492700I0J147500D01*
G01*
X272304550Y-190197700D01*
G75*
G02*
X272452050Y-190050200I147500J0D01*
G01*
G37*
G04 #@! TD.AperFunction*
G04 #@! TA.AperFunction,SMDPad,CuDef*
G36*
G01*
X275367000Y-181353750D02*
X275367000Y-181866250D01*
G75*
G02*
X275148250Y-182085000I-218750J0D01*
G01*
X274710750Y-182085000D01*
G75*
G02*
X274492000Y-181866250I0J218750D01*
G01*
X274492000Y-181353750D01*
G75*
G02*
X274710750Y-181135000I218750J0D01*
G01*
X275148250Y-181135000D01*
G75*
G02*
X275367000Y-181353750I0J-218750D01*
G01*
G37*
G04 #@! TD.AperFunction*
G04 #@! TA.AperFunction,SMDPad,CuDef*
G36*
G01*
X276942000Y-181353750D02*
X276942000Y-181866250D01*
G75*
G02*
X276723250Y-182085000I-218750J0D01*
G01*
X276285750Y-182085000D01*
G75*
G02*
X276067000Y-181866250I0J218750D01*
G01*
X276067000Y-181353750D01*
G75*
G02*
X276285750Y-181135000I218750J0D01*
G01*
X276723250Y-181135000D01*
G75*
G02*
X276942000Y-181353750I0J-218750D01*
G01*
G37*
G04 #@! TD.AperFunction*
G04 #@! TA.AperFunction,SMDPad,CuDef*
G36*
G01*
X271258250Y-191020200D02*
X271603250Y-191020200D01*
G75*
G02*
X271750750Y-191167700I0J-147500D01*
G01*
X271750750Y-191462700D01*
G75*
G02*
X271603250Y-191610200I-147500J0D01*
G01*
X271258250Y-191610200D01*
G75*
G02*
X271110750Y-191462700I0J147500D01*
G01*
X271110750Y-191167700D01*
G75*
G02*
X271258250Y-191020200I147500J0D01*
G01*
G37*
G04 #@! TD.AperFunction*
G04 #@! TA.AperFunction,SMDPad,CuDef*
G36*
G01*
X271258250Y-190050200D02*
X271603250Y-190050200D01*
G75*
G02*
X271750750Y-190197700I0J-147500D01*
G01*
X271750750Y-190492700D01*
G75*
G02*
X271603250Y-190640200I-147500J0D01*
G01*
X271258250Y-190640200D01*
G75*
G02*
X271110750Y-190492700I0J147500D01*
G01*
X271110750Y-190197700D01*
G75*
G02*
X271258250Y-190050200I147500J0D01*
G01*
G37*
G04 #@! TD.AperFunction*
G04 #@! TA.AperFunction,SMDPad,CuDef*
G36*
G01*
X279875750Y-194609500D02*
X279875750Y-194264500D01*
G75*
G02*
X280023250Y-194117000I147500J0D01*
G01*
X280318250Y-194117000D01*
G75*
G02*
X280465750Y-194264500I0J-147500D01*
G01*
X280465750Y-194609500D01*
G75*
G02*
X280318250Y-194757000I-147500J0D01*
G01*
X280023250Y-194757000D01*
G75*
G02*
X279875750Y-194609500I0J147500D01*
G01*
G37*
G04 #@! TD.AperFunction*
G04 #@! TA.AperFunction,SMDPad,CuDef*
G36*
G01*
X278905750Y-194609500D02*
X278905750Y-194264500D01*
G75*
G02*
X279053250Y-194117000I147500J0D01*
G01*
X279348250Y-194117000D01*
G75*
G02*
X279495750Y-194264500I0J-147500D01*
G01*
X279495750Y-194609500D01*
G75*
G02*
X279348250Y-194757000I-147500J0D01*
G01*
X279053250Y-194757000D01*
G75*
G02*
X278905750Y-194609500I0J147500D01*
G01*
G37*
G04 #@! TD.AperFunction*
G04 #@! TA.AperFunction,SMDPad,CuDef*
G36*
G01*
X283693650Y-186779400D02*
X283348650Y-186779400D01*
G75*
G02*
X283201150Y-186631900I0J147500D01*
G01*
X283201150Y-186336900D01*
G75*
G02*
X283348650Y-186189400I147500J0D01*
G01*
X283693650Y-186189400D01*
G75*
G02*
X283841150Y-186336900I0J-147500D01*
G01*
X283841150Y-186631900D01*
G75*
G02*
X283693650Y-186779400I-147500J0D01*
G01*
G37*
G04 #@! TD.AperFunction*
G04 #@! TA.AperFunction,SMDPad,CuDef*
G36*
G01*
X283693650Y-187749400D02*
X283348650Y-187749400D01*
G75*
G02*
X283201150Y-187601900I0J147500D01*
G01*
X283201150Y-187306900D01*
G75*
G02*
X283348650Y-187159400I147500J0D01*
G01*
X283693650Y-187159400D01*
G75*
G02*
X283841150Y-187306900I0J-147500D01*
G01*
X283841150Y-187601900D01*
G75*
G02*
X283693650Y-187749400I-147500J0D01*
G01*
G37*
G04 #@! TD.AperFunction*
G04 #@! TA.AperFunction,SMDPad,CuDef*
G36*
G01*
X285149000Y-186086000D02*
X284636500Y-186086000D01*
G75*
G02*
X284417750Y-185867250I0J218750D01*
G01*
X284417750Y-185429750D01*
G75*
G02*
X284636500Y-185211000I218750J0D01*
G01*
X285149000Y-185211000D01*
G75*
G02*
X285367750Y-185429750I0J-218750D01*
G01*
X285367750Y-185867250D01*
G75*
G02*
X285149000Y-186086000I-218750J0D01*
G01*
G37*
G04 #@! TD.AperFunction*
G04 #@! TA.AperFunction,SMDPad,CuDef*
G36*
G01*
X285149000Y-187661000D02*
X284636500Y-187661000D01*
G75*
G02*
X284417750Y-187442250I0J218750D01*
G01*
X284417750Y-187004750D01*
G75*
G02*
X284636500Y-186786000I218750J0D01*
G01*
X285149000Y-186786000D01*
G75*
G02*
X285367750Y-187004750I0J-218750D01*
G01*
X285367750Y-187442250D01*
G75*
G02*
X285149000Y-187661000I-218750J0D01*
G01*
G37*
G04 #@! TD.AperFunction*
G04 #@! TA.AperFunction,SMDPad,CuDef*
G36*
G01*
X276041350Y-182885300D02*
X276041350Y-183230300D01*
G75*
G02*
X275893850Y-183377800I-147500J0D01*
G01*
X275598850Y-183377800D01*
G75*
G02*
X275451350Y-183230300I0J147500D01*
G01*
X275451350Y-182885300D01*
G75*
G02*
X275598850Y-182737800I147500J0D01*
G01*
X275893850Y-182737800D01*
G75*
G02*
X276041350Y-182885300I0J-147500D01*
G01*
G37*
G04 #@! TD.AperFunction*
G04 #@! TA.AperFunction,SMDPad,CuDef*
G36*
G01*
X277011350Y-182885300D02*
X277011350Y-183230300D01*
G75*
G02*
X276863850Y-183377800I-147500J0D01*
G01*
X276568850Y-183377800D01*
G75*
G02*
X276421350Y-183230300I0J147500D01*
G01*
X276421350Y-182885300D01*
G75*
G02*
X276568850Y-182737800I147500J0D01*
G01*
X276863850Y-182737800D01*
G75*
G02*
X277011350Y-182885300I0J-147500D01*
G01*
G37*
G04 #@! TD.AperFunction*
D15*
X107188000Y-90679000D03*
X107188000Y-93979000D03*
X131556250Y-90925000D03*
X131556250Y-94225000D03*
X150606250Y-90925000D03*
X150606250Y-94225000D03*
X169656250Y-90925000D03*
X169656250Y-94225000D03*
X188706250Y-90925000D03*
X188706250Y-94225000D03*
X212518750Y-90925000D03*
X212518750Y-94225000D03*
X231568750Y-90925000D03*
X231568750Y-94225000D03*
X250618750Y-90925000D03*
X250618750Y-94225000D03*
X269668750Y-90925000D03*
X269668750Y-94225000D03*
X293481250Y-90925000D03*
X293481250Y-94225000D03*
X312531250Y-90925000D03*
X312531250Y-94225000D03*
X331581250Y-90925000D03*
X331581250Y-94225000D03*
X350631250Y-90925000D03*
X350631250Y-94225000D03*
X374443750Y-90925000D03*
X374443750Y-94225000D03*
X393493750Y-90925000D03*
X393493750Y-94225000D03*
X412543750Y-90925000D03*
X412543750Y-94225000D03*
X431593750Y-90925000D03*
X431593750Y-94225000D03*
X450643750Y-90925000D03*
X450643750Y-94225000D03*
X107743750Y-109975000D03*
X107743750Y-113275000D03*
X126793750Y-109975000D03*
X126793750Y-113275000D03*
X145843750Y-109975000D03*
X145843750Y-113275000D03*
X164893750Y-109975000D03*
X164893750Y-113275000D03*
X183943750Y-109975000D03*
X183943750Y-113275000D03*
X202993750Y-109975000D03*
X202993750Y-113275000D03*
X222043750Y-109975000D03*
X222043750Y-113275000D03*
X241093750Y-109975000D03*
X241093750Y-113275000D03*
X260143750Y-109975000D03*
X260143750Y-113275000D03*
X279193750Y-109975000D03*
X279193750Y-113275000D03*
X298243750Y-109975000D03*
X298243750Y-113275000D03*
X317293750Y-109975000D03*
X317293750Y-113275000D03*
X336343750Y-109975000D03*
X336343750Y-113275000D03*
X374443750Y-109975000D03*
X374443750Y-113275000D03*
X393493750Y-109975000D03*
X393493750Y-113275000D03*
X412543750Y-109975000D03*
X412543750Y-113275000D03*
X431593750Y-109975000D03*
X431593750Y-113275000D03*
X450643750Y-109975000D03*
X450643750Y-113275000D03*
X117268750Y-129025000D03*
X117268750Y-132325000D03*
X136318750Y-129025000D03*
X136318750Y-132325000D03*
X155368750Y-129025000D03*
X155368750Y-132325000D03*
X174418750Y-129025000D03*
X174418750Y-132325000D03*
X193468750Y-129025000D03*
X193468750Y-132325000D03*
X212518750Y-129025000D03*
X212518750Y-132325000D03*
X231568750Y-129025000D03*
X231568750Y-132325000D03*
X250618750Y-129025000D03*
X250618750Y-132325000D03*
X269668750Y-129025000D03*
X269668750Y-132325000D03*
X288718750Y-129025000D03*
X288718750Y-132325000D03*
X307768750Y-129025000D03*
X307768750Y-132325000D03*
X326818750Y-129025000D03*
X326818750Y-132325000D03*
X345868750Y-129025000D03*
X345868750Y-132325000D03*
X374443750Y-129025000D03*
X374443750Y-132325000D03*
X393493750Y-129025000D03*
X393493750Y-132325000D03*
X412543750Y-129025000D03*
X412543750Y-132325000D03*
X431800000Y-134875000D03*
X431800000Y-138175000D03*
X122031250Y-148075000D03*
X122031250Y-151375000D03*
X141081250Y-148075000D03*
X141081250Y-151375000D03*
X160131250Y-148075000D03*
X160131250Y-151375000D03*
X179181250Y-148075000D03*
X179181250Y-151375000D03*
X198231250Y-148075000D03*
X198231250Y-151375000D03*
X217281250Y-148075000D03*
X217281250Y-151375000D03*
X236331250Y-148075000D03*
X236331250Y-151375000D03*
X255381250Y-148075000D03*
X255381250Y-151375000D03*
X274431250Y-148075000D03*
X274431250Y-151375000D03*
X293481250Y-148075000D03*
X293481250Y-151375000D03*
X312531250Y-148075000D03*
X312531250Y-151375000D03*
X331581250Y-148075000D03*
X331581250Y-151375000D03*
D13*
X372206250Y-147637500D03*
X375506250Y-147637500D03*
D15*
X393493750Y-148075000D03*
X393493750Y-151375000D03*
X412543750Y-148075000D03*
X412543750Y-151375000D03*
X431800000Y-141225000D03*
X431800000Y-144525000D03*
X438658000Y-142114000D03*
X438658000Y-145414000D03*
X131556250Y-167125000D03*
X131556250Y-170425000D03*
X150606250Y-167125000D03*
X150606250Y-170425000D03*
X169656250Y-167125000D03*
X169656250Y-170425000D03*
X188706250Y-167125000D03*
X188706250Y-170425000D03*
X207756250Y-167125000D03*
X207756250Y-170425000D03*
X226806250Y-167125000D03*
X226806250Y-170425000D03*
X245856250Y-167125000D03*
X245856250Y-170425000D03*
X264906250Y-167125000D03*
X264906250Y-170425000D03*
X283956250Y-167125000D03*
X283956250Y-170425000D03*
X303006250Y-167125000D03*
X303006250Y-170425000D03*
X322056250Y-167125000D03*
X322056250Y-170425000D03*
X355393750Y-167125000D03*
X355393750Y-170425000D03*
X374443750Y-167125000D03*
X374443750Y-170425000D03*
X393493750Y-167125000D03*
X393493750Y-170425000D03*
X412543750Y-167125000D03*
X412543750Y-170425000D03*
X431800000Y-172975000D03*
X431800000Y-176275000D03*
X112506250Y-186175000D03*
X112506250Y-189475000D03*
X136318750Y-186175000D03*
X136318750Y-189475000D03*
X159893000Y-181611000D03*
X159893000Y-184911000D03*
X202993750Y-186175000D03*
X202993750Y-189475000D03*
X220853000Y-179704000D03*
X220853000Y-176404000D03*
X279019000Y-179704000D03*
X279019000Y-176404000D03*
X303006250Y-186175000D03*
X303006250Y-189475000D03*
X326818750Y-186175000D03*
X326818750Y-189475000D03*
X355393750Y-186175000D03*
X355393750Y-189475000D03*
X374269000Y-181357000D03*
X374269000Y-184657000D03*
X393493750Y-186175000D03*
X393493750Y-189475000D03*
X412543750Y-186175000D03*
X412543750Y-189475000D03*
X431800000Y-179325000D03*
X431800000Y-182625000D03*
X437896000Y-180976000D03*
X437896000Y-184276000D03*
D22*
X97684035Y-192597619D03*
X270256000Y-190658994D03*
X97536000Y-134112000D03*
X105918000Y-85471000D03*
X105665432Y-83891190D03*
X111125000Y-91281250D03*
X121539000Y-190372901D03*
X145415000Y-190372901D03*
X165260013Y-189885879D03*
X178816000Y-190372901D03*
X198120000Y-190373000D03*
X212979000Y-189865000D03*
X233553000Y-177292000D03*
X272611567Y-171380433D03*
X270948433Y-172916567D03*
X273431000Y-177733250D03*
X312039000Y-190372901D03*
X343027000Y-190372901D03*
X358140000Y-190372901D03*
X362077000Y-190373000D03*
X381254000Y-190465000D03*
X400177000Y-190372901D03*
X419354000Y-192754151D03*
X444246000Y-187706000D03*
X280797000Y-113411000D03*
X282251001Y-113411000D03*
X271399000Y-132461000D03*
X273754567Y-132391433D03*
X276098000Y-151384000D03*
X279704860Y-151460140D03*
X285369000Y-170561000D03*
X288185127Y-170561000D03*
X283210000Y-178562000D03*
X289941000Y-181864000D03*
X279146000Y-195453000D03*
X284988000Y-188341000D03*
X275844000Y-180467000D03*
X93726000Y-149987000D03*
X91694000Y-149987000D03*
X97575472Y-191603528D03*
X270256000Y-189658991D03*
X104521000Y-82169000D03*
X93726000Y-151003000D03*
X270256000Y-191658997D03*
X93777619Y-152082754D03*
X270256000Y-192659000D03*
X282575000Y-193769951D03*
X275336000Y-192659000D03*
X287909000Y-180848000D03*
X119507000Y-83566000D03*
X286893000Y-180848000D03*
X119648421Y-84555952D03*
X95885000Y-85598000D03*
X98552000Y-85598000D03*
D23*
X115798079Y-83588660D02*
X114837410Y-83588660D01*
X106451921Y-80783840D02*
X115798079Y-80783840D01*
X116297410Y-83089329D02*
X115798079Y-83588660D01*
X115798079Y-80783840D02*
X116297410Y-81283171D01*
X105952590Y-81283171D02*
X106451921Y-80783840D01*
X105952590Y-83089329D02*
X105952590Y-81283171D01*
X116297410Y-81283171D02*
X116297410Y-83089329D01*
X106451921Y-83588660D02*
X105952590Y-83089329D01*
X107158079Y-83588660D02*
X106451921Y-83588660D01*
X107645489Y-83101250D02*
X107158079Y-83588660D01*
X114837410Y-83588660D02*
X114350000Y-83101250D01*
X107900000Y-83101250D02*
X107645489Y-83101250D01*
X115214500Y-83965750D02*
X114350000Y-83101250D01*
X115214500Y-85471000D02*
X115214500Y-83965750D01*
X101720650Y-83896300D02*
X100069650Y-83896300D01*
X107104950Y-83896300D02*
X107900000Y-83101250D01*
X92911349Y-111714153D02*
X95878196Y-114681000D01*
X92911349Y-89845847D02*
X92911349Y-111714153D01*
X98860896Y-83896300D02*
X92911349Y-89845847D01*
X100069650Y-83896300D02*
X98860896Y-83896300D01*
X95878196Y-124031054D02*
X95068250Y-124841000D01*
X95878196Y-114681000D02*
X95878196Y-124031054D01*
X95068250Y-128347800D02*
X95076050Y-128355600D01*
X95068250Y-124841000D02*
X95068250Y-128347800D01*
X94560250Y-128871400D02*
X95076050Y-128355600D01*
X94560250Y-129921000D02*
X94560250Y-128871400D01*
X97536000Y-132896750D02*
X94560250Y-129921000D01*
X112638099Y-88047401D02*
X115214500Y-85471000D01*
X111903277Y-88047401D02*
X112638099Y-88047401D01*
X111125000Y-88825678D02*
X111903277Y-88047401D01*
X111125000Y-89365000D02*
X111125000Y-88825678D01*
X94560250Y-129921000D02*
X94560250Y-130356750D01*
X94560250Y-130356750D02*
X92898590Y-132018410D01*
X97155000Y-156591000D02*
X97155000Y-161375198D01*
X92898590Y-132018410D02*
X92898590Y-152334590D01*
X92898590Y-152334590D02*
X97155000Y-156591000D01*
X97155000Y-161375198D02*
X95292599Y-163237599D01*
X95292599Y-188256599D02*
X95292599Y-187663401D01*
X95292599Y-187663401D02*
X95292599Y-187914153D01*
X95292599Y-163237599D02*
X95292599Y-187663401D01*
X98327873Y-191953781D02*
X97684035Y-192597619D01*
X98327873Y-191291873D02*
X98327873Y-191953781D01*
X95292599Y-188256599D02*
X98327873Y-191291873D01*
X274253239Y-191315200D02*
X274947391Y-190621048D01*
X272624550Y-191315200D02*
X274253239Y-191315200D01*
X271430750Y-191315200D02*
X272624550Y-191315200D01*
X284357050Y-185648500D02*
X283521150Y-186484400D01*
X284892750Y-185648500D02*
X284357050Y-185648500D01*
X283326681Y-186484400D02*
X281930071Y-187881010D01*
X283521150Y-186484400D02*
X283326681Y-186484400D01*
X275746350Y-183376667D02*
X277068712Y-184699029D01*
X275746350Y-183057800D02*
X275746350Y-183376667D01*
X274929500Y-182240950D02*
X275746350Y-183057800D01*
X274929500Y-181610000D02*
X274929500Y-182240950D01*
X276847740Y-188720699D02*
X277908401Y-188720699D01*
X274947391Y-190621048D02*
X276847740Y-188720699D01*
X277908401Y-191895878D02*
X277908401Y-188720699D01*
X280170750Y-194158226D02*
X277908401Y-191895878D01*
X280170750Y-194437000D02*
X280170750Y-194158226D01*
X281058434Y-188720699D02*
X277908401Y-188720699D01*
X281898123Y-187881010D02*
X281058434Y-188720699D01*
X281930071Y-187881010D02*
X281898123Y-187881010D01*
X277908401Y-185506772D02*
X277908401Y-188720699D01*
X277248513Y-184846884D02*
X277908401Y-185506772D01*
X277216567Y-184846884D02*
X277248513Y-184846884D01*
X277068712Y-184699029D02*
X277216567Y-184846884D01*
X270352195Y-190658994D02*
X270256000Y-190658994D01*
X271008401Y-191315200D02*
X270352195Y-190658994D01*
X271430750Y-191315200D02*
X271008401Y-191315200D01*
X97536000Y-134112000D02*
X97536000Y-132896750D01*
X97536000Y-136245500D02*
X97536000Y-134112000D01*
X107035500Y-85471000D02*
X105918000Y-85471000D01*
X104660789Y-86078125D02*
X106466664Y-87884000D01*
X104660789Y-84900748D02*
X104660789Y-86078125D01*
X106466664Y-87884000D02*
X107035500Y-87884000D01*
X105994300Y-83896300D02*
X105665238Y-83896300D01*
X105665238Y-83896300D02*
X104660789Y-84900748D01*
X101720650Y-83896300D02*
X105994300Y-83896300D01*
X105994300Y-83896300D02*
X107104950Y-83896300D01*
X105665238Y-83891384D02*
X105665432Y-83891190D01*
X105665238Y-83896300D02*
X105665238Y-83891384D01*
D24*
X267019412Y-186420050D02*
X271783705Y-186420050D01*
X260615493Y-192823971D02*
X267019412Y-186420050D01*
X273533178Y-188169523D02*
X273533178Y-188234563D01*
X244590502Y-192823971D02*
X260615493Y-192823971D01*
X244355591Y-192589060D02*
X244590502Y-192823971D01*
X233348634Y-189957030D02*
X235980664Y-192589060D01*
X97790000Y-184785000D02*
X97790000Y-186949934D01*
X271783705Y-186420050D02*
X273533178Y-188169523D01*
X97790000Y-186949934D02*
X102393978Y-191553912D01*
X162872878Y-189938010D02*
X164488780Y-191553912D01*
X235980664Y-192589060D02*
X244355591Y-192589060D01*
X102393978Y-191553912D02*
X157716198Y-191553912D01*
X157716198Y-191553912D02*
X159332100Y-189938010D01*
X214274227Y-192916041D02*
X214601208Y-192589060D01*
X159332100Y-189938010D02*
X162872878Y-189938010D01*
X164488780Y-191553912D02*
X168672714Y-191553912D01*
X168672714Y-191553912D02*
X170034842Y-192916041D01*
X214601208Y-192589060D02*
X227696338Y-192589060D01*
X170034842Y-192916041D02*
X214274227Y-192916041D01*
X227696338Y-192589060D02*
X230328368Y-189957030D01*
X230328368Y-189957030D02*
X233348634Y-189957030D01*
X271971761Y-185966040D02*
X273886731Y-187881010D01*
X260427435Y-192369961D02*
X266831356Y-185966040D01*
X244778559Y-192369961D02*
X260427435Y-192369961D01*
X236168720Y-192135050D02*
X244543648Y-192135050D01*
X121539000Y-190372901D02*
X122266001Y-191099902D01*
X159144043Y-189484000D02*
X163060934Y-189484000D01*
X244543648Y-192135050D02*
X244778559Y-192369961D01*
X122266001Y-191099902D02*
X157528141Y-191099902D01*
X164676836Y-191099902D02*
X168860770Y-191099902D01*
X170222899Y-192462031D02*
X214086170Y-192462031D01*
X157528141Y-191099902D02*
X159144043Y-189484000D01*
X227508281Y-192135050D02*
X230140311Y-189503020D01*
X163060934Y-189484000D02*
X164676836Y-191099902D01*
X168860770Y-191099902D02*
X170222899Y-192462031D01*
X214086170Y-192462031D02*
X214413151Y-192135050D01*
X266831356Y-185966040D02*
X271971761Y-185966040D01*
X214413151Y-192135050D02*
X227508281Y-192135050D01*
X230140311Y-189503020D02*
X233536690Y-189503020D01*
X233536690Y-189503020D02*
X236168720Y-192135050D01*
X260239379Y-191915951D02*
X266643300Y-185512030D01*
X244966616Y-191915951D02*
X260239379Y-191915951D01*
X272224859Y-185512030D02*
X274240285Y-187527456D01*
X244731705Y-191681040D02*
X244966616Y-191915951D01*
X236356776Y-191681040D02*
X244731705Y-191681040D01*
X266643300Y-185512030D02*
X272224859Y-185512030D01*
X157607099Y-190372901D02*
X159004000Y-188976000D01*
X214225094Y-191681040D02*
X227320226Y-191681040D01*
X159004000Y-188976000D02*
X163322000Y-188976000D01*
X170410954Y-192008021D02*
X213898113Y-192008021D01*
X213898113Y-192008021D02*
X214225094Y-191681040D01*
X163322000Y-188976000D02*
X164991892Y-190645892D01*
X169048824Y-190645892D02*
X170410954Y-192008021D01*
X145415000Y-190372901D02*
X157607099Y-190372901D01*
X164991892Y-190645892D02*
X169048824Y-190645892D01*
X227320226Y-191681040D02*
X227586179Y-191415086D01*
X227586179Y-191415086D02*
X229952255Y-189049010D01*
X233724746Y-189049010D02*
X236356776Y-191681040D01*
X229952255Y-189049010D02*
X233724746Y-189049010D01*
X272477955Y-185058020D02*
X274593838Y-187173903D01*
X260051323Y-191461941D02*
X266455244Y-185058020D01*
X245154673Y-191461941D02*
X260051323Y-191461941D01*
X266455244Y-185058020D02*
X272477955Y-185058020D01*
X244919762Y-191227030D02*
X245154673Y-191461941D01*
X236544831Y-191227030D02*
X244919762Y-191227030D01*
X229764199Y-188595000D02*
X233912802Y-188595000D01*
X227132169Y-191227030D02*
X229764199Y-188595000D01*
X214037037Y-191227030D02*
X227132169Y-191227030D01*
X233912802Y-188595000D02*
X236544831Y-191227030D01*
X213710056Y-191554011D02*
X214037037Y-191227030D01*
X170599011Y-191554011D02*
X213710056Y-191554011D01*
X168930879Y-189885879D02*
X169227500Y-190182500D01*
X165260013Y-189885879D02*
X168930879Y-189885879D01*
X169227500Y-190182500D02*
X170599011Y-191554011D01*
X272731051Y-184604010D02*
X274947391Y-186820350D01*
X178816000Y-190372901D02*
X179543100Y-191100001D01*
X213521999Y-191100001D02*
X213848980Y-190773020D01*
X213848980Y-190773020D02*
X226944114Y-190773020D01*
X229611113Y-188106020D02*
X234065888Y-188106020D01*
X179543100Y-191100001D02*
X213521999Y-191100001D01*
X236732888Y-190773020D02*
X245107819Y-190773020D01*
X226944114Y-190773020D02*
X227210067Y-190507066D01*
X259863267Y-191007931D02*
X266267188Y-184604010D01*
X227210067Y-190507066D02*
X229611113Y-188106020D01*
X234065888Y-188106020D02*
X236732888Y-190773020D01*
X245107819Y-190773020D02*
X245342730Y-191007931D01*
X245342730Y-191007931D02*
X259863267Y-191007931D01*
X266267188Y-184604010D02*
X272731051Y-184604010D01*
X272984149Y-184150000D02*
X275300945Y-186466796D01*
X259675211Y-190553921D02*
X266079132Y-184150000D01*
X266079132Y-184150000D02*
X272984149Y-184150000D01*
X245530787Y-190553921D02*
X259675211Y-190553921D01*
X245295876Y-190319010D02*
X245530787Y-190553921D01*
X234253944Y-187652010D02*
X236920944Y-190319010D01*
X229423057Y-187652010D02*
X234253944Y-187652010D01*
X213327961Y-190592001D02*
X213600952Y-190319010D01*
X226756057Y-190319010D02*
X229423057Y-187652010D01*
X198339001Y-190592001D02*
X213327961Y-190592001D01*
X236920944Y-190319010D02*
X245295876Y-190319010D01*
X213600952Y-190319010D02*
X226756057Y-190319010D01*
X198120000Y-190373000D02*
X198339001Y-190592001D01*
X259487155Y-190099911D02*
X265945066Y-183642000D01*
X245718844Y-190099911D02*
X259487155Y-190099911D01*
X273183255Y-183642000D02*
X275654498Y-186113243D01*
X237109000Y-189865000D02*
X245483933Y-189865000D01*
X234442000Y-187198000D02*
X237109000Y-189865000D01*
X245483933Y-189865000D02*
X245718844Y-190099911D01*
X229235000Y-187198000D02*
X234442000Y-187198000D01*
X226568000Y-189865000D02*
X229235000Y-187198000D01*
X265945066Y-183642000D02*
X273183255Y-183642000D01*
X212979000Y-189865000D02*
X226568000Y-189865000D01*
X273978181Y-183729819D02*
X276008052Y-185759689D01*
X273436352Y-183187990D02*
X273978181Y-183729819D01*
X265757009Y-183187990D02*
X273436352Y-183187990D01*
X259299099Y-189645901D02*
X265757009Y-183187990D01*
X245906901Y-189645901D02*
X259299099Y-189645901D01*
X233553000Y-177292000D02*
X245906901Y-189645901D01*
X274141234Y-183185766D02*
X276361605Y-185406136D01*
X273689448Y-182733980D02*
X274141234Y-183185766D01*
X265568952Y-182733980D02*
X273689448Y-182733980D01*
X263517934Y-184785000D02*
X265568952Y-182733980D01*
X250218575Y-184785000D02*
X263517934Y-184785000D01*
X272484567Y-171380433D02*
X270948433Y-172916567D01*
X272611567Y-171380433D02*
X272484567Y-171380433D01*
X273431000Y-181771253D02*
X276713744Y-185053997D01*
X273431000Y-177733250D02*
X273431000Y-181771253D01*
X282283624Y-189271875D02*
X282283624Y-189206835D01*
X283330639Y-190318890D02*
X282283624Y-189271875D01*
X285805072Y-190318890D02*
X283330639Y-190318890D01*
X288290000Y-187833962D02*
X285805072Y-190318890D01*
X288290000Y-184785000D02*
X288290000Y-187833962D01*
X312039000Y-190372901D02*
X311639001Y-190772900D01*
X283142583Y-190772900D02*
X281930071Y-189560388D01*
X311639001Y-190772900D02*
X283142583Y-190772900D01*
X342172991Y-191226910D02*
X343027000Y-190372901D01*
X282954527Y-191226910D02*
X342172991Y-191226910D01*
X281641559Y-189913942D02*
X282954527Y-191226910D01*
X281576517Y-189913942D02*
X281641559Y-189913942D01*
X282636389Y-191680920D02*
X281222964Y-190267495D01*
X356831981Y-191680920D02*
X282636389Y-191680920D01*
X358140000Y-190372901D02*
X356831981Y-191680920D01*
X282383293Y-192134930D02*
X280869411Y-190621048D01*
X360315070Y-192134930D02*
X282383293Y-192134930D01*
X362077000Y-190373000D02*
X360315070Y-192134930D01*
X381254000Y-190465000D02*
X378258222Y-190465000D01*
X376007222Y-188214000D02*
X372530778Y-188214000D01*
X378258222Y-190465000D02*
X376007222Y-188214000D01*
X372530778Y-188214000D02*
X368155838Y-192588940D01*
X280580898Y-190974602D02*
X280515857Y-190974602D01*
X282195236Y-192588940D02*
X280580898Y-190974602D01*
X368155838Y-192588940D02*
X282195236Y-192588940D01*
X378343157Y-191192001D02*
X399357900Y-191192001D01*
X399357900Y-191192001D02*
X400177000Y-190372901D01*
X368343895Y-193042950D02*
X372718834Y-188668010D01*
X282007180Y-193042950D02*
X368343895Y-193042950D01*
X372718834Y-188668010D02*
X375819166Y-188668010D01*
X281019615Y-192055385D02*
X282007180Y-193042950D01*
X375819166Y-188668010D02*
X378343157Y-191192001D01*
X280889534Y-192055385D02*
X281019615Y-192055385D01*
X280162304Y-191328155D02*
X280889534Y-192055385D01*
X281916886Y-194496951D02*
X279455197Y-192035262D01*
X283277049Y-194496951D02*
X281916886Y-194496951D01*
X368480912Y-193548000D02*
X284226000Y-193548000D01*
X375631109Y-189122020D02*
X372906891Y-189122020D01*
X378155100Y-191646011D02*
X375631109Y-189122020D01*
X284226000Y-193548000D02*
X283277049Y-194496951D01*
X372906891Y-189122020D02*
X368480912Y-193548000D01*
X398910011Y-191646011D02*
X378155100Y-191646011D01*
X400018151Y-192754151D02*
X398910011Y-191646011D01*
X419354000Y-192754151D02*
X400018151Y-192754151D01*
X281728829Y-194950961D02*
X279166683Y-192388815D01*
X279166683Y-192388815D02*
X279101644Y-192388815D01*
X283465106Y-194950961D02*
X281728829Y-194950961D01*
X284414056Y-194002010D02*
X283465106Y-194950961D01*
X368668969Y-194002010D02*
X284414056Y-194002010D01*
X373094948Y-189576030D02*
X368668969Y-194002010D01*
X377967043Y-192100021D02*
X375443052Y-189576030D01*
X375443052Y-189576030D02*
X373094948Y-189576030D01*
X398721955Y-192100021D02*
X377967043Y-192100021D01*
X400103086Y-193481152D02*
X398721955Y-192100021D01*
X438470848Y-193481152D02*
X400103086Y-193481152D01*
X444246000Y-187706000D02*
X438470848Y-193481152D01*
X212518750Y-94225000D02*
X212689651Y-94395901D01*
X231397849Y-94395901D02*
X231568750Y-94225000D01*
X212689651Y-94395901D02*
X231397849Y-94395901D01*
X312531250Y-94225000D02*
X312702151Y-94395901D01*
X312702151Y-94395901D02*
X331410349Y-94395901D01*
X331410349Y-94395901D02*
X331581250Y-94225000D01*
X169485349Y-94395901D02*
X169656250Y-94225000D01*
X150606250Y-94225000D02*
X150777151Y-94395901D01*
X150777151Y-94395901D02*
X169485349Y-94395901D01*
X297307000Y-94430802D02*
X297341901Y-94395901D01*
X293652151Y-94395901D02*
X297341901Y-94395901D01*
X297341901Y-94395901D02*
X312360349Y-94395901D01*
X188706250Y-94225000D02*
X188877151Y-94395901D01*
X188877151Y-94395901D02*
X212347849Y-94395901D01*
X293481250Y-94225000D02*
X293652151Y-94395901D01*
X312360349Y-94395901D02*
X312531250Y-94225000D01*
X212347849Y-94395901D02*
X212518750Y-94225000D01*
X131727151Y-94395901D02*
X150435349Y-94395901D01*
X131556250Y-94225000D02*
X131727151Y-94395901D01*
X150435349Y-94395901D02*
X150606250Y-94225000D01*
X393664651Y-94395901D02*
X412372849Y-94395901D01*
X393493750Y-94225000D02*
X393664651Y-94395901D01*
X412372849Y-94395901D02*
X412543750Y-94225000D01*
X431593750Y-94225000D02*
X431764651Y-94395901D01*
X431764651Y-94395901D02*
X450472849Y-94395901D01*
X450472849Y-94395901D02*
X450643750Y-94225000D01*
X250618750Y-94225000D02*
X250789651Y-94395901D01*
X250789651Y-94395901D02*
X269497849Y-94395901D01*
X269497849Y-94395901D02*
X269668750Y-94225000D01*
X393322849Y-94395901D02*
X393493750Y-94225000D01*
X350631250Y-94225000D02*
X350802151Y-94395901D01*
X412543750Y-94225000D02*
X412714651Y-94395901D01*
X374272849Y-94395901D02*
X374443750Y-94225000D01*
X374443750Y-94225000D02*
X374614651Y-94395901D01*
X350802151Y-94395901D02*
X374272849Y-94395901D01*
X412714651Y-94395901D02*
X431422849Y-94395901D01*
X374614651Y-94395901D02*
X393322849Y-94395901D01*
X431422849Y-94395901D02*
X431593750Y-94225000D01*
X269668750Y-94225000D02*
X269839651Y-94395901D01*
X231739651Y-94395901D02*
X250447849Y-94395901D01*
X250447849Y-94395901D02*
X250618750Y-94225000D01*
X231568750Y-94225000D02*
X231739651Y-94395901D01*
X169656250Y-94225000D02*
X169827151Y-94395901D01*
X169827151Y-94395901D02*
X188535349Y-94395901D01*
X188535349Y-94395901D02*
X188706250Y-94225000D01*
X331581250Y-94225000D02*
X331752151Y-94395901D01*
X331752151Y-94395901D02*
X350460349Y-94395901D01*
X350460349Y-94395901D02*
X350631250Y-94225000D01*
X131385349Y-94395901D02*
X131556250Y-94225000D01*
X107188000Y-93979000D02*
X107604901Y-94395901D01*
X107604901Y-94395901D02*
X131385349Y-94395901D01*
X271136000Y-94225000D02*
X271399000Y-94488000D01*
X269668750Y-94225000D02*
X271136000Y-94225000D01*
X281524001Y-113759961D02*
X281524001Y-104613001D01*
X281524001Y-104613001D02*
X271399000Y-94488000D01*
X272580011Y-132245011D02*
X272580011Y-122703951D01*
X277387020Y-137052020D02*
X272580011Y-132245011D01*
X277387020Y-150170434D02*
X277387020Y-137052020D01*
X287458127Y-178820246D02*
X287458127Y-160241541D01*
X287458127Y-160241541D02*
X277387020Y-150170434D01*
X280165131Y-186113243D02*
X287458127Y-178820246D01*
X272580011Y-122703951D02*
X281524001Y-113759961D01*
X280162304Y-186113243D02*
X280165131Y-186113243D01*
X293310349Y-94395901D02*
X293481250Y-94225000D01*
X271306901Y-94395901D02*
X293310349Y-94395901D01*
X271136000Y-94225000D02*
X271306901Y-94395901D01*
X374443750Y-113275000D02*
X374614651Y-113445901D01*
X374614651Y-113445901D02*
X393322849Y-113445901D01*
X393322849Y-113445901D02*
X393493750Y-113275000D01*
X184114651Y-113445901D02*
X202822849Y-113445901D01*
X222043750Y-113275000D02*
X222214651Y-113445901D01*
X222214651Y-113445901D02*
X240922849Y-113445901D01*
X240922849Y-113445901D02*
X241093750Y-113275000D01*
X431764651Y-113445901D02*
X450472849Y-113445901D01*
X450472849Y-113445901D02*
X450643750Y-113275000D01*
X183943750Y-113275000D02*
X184114651Y-113445901D01*
X202822849Y-113445901D02*
X202993750Y-113275000D01*
X431593750Y-113275000D02*
X431764651Y-113445901D01*
X145672849Y-113445901D02*
X145843750Y-113275000D01*
X126793750Y-113275000D02*
X126964651Y-113445901D01*
X126964651Y-113445901D02*
X145672849Y-113445901D01*
X126622849Y-113445901D02*
X126793750Y-113275000D01*
X107914651Y-113445901D02*
X126622849Y-113445901D01*
X107743750Y-113275000D02*
X107914651Y-113445901D01*
X336514651Y-113445901D02*
X374272849Y-113445901D01*
X336343750Y-113275000D02*
X336514651Y-113445901D01*
X374272849Y-113445901D02*
X374443750Y-113275000D01*
X412714651Y-113445901D02*
X431422849Y-113445901D01*
X431422849Y-113445901D02*
X431593750Y-113275000D01*
X412543750Y-113275000D02*
X412714651Y-113445901D01*
X298414651Y-113445901D02*
X317122849Y-113445901D01*
X317122849Y-113445901D02*
X317293750Y-113275000D01*
X145843750Y-113275000D02*
X146014651Y-113445901D01*
X298243750Y-113275000D02*
X298414651Y-113445901D01*
X279022849Y-113445901D02*
X279193750Y-113275000D01*
X164722849Y-113445901D02*
X164893750Y-113275000D01*
X260143750Y-113275000D02*
X260314651Y-113445901D01*
X260314651Y-113445901D02*
X279022849Y-113445901D01*
X146014651Y-113445901D02*
X164722849Y-113445901D01*
X393664651Y-113445901D02*
X412372849Y-113445901D01*
X412372849Y-113445901D02*
X412543750Y-113275000D01*
X393493750Y-113275000D02*
X393664651Y-113445901D01*
X165064651Y-113445901D02*
X183772849Y-113445901D01*
X298072849Y-113445901D02*
X298243750Y-113275000D01*
X183772849Y-113445901D02*
X183943750Y-113275000D01*
X279193750Y-113275000D02*
X279364651Y-113445901D01*
X164893750Y-113275000D02*
X165064651Y-113445901D01*
X241093750Y-113275000D02*
X241264651Y-113445901D01*
X241264651Y-113445901D02*
X259972849Y-113445901D01*
X259972849Y-113445901D02*
X260143750Y-113275000D01*
X317464651Y-113445901D02*
X336172849Y-113445901D01*
X221872849Y-113445901D02*
X222043750Y-113275000D01*
X317293750Y-113275000D02*
X317464651Y-113445901D01*
X202993750Y-113275000D02*
X203164651Y-113445901D01*
X203164651Y-113445901D02*
X221872849Y-113445901D01*
X336172849Y-113445901D02*
X336343750Y-113275000D01*
X280661000Y-113275000D02*
X280797000Y-113411000D01*
X279193750Y-113275000D02*
X280661000Y-113275000D01*
X280797000Y-113844896D02*
X280797000Y-113411000D01*
X272126001Y-132545935D02*
X272126002Y-122515894D01*
X276933010Y-150433944D02*
X276933010Y-137352943D01*
X276667056Y-137086990D02*
X272126001Y-132545935D01*
X286738067Y-160239001D02*
X276933010Y-150433944D01*
X276933010Y-137352943D02*
X276667056Y-137086990D01*
X287004021Y-160504954D02*
X286738067Y-160239001D01*
X272126002Y-122515894D02*
X280797000Y-113844896D01*
X279876618Y-185759689D02*
X287004021Y-178632286D01*
X287004021Y-178632286D02*
X287004021Y-160504954D01*
X279808750Y-185759689D02*
X279876618Y-185759689D01*
X297707751Y-113810999D02*
X298243750Y-113275000D01*
X282651000Y-113810999D02*
X297707751Y-113810999D01*
X282251001Y-113411000D02*
X282651000Y-113810999D01*
X307768750Y-132325000D02*
X307939651Y-132495901D01*
X326647849Y-132495901D02*
X326818750Y-132325000D01*
X307939651Y-132495901D02*
X326647849Y-132495901D01*
X269497849Y-132495901D02*
X269668750Y-132325000D01*
X250618750Y-132325000D02*
X250789651Y-132495901D01*
X250789651Y-132495901D02*
X269497849Y-132495901D01*
X393322849Y-132495901D02*
X393493750Y-132325000D01*
X374443750Y-132325000D02*
X374614651Y-132495901D01*
X374614651Y-132495901D02*
X393322849Y-132495901D01*
X231397849Y-132495901D02*
X231568750Y-132325000D01*
X212689651Y-132495901D02*
X231397849Y-132495901D01*
X212518750Y-132325000D02*
X212689651Y-132495901D01*
X174418750Y-132325000D02*
X174589651Y-132495901D01*
X174589651Y-132495901D02*
X193297849Y-132495901D01*
X193297849Y-132495901D02*
X193468750Y-132325000D01*
X155368750Y-132325000D02*
X155197849Y-132495901D01*
X155197849Y-132495901D02*
X136489651Y-132495901D01*
X136489651Y-132495901D02*
X136318750Y-132325000D01*
X412543750Y-132325000D02*
X418393750Y-138175000D01*
X418393750Y-138175000D02*
X431800000Y-138175000D01*
X288889651Y-132495901D02*
X307597849Y-132495901D01*
X117268750Y-132325000D02*
X117439651Y-132495901D01*
X288718750Y-132325000D02*
X288889651Y-132495901D01*
X155539651Y-132495901D02*
X174247849Y-132495901D01*
X136147849Y-132495901D02*
X136318750Y-132325000D01*
X117439651Y-132495901D02*
X136147849Y-132495901D01*
X307597849Y-132495901D02*
X307768750Y-132325000D01*
X174247849Y-132495901D02*
X174418750Y-132325000D01*
X193468750Y-132325000D02*
X193639651Y-132495901D01*
X193639651Y-132495901D02*
X212347849Y-132495901D01*
X212347849Y-132495901D02*
X212518750Y-132325000D01*
X155368750Y-132325000D02*
X155539651Y-132495901D01*
X346711749Y-133167999D02*
X373600751Y-133167999D01*
X373600751Y-133167999D02*
X374443750Y-132325000D01*
X250447849Y-132495901D02*
X250618750Y-132325000D01*
X231568750Y-132325000D02*
X231739651Y-132495901D01*
X231739651Y-132495901D02*
X250447849Y-132495901D01*
X345868750Y-132325000D02*
X346711749Y-133167999D01*
X326818750Y-132325000D02*
X326989651Y-132495901D01*
X326989651Y-132495901D02*
X345697849Y-132495901D01*
X345697849Y-132495901D02*
X345868750Y-132325000D01*
X393664651Y-132495901D02*
X412372849Y-132495901D01*
X393493750Y-132325000D02*
X393664651Y-132495901D01*
X412372849Y-132495901D02*
X412543750Y-132325000D01*
X288547849Y-132495901D02*
X288718750Y-132325000D01*
X269668750Y-132325000D02*
X269839651Y-132495901D01*
X271263000Y-132325000D02*
X271399000Y-132461000D01*
X269668750Y-132325000D02*
X271263000Y-132325000D01*
X276479000Y-137541000D02*
X271399000Y-132461000D01*
X286550011Y-160693011D02*
X276479000Y-150622000D01*
X286550011Y-178379188D02*
X286550011Y-160693011D01*
X279523063Y-185406136D02*
X286550011Y-178379188D01*
X276479000Y-150622000D02*
X276479000Y-137541000D01*
X279455197Y-185406136D02*
X279523063Y-185406136D01*
X288252318Y-132791432D02*
X288718750Y-132325000D01*
X274154566Y-132791432D02*
X288252318Y-132791432D01*
X273754567Y-132391433D02*
X274154566Y-132791432D01*
X293481250Y-151399750D02*
X293481250Y-151375000D01*
X141252151Y-151545901D02*
X159960349Y-151545901D01*
X141081250Y-151375000D02*
X141252151Y-151545901D01*
X159960349Y-151545901D02*
X160131250Y-151375000D01*
X375506250Y-147637500D02*
X375506250Y-142081250D01*
X312702151Y-151545901D02*
X331410349Y-151545901D01*
X331410349Y-151545901D02*
X331581250Y-151375000D01*
X312531250Y-151375000D02*
X312702151Y-151545901D01*
X431800000Y-144525000D02*
X437769000Y-144525000D01*
X122031250Y-151375000D02*
X122202151Y-151545901D01*
X437769000Y-144525000D02*
X438658000Y-145414000D01*
X122202151Y-151545901D02*
X140910349Y-151545901D01*
X140910349Y-151545901D02*
X141081250Y-151375000D01*
X179010349Y-151545901D02*
X179181250Y-151375000D01*
X160302151Y-151545901D02*
X179010349Y-151545901D01*
X160131250Y-151375000D02*
X160302151Y-151545901D01*
X331581250Y-151375000D02*
X334165151Y-153958901D01*
X375506250Y-149393732D02*
X375506250Y-147637500D01*
X334165151Y-153958901D02*
X370941081Y-153958901D01*
X370941081Y-153958901D02*
X375506250Y-149393732D01*
X179181250Y-151375000D02*
X179352151Y-151545901D01*
X179352151Y-151545901D02*
X198060349Y-151545901D01*
X198060349Y-151545901D02*
X198231250Y-151375000D01*
X217452151Y-151545901D02*
X236160349Y-151545901D01*
X236160349Y-151545901D02*
X236331250Y-151375000D01*
X217281250Y-151375000D02*
X217452151Y-151545901D01*
X375506250Y-142081250D02*
X376777250Y-142081250D01*
X377444000Y-142748000D02*
X377444000Y-148559212D01*
X377444000Y-148559212D02*
X380430689Y-151545901D01*
X376777250Y-142081250D02*
X377444000Y-142748000D01*
X393322849Y-151545901D02*
X393493750Y-151375000D01*
X380430689Y-151545901D02*
X393322849Y-151545901D01*
X198402151Y-151545901D02*
X217110349Y-151545901D01*
X198231250Y-151375000D02*
X198402151Y-151545901D01*
X217110349Y-151545901D02*
X217281250Y-151375000D01*
X255210349Y-151545901D02*
X255381250Y-151375000D01*
X236502151Y-151545901D02*
X255210349Y-151545901D01*
X236331250Y-151375000D02*
X236502151Y-151545901D01*
X293652151Y-151545901D02*
X312360349Y-151545901D01*
X312360349Y-151545901D02*
X312531250Y-151375000D01*
X255552151Y-151545901D02*
X274260349Y-151545901D01*
X274260349Y-151545901D02*
X274431250Y-151375000D01*
X293481250Y-151375000D02*
X293652151Y-151545901D01*
X255381250Y-151375000D02*
X255552151Y-151545901D01*
X393493750Y-151375000D02*
X393664651Y-151545901D01*
X393664651Y-151545901D02*
X412372849Y-151545901D01*
X412372849Y-151545901D02*
X412543750Y-151375000D01*
X427606811Y-151545901D02*
X431800000Y-147352712D01*
X431800000Y-147352712D02*
X431800000Y-144525000D01*
X412714651Y-151545901D02*
X427606811Y-151545901D01*
X412543750Y-151375000D02*
X412714651Y-151545901D01*
X293310349Y-151545901D02*
X293481250Y-151375000D01*
X274431250Y-151375000D02*
X274602151Y-151545901D01*
X276089000Y-151375000D02*
X276098000Y-151384000D01*
X274431250Y-151375000D02*
X276089000Y-151375000D01*
X276598934Y-151384000D02*
X276098000Y-151384000D01*
X286096001Y-160881067D02*
X276598934Y-151384000D01*
X286096001Y-178126092D02*
X286096001Y-160881067D01*
X279169510Y-185052583D02*
X286096001Y-178126092D01*
X279101644Y-185052583D02*
X279169510Y-185052583D01*
X292996111Y-151860139D02*
X293481250Y-151375000D01*
X280104859Y-151860139D02*
X292996111Y-151860139D01*
X279704860Y-151460140D02*
X280104859Y-151860139D01*
X150435349Y-170595901D02*
X150606250Y-170425000D01*
X131556250Y-170425000D02*
X131727151Y-170595901D01*
X131727151Y-170595901D02*
X150435349Y-170595901D01*
X374614651Y-170595901D02*
X393322849Y-170595901D01*
X355222849Y-170595901D02*
X355393750Y-170425000D01*
X322227151Y-170595901D02*
X355222849Y-170595901D01*
X374443750Y-170425000D02*
X374614651Y-170595901D01*
X393322849Y-170595901D02*
X393493750Y-170425000D01*
X322056250Y-170425000D02*
X322227151Y-170595901D01*
X374272849Y-170595901D02*
X374443750Y-170425000D01*
X412372849Y-170595901D02*
X412543750Y-170425000D01*
X393493750Y-170425000D02*
X393664651Y-170595901D01*
X355393750Y-170425000D02*
X355564651Y-170595901D01*
X393664651Y-170595901D02*
X412372849Y-170595901D01*
X355564651Y-170595901D02*
X374272849Y-170595901D01*
X226977151Y-170595901D02*
X245685349Y-170595901D01*
X245685349Y-170595901D02*
X245856250Y-170425000D01*
X226806250Y-170425000D02*
X226977151Y-170595901D01*
X418393750Y-176275000D02*
X431800000Y-176275000D01*
X226635349Y-170595901D02*
X207927151Y-170595901D01*
X226806250Y-170425000D02*
X226635349Y-170595901D01*
X412543750Y-170425000D02*
X418393750Y-176275000D01*
X207927151Y-170595901D02*
X207756250Y-170425000D01*
X245856250Y-170425000D02*
X246027151Y-170595901D01*
X264735349Y-170595901D02*
X264906250Y-170425000D01*
X246027151Y-170595901D02*
X264735349Y-170595901D01*
X283785349Y-170595901D02*
X283956250Y-170425000D01*
X264906250Y-170425000D02*
X265077151Y-170595901D01*
X188877151Y-170595901D02*
X207585349Y-170595901D01*
X188706250Y-170425000D02*
X188877151Y-170595901D01*
X207585349Y-170595901D02*
X207756250Y-170425000D01*
X303006250Y-170425000D02*
X303177151Y-170595901D01*
X321885349Y-170595901D02*
X322056250Y-170425000D01*
X303177151Y-170595901D02*
X321885349Y-170595901D01*
X169656250Y-170425000D02*
X169485349Y-170595901D01*
X169485349Y-170595901D02*
X150777151Y-170595901D01*
X150777151Y-170595901D02*
X150606250Y-170425000D01*
X169827151Y-170595901D02*
X188535349Y-170595901D01*
X188535349Y-170595901D02*
X188706250Y-170425000D01*
X169656250Y-170425000D02*
X169827151Y-170595901D01*
X128150000Y-173831250D02*
X131556250Y-170425000D01*
X111187500Y-173831250D02*
X128150000Y-173831250D01*
X281432000Y-170630802D02*
X281397099Y-170595901D01*
X281397099Y-170595901D02*
X283785349Y-170595901D01*
X265077151Y-170595901D02*
X281397099Y-170595901D01*
X302835349Y-170595901D02*
X303006250Y-170425000D01*
X283956250Y-170425000D02*
X284127151Y-170595901D01*
X285233000Y-170425000D02*
X285369000Y-170561000D01*
X283956250Y-170425000D02*
X285233000Y-170425000D01*
X302997250Y-170434000D02*
X303006250Y-170425000D01*
X278748090Y-184674910D02*
X285641991Y-177781009D01*
X278748090Y-184699029D02*
X278748090Y-184674910D01*
X285641991Y-170833991D02*
X285369000Y-170561000D01*
X285641991Y-177781009D02*
X285641991Y-170833991D01*
X302470251Y-170960999D02*
X303006250Y-170425000D01*
X288585126Y-170960999D02*
X302470251Y-170960999D01*
X288185127Y-170561000D02*
X288585126Y-170960999D01*
X136147849Y-189645901D02*
X136318750Y-189475000D01*
X112677151Y-189645901D02*
X136147849Y-189645901D01*
X112506250Y-189475000D02*
X112677151Y-189645901D01*
X155158099Y-189645901D02*
X159893000Y-184911000D01*
X136489651Y-189645901D02*
X155158099Y-189645901D01*
X136318750Y-189475000D02*
X136489651Y-189645901D01*
X202822849Y-189645901D02*
X202993750Y-189475000D01*
X171103901Y-189645901D02*
X202822849Y-189645901D01*
X216064750Y-176404000D02*
X220853000Y-176404000D01*
X202993750Y-189475000D02*
X216064750Y-176404000D01*
X220853000Y-176404000D02*
X279019000Y-176404000D01*
X326647849Y-189645901D02*
X326818750Y-189475000D01*
X303177151Y-189645901D02*
X326647849Y-189645901D01*
X303006250Y-189475000D02*
X303177151Y-189645901D01*
X355222849Y-189645901D02*
X355393750Y-189475000D01*
X326989651Y-189645901D02*
X355222849Y-189645901D01*
X326818750Y-189475000D02*
X326989651Y-189645901D01*
X370456811Y-189645901D02*
X374269000Y-185833712D01*
X355564651Y-189645901D02*
X370456811Y-189645901D01*
X374269000Y-185833712D02*
X374269000Y-184657000D01*
X355393750Y-189475000D02*
X355564651Y-189645901D01*
X374269000Y-185833712D02*
X378173288Y-189738000D01*
X393230750Y-189738000D02*
X393493750Y-189475000D01*
X378173288Y-189738000D02*
X393230750Y-189738000D01*
X393664651Y-189645901D02*
X412372849Y-189645901D01*
X412372849Y-189645901D02*
X412543750Y-189475000D01*
X393493750Y-189475000D02*
X393664651Y-189645901D01*
X431800000Y-185452712D02*
X431800000Y-182625000D01*
X425225561Y-192027151D02*
X431800000Y-185452712D01*
X415095901Y-192027151D02*
X425225561Y-192027151D01*
X412543750Y-189475000D02*
X415095901Y-192027151D01*
X436245000Y-182625000D02*
X437896000Y-184276000D01*
X431800000Y-182625000D02*
X436245000Y-182625000D01*
X279019000Y-176404000D02*
X280796000Y-176404000D01*
X280796000Y-181944013D02*
X280796000Y-176404000D01*
X278394537Y-184345476D02*
X280796000Y-181944013D01*
X281052000Y-176404000D02*
X283210000Y-178562000D01*
X280796000Y-176404000D02*
X281052000Y-176404000D01*
X291655019Y-183578981D02*
X297551038Y-189475000D01*
X297551038Y-189475000D02*
X303006250Y-189475000D01*
X291655019Y-183578019D02*
X291655019Y-183578981D01*
X289941000Y-181864000D02*
X291655019Y-183578019D01*
X159893000Y-184911000D02*
X161595131Y-184911000D01*
X170889869Y-189431869D02*
X171103901Y-189645901D01*
X166116000Y-189431869D02*
X170889869Y-189431869D01*
X161595131Y-184911000D02*
X166116000Y-189431869D01*
X101758750Y-86995000D02*
X101758750Y-89058750D01*
X103379000Y-90679000D02*
X107188000Y-90679000D01*
X101758750Y-89058750D02*
X103379000Y-90679000D01*
X125571250Y-86995000D02*
X125571250Y-89058750D01*
X125571250Y-89058750D02*
X127000000Y-90487500D01*
X131118750Y-90487500D02*
X131556250Y-90925000D01*
X127000000Y-90487500D02*
X131118750Y-90487500D01*
X146676250Y-86995000D02*
X150606250Y-90925000D01*
X144621250Y-86995000D02*
X146676250Y-86995000D01*
X165726250Y-86995000D02*
X169656250Y-90925000D01*
X163671250Y-86995000D02*
X165726250Y-86995000D01*
X184776250Y-86995000D02*
X188706250Y-90925000D01*
X182721250Y-86995000D02*
X184776250Y-86995000D01*
X208588750Y-86995000D02*
X212518750Y-90925000D01*
X206533750Y-86995000D02*
X208588750Y-86995000D01*
X227638750Y-86995000D02*
X231568750Y-90925000D01*
X225583750Y-86995000D02*
X227638750Y-86995000D01*
X246688750Y-86995000D02*
X250618750Y-90925000D01*
X244633750Y-86995000D02*
X246688750Y-86995000D01*
X265738750Y-86995000D02*
X269668750Y-90925000D01*
X263683750Y-86995000D02*
X265738750Y-86995000D01*
X289551250Y-86995000D02*
X293481250Y-90925000D01*
X287496250Y-86995000D02*
X289551250Y-86995000D01*
X308601250Y-86995000D02*
X312531250Y-90925000D01*
X306546250Y-86995000D02*
X308601250Y-86995000D01*
X327651250Y-86995000D02*
X331581250Y-90925000D01*
X325596250Y-86995000D02*
X327651250Y-86995000D01*
X346701250Y-86995000D02*
X350631250Y-90925000D01*
X344646250Y-86995000D02*
X346701250Y-86995000D01*
X370513750Y-86995000D02*
X374443750Y-90925000D01*
X368458750Y-86995000D02*
X370513750Y-86995000D01*
X389563750Y-86995000D02*
X393493750Y-90925000D01*
X387508750Y-86995000D02*
X389563750Y-86995000D01*
X408613750Y-86995000D02*
X412543750Y-90925000D01*
X406558750Y-86995000D02*
X408613750Y-86995000D01*
X427663750Y-86995000D02*
X431593750Y-90925000D01*
X425608750Y-86995000D02*
X427663750Y-86995000D01*
X446713750Y-86995000D02*
X450643750Y-90925000D01*
X444658750Y-86995000D02*
X446713750Y-86995000D01*
X103813750Y-106045000D02*
X107743750Y-109975000D01*
X101758750Y-106045000D02*
X103813750Y-106045000D01*
X122863750Y-106045000D02*
X126793750Y-109975000D01*
X120808750Y-106045000D02*
X122863750Y-106045000D01*
X141913750Y-106045000D02*
X145843750Y-109975000D01*
X139858750Y-106045000D02*
X141913750Y-106045000D01*
X160963750Y-106045000D02*
X164893750Y-109975000D01*
X158908750Y-106045000D02*
X160963750Y-106045000D01*
X180013750Y-106045000D02*
X183943750Y-109975000D01*
X177958750Y-106045000D02*
X180013750Y-106045000D01*
X199063750Y-106045000D02*
X202993750Y-109975000D01*
X197008750Y-106045000D02*
X199063750Y-106045000D01*
X218113750Y-106045000D02*
X222043750Y-109975000D01*
X216058750Y-106045000D02*
X218113750Y-106045000D01*
X237163750Y-106045000D02*
X241093750Y-109975000D01*
X235108750Y-106045000D02*
X237163750Y-106045000D01*
X256213750Y-106045000D02*
X260143750Y-109975000D01*
X254158750Y-106045000D02*
X256213750Y-106045000D01*
X275263750Y-106045000D02*
X279193750Y-109975000D01*
X273208750Y-106045000D02*
X275263750Y-106045000D01*
X294313750Y-106045000D02*
X298243750Y-109975000D01*
X292258750Y-106045000D02*
X294313750Y-106045000D01*
X313363750Y-106045000D02*
X317293750Y-109975000D01*
X311308750Y-106045000D02*
X313363750Y-106045000D01*
X332413750Y-106045000D02*
X336343750Y-109975000D01*
X330358750Y-106045000D02*
X332413750Y-106045000D01*
X358933750Y-106045000D02*
X362426250Y-109537500D01*
X374006250Y-109537500D02*
X374443750Y-109975000D01*
X362426250Y-109537500D02*
X374006250Y-109537500D01*
X389563750Y-106045000D02*
X393493750Y-109975000D01*
X387508750Y-106045000D02*
X389563750Y-106045000D01*
X408613750Y-106045000D02*
X412543750Y-109975000D01*
X406558750Y-106045000D02*
X408613750Y-106045000D01*
X427663750Y-106045000D02*
X431593750Y-109975000D01*
X425608750Y-106045000D02*
X427663750Y-106045000D01*
X446713750Y-106045000D02*
X450643750Y-109975000D01*
X444658750Y-106045000D02*
X446713750Y-106045000D01*
X113338750Y-125095000D02*
X117268750Y-129025000D01*
X106521250Y-125095000D02*
X113338750Y-125095000D01*
X132388750Y-125095000D02*
X136318750Y-129025000D01*
X130333750Y-125095000D02*
X132388750Y-125095000D01*
X151438750Y-125095000D02*
X155368750Y-129025000D01*
X149383750Y-125095000D02*
X151438750Y-125095000D01*
X170488750Y-125095000D02*
X174418750Y-129025000D01*
X168433750Y-125095000D02*
X170488750Y-125095000D01*
X189538750Y-125095000D02*
X193468750Y-129025000D01*
X187483750Y-125095000D02*
X189538750Y-125095000D01*
X208588750Y-125095000D02*
X212518750Y-129025000D01*
X206533750Y-125095000D02*
X208588750Y-125095000D01*
X227638750Y-125095000D02*
X231568750Y-129025000D01*
X225583750Y-125095000D02*
X227638750Y-125095000D01*
X246688750Y-125095000D02*
X250618750Y-129025000D01*
X244633750Y-125095000D02*
X246688750Y-125095000D01*
X265738750Y-125095000D02*
X269668750Y-129025000D01*
X263683750Y-125095000D02*
X265738750Y-125095000D01*
X284788750Y-125095000D02*
X288718750Y-129025000D01*
X282733750Y-125095000D02*
X284788750Y-125095000D01*
X303838750Y-125095000D02*
X307768750Y-129025000D01*
X301783750Y-125095000D02*
X303838750Y-125095000D01*
X322888750Y-125095000D02*
X326818750Y-129025000D01*
X320833750Y-125095000D02*
X322888750Y-125095000D01*
X341938750Y-125095000D02*
X345868750Y-129025000D01*
X339883750Y-125095000D02*
X341938750Y-125095000D01*
X363696250Y-125095000D02*
X373538750Y-125095000D01*
X374443750Y-126000000D02*
X374443750Y-129025000D01*
X373538750Y-125095000D02*
X374443750Y-126000000D01*
X389563750Y-125095000D02*
X393493750Y-129025000D01*
X387508750Y-125095000D02*
X389563750Y-125095000D01*
X408613750Y-125095000D02*
X412543750Y-129025000D01*
X406558750Y-125095000D02*
X408613750Y-125095000D01*
X431800000Y-131286250D02*
X431800000Y-134875000D01*
X425608750Y-125095000D02*
X431800000Y-131286250D01*
X118101250Y-144145000D02*
X122031250Y-148075000D01*
X108902500Y-144145000D02*
X118101250Y-144145000D01*
X104140000Y-144145000D02*
X108902500Y-144145000D01*
X137151250Y-144145000D02*
X141081250Y-148075000D01*
X135096250Y-144145000D02*
X137151250Y-144145000D01*
X156201250Y-144145000D02*
X160131250Y-148075000D01*
X154146250Y-144145000D02*
X156201250Y-144145000D01*
X175251250Y-144145000D02*
X179181250Y-148075000D01*
X173196250Y-144145000D02*
X175251250Y-144145000D01*
X194301250Y-144145000D02*
X198231250Y-148075000D01*
X192246250Y-144145000D02*
X194301250Y-144145000D01*
X213351250Y-144145000D02*
X217281250Y-148075000D01*
X211296250Y-144145000D02*
X213351250Y-144145000D01*
X232401250Y-144145000D02*
X236331250Y-148075000D01*
X230346250Y-144145000D02*
X232401250Y-144145000D01*
X251451250Y-144145000D02*
X255381250Y-148075000D01*
X249396250Y-144145000D02*
X251451250Y-144145000D01*
X270501250Y-144145000D02*
X274431250Y-148075000D01*
X268446250Y-144145000D02*
X270501250Y-144145000D01*
X289551250Y-144145000D02*
X293481250Y-148075000D01*
X287496250Y-144145000D02*
X289551250Y-144145000D01*
X308601250Y-144145000D02*
X312531250Y-148075000D01*
X306546250Y-144145000D02*
X308601250Y-144145000D01*
X327651250Y-144145000D02*
X331581250Y-148075000D01*
X325596250Y-144145000D02*
X327651250Y-144145000D01*
X360045000Y-147637500D02*
X356552500Y-144145000D01*
X372206250Y-147637500D02*
X360045000Y-147637500D01*
X344646250Y-144145000D02*
X356552500Y-144145000D01*
X389563750Y-144145000D02*
X393493750Y-148075000D01*
X387508750Y-144145000D02*
X389563750Y-144145000D01*
X408613750Y-144145000D02*
X412543750Y-148075000D01*
X406558750Y-144145000D02*
X408613750Y-144145000D01*
X428528750Y-141225000D02*
X425608750Y-144145000D01*
X431800000Y-141225000D02*
X428528750Y-141225000D01*
X438658000Y-142114000D02*
X439770250Y-142114000D01*
X439770250Y-142114000D02*
X440531250Y-142875000D01*
X446563750Y-142875000D02*
X447198750Y-142240000D01*
X440531250Y-142875000D02*
X446563750Y-142875000D01*
X131556250Y-167125000D02*
X129501250Y-167125000D01*
X113665000Y-163195000D02*
X120332500Y-163195000D01*
X122396250Y-165258750D02*
X127635000Y-165258750D01*
X120332500Y-163195000D02*
X122396250Y-165258750D01*
X127635000Y-165258750D02*
X125571250Y-163195000D01*
X129501250Y-167125000D02*
X127635000Y-165258750D01*
X146676250Y-163195000D02*
X150606250Y-167125000D01*
X144621250Y-163195000D02*
X146676250Y-163195000D01*
X165726250Y-163195000D02*
X169656250Y-167125000D01*
X163671250Y-163195000D02*
X165726250Y-163195000D01*
X184776250Y-163195000D02*
X188706250Y-167125000D01*
X182721250Y-163195000D02*
X184776250Y-163195000D01*
X203826250Y-163195000D02*
X207756250Y-167125000D01*
X201771250Y-163195000D02*
X203826250Y-163195000D01*
X222876250Y-163195000D02*
X226806250Y-167125000D01*
X220821250Y-163195000D02*
X222876250Y-163195000D01*
X241926250Y-163195000D02*
X245856250Y-167125000D01*
X239871250Y-163195000D02*
X241926250Y-163195000D01*
X260976250Y-163195000D02*
X264906250Y-167125000D01*
X258921250Y-163195000D02*
X260976250Y-163195000D01*
X277971250Y-163195000D02*
X277971250Y-165957250D01*
X277971250Y-165957250D02*
X279086999Y-167072999D01*
X283904249Y-167072999D02*
X283956250Y-167125000D01*
X279086999Y-167072999D02*
X283904249Y-167072999D01*
X299076250Y-163195000D02*
X303006250Y-167125000D01*
X297021250Y-163195000D02*
X299076250Y-163195000D01*
X318126250Y-163195000D02*
X322056250Y-167125000D01*
X316071250Y-163195000D02*
X318126250Y-163195000D01*
X351463750Y-163195000D02*
X355393750Y-167125000D01*
X342265000Y-163195000D02*
X351463750Y-163195000D01*
X370513750Y-163195000D02*
X374443750Y-167125000D01*
X368458750Y-163195000D02*
X370513750Y-163195000D01*
X389563750Y-163195000D02*
X393493750Y-167125000D01*
X387508750Y-163195000D02*
X389563750Y-163195000D01*
X408613750Y-163195000D02*
X412543750Y-167125000D01*
X406558750Y-163195000D02*
X408613750Y-163195000D01*
X431800000Y-169386250D02*
X431800000Y-172975000D01*
X425608750Y-163195000D02*
X431800000Y-169386250D01*
X108576250Y-182245000D02*
X112506250Y-186175000D01*
X104140000Y-182245000D02*
X108576250Y-182245000D01*
X132388750Y-182245000D02*
X136318750Y-186175000D01*
X127952500Y-182245000D02*
X132388750Y-182245000D01*
X159259000Y-182245000D02*
X159893000Y-181611000D01*
X151765000Y-182245000D02*
X159259000Y-182245000D01*
X185102500Y-182245000D02*
X188468000Y-182245000D01*
X192398000Y-186175000D02*
X202993750Y-186175000D01*
X188468000Y-182245000D02*
X192398000Y-186175000D01*
X279019000Y-179704000D02*
X278922750Y-179704000D01*
X278922750Y-179704000D02*
X276225000Y-177006250D01*
X261807325Y-177006250D02*
X256568575Y-182245000D01*
X276225000Y-177006250D02*
X261807325Y-177006250D01*
X299076250Y-182245000D02*
X303006250Y-186175000D01*
X294640000Y-182245000D02*
X299076250Y-182245000D01*
X322888750Y-182245000D02*
X326818750Y-186175000D01*
X318452500Y-182245000D02*
X322888750Y-182245000D01*
X351463750Y-182245000D02*
X355393750Y-186175000D01*
X349408750Y-182245000D02*
X351463750Y-182245000D01*
X373381000Y-182245000D02*
X374269000Y-181357000D01*
X368458750Y-182245000D02*
X373381000Y-182245000D01*
X389563750Y-182245000D02*
X393493750Y-186175000D01*
X387508750Y-182245000D02*
X389563750Y-182245000D01*
X408613750Y-182245000D02*
X412543750Y-186175000D01*
X406558750Y-182245000D02*
X408613750Y-182245000D01*
X428880000Y-182245000D02*
X431800000Y-179325000D01*
X425608750Y-182245000D02*
X428880000Y-182245000D01*
X446562750Y-180976000D02*
X447198750Y-180340000D01*
X437896000Y-180976000D02*
X446562750Y-180976000D01*
D23*
X276504500Y-182845950D02*
X276716350Y-183057800D01*
X276504500Y-181610000D02*
X276504500Y-182845950D01*
X283752050Y-187223500D02*
X283521150Y-187454400D01*
X284892750Y-187223500D02*
X283752050Y-187223500D01*
X279200750Y-193902135D02*
X278394537Y-193095922D01*
X279200750Y-194437000D02*
X279200750Y-193902135D01*
X93176050Y-129506800D02*
X93590250Y-129921000D01*
X93176050Y-128355600D02*
X93176050Y-129506800D01*
X91566550Y-129506800D02*
X90773250Y-128713500D01*
X93176050Y-129506800D02*
X91566550Y-129506800D01*
X279200750Y-195398250D02*
X279146000Y-195453000D01*
X279200750Y-194437000D02*
X279200750Y-195398250D01*
X284892750Y-188245750D02*
X284988000Y-188341000D01*
X284892750Y-187223500D02*
X284892750Y-188245750D01*
X276504500Y-181127500D02*
X275844000Y-180467000D01*
X276504500Y-181610000D02*
X276504500Y-181127500D01*
X276716350Y-183632759D02*
X277425666Y-184342075D01*
X276716350Y-183057800D02*
X276716350Y-183632759D01*
X283070589Y-187454400D02*
X282287025Y-188237964D01*
X283521150Y-187454400D02*
X283070589Y-187454400D01*
X94742000Y-163074290D02*
X94742000Y-188077463D01*
X96647000Y-161169290D02*
X94742000Y-163074290D01*
X92689492Y-152839400D02*
X96647000Y-156796908D01*
X92393780Y-152543689D02*
X92689492Y-152839400D01*
X93590250Y-130564750D02*
X92393780Y-131761220D01*
X96647000Y-156796908D02*
X96647000Y-161169290D01*
X93590250Y-129921000D02*
X93590250Y-130564750D01*
X93726000Y-148742500D02*
X93726000Y-149987000D01*
X92393780Y-149287220D02*
X92393780Y-148781780D01*
X91694000Y-149987000D02*
X92393780Y-149287220D01*
X92393780Y-148781780D02*
X92393780Y-152543689D01*
X92393780Y-131761220D02*
X92393780Y-148781780D01*
X94742000Y-188770056D02*
X97575472Y-191603528D01*
X94742000Y-188077463D02*
X94742000Y-188770056D01*
X271430750Y-190345200D02*
X272624550Y-190345200D01*
X274216320Y-190638211D02*
X274590437Y-190264094D01*
X273847452Y-190638211D02*
X274216320Y-190638211D01*
X273554441Y-190345200D02*
X273847452Y-190638211D01*
X272624550Y-190345200D02*
X273554441Y-190345200D01*
X270744541Y-189658991D02*
X270256000Y-189658991D01*
X271430750Y-190345200D02*
X270744541Y-189658991D01*
X90896000Y-133259000D02*
X92393780Y-131761220D01*
X88825000Y-133259000D02*
X90896000Y-133259000D01*
X90773250Y-125413500D02*
X90773250Y-125380750D01*
X94098250Y-126327800D02*
X94126050Y-126355600D01*
X91472750Y-124714000D02*
X90773250Y-125413500D01*
X92710000Y-124714000D02*
X91472750Y-124714000D01*
X92710000Y-124939550D02*
X94126050Y-126355600D01*
X92710000Y-124714000D02*
X92710000Y-124939550D01*
X92710000Y-124714000D02*
X93218000Y-124714000D01*
X95373386Y-114890098D02*
X91440000Y-110956712D01*
X91440000Y-110956712D02*
X91440000Y-87551500D01*
X95373386Y-121027386D02*
X95373386Y-114890098D01*
X92710000Y-124714000D02*
X93726000Y-124714000D01*
X95373386Y-122558614D02*
X95373386Y-121669614D01*
X95373386Y-121669614D02*
X95373386Y-121027386D01*
X93218000Y-124714000D02*
X95373386Y-122558614D01*
X95373386Y-122431614D02*
X95373386Y-121669614D01*
X93853000Y-124841000D02*
X93726000Y-124714000D01*
X94098250Y-124841000D02*
X93853000Y-124841000D01*
D24*
X101720650Y-82321300D02*
X100069650Y-82321300D01*
X101872950Y-82169000D02*
X101720650Y-82321300D01*
X104521000Y-82169000D02*
X101872950Y-82169000D01*
X93726000Y-147167500D02*
X93726000Y-146597000D01*
X94190000Y-146133000D02*
X95325000Y-144998000D01*
X93726000Y-146597000D02*
X94190000Y-146133000D01*
X93726000Y-151003000D02*
X93726000Y-150876000D01*
X94291685Y-151003000D02*
X93726000Y-151003000D01*
X94742000Y-150552685D02*
X94291685Y-151003000D01*
X94742000Y-146685000D02*
X94742000Y-150552685D01*
X94190000Y-146133000D02*
X94742000Y-146685000D01*
X270534213Y-191937210D02*
X270256000Y-191658997D01*
X274338337Y-191937210D02*
X270534213Y-191937210D01*
X275300945Y-190974602D02*
X274338337Y-191937210D01*
X97474500Y-137759000D02*
X97536000Y-137820500D01*
X96611000Y-145715038D02*
X95196010Y-147130028D01*
X96611000Y-137759000D02*
X96611000Y-145715038D01*
X95325000Y-137759000D02*
X96611000Y-137759000D01*
X96611000Y-137759000D02*
X97474500Y-137759000D01*
X93853998Y-152082754D02*
X93777619Y-152082754D01*
X95196010Y-150740742D02*
X93853998Y-152082754D01*
X95196010Y-147130028D02*
X95196010Y-150740742D01*
X270261210Y-192664210D02*
X270256000Y-192659000D01*
X281896992Y-193769951D02*
X282575000Y-193769951D01*
X279808750Y-191681709D02*
X281896992Y-193769951D01*
X275336000Y-192659000D02*
X270256000Y-192659000D01*
X109875000Y-84644000D02*
X109875000Y-83101250D01*
X109048000Y-85471000D02*
X109875000Y-84644000D01*
X108610500Y-85471000D02*
X109048000Y-85471000D01*
X112875000Y-84706500D02*
X112875000Y-83101250D01*
X113639500Y-85471000D02*
X112875000Y-84706500D01*
X113708000Y-89365000D02*
X112075000Y-89365000D01*
X119507000Y-83566000D02*
X113708000Y-89365000D01*
X287241961Y-181575001D02*
X287909000Y-180907962D01*
X287909000Y-180907962D02*
X287909000Y-180848000D01*
X286808065Y-181575001D02*
X287241961Y-181575001D01*
X282534477Y-185848589D02*
X286808065Y-181575001D01*
X282534477Y-185862390D02*
X282534477Y-185848589D01*
X281222964Y-187173903D02*
X282534477Y-185862390D01*
X280920650Y-186820350D02*
X286893000Y-180848000D01*
X280869411Y-186820350D02*
X280920650Y-186820350D01*
X113982372Y-90222001D02*
X119648421Y-84555952D01*
X110175000Y-90149000D02*
X110248001Y-90222001D01*
X110248001Y-90222001D02*
X113982372Y-90222001D01*
X110175000Y-89365000D02*
X110175000Y-90149000D01*
X220853000Y-179832000D02*
X218440000Y-182245000D01*
X220853000Y-179704000D02*
X220853000Y-179832000D01*
X220853000Y-179895500D02*
X223202500Y-182245000D01*
X220853000Y-179704000D02*
X220853000Y-179895500D01*
D23*
X108675000Y-83910572D02*
X108675000Y-83101250D01*
X111125000Y-87999800D02*
X111125000Y-87165000D01*
X111077399Y-88047401D02*
X111125000Y-87999800D01*
X108610500Y-87884000D02*
X108773901Y-88047401D01*
X108675000Y-82291928D02*
X108675000Y-83101250D01*
X109397089Y-81569839D02*
X108675000Y-82291928D01*
X112852911Y-81569839D02*
X109397089Y-81569839D01*
X113575000Y-82291928D02*
X112852911Y-81569839D01*
X113575000Y-83101250D02*
X113575000Y-82291928D01*
X95806500Y-85676500D02*
X95885000Y-85598000D01*
X91440000Y-85676500D02*
X95806500Y-85676500D01*
X107783090Y-88711410D02*
X108610500Y-87884000D01*
X106580166Y-88711410D02*
X107783090Y-88711410D01*
X103066757Y-85198001D02*
X106580166Y-88711410D01*
X98951999Y-85198001D02*
X103066757Y-85198001D01*
X98552000Y-85598000D02*
X98951999Y-85198001D01*
X109474000Y-86614000D02*
X109474000Y-87956802D01*
X105947446Y-86614000D02*
X109474000Y-86614000D01*
X105165599Y-85832153D02*
X105947446Y-86614000D01*
X105165599Y-85109847D02*
X105165599Y-85832153D01*
X108162460Y-84643590D02*
X105631856Y-84643590D01*
X108675000Y-84131050D02*
X108162460Y-84643590D01*
X105631856Y-84643590D02*
X105165599Y-85109847D01*
X108675000Y-83101250D02*
X108675000Y-84131050D01*
X109383401Y-88047401D02*
X111077399Y-88047401D01*
X109474000Y-87956802D02*
X109383401Y-88047401D01*
X108773901Y-88047401D02*
X109383401Y-88047401D01*
D24*
X111875000Y-84080250D02*
X111995750Y-84201000D01*
X111875000Y-83101250D02*
X111875000Y-84080250D01*
X111995750Y-87085750D02*
X112075000Y-87165000D01*
X111995750Y-84201000D02*
X111995750Y-87085750D01*
X111875000Y-82137648D02*
X111875000Y-83101250D01*
X111786601Y-82049249D02*
X111875000Y-82137648D01*
X110963399Y-82049249D02*
X111786601Y-82049249D01*
X110875000Y-82137648D02*
X110963399Y-82049249D01*
X110875000Y-83101250D02*
X110875000Y-82137648D01*
X110375000Y-84062000D02*
X110375000Y-83101250D01*
X111375000Y-84064852D02*
X111177852Y-84262000D01*
X111375000Y-83101250D02*
X111375000Y-84064852D01*
X110424000Y-84262000D02*
X110375000Y-84213000D01*
X111177852Y-84262000D02*
X110424000Y-84262000D01*
X110375000Y-83101250D02*
X110375000Y-84213000D01*
X110375000Y-86965000D02*
X110175000Y-87165000D01*
X110375000Y-84213000D02*
X110375000Y-86965000D01*
X372206250Y-140748750D02*
X366077500Y-134620000D01*
X372206250Y-142081250D02*
X372206250Y-140748750D01*
X107887500Y-173831250D02*
X107887500Y-173768750D01*
X104140000Y-170021250D02*
X104140000Y-163195000D01*
X107887500Y-173768750D02*
X104140000Y-170021250D01*
X105996047Y-89240843D02*
X106020697Y-89270879D01*
X106050733Y-89295529D01*
X106050736Y-89295532D01*
X106089780Y-89327574D01*
X106140594Y-89369276D01*
X106277383Y-89442392D01*
X106425809Y-89487416D01*
X106541493Y-89498810D01*
X106541501Y-89498810D01*
X106580166Y-89502618D01*
X106618831Y-89498810D01*
X107744427Y-89498810D01*
X107783090Y-89502618D01*
X107821753Y-89498810D01*
X107821763Y-89498810D01*
X107937447Y-89487416D01*
X108085873Y-89442392D01*
X108222662Y-89369276D01*
X108342559Y-89270879D01*
X108367217Y-89240833D01*
X108610979Y-88997072D01*
X108829250Y-88997072D01*
X108996408Y-88980608D01*
X109157142Y-88931850D01*
X109211928Y-88902566D01*
X109211928Y-89895000D01*
X109224188Y-90019482D01*
X109260498Y-90139180D01*
X109319463Y-90249494D01*
X109398815Y-90346185D01*
X109451693Y-90389581D01*
X109467599Y-90442015D01*
X109538355Y-90574392D01*
X109578271Y-90623029D01*
X109633579Y-90690422D01*
X109662649Y-90714279D01*
X109682717Y-90734347D01*
X109706579Y-90763423D01*
X109822609Y-90858646D01*
X109954986Y-90929403D01*
X110098623Y-90972975D01*
X110210575Y-90984001D01*
X110210577Y-90984001D01*
X110248000Y-90987687D01*
X110285423Y-90984001D01*
X113944949Y-90984001D01*
X113982372Y-90987687D01*
X114019795Y-90984001D01*
X114019798Y-90984001D01*
X114131750Y-90972975D01*
X114275387Y-90929403D01*
X114407764Y-90858646D01*
X114523794Y-90763423D01*
X114547656Y-90734347D01*
X117348000Y-87934003D01*
X117348000Y-90690463D01*
X117235997Y-90736856D01*
X116988681Y-90902107D01*
X116778357Y-91112431D01*
X116613106Y-91359747D01*
X116499279Y-91634549D01*
X116441250Y-91926278D01*
X116441250Y-91948000D01*
X105808750Y-91948000D01*
X105808750Y-91926278D01*
X105750721Y-91634549D01*
X105670550Y-91441000D01*
X106034749Y-91441000D01*
X106057463Y-91483494D01*
X106136815Y-91580185D01*
X106233506Y-91659537D01*
X106343820Y-91718502D01*
X106463518Y-91754812D01*
X106588000Y-91767072D01*
X107788000Y-91767072D01*
X107912482Y-91754812D01*
X108032180Y-91718502D01*
X108142494Y-91659537D01*
X108239185Y-91580185D01*
X108318537Y-91483494D01*
X108377502Y-91373180D01*
X108413812Y-91253482D01*
X108426072Y-91129000D01*
X108426072Y-90229000D01*
X108413812Y-90104518D01*
X108377502Y-89984820D01*
X108318537Y-89874506D01*
X108239185Y-89777815D01*
X108142494Y-89698463D01*
X108032180Y-89639498D01*
X107912482Y-89603188D01*
X107788000Y-89590928D01*
X106588000Y-89590928D01*
X106463518Y-89603188D01*
X106343820Y-89639498D01*
X106233506Y-89698463D01*
X106136815Y-89777815D01*
X106057463Y-89874506D01*
X106034749Y-89917000D01*
X104108250Y-89917000D01*
X104108250Y-87353045D01*
X105996047Y-89240843D01*
G04 #@! TA.AperFunction,Conductor*
D25*
G36*
X105996047Y-89240843D02*
G01*
X106020697Y-89270879D01*
X106050733Y-89295529D01*
X106050736Y-89295532D01*
X106089780Y-89327574D01*
X106140594Y-89369276D01*
X106277383Y-89442392D01*
X106425809Y-89487416D01*
X106541493Y-89498810D01*
X106541501Y-89498810D01*
X106580166Y-89502618D01*
X106618831Y-89498810D01*
X107744427Y-89498810D01*
X107783090Y-89502618D01*
X107821753Y-89498810D01*
X107821763Y-89498810D01*
X107937447Y-89487416D01*
X108085873Y-89442392D01*
X108222662Y-89369276D01*
X108342559Y-89270879D01*
X108367217Y-89240833D01*
X108610979Y-88997072D01*
X108829250Y-88997072D01*
X108996408Y-88980608D01*
X109157142Y-88931850D01*
X109211928Y-88902566D01*
X109211928Y-89895000D01*
X109224188Y-90019482D01*
X109260498Y-90139180D01*
X109319463Y-90249494D01*
X109398815Y-90346185D01*
X109451693Y-90389581D01*
X109467599Y-90442015D01*
X109538355Y-90574392D01*
X109578271Y-90623029D01*
X109633579Y-90690422D01*
X109662649Y-90714279D01*
X109682717Y-90734347D01*
X109706579Y-90763423D01*
X109822609Y-90858646D01*
X109954986Y-90929403D01*
X110098623Y-90972975D01*
X110210575Y-90984001D01*
X110210577Y-90984001D01*
X110248000Y-90987687D01*
X110285423Y-90984001D01*
X113944949Y-90984001D01*
X113982372Y-90987687D01*
X114019795Y-90984001D01*
X114019798Y-90984001D01*
X114131750Y-90972975D01*
X114275387Y-90929403D01*
X114407764Y-90858646D01*
X114523794Y-90763423D01*
X114547656Y-90734347D01*
X117348000Y-87934003D01*
X117348000Y-90690463D01*
X117235997Y-90736856D01*
X116988681Y-90902107D01*
X116778357Y-91112431D01*
X116613106Y-91359747D01*
X116499279Y-91634549D01*
X116441250Y-91926278D01*
X116441250Y-91948000D01*
X105808750Y-91948000D01*
X105808750Y-91926278D01*
X105750721Y-91634549D01*
X105670550Y-91441000D01*
X106034749Y-91441000D01*
X106057463Y-91483494D01*
X106136815Y-91580185D01*
X106233506Y-91659537D01*
X106343820Y-91718502D01*
X106463518Y-91754812D01*
X106588000Y-91767072D01*
X107788000Y-91767072D01*
X107912482Y-91754812D01*
X108032180Y-91718502D01*
X108142494Y-91659537D01*
X108239185Y-91580185D01*
X108318537Y-91483494D01*
X108377502Y-91373180D01*
X108413812Y-91253482D01*
X108426072Y-91129000D01*
X108426072Y-90229000D01*
X108413812Y-90104518D01*
X108377502Y-89984820D01*
X108318537Y-89874506D01*
X108239185Y-89777815D01*
X108142494Y-89698463D01*
X108032180Y-89639498D01*
X107912482Y-89603188D01*
X107788000Y-89590928D01*
X106588000Y-89590928D01*
X106463518Y-89603188D01*
X106343820Y-89639498D01*
X106233506Y-89698463D01*
X106136815Y-89777815D01*
X106057463Y-89874506D01*
X106034749Y-89917000D01*
X104108250Y-89917000D01*
X104108250Y-87353045D01*
X105996047Y-89240843D01*
G37*
G04 #@! TD.AperFunction*
D24*
X116601783Y-81653315D02*
X116670515Y-81674165D01*
X116671504Y-81674262D01*
X116672448Y-81674546D01*
X116743153Y-81681319D01*
X116778495Y-81684800D01*
X116779490Y-81684800D01*
X116816569Y-81688352D01*
X116851674Y-81684800D01*
X117348000Y-81684800D01*
X117348000Y-84647370D01*
X116262810Y-85732560D01*
X116128250Y-85598000D01*
X115341500Y-85598000D01*
X115341500Y-86422250D01*
X115457310Y-86538060D01*
X113392370Y-88603000D01*
X112993197Y-88603000D01*
X112989502Y-88590820D01*
X112930537Y-88480506D01*
X112851185Y-88383815D01*
X112754494Y-88304463D01*
X112680665Y-88265000D01*
X112754494Y-88225537D01*
X112851185Y-88146185D01*
X112930537Y-88049494D01*
X112989502Y-87939180D01*
X113025812Y-87819482D01*
X113038072Y-87695000D01*
X113038072Y-86635000D01*
X113025812Y-86510518D01*
X113015854Y-86477690D01*
X113092858Y-86518850D01*
X113253592Y-86567608D01*
X113420750Y-86584072D01*
X113858250Y-86584072D01*
X114025408Y-86567608D01*
X114186142Y-86518850D01*
X114334275Y-86439671D01*
X114355930Y-86421900D01*
X114422506Y-86476537D01*
X114532820Y-86535502D01*
X114652518Y-86571812D01*
X114777000Y-86584072D01*
X114928750Y-86581000D01*
X115087500Y-86422250D01*
X115087500Y-85598000D01*
X115067500Y-85598000D01*
X115067500Y-85344000D01*
X115087500Y-85344000D01*
X115087500Y-84519750D01*
X115341500Y-84519750D01*
X115341500Y-85344000D01*
X116128250Y-85344000D01*
X116287000Y-85185250D01*
X116290072Y-84996000D01*
X116277812Y-84871518D01*
X116241502Y-84751820D01*
X116182537Y-84641506D01*
X116103185Y-84544815D01*
X116006494Y-84465463D01*
X115896180Y-84406498D01*
X115776482Y-84370188D01*
X115652000Y-84357928D01*
X115500250Y-84361000D01*
X115341500Y-84519750D01*
X115087500Y-84519750D01*
X114952388Y-84384638D01*
X115004494Y-84356787D01*
X115101185Y-84277435D01*
X115180537Y-84180744D01*
X115239502Y-84070430D01*
X115275812Y-83950732D01*
X115284655Y-83860948D01*
X115445000Y-83876741D01*
X115667499Y-83854827D01*
X115881447Y-83789926D01*
X116078623Y-83684534D01*
X116251449Y-83542699D01*
X116393284Y-83369873D01*
X116498676Y-83172697D01*
X116563577Y-82958749D01*
X116580000Y-82792002D01*
X116580000Y-81646771D01*
X116601783Y-81653315D01*
G04 #@! TA.AperFunction,Conductor*
D25*
G36*
X116601783Y-81653315D02*
G01*
X116670515Y-81674165D01*
X116671504Y-81674262D01*
X116672448Y-81674546D01*
X116743153Y-81681319D01*
X116778495Y-81684800D01*
X116779490Y-81684800D01*
X116816569Y-81688352D01*
X116851674Y-81684800D01*
X117348000Y-81684800D01*
X117348000Y-84647370D01*
X116262810Y-85732560D01*
X116128250Y-85598000D01*
X115341500Y-85598000D01*
X115341500Y-86422250D01*
X115457310Y-86538060D01*
X113392370Y-88603000D01*
X112993197Y-88603000D01*
X112989502Y-88590820D01*
X112930537Y-88480506D01*
X112851185Y-88383815D01*
X112754494Y-88304463D01*
X112680665Y-88265000D01*
X112754494Y-88225537D01*
X112851185Y-88146185D01*
X112930537Y-88049494D01*
X112989502Y-87939180D01*
X113025812Y-87819482D01*
X113038072Y-87695000D01*
X113038072Y-86635000D01*
X113025812Y-86510518D01*
X113015854Y-86477690D01*
X113092858Y-86518850D01*
X113253592Y-86567608D01*
X113420750Y-86584072D01*
X113858250Y-86584072D01*
X114025408Y-86567608D01*
X114186142Y-86518850D01*
X114334275Y-86439671D01*
X114355930Y-86421900D01*
X114422506Y-86476537D01*
X114532820Y-86535502D01*
X114652518Y-86571812D01*
X114777000Y-86584072D01*
X114928750Y-86581000D01*
X115087500Y-86422250D01*
X115087500Y-85598000D01*
X115067500Y-85598000D01*
X115067500Y-85344000D01*
X115087500Y-85344000D01*
X115087500Y-84519750D01*
X115341500Y-84519750D01*
X115341500Y-85344000D01*
X116128250Y-85344000D01*
X116287000Y-85185250D01*
X116290072Y-84996000D01*
X116277812Y-84871518D01*
X116241502Y-84751820D01*
X116182537Y-84641506D01*
X116103185Y-84544815D01*
X116006494Y-84465463D01*
X115896180Y-84406498D01*
X115776482Y-84370188D01*
X115652000Y-84357928D01*
X115500250Y-84361000D01*
X115341500Y-84519750D01*
X115087500Y-84519750D01*
X114952388Y-84384638D01*
X115004494Y-84356787D01*
X115101185Y-84277435D01*
X115180537Y-84180744D01*
X115239502Y-84070430D01*
X115275812Y-83950732D01*
X115284655Y-83860948D01*
X115445000Y-83876741D01*
X115667499Y-83854827D01*
X115881447Y-83789926D01*
X116078623Y-83684534D01*
X116251449Y-83542699D01*
X116393284Y-83369873D01*
X116498676Y-83172697D01*
X116563577Y-82958749D01*
X116580000Y-82792002D01*
X116580000Y-81646771D01*
X116601783Y-81653315D01*
G37*
G04 #@! TD.AperFunction*
D24*
X107162500Y-87757000D02*
X107182500Y-87757000D01*
X107182500Y-87924010D01*
X106906318Y-87924010D01*
X106888500Y-87906192D01*
X106888500Y-87757000D01*
X106908500Y-87757000D01*
X106908500Y-87737000D01*
X107162500Y-87737000D01*
X107162500Y-87757000D01*
G04 #@! TA.AperFunction,Conductor*
D25*
G36*
X107162500Y-87757000D02*
G01*
X107182500Y-87757000D01*
X107182500Y-87924010D01*
X106906318Y-87924010D01*
X106888500Y-87906192D01*
X106888500Y-87757000D01*
X106908500Y-87757000D01*
X106908500Y-87737000D01*
X107162500Y-87737000D01*
X107162500Y-87757000D01*
G37*
G04 #@! TD.AperFunction*
D24*
X107182500Y-85598000D02*
X107162500Y-85598000D01*
X107162500Y-85618000D01*
X106908500Y-85618000D01*
X106908500Y-85598000D01*
X106121750Y-85598000D01*
X106083373Y-85636377D01*
X105952999Y-85506002D01*
X105952999Y-85435997D01*
X105958006Y-85430990D01*
X107182500Y-85430990D01*
X107182500Y-85598000D01*
G04 #@! TA.AperFunction,Conductor*
D25*
G36*
X107182500Y-85598000D02*
G01*
X107162500Y-85598000D01*
X107162500Y-85618000D01*
X106908500Y-85618000D01*
X106908500Y-85598000D01*
X106121750Y-85598000D01*
X106083373Y-85636377D01*
X105952999Y-85506002D01*
X105952999Y-85435997D01*
X105958006Y-85430990D01*
X107182500Y-85430990D01*
X107182500Y-85598000D01*
G37*
G04 #@! TD.AperFunction*
D24*
X105670000Y-82792002D02*
X105686423Y-82958749D01*
X105751324Y-83172697D01*
X105856717Y-83369873D01*
X105998552Y-83542699D01*
X106171378Y-83684534D01*
X106368554Y-83789926D01*
X106582502Y-83854827D01*
X106596341Y-83856190D01*
X105670519Y-83856190D01*
X105631856Y-83852382D01*
X105593193Y-83856190D01*
X105593183Y-83856190D01*
X105477499Y-83867584D01*
X105344313Y-83907985D01*
X105329073Y-83912608D01*
X105192283Y-83985724D01*
X105157183Y-84014531D01*
X105072387Y-84084121D01*
X105047728Y-84114168D01*
X104636177Y-84525719D01*
X104606130Y-84550378D01*
X104507733Y-84670276D01*
X104434617Y-84807065D01*
X104389593Y-84955491D01*
X104378199Y-85071175D01*
X104378199Y-85071184D01*
X104374391Y-85109847D01*
X104378199Y-85148510D01*
X104378199Y-85395893D01*
X104108250Y-85125944D01*
X104108250Y-83118309D01*
X104219102Y-83164226D01*
X104419061Y-83204000D01*
X104622939Y-83204000D01*
X104822898Y-83164226D01*
X105011256Y-83086205D01*
X105180774Y-82972937D01*
X105324937Y-82828774D01*
X105438205Y-82659256D01*
X105516226Y-82470898D01*
X105556000Y-82270939D01*
X105556000Y-82067061D01*
X105516226Y-81867102D01*
X105438623Y-81679754D01*
X105449676Y-81678656D01*
X105520678Y-81671701D01*
X105521176Y-81671550D01*
X105521701Y-81671498D01*
X105590824Y-81650463D01*
X105659248Y-81629747D01*
X105659708Y-81629501D01*
X105660212Y-81629348D01*
X105670000Y-81624105D01*
X105670000Y-82792002D01*
G04 #@! TA.AperFunction,Conductor*
D25*
G36*
X105670000Y-82792002D02*
G01*
X105686423Y-82958749D01*
X105751324Y-83172697D01*
X105856717Y-83369873D01*
X105998552Y-83542699D01*
X106171378Y-83684534D01*
X106368554Y-83789926D01*
X106582502Y-83854827D01*
X106596341Y-83856190D01*
X105670519Y-83856190D01*
X105631856Y-83852382D01*
X105593193Y-83856190D01*
X105593183Y-83856190D01*
X105477499Y-83867584D01*
X105344313Y-83907985D01*
X105329073Y-83912608D01*
X105192283Y-83985724D01*
X105157183Y-84014531D01*
X105072387Y-84084121D01*
X105047728Y-84114168D01*
X104636177Y-84525719D01*
X104606130Y-84550378D01*
X104507733Y-84670276D01*
X104434617Y-84807065D01*
X104389593Y-84955491D01*
X104378199Y-85071175D01*
X104378199Y-85071184D01*
X104374391Y-85109847D01*
X104378199Y-85148510D01*
X104378199Y-85395893D01*
X104108250Y-85125944D01*
X104108250Y-83118309D01*
X104219102Y-83164226D01*
X104419061Y-83204000D01*
X104622939Y-83204000D01*
X104822898Y-83164226D01*
X105011256Y-83086205D01*
X105180774Y-82972937D01*
X105324937Y-82828774D01*
X105438205Y-82659256D01*
X105516226Y-82470898D01*
X105556000Y-82270939D01*
X105556000Y-82067061D01*
X105516226Y-81867102D01*
X105438623Y-81679754D01*
X105449676Y-81678656D01*
X105520678Y-81671701D01*
X105521176Y-81671550D01*
X105521701Y-81671498D01*
X105590824Y-81650463D01*
X105659248Y-81629747D01*
X105659708Y-81629501D01*
X105660212Y-81629348D01*
X105670000Y-81624105D01*
X105670000Y-82792002D01*
G37*
G04 #@! TD.AperFunction*
M02*
